<svg xmlns="http://www.w3.org/2000/svg" viewBox="0 0 60.09 27.4"><defs><style>.cls-1{fill:#fff;}</style></defs><g id="Calque_2" data-name="Calque 2"><g id="Project_management" data-name="Project management"><rect class="cls-1" width="60.09" height="27.4" rx="13.7"/><path d="M45.2,26.15H14.88C7.61,26.15,1.7,20.57,1.7,13.7S7.61,1.26,14.88,1.26H45.2c7.27,0,13.18,5.58,13.18,12.44S52.47,26.15,45.2,26.15Zm-30.32-24C8.13,2.13,2.63,7.32,2.63,13.7s5.5,11.57,12.25,11.57H45.2c6.76,0,12.26-5.19,12.26-11.57S52,2.13,45.2,2.13Z"/><path d="M21.12,9.22a2.11,2.11,0,0,1-.3,1.11,1.72,1.72,0,0,1-1,.76,1.63,1.63,0,0,1-.55.09,1.39,1.39,0,0,1-.89-.3v1.75h-1V7.89h.19a.5.5,0,0,0,.8.07,1.64,1.64,0,0,1,1-.55h.15a1.4,1.4,0,0,1,1.06.47A2,2,0,0,1,21.12,9.22Zm-1.05.07c0-1.18-.32-1.61-.83-1.61a.79.79,0,0,0-.41.11h0a1.34,1.34,0,0,0-.4.34v2.24a.85.85,0,0,0,.77.7.7.7,0,0,0,.64-.46A2.91,2.91,0,0,0,20.07,9.29Z"/><path d="M24.14,7.48v.86h0a.73.73,0,0,0-.57-.27.63.63,0,0,0-.36.1.72.72,0,0,0-.27.25h0a.79.79,0,0,0-.12.3l0,.06v2.31h-1V7.48h.07a1,1,0,0,1,.61.29,1,1,0,0,1,.28.64v.16h0c.17-.66.55-1.05,1.06-1.08h.33Z"/><path d="M26.71,11.1a1.78,1.78,0,0,1-2.37-1.21,1.85,1.85,0,0,1,1.29-2.41A1.79,1.79,0,0,1,28,8.69,1.86,1.86,0,0,1,26.71,11.1Zm.31-2c-.33-1-.85-1.64-1.4-1.47s-.62.93-.29,2,.84,1.63,1.38,1.46S27.34,10.07,27,9.05Z"/><path d="M29.45,7.77a1,1,0,0,1,.29.7V11.1c-.07,1-1.08,1.43-1.8,1.53l0-.08c.53-.13.84-.69.85-1.45V7.48A1,1,0,0,1,29.45,7.77Zm-.7-1.34a.5.5,0,1,1,.5.5A.5.5,0,0,1,28.75,6.43Z"/><path d="M31.64,9.78a.49.49,0,0,0,0,.27.29.29,0,0,0,0,.09l0,0h0a1,1,0,0,0,.9.6,1.32,1.32,0,0,0,1.07-.6l.08,0a1.84,1.84,0,0,1-1.58,1,1.71,1.71,0,0,1-1.73-1.84,1.84,1.84,0,0,1,1.43-1.89,2.31,2.31,0,0,1,.46,0h0a1.58,1.58,0,0,1,.68.12l.17.08c.64.34.88.89.61,1.4-.38.73-1.46.45-2,.59h0a.35.35,0,0,0-.16.09l0,0a.43.43,0,0,0,0,.07Zm.25-.46,0,0h0c.36-.13.8-.22,1-.64a.83.83,0,0,0,.09-.28c.09-.73-.43-.84-.6-.86h-.07a.67.67,0,0,0-.28.06c-.39.17-.63.72-.63,1.54a2.82,2.82,0,0,0,0,.52.28.28,0,0,0,0,.09.31.31,0,0,0,0,.08A.51.51,0,0,1,31.89,9.32Z"/><path d="M37.71,10.22a1.85,1.85,0,0,1-1.59,1,1.71,1.71,0,0,1-1.73-1.84A1.85,1.85,0,0,1,36.28,7.4,1.78,1.78,0,0,1,37.67,8l-.56.5c-.28-.46-.32-1-.74-1s-.92.6-.92,1.6.45,1.68,1.11,1.68a1.33,1.33,0,0,0,1.07-.6Z"/><path d="M40.51,10.79a1.76,1.76,0,0,1-1.09.39.86.86,0,0,1-1-1V7.63H38V7.49h.45v-1h.07a1,1,0,0,1,.62.28,1,1,0,0,1,.29.65v0h0v0h1v.64h0c-.41-.34-.58-.52-.88-.52h-.08v2.64c0,.17,0,.62.47.62a1.17,1.17,0,0,0,.55-.17Z"/><path d="M14.1,17.07v2.42h-1V17c0-.25,0-.88-.63-.88a1.07,1.07,0,0,0-.78.38v.35c0,.08,0,.16,0,.24v2.42h-1V16.71c0-.28-.17-.61-.62-.61a1.1,1.1,0,0,0-.78.38v3h-1v-3.2h.19a.51.51,0,0,0,.8.07,1.6,1.6,0,0,1,1.22-.57,1,1,0,0,1,1.07.64l.1-.07a1.58,1.58,0,0,1,1.21-.57C13.67,15.79,14.1,16.19,14.1,17.07Z"/><path d="M18.52,19.3v0a1.54,1.54,0,0,1-.76.21.61.61,0,0,1-.63-.35,2,2,0,0,1-1.19.38c-.86,0-1.41-.45-1.41-1.13,0-1.16,1.85-1.37,1.85-1.95a.24.24,0,0,0-.18-.24h-.32a.9.9,0,0,0-.37.14l-.13-.18a1.5,1.5,0,0,1,1.29-.42,1.68,1.68,0,0,1,1.41,1.73h0v1.28c0,.33,0,.52.31.52ZM17.08,19h0V17.36h0c0-.88-.05-1.42-.51-1.49-.19,0-.31.1-.42.28.24,0,.44.16.44.42,0,.58-1,.92-1,1.79a.8.8,0,0,0,.87.84A1.28,1.28,0,0,0,17.08,19Z"/><path d="M22.41,17.07v2.42h-1V17c0-.25,0-.88-.63-.88a1.07,1.07,0,0,0-.78.38v3H19v-3.2h.19a.51.51,0,0,0,.8.07,1.58,1.58,0,0,1,1.21-.57C22,15.79,22.41,16.19,22.41,17.07Z"/><path d="M26.83,19.3v0a1.54,1.54,0,0,1-.76.21.61.61,0,0,1-.63-.35,2,2,0,0,1-1.19.38c-.86,0-1.41-.45-1.41-1.13,0-1.16,1.85-1.37,1.85-1.95a.24.24,0,0,0-.18-.24h-.32a.9.9,0,0,0-.37.14l-.13-.18A1.5,1.5,0,0,1,25,15.78a1.68,1.68,0,0,1,1.41,1.73h0v1.28c0,.33,0,.52.31.52ZM25.39,19h0V17.36h0c0-.88,0-1.42-.51-1.49-.19,0-.31.1-.42.28.24,0,.43.16.43.42,0,.58-1,.92-1,1.79a.8.8,0,0,0,.87.84A1.28,1.28,0,0,0,25.39,19Z"/><path d="M30.36,16.14a.56.56,0,0,0-.3.07A1.15,1.15,0,0,1,29.93,18a.44.44,0,0,1,.16.62c-.32.48-1.34.22-1.82.93a.81.81,0,0,0,.26,1.19,1.25,1.25,0,0,0,.75.21h.13c.4-.06,1-.32.52-1.46h.76a1.55,1.55,0,0,1-1.44,1.61h-.17a2,2,0,0,1-1.21-.34c-.71-.48-.92-1.16-.54-1.72.65-1,2.3-.12,2.62-.6a.27.27,0,0,0-.11-.38,2,2,0,0,1-1,.25,2.07,2.07,0,0,1-.73-.12L28,18.16a1.16,1.16,0,0,1-.74-1.08c0-.76.7-1.27,1.62-1.27a1.88,1.88,0,0,1,1.09.32,1,1,0,0,1,.93-.56l-.09.69A1,1,0,0,0,30.36,16.14Zm-.82.95c0-.71-.24-1.18-.69-1.18s-.68.45-.68,1.16.24,1.16.69,1.16S29.54,17.79,29.54,17.09Z"/><path d="M32.28,18.18a.49.49,0,0,0,0,.27.16.16,0,0,0,0,.09v0h0a1,1,0,0,0,.9.6,1.31,1.31,0,0,0,1.07-.6l.08,0a1.82,1.82,0,0,1-1.58,1,1.71,1.71,0,0,1-1.73-1.84,1.84,1.84,0,0,1,1.43-1.89,2.31,2.31,0,0,1,.46,0h0a1.62,1.62,0,0,1,.69.12l.16.08c.64.34.88.89.61,1.4-.38.73-1.46.45-1.94.59h0a.42.42,0,0,0-.16.09s0,0,0,0a.43.43,0,0,0,0,.07Zm.25-.46,0,0h0a1.57,1.57,0,0,0,1-.64.83.83,0,0,0,.09-.28c.09-.73-.43-.85-.6-.86H33a.64.64,0,0,0-.28.06c-.4.17-.64.72-.64,1.54a2.82,2.82,0,0,0,0,.52s0,.06,0,.09,0,.05,0,.08A.51.51,0,0,1,32.53,17.72Z"/><path d="M41,17.07v2.42H40V17c0-.25,0-.88-.63-.88a1.09,1.09,0,0,0-.78.38v.35a1.93,1.93,0,0,1,0,.24v2.42h-1V16.71c0-.28-.16-.61-.62-.61a1.1,1.1,0,0,0-.78.38v3h-1v-3.2h.19a.51.51,0,0,0,.8.07,1.6,1.6,0,0,1,1.22-.57,1,1,0,0,1,1.08.64l.09-.07a1.58,1.58,0,0,1,1.22-.57C40.52,15.79,41,16.19,41,17.07Z"/><path d="M42.8,18.18a.49.49,0,0,0,0,.27.32.32,0,0,0,0,.09s0,0,0,0h0a1,1,0,0,0,.9.6,1.31,1.31,0,0,0,1.07-.6l.08,0a1.82,1.82,0,0,1-1.58,1,1.71,1.71,0,0,1-1.73-1.84A1.84,1.84,0,0,1,43,15.85a2.31,2.31,0,0,1,.46,0h0a1.62,1.62,0,0,1,.69.12l.16.08c.64.34.88.89.61,1.4-.38.73-1.46.45-1.94.59h0a.42.42,0,0,0-.16.09s0,0,0,0a.15.15,0,0,0,0,.07Zm.25-.46,0,0h0a1.57,1.57,0,0,0,1-.64.83.83,0,0,0,.09-.28c.09-.73-.43-.85-.6-.86h-.06a.64.64,0,0,0-.28.06c-.4.17-.64.72-.64,1.54a2.82,2.82,0,0,0,0,.52s0,.06,0,.09,0,.05,0,.08A.51.51,0,0,1,43.05,17.72Z"/><path d="M49.08,17.07v2.42h-1V17c0-.25,0-.88-.64-.88a1.1,1.1,0,0,0-.78.38v3h-1v-3.2h.19a.51.51,0,0,0,.8.07,1.6,1.6,0,0,1,1.22-.57C48.65,15.79,49.08,16.19,49.08,17.07Z"/><path d="M52,19.19a1.79,1.79,0,0,1-1.09.39.86.86,0,0,1-1-1V16H49.5v-.14h.44v-1H50a1,1,0,0,1,.62.28,1,1,0,0,1,.28.65v0h0v0h1v.64h0c-.41-.34-.58-.52-.89-.52h-.07v2.64c0,.17,0,.62.47.62a1.11,1.11,0,0,0,.54-.17Z"/></g></g></svg>