<svg xmlns="http://www.w3.org/2000/svg" viewBox="0 0 258.05 236.27"><defs><style>.cls-1{fill:#fff;}.cls-2{fill:#edebea;}</style></defs><g id="Calque_2" data-name="Calque 2"><g id="Etiquette_3" data-name="Etiquette 3"><rect id="Rectangle" class="cls-1" x="13.09" y="50.46" width="231.88" height="135.35" rx="11.6" transform="translate(93.55 -53.17) rotate(35.82)"/><path d="M36.81,115.81l-2.87,4L32,118.39l0-3.58-1.7,2.35-1.47-1.07,2.87-4,1.93,1.4,0,3.58,1.69-2.34Z"/><path d="M38.16,121.74l-1.7-1.22-.78.52-1.63-1.17,4.52-2.79,2.19,1.58-1.22,5.17-1.63-1.18Zm.35-1.3.42-1.55-1.34.89Z"/><path d="M45.54,124l-1.71-1.23-2,2.73-1.47-1.07,2-2.73-1.7-1.22.9-1.25,4.89,3.52Z"/><path d="M45.21,127.92l-1.48-1.06,2.87-4L48.08,124Z"/><path d="M46.76,126c1-1.38,2.22-1.5,4-.23s2,2.46,1,3.84-2.24,1.5-4,.24S45.76,127.4,46.76,126Zm3.52,2.54c.3-.41.43-.89-.45-1.52s-1.29-.37-1.59,0-.43.91.44,1.53S50,129,50.28,128.55Z"/><path d="M58.48,131.45l-2.87,4L53.68,134l0-3.58L52,132.8l-1.47-1.07,2.87-4,1.93,1.39,0,3.58L57,130.39Z"/><path d="M59.83,137.38l-1.69-1.22-.79.52-1.63-1.17,4.52-2.79,2.19,1.59-1.22,5.16-1.63-1.17Zm.35-1.3.42-1.54-1.34.88Z"/><path d="M66.31,141.25l-.9,1.25-4.09-2.95,2.87-4,1.47,1.07-2,2.72Z"/><path d="M70.88,145.11c-.36.51-1.08.66-1.89.08a3.54,3.54,0,0,1-.93-1l.58-.45c.33.33,0,1.12.49,1.45s.78.26,1,0,0-.69-.24-1.07l-.16-.25c-.23-.36-.63-1-.22-1.56a1.23,1.23,0,0,1,1.81-.08,3,3,0,0,1,.81.9l-.6.48c-.14-.26.07-1.06-.35-1.37s-.72-.21-.89,0,0,.7.25,1.07l.17.24A1.34,1.34,0,0,1,70.88,145.11Z"/><path d="M72.76,147.43a1.91,1.91,0,0,1-1.11-.32.86.86,0,0,1-.22-1.35l1.51-2.1-.36-.26.09-.12.35.25h0l.57-.78h0l.06,0a1,1,0,0,1,.33.6,1,1,0,0,1-.14.69s0,0,0,0h0l.78.56-.37.53h0c-.13-.51-.16-.76-.41-.93l-.06-.05-1.54,2.14c-.1.14-.37.5,0,.78a1.21,1.21,0,0,0,.54.18Z"/><path d="M77.3,147.84,75.76,150l-.66-.48.16-.52h0a1.54,1.54,0,0,1-1.33-.22,1.62,1.62,0,0,1-.37-.37,1.13,1.13,0,0,1,.16-1.36l1.41-2h0l.06.05a1,1,0,0,1,.34.59,1,1,0,0,1-.15.69s0,0,0,0v0l-.16.21-.73,1c-.15.21-.52.72,0,1.08a1.09,1.09,0,0,0,.88.1h0l1.73-2.39,0,0a.92.92,0,0,1,.34.59.94.94,0,0,1-.14.69v0Z"/><path d="M79.21,152.46l-.81-.58.3-.39a1.56,1.56,0,0,1-1.28-.22,1.65,1.65,0,0,1-.19-2.38,1.83,1.83,0,0,1,2.61-.53,1.39,1.39,0,0,1,.55.76h0l1-1.43a1,1,0,0,1,.41.71,1,1,0,0,1-.19.67l-1.53,2.13-.25.34C79.67,151.8,79.39,152.22,79.21,152.46Zm.89-2.93v0a.83.83,0,0,0-.22-1c-.46-.34-1.1,0-1.76.92s-.66,1.49-.24,1.79a1,1,0,0,0,.9.12Z"/><path d="M81.42,152.44a.45.45,0,0,0-.15.21.36.36,0,0,1,0,.09v0h0a1,1,0,0,0,.38,1,1.37,1.37,0,0,0,1.23.14l0,.08a1.83,1.83,0,0,1-1.84-.15,1.72,1.72,0,0,1-.33-2.51,1.85,1.85,0,0,1,2.27-.69,1.8,1.8,0,0,1,.4.23l0,0a1.92,1.92,0,0,1,.48.5l.09.16c.32.65.19,1.24-.33,1.49-.73.37-1.45-.49-1.92-.66h0a.43.43,0,0,0-.19,0h0l-.07,0Zm.48-.24H82a1.6,1.6,0,0,0,1.2.08.76.76,0,0,0,.24-.18.68.68,0,0,0,0-1.05h0l0,0h0a.68.68,0,0,0-.26-.12c-.42-.1-.93.21-1.42.88a3.08,3.08,0,0,0-.27.44l0,.08,0,.08A.51.51,0,0,1,81.9,152.2Z"/><path d="M87.17,155.22l-1.42,1.95-.8-.57,1.47-2c.15-.2.51-.72,0-1.08a1,1,0,0,0-.85-.15l-1.76,2.44-.8-.58,1.87-2.6.15.11a.51.51,0,0,0,.61.53,1.6,1.6,0,0,1,1.32.25A1.11,1.11,0,0,1,87.17,155.22Z"/><path d="M88.29,158.64a1.85,1.85,0,0,1-1.11-.33A.86.86,0,0,1,87,157l1.52-2.1-.36-.26.09-.12.35.25h0l.57-.78h0l.06,0a1,1,0,0,1,.33.6,1,1,0,0,1-.14.69l0,0h0l.78.56-.37.53h0c-.13-.51-.16-.76-.41-.94l-.06,0-1.54,2.14c-.1.13-.37.5,0,.78a1.21,1.21,0,0,0,.54.18Z"/><path d="M93.81,158.68l-.27.37,2.73,2-.7,1-2.72-2-.27.36,2.72,2-.82,1.14-4.2-3,2.87-4,4.2,3-.82,1.14Z"/><path d="M102.64,163.33l-2.87,4-1.93-1.4,0-3.58-1.69,2.34-1.48-1.06,2.87-4,1.93,1.4,0,3.58,1.7-2.34Z"/><path d="M106.79,168.23l-1.7-1.23-2,2.72-1.47-1.06,2-2.73-1.7-1.23.9-1.25L107.7,167Z"/><path d="M109.76,172.78l-.12,1.65-1.75-1.27.12-1.33-.87-.62-.67.93L105,171.07l2.87-4,3.13,2.25a1.8,1.8,0,0,1,.42,2.62A1.82,1.82,0,0,1,109.76,172.78ZM108,170l1.37,1c.15.11.33.24.52,0s0-.41-.13-.51l-1.36-1Z"/><path d="M113.33,172.77l-.26.37,2.72,2-.69,1-2.73-2-.27.37,2.73,2-.82,1.14-4.2-3,2.87-4,4.2,3-.82,1.13Z"/><path d="M120.59,178.6A1.8,1.8,0,0,1,118,179l-1.64-1.19-.68.93-1.47-1.07,2.87-4,3.12,2.25A1.8,1.8,0,0,1,120.59,178.6Zm-1.47-1.07c.19-.27,0-.4-.14-.5l-1.36-1-.39.55,1.36,1C118.74,177.68,118.92,177.81,119.12,177.53Z"/><path d="M123.76,182.88l-.13,1.65-1.74-1.26.12-1.33-.87-.63-.67.93L119,181.18l2.87-4,3.12,2.25a1.9,1.9,0,0,1-1.22,3.43ZM122,180.06l1.36,1c.15.11.33.24.53,0s0-.4-.13-.51l-1.37-1Z"/><path d="M127.33,182.87l-.27.37,2.73,2-.7,1-2.72-2-.27.37,2.72,2-.82,1.13-4.2-3,2.87-4,4.2,3-.82,1.13Z"/><path d="M136.16,187.53l-2.87,4-1.93-1.39,0-3.59-1.69,2.35-1.48-1.07,2.87-4,1.93,1.39,0,3.59,1.7-2.35Z"/><path d="M137,189.89l-.26.37,2.72,2-.69,1-2.73-2-.27.37,2.73,2-.82,1.14-4.2-3,2.87-4,4.2,3-.82,1.14Z"/><path d="M140.35,196.68c-1.75-1.27-2-2.47-1-3.86l1.43-2,1.47,1.07-1.43,2c-.3.43-.42.91.45,1.54s1.3.35,1.6-.07l1.43-2,1.48,1.07-1.43,2C143.33,197.81,142.09,197.94,140.35,196.68Z"/><path d="M147.88,200.29l-.12,1.65L146,200.68l.12-1.33-.87-.63-.67.93-1.48-1.06,2.87-4,3.12,2.26a1.79,1.79,0,0,1,.43,2.62A1.81,1.81,0,0,1,147.88,200.29Zm-1.72-2.82,1.36,1c.15.11.33.24.53,0s0-.4-.13-.51l-1.36-1Z"/><path d="M153.23,204.56c-.36.5-1.08.65-1.89.07a3.54,3.54,0,0,1-.93-1l.58-.45c.33.33,0,1.12.49,1.45s.78.26,1,0,0-.69-.24-1.07l-.16-.25c-.23-.36-.63-1-.22-1.56a1.23,1.23,0,0,1,1.81-.08,3,3,0,0,1,.81.9l-.6.48c-.14-.26.08-1.06-.35-1.37s-.72-.21-.89,0,0,.7.25,1.07l.17.24A1.35,1.35,0,0,1,153.23,204.56Z"/><path d="M155.11,206.87a1.91,1.91,0,0,1-1.11-.32.86.86,0,0,1-.22-1.35l1.51-2.1-.36-.26.09-.12.35.25h0l.57-.78h0l.06,0a1,1,0,0,1,.33.6,1,1,0,0,1-.14.69l0,0h0l.78.56-.37.53h0c-.13-.51-.16-.76-.41-.94l-.06,0-1.54,2.14c-.1.13-.37.5,0,.78a1.21,1.21,0,0,0,.54.18Z"/><path d="M158.46,209.41l0,0a1.32,1.32,0,0,1-.73-.26.65.65,0,0,1-.32-.66,2,2,0,0,1-1.18-.39c-.69-.5-.88-1.19-.48-1.74.68-.94,2.3,0,2.64-.5a.23.23,0,0,0,0-.3h0a.1.1,0,0,0,0-.05h0a.7.7,0,0,0-.18-.13.85.85,0,0,0-.38-.1v-.22a1.47,1.47,0,0,1,1.29.41,1.68,1.68,0,0,1,.14,2.22h0l-.76,1c-.2.26-.31.41,0,.6A.52.52,0,0,0,158.46,209.41Zm-1-1h0l1-1.36,0,0,0,0c.51-.71.8-1.18.46-1.5-.14-.13-.31-.1-.5,0a.43.43,0,0,1,.11.59c-.35.48-1.35.17-1.86.87a.8.8,0,0,0,.22,1.2A1.16,1.16,0,0,0,157.44,208.36Z"/><path d="M160.55,210.79a1.77,1.77,0,0,1-1.11-.32.86.86,0,0,1-.23-1.34l1.52-2.1-.36-.27.08-.11.36.25h0l.56-.78h0l.07,0a1,1,0,0,1,.33.59,1,1,0,0,1-.14.69l0,0h0v0l.78.56-.37.53h0c-.13-.52-.16-.76-.41-.94l-.06,0L160,209.73c-.09.14-.36.51,0,.78a1,1,0,0,0,.54.18Z"/><path d="M165.09,211.2l-1.54,2.14-.67-.48.17-.52h0a1.53,1.53,0,0,1-1.32-.22,1.47,1.47,0,0,1-.37-.38,1.12,1.12,0,0,1,.16-1.36l1.41-2h0l.06.05a1,1,0,0,1,.2,1.29l0,0v0L163,210l-.73,1c-.15.21-.52.72,0,1.09a1.09,1.09,0,0,0,.88.1h0l1.73-2.4.06.05a1,1,0,0,1,.34.6,1,1,0,0,1-.14.69l0,0Z"/><path d="M167,214.45c-.37.51-1.09.66-1.9.07a3.41,3.41,0,0,1-.93-1l.58-.45c.33.32,0,1.12.49,1.45s.78.26,1,0,0-.69-.24-1.07l-.17-.26c-.23-.35-.63-1-.21-1.55s1.05-.62,1.8-.08a3,3,0,0,1,.81.9l-.59.48c-.15-.26.07-1.06-.36-1.37s-.71-.21-.89,0,0,.7.25,1.06l.17.25A1.36,1.36,0,0,1,167,214.45Z"/><g id="Personnages"><polygon points="98.87 44.57 162.25 92.36 163.07 91.25 100.2 42.82 98.87 44.57"/><path d="M162.36,93.07,98.17,44.66l1.94-2.55,63.66,49.05ZM99.57,44.47l62.58,47.19.23-.31L100.3,43.52Z"/><path d="M82.93,104.84,69.79,116.61s-10.74-14.91-19-7.93l-4.94,4.85,24.58,17.59,20.66-20.29Z"/><path d="M95.36,114.25,78.2,136.08l23.7,16.44s10-16.38-5.66-21.42l7.1-11.13Z"/><polygon class="cls-1" points="98.87 44.57 63.16 90.03 128.74 138.32 162.25 92.36 98.87 44.57"/><path d="M128.84,139,62.45,90.13,98.78,43.87,163,92.26Zm-65-49.09,64.76,47.69,32.93-45.16L99,45.26Z"/><rect x="99.52" y="101.97" width="56.74" height="1" transform="translate(-30.79 143.43) rotate(-53.17)"/><rect x="102.86" y="104.46" width="56.74" height="1" transform="translate(-31.45 147.1) rotate(-53.17)"/><rect x="106.1" y="106.89" width="56.74" height="1" transform="translate(-32.09 150.66) rotate(-53.17)"/><rect x="109.93" y="109.17" width="56.74" height="1" transform="translate(-32.38 154.64) rotate(-53.17)"/><rect x="112.96" y="112.25" width="56.74" height="1" transform="translate(-33.63 158.3) rotate(-53.17)"/><rect x="103.5" y="114.61" width="19.1" height="1" transform="translate(-46.85 136.61) rotate(-53.17)"/><rect x="100.33" y="112.24" width="19.1" height="1" transform="translate(-46.23 133.12) rotate(-53.17)"/><rect x="97.24" y="109.93" width="19.1" height="1" transform="translate(-45.62 129.72) rotate(-53.17)"/><rect x="94.07" y="107.56" width="19.1" height="1" transform="translate(-44.99 126.24) rotate(-53.17)"/><rect x="91.14" y="105.38" width="19.1" height="1" transform="translate(-44.41 123.02) rotate(-53.17)"/><rect x="87.97" y="103.01" width="19.1" height="1" transform="translate(-43.78 119.53) rotate(-53.17)"/><rect x="85.06" y="100.83" width="19.1" height="1" transform="translate(-43.21 116.33) rotate(-53.17)"/><rect x="81.89" y="98.46" width="19.1" height="1" transform="translate(-42.58 112.84) rotate(-53.17)"/><rect x="78.93" y="96.25" width="19.1" height="1" transform="translate(-42 109.59) rotate(-53.17)"/><rect x="75.76" y="93.88" width="19.1" height="1" transform="translate(-41.37 106.1) rotate(-53.17)"/><rect x="72.66" y="91.56" width="19.1" height="1" transform="translate(-40.76 102.69) rotate(-53.17)"/><rect x="69.49" y="89.19" width="19.1" height="1" transform="translate(-40.13 99.2) rotate(-53.17)"/><rect x="66.42" y="86.9" width="19.1" height="1" transform="translate(-39.52 95.83) rotate(-53.17)"/><rect x="63.25" y="84.53" width="19.1" height="1" transform="translate(-38.9 92.34) rotate(-53.17)"/><ellipse class="cls-1" cx="75.8" cy="72.18" rx="4.99" ry="8.34" transform="translate(-27.93 86.14) rotate(-51.26)"/><path d="M79.16,79.19a7.57,7.57,0,0,1-1-.07,12.28,12.28,0,0,1-5.76-2.66c-3.86-3.1-5.38-7.41-3.46-9.81a4.76,4.76,0,0,1,4.58-1.41,12.16,12.16,0,0,1,5.76,2.65c3.86,3.11,5.38,7.42,3.46,9.82A4.35,4.35,0,0,1,79.16,79.19Zm-6.72-13a3.4,3.4,0,0,0-2.76,1.11C68.13,69.2,69.62,73,73,75.68a11.17,11.17,0,0,0,5.27,2.45,3.84,3.84,0,0,0,3.66-1c1.55-1.93.06-5.7-3.31-8.41a11.24,11.24,0,0,0-5.27-2.44A7.09,7.09,0,0,0,72.44,66.16Z"/><ellipse class="cls-1" cx="69.59" cy="80.46" rx="5.71" ry="7.36" transform="translate(-35.62 96.22) rotate(-57.66)"/><path d="M71.14,87.18a9.19,9.19,0,0,1-4.87-1.47,9,9,0,0,1-3.71-4.45,5.61,5.61,0,0,1,.39-5c1.83-2.9,6.3-3.36,10-1.05s5.15,6.56,3.32,9.45h0A5.83,5.83,0,0,1,71.14,87.18ZM68,74.73a4.83,4.83,0,0,0-4.23,2.06,4.63,4.63,0,0,0-.3,4.13,8,8,0,0,0,3.3,3.94c3.2,2,7,1.7,8.58-.73s.19-6-3-8.07A8.25,8.25,0,0,0,68,74.73Z"/><ellipse class="cls-1" cx="64.97" cy="89.74" rx="5.71" ry="6.93" transform="translate(-42.39 117.1) rotate(-68.39)"/><path d="M65.86,96.14a8.69,8.69,0,0,1-3.18-.62,8.22,8.22,0,0,1-4.19-3.59,5.54,5.54,0,0,1,3.26-8.22,8.47,8.47,0,0,1,9.7,3.84,5.71,5.71,0,0,1,.42,4.93h0a5.72,5.72,0,0,1-3.68,3.3A7.57,7.57,0,0,1,65.86,96.14ZM64.08,84.35a6.51,6.51,0,0,0-2,.31,4.53,4.53,0,0,0-2.69,6.79,7.48,7.48,0,0,0,8.51,3.37,4.71,4.71,0,0,0,3.06-2.71h0A4.71,4.71,0,0,0,70.57,88a7.2,7.2,0,0,0-3.68-3.14A7.74,7.74,0,0,0,64.08,84.35Z"/><path class="cls-1" d="M90.86,54.38,79.69,67.82s-4.82-5.69,1.22-12.3S90.86,54.38,90.86,54.38Z"/><path d="M79.7,68.6l-.39-.46c0-.06-5-6.1,1.23-13,2.19-2.4,4.38-3.54,6.51-3.42a6,6,0,0,1,4.22,2.32l.22.32Zm7-15.84c-1.74,0-3.57,1-5.45,3.1C76.54,61,78.76,65.55,79.72,67L90.21,54.38A5,5,0,0,0,87,52.76Z"/><path d="M109.46,100.5,87.57,84.18s-6.36,9,4.46,17S109.46,100.5,109.46,100.5Z"/><path class="cls-2" d="M99.18,101.35a1.19,1.19,0,0,0,.73-1.89c-1.49-2.6-6.82-5.95-7.78-2.61C91.3,99.74,96.43,101.94,99.18,101.35Z"/><path d="M98.48,82.7a6.9,6.9,0,0,1-4.18-1.32c-2-1.51-3-4.11-2.82-7.32a19.42,19.42,0,0,1,11.73-15.69c3-1.1,5.79-.88,7.81.63s3,4.1,2.82,7.31a18.13,18.13,0,0,1-3.74,9.44h0a18.1,18.1,0,0,1-8,6.25A10.49,10.49,0,0,1,98.48,82.7Zm8.35-24a9.54,9.54,0,0,0-3.27.63A18.41,18.41,0,0,0,92.48,74.13c-.18,2.85.67,5.14,2.41,6.44s4.18,1.48,6.87.5a17.25,17.25,0,0,0,7.54-5.92h0a17.2,17.2,0,0,0,3.54-8.91c.18-2.85-.68-5.14-2.42-6.44A5.84,5.84,0,0,0,106.83,58.68Z"/><path d="M114.34,94.54a6.84,6.84,0,0,1-4.19-1.32c-4.1-3.06-3.69-10.57.92-16.74a18.05,18.05,0,0,1,8-6.26c3-1.11,5.79-.89,7.81.63s3,4.1,2.82,7.31A18.09,18.09,0,0,1,126,87.59h0a18.05,18.05,0,0,1-8,6.26A10.37,10.37,0,0,1,114.34,94.54Zm8.34-24a9.35,9.35,0,0,0-3.27.63,17.15,17.15,0,0,0-7.54,5.91c-4.28,5.73-4.78,12.62-1.12,15.35,1.74,1.31,4.18,1.48,6.86.49A17.05,17.05,0,0,0,125.15,87h0a17.05,17.05,0,0,0,3.54-8.9c.18-2.85-.67-5.14-2.41-6.44A5.89,5.89,0,0,0,122.68,70.53Z"/><path d="M108,65.85l-2.14,4.46-1.37-4.61s-7.77,5.88-5,13.38,11.5-5.46,11.5-5.46,3.62-5.21.38-8.15A2.48,2.48,0,0,0,109,65,1.58,1.58,0,0,0,108,65.85Z"/><path d="M124,77.09l-2.14,4.46-1.37-4.61s-7.77,5.87-4.95,13.38S127,84.86,127,84.86s3.62-5.21.39-8.15a2.46,2.46,0,0,0-2.46-.45A1.55,1.55,0,0,0,124,77.09Z"/><polygon class="cls-1" points="177.35 89.45 170.8 97.02 75.49 23.85 82.23 17.23 177.35 89.45"/><path d="M170.87,97.7,74.73,23.89l7.46-7.32.35.26,95.54,72.54ZM76.25,23.8l94.48,72.53,5.9-6.81L82.28,17.89Z"/><rect x="77.89" y="23.44" width="5.8" height="1" transform="translate(6.39 63.5) rotate(-44.51)"/><rect x="80.98" y="26.14" width="5.9" height="1" transform="translate(5.64 66.94) rotate(-44.84)"/><rect x="84.02" y="28.38" width="6.23" height="1" transform="translate(5.79 71.43) rotate(-45.95)"/><rect x="87.82" y="30.99" width="5.6" height="1" transform="translate(4.89 74.55) rotate(-45.83)"/><rect x="90.67" y="33.47" width="5.8" height="1" transform="translate(3.01 75.3) rotate(-44.49)"/><rect x="93.77" y="36.17" width="5.9" height="1" transform="translate(2.28 78.87) rotate(-44.84)"/><rect x="96.8" y="38.41" width="6.23" height="1" transform="translate(2.48 83.67) rotate(-45.95)"/><rect x="100.6" y="41.03" width="5.6" height="1" transform="translate(1.57 86.76) rotate(-45.83)"/><rect x="103.96" y="43.4" width="5.8" height="1" transform="translate(-0.14 87.46) rotate(-44.49)"/><rect x="107.06" y="46.1" width="5.9" height="1" transform="translate(-0.85 91.13) rotate(-44.84)"/><rect x="110.09" y="48.34" width="6.23" height="1" transform="translate(-0.61 96.25) rotate(-45.95)"/><rect x="113.89" y="50.95" width="5.6" height="1" transform="translate(-1.52 99.3) rotate(-45.83)"/><rect x="116.95" y="53.63" width="5.8" height="1" transform="translate(-3.57 99.54) rotate(-44.51)"/><rect x="120.04" y="56.33" width="5.9" height="1" transform="translate(-4.29 103.26) rotate(-44.84)"/><rect x="123.07" y="58.57" width="6.23" height="1" transform="translate(-4.01 108.7) rotate(-45.95)"/><rect x="126.87" y="61.19" width="5.6" height="1" transform="translate(-4.93 111.72) rotate(-45.83)"/><rect x="129.82" y="63.72" width="5.8" height="1" transform="translate(-6.96 111.4) rotate(-44.49)"/><rect x="132.92" y="66.42" width="5.9" height="1" transform="translate(-7.66 115.28) rotate(-44.84)"/><rect x="135.95" y="68.66" width="6.23" height="1" transform="translate(-7.33 121.02) rotate(-45.95)"/><rect x="139.75" y="71.27" width="5.6" height="1" transform="translate(-8.26 124.01) rotate(-45.83)"/><rect x="143.31" y="73.48" width="5.8" height="1" transform="translate(-9.93 123.71) rotate(-44.51)"/><rect x="146.4" y="76.18" width="5.9" height="1" transform="translate(-10.62 127.63) rotate(-44.84)"/><rect x="149.44" y="78.42" width="6.23" height="1" transform="translate(-10.24 133.69) rotate(-45.95)"/><rect x="153.24" y="81.04" width="5.6" height="1" transform="translate(-11.17 136.64) rotate(-45.83)"/><rect x="156.35" y="83.77" width="5.8" height="1" transform="translate(-13.4 135.8) rotate(-44.51)"/><rect x="159.44" y="86.47" width="5.9" height="1" transform="translate(-14.08 139.82) rotate(-44.84)"/><rect x="162.47" y="88.71" width="6.23" height="1" transform="translate(-13.66 146.2) rotate(-45.95)"/><rect x="166.27" y="91.33" width="5.6" height="1" transform="translate(-14.6 149.12) rotate(-45.83)"/><path d="M156.45,159.42l-9-3.66-8.22,11.94s-2.87-14.57-17.15-8l-4.81,4.73,26.92,19.32Z"/><path d="M169.38,163.83l-6.85-2L152.35,190l24.56,16.63s9.89-23.42-11-21.8Z"/><path class="cls-2" d="M192.21,165.8s-35.2,0-61.75-18.21,16.67-49.83,40.37-44S215,162.48,192.21,165.8Z"/><path d="M192.25,166.3h0c-.35,0-35.66-.24-62-18.3-8.07-5.52-10.53-13-6.92-21.07C130,112,155.37,99.27,171,103.11c17,4.2,32.52,32,31.66,49.75-.38,7.75-4,12.52-10.33,13.44Zm-27.51-62.89c-15,0-34.82,11.11-40.56,23.93-2.4,5.35-3.21,13.14,6.57,19.84,25.73,17.62,60.12,18.11,61.42,18.12,7.35-1.09,9.19-7.39,9.44-12.49.83-17-14.59-44.7-30.9-48.72A24.93,24.93,0,0,0,164.74,103.41Z"/><path d="M172.9,143.54l-25.3-7.76s-1,17.16,10.52,18.12S172.9,143.54,172.9,143.54Z"/><ellipse class="cls-2" cx="158.33" cy="149.94" rx="2.35" ry="4.57" transform="translate(-24.22 269.21) rotate(-76.6)"/><ellipse class="cls-2" cx="156.78" cy="120.85" rx="12.66" ry="7.97" transform="translate(-13.53 221.75) rotate(-68.27)"/><path d="M154,133.47a5.59,5.59,0,0,1-2.1-.39c-4.34-1.73-5.68-8.62-3-15.36a17.44,17.44,0,0,1,5.65-7.67c2.42-1.77,4.94-2.28,7.08-1.42,4.34,1.73,5.68,8.62,3,15.36h0C162.38,129.68,158,133.47,154,133.47Zm5.5-24.25a7.53,7.53,0,0,0-4.35,1.64,16.43,16.43,0,0,0-5.32,7.23c-2.48,6.23-1.39,12.53,2.44,14.06s8.95-2.31,11.44-8.53,1.39-12.54-2.44-14.06A4.61,4.61,0,0,0,159.51,109.22Z"/><ellipse class="cls-2" cx="174.3" cy="126.87" rx="12.66" ry="7.97" transform="translate(-8.08 241.81) rotate(-68.27)"/><path d="M171.53,139.49a5.65,5.65,0,0,1-2.11-.4c-2.14-.85-3.62-3-4.16-5.9a18.82,18.82,0,0,1,6.82-17.13c2.43-1.77,4.95-2.27,7.09-1.42,4.33,1.73,5.68,8.62,3,15.36h0C179.89,135.69,175.46,139.49,171.53,139.49Zm5.5-24.25a7.54,7.54,0,0,0-4.36,1.63A17.84,17.84,0,0,0,166.24,133c.48,2.6,1.74,4.43,3.55,5.15,3.83,1.53,9-2.3,11.44-8.53s1.39-12.53-2.43-14.06A4.8,4.8,0,0,0,177,115.24Z"/><path d="M157.57,113.85l-2.28,4,4.09-1.8s-.6,8.38-7.55,10.95-1.51-10.53-1.51-10.53,2.12-5.34,5.87-5a1.76,1.76,0,0,1,1.53,1.32A1.38,1.38,0,0,1,157.57,113.85Z"/><path d="M174.68,119.61l-2.28,4,4.08-1.81s-.6,8.39-7.55,11-1.5-10.53-1.5-10.53,2.11-5.34,5.87-5a1.74,1.74,0,0,1,1.52,1.32A1.37,1.37,0,0,1,174.68,119.61Z"/><path d="M140.25,109.68s1.44-18.05,13.93-7.38c0,0,19.2-26.14,29.88,2.32,0,0,18.91-3.33,14,13,0,0,14.48,9.48,2.24,19.49C200.29,137.07,182.82,86,140.25,109.68Z"/><path d="M200.05,137.91l-.23-.68c-.08-.24-8.45-24.14-27.09-31.29-9.72-3.73-20.56-2.32-32.23,4.18l-.82.45.07-.93c0-.36.76-8.86,5.48-10.82,2.43-1,5.41-.07,8.87,2.76,1.71-2.19,9.74-11.8,18.11-10.64,5,.69,9.09,5.1,12.17,13.12,1.87-.26,9.43-1,13.07,3.06,2.07,2.33,2.47,5.78,1.18,10.26,1.38,1,6.77,5.14,7.06,10.68.18,3.33-1.53,6.49-5.08,9.39Zm-38.36-35a31.44,31.44,0,0,1,11.4,2.11c17.28,6.63,25.89,27.2,27.42,31.21,2.93-2.55,4.33-5.28,4.19-8.1-.3-5.71-6.86-10.07-6.92-10.12l-.31-.2.1-.36c1.3-4.29,1-7.54-.86-9.65-3.71-4.18-12.48-2.7-12.57-2.68l-.41.07-.14-.39c-3-7.89-6.84-12.22-11.52-12.86-8.65-1.19-17.4,10.55-17.48,10.67l-.32.43-.41-.35c-3.32-2.83-6.1-3.82-8.25-2.93-3.3,1.36-4.42,6.81-4.74,9C148.14,104.86,155.11,102.9,161.69,102.9Z"/><path d="M198.51,163.42l-.62-.78c18.75-14.95,6.76-35.7,6.63-35.9l.86-.51C205.51,126.44,218,147.92,198.51,163.42Z"/><path class="cls-2" d="M209,147.35s13.14-2.88-.28-11.9l.4,2.37a18.38,18.38,0,0,1,.22,4.38Z"/><path d="M208.43,148l.38-5.81a18,18,0,0,0-.21-4.27l-.6-3.51,1,.65c4.57,3.07,6.65,5.84,6.2,8.24-.64,3.33-5.87,4.51-6.09,4.56Zm.95-11.44.21,1.2a19.34,19.34,0,0,1,.22,4.5l-.3,4.45c1.34-.41,4.28-1.52,4.67-3.6C214.52,141.31,212.87,139.06,209.38,136.54Z"/><ellipse class="cls-2" cx="211.95" cy="154.16" rx="5.11" ry="6.91" transform="translate(-43.17 214.2) rotate(-49.27)"/><path d="M213.76,160.6a8.56,8.56,0,0,1-5.47-2.19,8.7,8.7,0,0,1-2.89-4.59,5,5,0,0,1,.93-4.5c2-2.34,6.18-2.08,9.28.59s4,6.74,2,9.09h0A4.92,4.92,0,0,1,213.76,160.6Zm-3.62-11.89a3.9,3.9,0,0,0-3,1.27,4,4,0,0,0-.72,3.62,7.74,7.74,0,0,0,2.57,4.05c2.68,2.31,6.21,2.62,7.87.7s.82-5.37-1.86-7.68A7.59,7.59,0,0,0,210.14,148.71Z"/><ellipse class="cls-2" cx="208.58" cy="162.71" rx="4.45" ry="7.46" transform="translate(-50.81 214.62) rotate(-49.27)"/><path d="M211.59,169.13a6.71,6.71,0,0,1-1.15-.1,11.85,11.85,0,0,1-8.39-7.22,4.31,4.31,0,0,1,.5-4.3c1.81-2.11,5.88-1.47,9.26,1.44a11,11,0,0,1,3.3,4.66,4.3,4.3,0,0,1-.49,4.29A3.85,3.85,0,0,1,211.59,169.13Zm-6-11.84a2.89,2.89,0,0,0-2.27.87,3.39,3.39,0,0,0-.3,3.33,10.83,10.83,0,0,0,7.61,6.55,3.36,3.36,0,0,0,3.25-.79h0a3.36,3.36,0,0,0,.3-3.33,10,10,0,0,0-3-4.21A9.22,9.22,0,0,0,205.57,157.29Z"/><path class="cls-2" d="M187.05,166.58s7.12,14.31,16.85,7.91-8.25-21.9-9.12-3.9l.23-5.15Z"/><path d="M198.85,176.64a8.55,8.55,0,0,1-2.23-.3c-6-1.63-9.86-9.21-10-9.54l-.31-.62,9.18-1.31a5,5,0,0,1,3.71-3.14c2.87-.47,6.26,1.92,7.59,5.31a6.24,6.24,0,0,1-2.6,7.87A9.62,9.62,0,0,1,198.85,176.64Zm-11-9.67c1,1.83,4.42,7.16,9,8.4a8.05,8.05,0,0,0,6.74-1.3,5.24,5.24,0,0,0,2.22-6.67c-1.15-2.92-4.12-5.06-6.5-4.68s-3.84,3.2-4.06,7.89l-1,0,.2-4.54Z"/><circle class="cls-2" cx="204.91" cy="137.19" r="0.51"/><path d="M204.91,138.2a1,1,0,0,1-.71-1.73.94.94,0,0,1,.72-.29,1,1,0,0,1,.71.3,1,1,0,0,1,.29.72,1,1,0,0,1-.3.71h0A1,1,0,0,1,204.91,138.2Zm0-1h0Z"/><circle class="cls-2" cx="205.59" cy="141.55" r="0.47"/><path d="M205.59,142.52a1,1,0,0,1-.69-.29,1,1,0,0,1,1.39-1.36,1,1,0,0,1,0,1.37A.93.93,0,0,1,205.59,142.52Zm0-1s0,0,0,0Z"/><circle class="cls-2" cx="206.13" cy="145.85" r="0.47"/><path d="M206.13,146.82h0a1,1,0,0,1-.69-.29.94.94,0,0,1-.27-.69,1,1,0,0,1,.29-.69.93.93,0,0,1,.68-.28,1,1,0,0,1,.69.3,1,1,0,0,1,0,1.37h0A1,1,0,0,1,206.13,146.82Zm0-1a0,0,0,0,0,0,0l.35.31Z"/></g><path d="M178.31,229.07a12.54,12.54,0,0,1-7.34-2.39L12,111.93A12.6,12.6,0,0,1,9.15,94.34L68.49,12.13A12.61,12.61,0,0,1,86.08,9.29L245.05,124a12.58,12.58,0,0,1,2.84,17.59l-59.33,82.21a12.53,12.53,0,0,1-8.21,5.06A12.76,12.76,0,0,1,178.31,229.07ZM78.73,8.91A11.16,11.16,0,0,0,77,9a10.56,10.56,0,0,0-6.9,4.26L10.77,95.51a10.6,10.6,0,0,0,2.39,14.8l159,114.75a10.59,10.59,0,0,0,14.79-2.39l59.34-82.21a10.6,10.6,0,0,0-2.39-14.8L84.91,10.91A10.59,10.59,0,0,0,78.73,8.91Z"/></g></g></svg>