<svg xmlns="http://www.w3.org/2000/svg" viewBox="0 0 104.65 99.99"><defs><style>.cls-1{fill:#fff;}</style></defs><g id="Calque_2" data-name="Calque 2"><g id="Etiquette_19" data-name="Etiquette 19"><g id="Forme"><circle class="cls-1" cx="54.88" cy="49.77" r="49.77"/><path class="cls-1" d="M90.53,84.49V94.85a3.53,3.53,0,0,1-3.29,3.83c-3.2.45-48.51,2.17-65.12.78C16.7,99,11.11,98.77,5.89,97c-7.62-2.57-12.42-11.54,15.54-10.4"/></g><g id="Peronnage"><path class="cls-1" d="M46.29,68l-.41-.21-.38-.19L16,52.6a1.7,1.7,0,0,0-.48-.16c-1.74-.28-11.73-1.66-2.64,5.47a1.76,1.76,0,0,0,.42.24L44.1,70.4a1.58,1.58,0,0,1,.26.13l1.07.66a1.64,1.64,0,0,0,2.46-1h0a1.63,1.63,0,0,0-1-1.95Z"/><path d="M46.29,71.94a2.14,2.14,0,0,1-1.12-.32L44.09,71l-.18-.09L13.07,58.62a2.14,2.14,0,0,1-.55-.32c-3.15-2.47-4.37-4.18-3.84-5.4.73-1.68,4.62-1.31,6.87-.95a2,2,0,0,1,.62.2L46.5,67.55l.6.24a2.15,2.15,0,0,1,0,4A2.22,2.22,0,0,1,46.29,71.94ZM12.18,52.65c-1.42,0-2.4.23-2.59.66-.1.25-.17,1.29,3.55,4.2a1.49,1.49,0,0,0,.3.18L44.28,69.93l.34.17,1.07.67a1.17,1.17,0,0,0,1,.09,1.13,1.13,0,0,0,.69-.77,1.15,1.15,0,0,0-.68-1.37l-1.46-.67-29.55-15a1.07,1.07,0,0,0-.33-.11A19.74,19.74,0,0,0,12.18,52.65Z"/><path class="cls-1" d="M39.4,64S59.2,77.43,62.84,86.62a7.42,7.42,0,0,0-4.27,8.23H86.13V85.19s-7.76-9-14.73,1c0,0-8.87-15.2-16.79-20.75"/><path d="M86.63,95.35H58.14l-.07-.42a7.93,7.93,0,0,1,4.13-8.55c-4-8.93-22.89-21.88-23.08-22l.56-.83c.82.56,20,13.67,23.63,22.89l.18.47-.46.18a6.86,6.86,0,0,0-4,7.27H85.63v-9C85,84.72,82,81.77,78.43,82c-2.41.12-4.64,1.62-6.62,4.47l-.45.64L71,86.4c-.08-.16-8.9-15.18-16.64-20.6l.57-.82c7.07,5,14.73,17.24,16.55,20.26,2.06-2.72,4.4-4.15,6.94-4.28,4.52-.26,8,3.74,8.12,3.91l.13.14Z"/><path d="M83,82.66s-4.52-1.27-4,12.19h7.21V85.19Z"/><path d="M86.63,95.35H78.44l0-.48c-.23-6.51.65-10.6,2.61-12.14a2.43,2.43,0,0,1,2.06-.55l.18.09L86.63,85Zm-7.23-1h6.23V85.43l-2.88-2.3a1.57,1.57,0,0,0-1.14.42C80.69,84.3,79.2,86.7,79.4,94.35Z"/><path class="cls-1" d="M54.44,76c-8.19,7.38-16.2,6.09-16.2,6.09,11.83.53,9.71,12,9.71,12H34.44L30.32,77.75c-1.69-4.65.84-4.33.84-4.33l6.34-.63c1.79-.22,1.9,1.9,1.9,1.9,7.81-.21,7.27-5.2,7.27-5.2"/><path d="M48.37,94.62H34.05L29.83,77.87c-.74-2-.79-3.49-.13-4.32a1.73,1.73,0,0,1,1.46-.63l6.29-.63a2,2,0,0,1,1.57.43,2.65,2.65,0,0,1,.81,1.45c2.52-.13,4.33-.81,5.38-2a3.7,3.7,0,0,0,1-2.63l1-.1A4.65,4.65,0,0,1,46,72.81c-1.3,1.49-3.51,2.29-6.57,2.38h-.48l0-.49a1.94,1.94,0,0,0-.52-1.23,1.05,1.05,0,0,0-.82-.2l-6.4.64H31.1a.75.75,0,0,0-.63.27c-.23.3-.5,1.14.32,3.39l4,16H47.52c.14-1.25.34-5.07-1.87-7.84a9,9,0,0,0-6.3-3.11,9.39,9.39,0,0,1-1.19-.1l.1-1c.35,0,.69,0,1,.07,2.33.06,8.55-.38,14.83-6l.67.74a23.64,23.64,0,0,1-12.12,6.07,8.93,8.93,0,0,1,3.78,2.73c2.94,3.7,2.05,8.83,2,9Z"/><polygon points="48.11 70.9 49.3 79.41 53.93 75.97 48.11 70.9"/><path d="M48.92,80.31,47.43,69.64,54.73,76Zm-.13-8.16.89,6.35,3.46-2.56Z"/><path d="M33,89.42l-17.27.34c-.8,0-1.59.07-2.39.17-3.21.4-10.4,1.62-.91,3.68a23.89,23.89,0,0,0,4.92.51H34.44Z"/><path d="M35.12,94.62H17.31a23.48,23.48,0,0,1-5-.53C8,93.16,7.13,92.44,7.16,91.64c0-.47.07-1.45,6.08-2.2a23.3,23.3,0,0,1,2.44-.18l17.64-.35ZM8.19,91.68c.16.17.91.7,4.31,1.44a22.87,22.87,0,0,0,4.81.5H33.76l-1.17-3.7-16.89.34c-.81,0-1.6.08-2.34.17C9.81,90.87,8.47,91.41,8.19,91.68Z"/><path d="M80.92,80c-1.56,0-4-.68-7.51-3.41L73,76.24,83,64.29c-1.59-2.2-4.26-5.48-5.33-5.81l-.35-.11V47.15L93.09,59.68c.43.2,2.67,1.3,3.15,3.41.32,1.43-.24,3-1.66,4.54l-4.33,4.8-7,6.84A3.3,3.3,0,0,1,80.92,80Zm-6.48-3.89c5.83,4.38,8,2.49,8.07,2.47l7-6.81L93.83,67c1.2-1.33,1.68-2.55,1.43-3.65-.39-1.78-2.6-2.72-2.62-2.73l-.12-.07L78.28,49.22v8.46c1.91,1,5.31,5.77,5.72,6.34l.22.32Z"/><path d="M61.23,66c-21.71-1.06-24-5.91-24.09-6.11l0-.13-.79-5.34L22.71,52.19l0-.45c0-.31.53-7.56,1.06-10.82a4.74,4.74,0,0,1,2-3.37c1.8-1.21,4.73-1.35,8.71-.41,5.62,1.31,11.18,9.68,13.21,13l1.53-16.93,19.48-1,3.75,4.53-.77.63-3.43-4.13-18.11.91L48.46,53.45,47.67,52c-.06-.12-6.88-12.39-13.35-13.9-3.7-.87-6.36-.78-7.92.27a3.78,3.78,0,0,0-1.61,2.7c-.44,2.75-.89,8.6-1,10.27l13.42,2.2.89,6C38.36,60,41.52,64,61.28,65Z"/><path d="M49.75,33.72s-8.13.17-10.94,6.26c0,0,7.32,6.17,9.3,11.08Z"/><path d="M48.42,53.15l-.77-1.9c-1.91-4.74-9.09-10.83-9.17-10.89l-.29-.24.16-.35c2.91-6.3,11-6.55,11.39-6.56h.56Zm-9-13.3c1.26,1.09,6,5.36,8.36,9.41l1.42-15C47.39,34.43,41.76,35.32,39.42,39.85Z"/><path d="M58,57.88l0-.55a5.47,5.47,0,0,1,3.69-5.72l.08,0,4.1.15a11,11,0,0,0,2.92-.27l4-.91h.08a3,3,0,0,1,2.33,1.17,4.9,4.9,0,0,1,.55,3.59l-.07.34Zm3.87-5.29A4.37,4.37,0,0,0,59,56.75l15.83-2a3.62,3.62,0,0,0-.43-2.44,2.08,2.08,0,0,0-1.53-.76L69,52.44a12.09,12.09,0,0,1-3.18.3Z"/><path d="M61,61.36l3.93-.9A12,12,0,0,1,68,60.17l4,.16a4.94,4.94,0,0,0,3.33-5.23L58.59,57.21S57.7,61.12,61,61.36Z"/><path d="M61.06,61.86H61a3,3,0,0,1-2.33-1.17,4.93,4.93,0,0,1-.56-3.59l.08-.35,17.66-2.21,0,.54a5.5,5.5,0,0,1-3.69,5.73l-.08,0L68,60.67a11.48,11.48,0,0,0-2.92.28Zm-2-4.2a3.55,3.55,0,0,0,.44,2.43,2,2,0,0,0,1.53.76L64.85,60a12.57,12.57,0,0,1,3.18-.3l3.94.15a4.37,4.37,0,0,0,2.89-4.15Z"/><circle cx="52.15" cy="56.39" r="2.57"/><path d="M52.15,59.47a3.08,3.08,0,1,1,3.07-3.08A3.08,3.08,0,0,1,52.15,59.47Zm0-5.15a2.08,2.08,0,1,0,2.07,2.07A2.07,2.07,0,0,0,52.15,54.32Z"/><path d="M41.33,36.7c-.12-.16-2.9-4-2.2-8A7.12,7.12,0,0,1,42.46,24a10.24,10.24,0,0,1,5.4-1.6L64.41,22a4.92,4.92,0,0,1,3.38,2c1.41,1.85,1.72,4.7.93,8.46l-1-.2c.71-3.41.46-6-.73-7.64A3.9,3.9,0,0,0,64.39,23l-16.5.42A9.24,9.24,0,0,0,43,24.82a6.17,6.17,0,0,0-2.89,4.1c-.63,3.51,2,7.16,2,7.19Z"/><circle cx="48.03" cy="26.75" r="0.89"/><circle cx="51.56" cy="28.41" r="0.77"/><circle cx="55.91" cy="29.91" r="1.03"/><circle cx="60.7" cy="27.14" r="0.87"/><circle cx="63.95" cy="25.86" r="0.89"/><circle cx="55.71" cy="26.27" r="1.5"/><circle cx="50.79" cy="25.36" r="0.77"/><circle cx="45.93" cy="29.91" r="0.91"/><circle cx="42.17" cy="28.41" r="0.71"/><circle cx="41.46" cy="32.17" r="0.71"/><circle cx="44.07" cy="32.49" r="0.73"/><circle cx="50.01" cy="31.18" r="0.77"/><circle cx="60.47" cy="30.41" r="0.87"/><circle cx="65.26" cy="29.44" r="0.75"/><circle cx="59.83" cy="24.33" r="0.63"/><circle cx="44.43" cy="25.36" r="0.77"/><circle class="cls-1" cx="58.09" cy="44.25" r="6.08"/><path d="M58.09,50.83a6.58,6.58,0,1,1,6.58-6.58A6.59,6.59,0,0,1,58.09,50.83Zm0-12.16a5.58,5.58,0,1,0,5.58,5.58A5.58,5.58,0,0,0,58.09,38.67Z"/><circle class="cls-1" cx="72.9" cy="42.39" r="5.98"/><path d="M72.9,48.87a6.49,6.49,0,1,1,6.48-6.48A6.49,6.49,0,0,1,72.9,48.87Zm0-12a5.49,5.49,0,1,0,5.48,5.49A5.49,5.49,0,0,0,72.9,36.9Z"/><path d="M70.27,42.78a4.11,4.11,0,1,0,4.47-4.05,6.88,6.88,0,0,0-1.62.21l.74,3.27-2.55-2A8.14,8.14,0,0,0,70.27,42.78Z"/><path d="M55.51,44.75a4.11,4.11,0,1,0,4.48-4,6.79,6.79,0,0,0-1.62.21l.73,3.27-2.55-2A8.27,8.27,0,0,0,55.51,44.75Z"/><path class="cls-1" d="M82.51,64.6s-5.17-7.6-6.2-6.41"/><path d="M82.09,64.88c-2.33-3.42-4.84-6.31-5.5-6.32h0a.14.14,0,0,0,.09-.05l-.75-.65a.87.87,0,0,1,.72-.3c1.62.1,5.21,5.2,6.27,6.76Z"/><path class="cls-1" d="M76.62,60.72c0-.72-.29-4.85-3.24-6.57-.22-.12-2.11-1.23-3.17-.48s-.43,3.36.08,4.68a11,11,0,0,1,1,2.42c.2,1.07.17,2.64-.34,2.8s-1.51-1.81-4.28-5.22C64.74,56,64,55.7,63.4,55.73A2.85,2.85,0,0,0,61,58c-.4,2.69,4.41,5.3,3.88,6.18-.31.51-2-.38-2.93.47-.78.68-.61,2-.55,2.54.48,4,10.82,8.34,12.3,8.94"/><path d="M73.53,76.63c-2.83-1.16-12.12-5.27-12.61-9.36-.06-.52-.25-2.11.72-3A2.91,2.91,0,0,1,64,63.84l.37,0a12.46,12.46,0,0,0-1-1.11c-1.29-1.24-3-3-2.76-4.82a3.35,3.35,0,0,1,2.84-2.72c.85-.06,1.72.4,3.66,2.8,1.14,1.4,2,2.58,2.57,3.44A13.3,13.3,0,0,0,70.8,63a6.22,6.22,0,0,0,0-2.17,4.09,4.09,0,0,0-.48-1.32,8.22,8.22,0,0,1-.47-1c-.16-.42-1.52-4.11.1-5.26,1.18-.85,3,0,3.7.44,3,1.76,3.44,5.79,3.5,7l-1,0c-.05-1.07-.42-4.67-3-6.17-.85-.49-2-.91-2.62-.5s-.37,2.47.25,4.09a9.14,9.14,0,0,0,.42.91,5.1,5.1,0,0,1,.59,1.61s.52,3-.69,3.36c-.72.22-1.2-.48-2.28-2-.6-.85-1.42-2-2.54-3.39-1.76-2.19-2.43-2.46-2.82-2.43a2.34,2.34,0,0,0-1.91,1.87c-.21,1.36,1.34,2.86,2.46,4s1.77,1.71,1.35,2.4c-.3.5-.89.44-1.47.38a2.05,2.05,0,0,0-1.56.22c-.58.51-.43,1.7-.39,2.1.34,2.82,6.68,6.36,12,8.54Z"/><path class="cls-1" d="M22.87,52c-1.57,2.44-4.16,7.31-2.63,12,.5,1.58,1.76,4,2.74,3.86.82-.14,1.35-2.08,1.43-4.76A7,7,0,0,0,26,68.72c.31.32,1.55,1.59,2.59,1.27s1.75-2.31,1.32-5c-.57,2.61.74,4.88,2.48,5.34s3.7-.69,3.85-1.85-1.67-1.71-1.58-3.22a2.33,2.33,0,0,1,1.58-2c1.17-.34,2,1.59,2.8,1.32.33-.11.71-.61.74-2.53"/><path d="M33.14,71a3.44,3.44,0,0,1-.89-.11,3.86,3.86,0,0,1-2.19-1.7,2.24,2.24,0,0,1-1.33,1.32c-.89.28-1.93-.19-3.1-1.39A5.92,5.92,0,0,1,24.33,67c-.28.74-.68,1.29-1.27,1.39-1.83.29-3.29-4.15-3.3-4.2-1.48-4.57.65-9.3,2.7-12.46l.83.54c-1.92,3-3.93,7.42-2.58,11.62.66,2,1.79,3.56,2.19,3.51.24,0,.76-.91,1-3.18a11,11,0,0,1,.06-1.14l1,.08c0,.33,0,.71-.06,1.1a5.92,5.92,0,0,0,1.5,4.13c1.2,1.24,1.86,1.21,2.08,1.14.45-.14.84-.8,1-1.8a5.94,5.94,0,0,1,0-2.79L30,62.36l.42,2.58a9.51,9.51,0,0,1,.08,2.69,3.16,3.16,0,0,0,2,2.24A3.23,3.23,0,0,0,35,69.38a1.58,1.58,0,0,0,.75-.94c0-.3-.2-.58-.58-1a2.92,2.92,0,0,1-1-2.18,2.8,2.8,0,0,1,1.94-2.46,2.31,2.31,0,0,1,2.14.85c.2.18.53.48.65.48s.37-.21.39-2.07h1c0,1.84-.36,2.76-1.08,3s-1.16-.27-1.63-.69-.85-.72-1.19-.63a1.81,1.81,0,0,0-1.22,1.56c0,.58.33,1,.75,1.45a2.26,2.26,0,0,1,.83,1.81,2.47,2.47,0,0,1-1.19,1.63A4.52,4.52,0,0,1,33.14,71Z"/></g><g id="Texte"><path d="M95,57.05l-1-.19A40.17,40.17,0,0,0,92.6,36.57l1-.32a40.79,40.79,0,0,1,2.17,13.18A41.32,41.32,0,0,1,95,57.05Z"/><path d="M14.05,50.34c0-.3,0-.61,0-.91a40.9,40.9,0,0,1,2.18-13.19l1,.32A39.79,39.79,0,0,0,15,49.43c0,.29,0,.59,0,.88Z"/><path d="M28.18,80.32A41,41,0,0,1,16.77,64.14l.94-.36A40,40,0,0,0,28.83,79.57Z"/><path d="M54.88,90.27c-.91,0-1.84,0-2.76-.1l.07-1a42.44,42.44,0,0,0,4.51,0l0,1C56.13,90.25,55.51,90.27,54.88,90.27Z"/><path d="M24.32,25.42,23.6,26.5l-1.39-.93.85,1.72-.47.71-1.91-.14,1.38.93-.72,1.08-2.91-1.95.89-1.33,2.26.22-1.06-2,.89-1.33Z"/><path d="M26.14,23.43c-1,1.16-1.89,1.26-2.8.45L22,22.72l.87-1,1.3,1.16c.28.25.62.37,1.12-.21s.35-.89.07-1.14l-1.3-1.15.87-1,1.3,1.16C27.17,21.4,27.16,22.29,26.14,23.43Z"/><path d="M29.92,18.21l.73.83L28,21.43,25.63,18.8l1-.86,1.59,1.8Z"/><path d="M32.2,14.92l-1.21.9,1.42,1.93-1,.77-1.43-1.93-1.21.89-.65-.89L31.54,14Z"/><path d="M35.18,15.94l-1.11.68-1.83-3L33.35,13Z"/><path d="M40.41,13.27l-1.17.56-.72-1.49-.14,1.91-.76.37L36,13.54l.72,1.5-1.17.56-1.52-3.15,1.44-.69,1.84,1.33.1-2.27,1.44-.7Z"/><path d="M41.3,10.35l.1.31,2.28-.77.27.8-2.28.77.11.31L44.05,11l.32.95-3.51,1.19L39.74,9.82l3.51-1.19.32.95Z"/><path d="M48.6,9.21a1.61,1.61,0,0,1-1.24,2.06l-2.54.54-.74-3.42,2.55-.55A1.61,1.61,0,0,1,48.6,9.21Zm-1.27.27c-.14-.63-.59-.53-.86-.48l-.88.19.27,1.27.88-.18C47,10.22,47.46,10.12,47.33,9.48Z"/><path d="M50.75,10.75l-1.29.16L49,7.44l1.29-.16Z"/><path d="M54.34,9.89,52.85,10l-.22.63-1.43.05,1.34-3.55L54.46,7,56,10.47l-1.44,0ZM54,9l-.44-1L53.16,9Z"/><path d="M63.34,11.42l-.78-.55a3.46,3.46,0,0,1-1.9.15c-1.23-.21-1.78-.68-1.67-1.32s.73-.77,1.27-.78a1,1,0,0,1-.22-.8c.09-.57.66-.75,1.64-.58s1.43.52,1.34,1-.49.57-1.19.67l.58.42a3.74,3.74,0,0,0,.42-.39l1,.58a3.94,3.94,0,0,1-.43.47l.59.38Zm-1.86-1.35a10,10,0,0,1-.83-.7c-.26.05-.4.11-.43.25s.14.33.7.43A2.15,2.15,0,0,0,61.48,10.07Zm-.29-1.58c0,.09,0,.2.2.38.25,0,.39-.13.41-.28s0-.23-.26-.27S61.21,8.35,61.19,8.49Z"/><path d="M67.87,12.79l-1.23-.42,1.12-3.31L69,9.48Z"/><path d="M73.94,11.54l-1.41,3.2L71,14.05l-.55-2.49-.83,1.89-1.19-.53,1.41-3.2,1.56.69.55,2.49L72.75,11Z"/><path d="M77.84,15.1l-1.29-.77-1.23,2.06-1.12-.67,1.23-2.06-1.28-.77.56-1,3.69,2.21Z"/><path d="M79.51,16.23l-.2.26L81.21,18l-.51.68-1.9-1.46-.2.25,1.9,1.46-.61.79L77,17.42l2.13-2.77L82,16.9l-.61.79Z"/><path d="M85.9,20.59l-2.44,2.5-1.21-1.18.36-2.53-1.44,1.47-.93-.9,2.44-2.5,1.22,1.18-.36,2.53L85,19.68Z"/><path d="M86.55,22.93l-.26.21L87.8,25l-.66.54-1.51-1.87-.25.2,1.5,1.87-.77.63-2.32-2.88,2.72-2.2,2.32,2.88-.78.63Z"/><path d="M90.67,29l-.8-1.27-2,1.29-.69-1.1,2-1.28-.8-1.27.93-.59,2.3,3.63Z"/></g></g></g></svg>