<svg xmlns="http://www.w3.org/2000/svg" viewBox="0 0 141.18 99.53"><defs><style>.cls-1{fill:#fff;}.cls-2{fill:#1d1d1b;}</style></defs><g id="Calque_2" data-name="Calque 2"><g id="Lightroom"><path class="cls-1" d="M66.67,0h7.84a66.67,66.67,0,0,1,66.67,66.67V94.52a5,5,0,0,1-5,5H3.32A3.32,3.32,0,0,1,0,96.21V66.67A66.67,66.67,0,0,1,66.67,0Z"/><path d="M132.25,96.53H7.24a4.33,4.33,0,0,1-4.32-4.32V70.67a67.67,67.67,0,0,1,135.34,0V90.52A6,6,0,0,1,132.25,96.53ZM70.59,5A65.75,65.75,0,0,0,4.92,70.67V92.21a2.32,2.32,0,0,0,2.32,2.32h125a4,4,0,0,0,4-4V70.67A65.75,65.75,0,0,0,70.59,5Z"/><path d="M64.71,46.55V85.74H55.43V37.57h0A9.29,9.29,0,0,1,62,40.27,9.13,9.13,0,0,1,64.71,46.55Z"/><path d="M94.44,52v8l-.31,0a7,7,0,0,0-5.3-2.49,6.73,6.73,0,0,0-3.39.9A7.24,7.24,0,0,0,83,60.75s0,0,0,0a7.2,7.2,0,0,0-1.09,2.76c0,.18-.11.37-.16.56V85.69H72.47V52h.71a8.9,8.9,0,0,1,5.64,2.67,9.29,9.29,0,0,1,2.61,6v1.47a.24.24,0,0,1,0-.08c1.63-6.14,5.13-9.78,9.92-10.06,1.14-.06,2.29,0,2.76,0Z"/><path class="cls-2" d="M120.09,72.65a5.4,5.4,0,1,1,0-7.63A5.4,5.4,0,0,1,120.09,72.65Z"/><path class="cls-2" d="M31.55,72.65a5.4,5.4,0,1,1,0-7.63A5.4,5.4,0,0,1,31.55,72.65Z"/><path d="M27.25,35.82A5.44,5.44,0,0,1,26,40.18c-1.72,2.14-4.14,2.9-6.07,1.59-2.09-1.42-2-4.38.05-6.94a6.43,6.43,0,0,1,3.62-2.27c-.15.87-.22,1.3-.33,2.16-1.07-.16-2.29-.85-3.19.26-1.28,1.58-.56,3.35,1,4.51,2,1.46,3.78,1,5-.43a4.21,4.21,0,0,0,1.05-3.17Z"/><path d="M26,30l4.64,4.81c-.55.54-.82.81-1.36,1.37L23.36,30.5h0a2.54,2.54,0,0,1,1.42-.78A1.36,1.36,0,0,1,26,30Z"/><path d="M35.15,30.89c-1.24,1.64-3.07,2.35-4.76,1.52s-1.91-2.78-.54-4.63,3.45-2.5,5-1.48S36.41,29.23,35.15,30.89Zm-1.51-2.95c-1.53-.92-3-1-3.7,0s0,1.95,1.56,2.77,2.92.93,3.56.08S35.12,28.83,33.64,27.94Z"/><path d="M41.68,21.67c.78,1.48,1.18,2.22,2,3.71-.54.28-.8.43-1.34.73l-.68-.56h0a3.27,3.27,0,0,1-1.45,2,3.67,3.67,0,0,1-.89.41,1.82,1.82,0,0,1-2.12-.89L35,23.88h0l.13-.08a2.23,2.23,0,0,1,1.33-.33,1.37,1.37,0,0,1,1,.54l0,0,0,0,.23.36,1.07,1.68a1.18,1.18,0,0,0,1.75.57,2.26,2.26,0,0,0,.91-1.33h0c-.93-1.63-1.4-2.44-2.33-4.08l.13-.07A2.25,2.25,0,0,1,40.64,21a1.46,1.46,0,0,1,1,.63l0,0Z"/><path d="M50.82,22.2c-.69.25-1,.38-1.72.65l-.27-.73a3.16,3.16,0,0,1-1.63,1.67,2.91,2.91,0,0,1-3.89-1.35,3.5,3.5,0,0,1,3.76-4.61h0c-.41-1-.62-1.56-1-2.6a2.4,2.4,0,0,1,1.66-.07,1.34,1.34,0,0,1,.82.81L50,19.89l.23.63C50.36,21,50.66,21.75,50.82,22.2Zm-3.45-3.63,0,0a1.59,1.59,0,0,0-1.82-.4c-1.07.45-1.19,1.68-.44,3.3s1.63,2,2.51,1.65a2.09,2.09,0,0,0,1.11-1.21C48.18,20.56,47.91,19.9,47.37,18.57Z"/><path d="M63.53,19.16c-.84.1-1.26.16-2.1.29-.65-.91-1-1.36-1.68-2.26-1.26.23-1.89.36-3.14.66-.25,1.32,1.24,1.65,1.44,2.24-1,.23-1.51.35-2.51.62.37-1.21.57-2.07,1-3.8.51-2,.81-3,1.46-5h.06A62,62,0,0,1,63.53,19.16ZM59.63,17c-.82-1.06-1.24-1.58-2.11-2.61-.3,1-.44,1.52-.7,2.53-.06.25-.13.48-.17.7C57.84,17.36,58.43,17.24,59.63,17Z"/><path d="M70.45,14.88c0,1.53,0,2.3,0,3.84-.72,0-1.08,0-1.8,0,0-1.6-.08-2.39-.13-4,0-.39-.07-1.41-1.31-1.34a2.28,2.28,0,0,0-1.5.7l.37,4.77c-.71.06-1.07.09-1.79.17L63.75,14l.37,0a1.17,1.17,0,0,0,1.59,0,3.41,3.41,0,0,1,2.36-1C69.58,12.83,70.45,13.48,70.45,14.88Z"/><path d="M78.31,19.25c-.72-.1-1.08-.14-1.81-.22l.1-.77a3.15,3.15,0,0,1-2.19.73,2.88,2.88,0,0,1-2.76-3,3.18,3.18,0,0,1,3.67-3,3.08,3.08,0,0,1,1.74.62h0c.11-1.11.17-1.67.28-2.79a2.34,2.34,0,0,1,1.49.71,1.37,1.37,0,0,1,.35,1.1c-.23,1.65-.34,2.48-.56,4.13l-.09.67C78.46,18,78.38,18.78,78.31,19.25ZM77,14.45v0a1.56,1.56,0,0,0-1.4-1.19c-1.14-.09-1.81.94-1.9,2.71s.47,2.56,1.42,2.63A2.06,2.06,0,0,0,76.61,18C76.75,16.58,76.83,15.87,77,14.45Z"/><path d="M91.93,20.93a4.93,4.93,0,0,1-4.25.5c-2.41-.74-3.77-2.67-3.25-4.94.57-2.47,3.09-3.55,6-2.64a5.79,5.79,0,0,1,3.17,2.43c-.81.2-1.21.31-2,.53-.21-1,0-2.41-1.25-2.81-1.79-.56-3.08.78-3.59,2.66-.64,2.37.27,3.87,2,4.42a3.82,3.82,0,0,0,3.13-.27Z"/><path d="M96.66,17.53C95.57,20,95,21.19,94,23.64c-.68-.3-1-.44-1.69-.72,1.23-3,1.85-4.57,3.09-7.61h0a2.44,2.44,0,0,1,1.18,1A1.42,1.42,0,0,1,96.66,17.53Z"/><path d="M101.43,27.26l0,0a3.19,3.19,0,0,1-1.39-.45c-.62-.38-.76-.78-.75-1.08A4.4,4.4,0,0,1,97,25.25c-1.41-.72-2-1.79-1.58-2.77.77-1.68,4.19-.35,4.62-1.16a.42.42,0,0,0-.14-.51l0,0-.11-.09h0a2.17,2.17,0,0,0-.41-.22,2,2,0,0,0-.76-.13L98.49,20a3.38,3.38,0,0,1,2.64.62,2.85,2.85,0,0,1,1.08,3.79h0l-1.09,1.74c-.27.43-.43.68.09,1Zm-2.12-1.74v0h0l1.33-2.31.09.07-.09-.07c.68-1.22,1-2,.26-2.56a.92.92,0,0,0-1,0c.42.27.65.64.46,1-.45.82-2.43.39-3.05,1.61-.37.73,0,1.48.84,2A2.84,2.84,0,0,0,99.31,25.52Z"/><path d="M107.27,29.67c-.62.79-1.88.85-3.4-.24A8.21,8.21,0,0,1,102,27.64l.94-.72c.68.57.29,1.88,1.16,2.5s1.43.58,1.77.14-.08-1.19-.6-1.88l-.35-.46c-.5-.65-1.39-1.75-.77-2.7s1.83-1,3.39.15a7.15,7.15,0,0,1,1.74,1.81l-1.05.67c-.32-.49-.06-1.85-.95-2.48s-1.42-.52-1.69-.12.21,1.22.73,1.89l.35.46C107.16,27.55,108,28.74,107.27,29.67Z"/><path d="M112.22,34.07c-.7.71-2,.62-3.39-.66a8.43,8.43,0,0,1-1.68-2c.4-.25.61-.37,1-.61.62.66.1,1.92.9,2.65s1.38.75,1.76.35,0-1.2-.41-2l-.3-.5c-.43-.71-1.21-1.92-.5-2.8s1.95-.74,3.39.57a7,7,0,0,1,1.56,2l-1.12.54c-.27-.53.13-1.86-.7-2.6s-1.36-.69-1.68-.33.09,1.25.54,2l.3.5C112.32,31.93,113.05,33.23,112.22,34.07Z"/><path d="M117.14,31.16c.3-.49,1.11-.34,1.57.31a1,1,0,0,1,.13,1.06c-.32.48-1.11.31-1.56-.32A1,1,0,0,1,117.14,31.16Zm-.81,3.66-3.1,2.8c-.52-.57-.78-.86-1.31-1.41l4.13-4A1.87,1.87,0,0,1,116.33,34.82Z"/><path d="M119.29,43.13a4.33,4.33,0,0,1-3.13-1.75c-1.17-1.55-1.31-3.41,0-4.58s3.56-.62,4.94,1.21a4.52,4.52,0,0,1,1,3.05c-.54-.23-.81-.35-1.35-.56.24-.91.87-1.49.31-2.23-.75-1-2-1-3.22,0-1.41,1.13-1.52,2.37-.72,3.45A3.18,3.18,0,0,0,119.26,43Z"/></g></g></svg>