<svg xmlns="http://www.w3.org/2000/svg" viewBox="0 0 101.58 123.91"><defs><style>.cls-1{fill:#fcfcfc;}.cls-2{fill:#fff;}</style></defs><g id="Calque_2" data-name="Calque 2"><g id="Etiquette_7" data-name="Etiquette 7"><g id="Fond"><rect class="cls-1" x="14.44" width="87.15" height="123.91" rx="5.19"/><path d="M95.75,120.27H21.2a2,2,0,0,1-2-2V64.79h1v53.44a1,1,0,0,0,1,1H95.75a1,1,0,0,0,1-1V5.55a1,1,0,0,0-1-1H21.2a1,1,0,0,0-1,1V27.17h-1V5.55a2,2,0,0,1,2-2H95.75a2,2,0,0,1,2,2V118.23A2,2,0,0,1,95.75,120.27Z"/><path class="cls-1" d="M14.47,30.35c-.89-.32-3.44-1.1-4.76-.3a1.49,1.49,0,0,1-1.16.2c-1.64-.5-5.72-1.5-7,.22-1.59,2.07-3.36,4.3,2.79,7a1.46,1.46,0,0,1,.84,1.23,2.73,2.73,0,0,0,1.36,2.13A1.49,1.49,0,0,1,7,42.73c-1.06,2.14-2.58,6.5-.19,10.77a1.49,1.49,0,0,1,.2.71l.11,4.95a1.51,1.51,0,0,1-.25.88c-.62.92-2,3.34-1.41,5.25a1.47,1.47,0,0,0,1.37,1l8.47.31a1.52,1.52,0,0,0,1.58-1.52V31.93a1.52,1.52,0,0,0-1.72-1.51h0A1.49,1.49,0,0,1,14.47,30.35Z"/></g><g id="Personnage"><path d="M55.41,81.37H44.09v-1H55.41a1.17,1.17,0,0,0,.56-.08s-.14-.16-.25-.27l-5.31-7.19.81-.6,5.27,7.15a1.39,1.39,0,0,1,.37,1.35C56.58,81.37,55.7,81.37,55.41,81.37Z"/><path d="M53.59,93.2H36.83L33.32,81.53c-.71-3.48-.27-5.84,1.29-7,2.81-2.19,8.11.3,8.34.41l.13.06,3.57,5.66-.85.53-3.41-5.41c-.8-.35-5.06-2.11-7.17-.46-1.23,1-1.55,3-.94,6L37.57,92.2H52.76a4.62,4.62,0,0,0-.88-3.13c-1.13-1.48-3.21-2.36-6.2-2.62l-.86-.06.06-1,.87.06,13.16.87a4.75,4.75,0,0,0,3.16-2.75c.77-2.21-.77-4.71-.78-4.73L56,71.55l.82-.59,5.27,7.32c.1.15,1.83,3,.91,5.62a5.8,5.8,0,0,1-3.87,3.4l-.1,0-8.36-.56a6.43,6.43,0,0,1,2,1.7,5.51,5.51,0,0,1,1,4.34Z"/><path d="M90.8,93.21l-23-.53v-.49c0-4.51.84-7.39,2.5-8.56a2.91,2.91,0,0,1,1.76-.53C72,73.84,61.24,71.83,60.77,71.75l.17-1c.13,0,12.51,2.33,12.16,12.94l0,.68-.65-.23a1.76,1.76,0,0,0-1.52.32c-.91.65-2,2.44-2.06,7.23l21,.49V77.69c-1.33-.3-6-1.12-8.84,1.2A6.44,6.44,0,0,0,78.76,83a18.77,18.77,0,0,1-.13,3.27l-.71,4.15-.29-4.2a14.57,14.57,0,0,1,.16-3.5c-.22-4.93-2.45-13.71-15.09-16l.18-1c11.46,2,14.77,9.38,15.63,14.7a6.63,6.63,0,0,1,1.82-2.33c3.74-3,9.85-1.37,10.11-1.29l.36.1Z"/><path d="M33.29,58.79c-2-11,2.8-17.27,3-17.54l.78.62c0,.07-4.75,6.2-2.8,16.74Z"/><rect x="32.53" y="48.1" width="1" height="20.28" transform="translate(-32.77 45.86) rotate(-49.79)"/><rect x="29.97" y="55.38" width="1" height="14.94" transform="translate(-38.72 53.29) rotate(-56.27)"/><path d="M48.16,74.5a14.4,14.4,0,0,1-3-.24l.21-1a19.66,19.66,0,0,0,6,0l.13,1A24.59,24.59,0,0,1,48.16,74.5Z"/><path d="M57.06,72.16l-.55-.83a10.25,10.25,0,0,0,4.29-5.47l1,.24A11.16,11.16,0,0,1,57.06,72.16Z"/><path d="M67,60.14a10.53,10.53,0,0,1-4.49-1l.47-.88a8.94,8.94,0,0,0,10.89-2.4l.75.66A9.94,9.94,0,0,1,67,60.14Z"/><path d="M70.11,66.52a17.44,17.44,0,0,1-6.35-1.27l.37-.93c1.87.76,6.71,2.27,11.23,0A11.25,11.25,0,0,0,78,62.5l.68.74a12.21,12.21,0,0,1-2.89,2A12.62,12.62,0,0,1,70.11,66.52Z"/><path d="M36.4,42.33l-.2-.83a7.66,7.66,0,0,1,5.3-8.93c6-2.06,7.92-.62,10.16,1,.26.2.53.39.81.59l1,.72-1.24.18c-.1,0-9.5,1.41-15.23,6.64Zm10.07-9.77a14.53,14.53,0,0,0-4.64,1c-4.57,1.57-4.89,5.2-4.77,6.88,4.75-3.93,11.24-5.55,13.88-6.07A6.84,6.84,0,0,0,46.47,32.56Z"/><path d="M37.06,41.88l-.06-1c.07,0,7.36-.47,9.94-1.45a15.82,15.82,0,0,0,1.92-1A20.93,20.93,0,0,1,59.2,35.15c-2.74-.42-5.56-.6-7.14,0l-.34-.94c3.94-1.44,14.81,1.27,15.4,2l0,.6c-.2.33-.28.46-3.31-.18-7.12-1.51-11.56,1-14.5,2.7a16.4,16.4,0,0,1-2.07,1.06C44.57,41.4,37.36,41.86,37.06,41.88Z"/><path d="M66.74,36.72a22.52,22.52,0,0,1-9.37,2c-4.85-.19-4.31-.83-8.09.07,0,0,5-2.79,7.87-3S64,35.59,66.74,36.72Z"/><path d="M41.82,33.11a2.08,2.08,0,0,1-1.3-.5,3.77,3.77,0,0,1-1.15-1.76c-.51-1.59,0-3.12,1.13-3.48a2,2,0,0,1,1.79.42,3.72,3.72,0,0,1,1.15,1.76c.5,1.59,0,3.12-1.13,3.48A1.62,1.62,0,0,1,41.82,33.11ZM41,28.29l-.19,0c-.51.16-.83,1.12-.48,2.23a2.77,2.77,0,0,0,.83,1.28,1,1,0,0,0,.85.25c.51-.16.84-1.12.48-2.23a2.68,2.68,0,0,0-.82-1.28A1.18,1.18,0,0,0,41,28.29Z"/><path d="M50.54,52a5.83,5.83,0,1,1,5.83-5.83A5.84,5.84,0,0,1,50.54,52Zm0-10.66a4.83,4.83,0,1,0,4.83,4.83A4.84,4.84,0,0,0,50.54,41.34Z"/><path d="M61.42,49.58A5.84,5.84,0,1,1,67,43.75,5.7,5.7,0,0,1,61.42,49.58Zm0-10.66A4.84,4.84,0,1,0,66,43.75,4.71,4.71,0,0,0,61.42,38.92Z"/><path d="M45.77,46.76a3.32,3.32,0,1,0,2.93-3.88,5.31,5.31,0,0,0-1.25.41l1.08,2.48-2.32-1.19A6.61,6.61,0,0,0,45.77,46.76Z"/><path d="M56.78,44.4a3.31,3.31,0,1,0,2.92-3.89,5.84,5.84,0,0,0-1.25.41l1.08,2.48-2.32-1.19A6.44,6.44,0,0,0,56.78,44.4Z"/><path class="cls-2" d="M61.42,57l6.22-7.88S71.92,40,62.57,44L51.89,52.49s-3.89,2.4,0,6.21l10,7.53s6.63-1.68,2.1-6.27Z"/><path d="M61.73,66.78,51.58,59.1Q49.45,57,49.68,55a4.4,4.4,0,0,1,1.94-3l10.75-8.51c3-1.3,5-1.41,6.05-.34,1.66,1.72-.12,5.64-.32,6.09l-.06.09-6,7.56,2.26,2.69c1.39,1.41,1.94,2.77,1.6,4-.62,2.2-3.83,3-4,3.07Zm1.1-22.34L52.2,52.88a3.45,3.45,0,0,0-1.53,2.26,4.11,4.11,0,0,0,1.56,3.21l9.71,7.33c.67-.21,2.65-.94,3-2.3.24-.87-.22-1.9-1.37-3.07L60.78,57l6.44-8.15c.46-1,1.47-3.89.48-4.91C67.22,43.41,66,43.1,62.83,44.44Z"/><path d="M59.13,57.06l6.6-8.75s2.79-3.58-2.94-1.12l-8.91,6.87s-2.38,1.47,0,3.8L61.58,64s2.18-2-.59-4.79Z"/><ellipse class="cls-2" cx="56.37" cy="56.64" rx="1.24" ry="2.59" transform="translate(-22.23 42.21) rotate(-34.73)"/><ellipse class="cls-2" cx="33.76" cy="73.86" rx="11.83" ry="7.23"/><path d="M33.76,81.6c-6.8,0-12.33-3.47-12.33-7.74S27,66.13,33.76,66.13s12.33,3.47,12.33,7.73S40.56,81.6,33.76,81.6Zm0-14.47c-6.25,0-11.33,3-11.33,6.73s5.08,6.74,11.33,6.74,11.33-3,11.33-6.74S40,67.13,33.76,67.13Z"/><polygon points="63.09 66.23 60.97 71.75 56.93 71.95 59.89 68.77 61.39 66.43 63.09 66.23"/><path d="M86.67,77.32s-4,1.88-3.24,14.9l6.56.1.14-15.07Z"/><path d="M36.12,89.12l-9.18.31s-7.91,1.23-.89,3.66h11.4Z"/><path class="cls-1" d="M23.37,42.55c.46-.71,2.84-4.74,2.08-7.74a5,5,0,0,0-1.72-2.94c-1.39-1.06-3.77-1.47-5.17-.19a2.87,2.87,0,0,0-1,2.49c.28,1.46,2.15,2.69,4.53,2.43"/><path d="M23.79,42.83,23,42.28s2.78-4.33,2-7.35a4.53,4.53,0,0,0-1.54-2.66c-1.26-1-3.38-1.28-4.53-.22a2.36,2.36,0,0,0-.81,2c.22,1.16,1.82,2.26,4,2l.11,1c-2.79.31-4.77-1.19-5.08-2.83a3.35,3.35,0,0,1,1.11-2.95c1.58-1.44,4.24-1,5.81.16a5.51,5.51,0,0,1,1.91,3.22C26.8,38.13,23.91,42.64,23.79,42.83Z"/><g id="Paint"><path d="M75.13,63.39,73.79,47.67c0-3.4.8-5.83,2.38-7.26a5,5,0,0,1,3.5-1.32,6.94,6.94,0,0,1,5.42,1.84,8.69,8.69,0,0,1,2.15,5.92L89,62.35Zm4.34-23.3a4,4,0,0,0-2.64,1.07c-1.36,1.24-2,3.42-2,6.47L76,62.32l11.84-.89L86.24,46.89c0-.11.1-3.31-1.86-5.26a6,6,0,0,0-4.69-1.53h-.22Z"/><path d="M77.42,40.49l-1,0a.78.78,0,0,1,0-.13,3.3,3.3,0,0,1,2.87-3,2.88,2.88,0,0,1,2.21.51,2.07,2.07,0,0,1,.7,1.22l.5,1.39-.87-.18s-.41-.07-2.62-.18c-1.36-.08-1.76.24-1.8.38Zm1.43-1.42.42,0,2,.12c0-.22-.24-1.05-1.81-.89a2,2,0,0,0-1.48.83A5.08,5.08,0,0,1,78.85,39.07Z"/><polygon points="80.3 37.87 80.09 35.44 79.51 35.62 79.51 37.59 78.51 37.59 78.51 34.89 80.98 34.11 81.3 37.78 80.3 37.87"/><path d="M85.25,38h-.1a4.57,4.57,0,0,1-2.83-1.14L82,36.51l.27-.37a4.43,4.43,0,0,1,3.5-1.83c1.15.06,2.76.8,2.73,1.85a1.2,1.2,0,0,1-.41.85A4.42,4.42,0,0,1,85.25,38Zm-1.88-1.6a3.48,3.48,0,0,0,1.81.6,2.93,2.93,0,0,0,2.29-.82,2.27,2.27,0,0,0-1.79-.83A3.07,3.07,0,0,0,83.37,36.36Z"/><path d="M84.79,33.21a5.11,5.11,0,0,1-.68,0l-.51-.08.08-.5a4.82,4.82,0,0,1,1.47-2.81c1-.87,2.75-1.69,3.51-.9s-.08,2.43-1,3.26A4.18,4.18,0,0,1,84.79,33.21Zm0-1h0A3.2,3.2,0,0,0,87,31.42a2.6,2.6,0,0,0,.9-1.87,3.38,3.38,0,0,0-2.1,1A3.57,3.57,0,0,0,84.79,32.21Z"/><path d="M23.11,62.87l-13.86-1L11,46.26a8.56,8.56,0,0,1,2.14-5.85,7,7,0,0,1,5.42-1.83,4.93,4.93,0,0,1,3.5,1.31c1.58,1.44,2.39,3.87,2.39,7.22ZM10.36,60.92l11.84.88,1.26-14.73c0-3-.69-5.18-2.05-6.43a3.88,3.88,0,0,0-2.79-1.06h-.07a6,6,0,0,0-4.69,1.53A7.78,7.78,0,0,0,12,46.29Z"/><path d="M20.82,40a.26.26,0,0,0,0-.07c-.06-.1-.48-.41-1.79-.33-2.21.12-2.61.18-2.63.18l-.84.15L16,38.54a2,2,0,0,1,.7-1.21,2.85,2.85,0,0,1,2.2-.52,3.32,3.32,0,0,1,2.88,3,.85.85,0,0,1,0,.13Zm-2.38-2.19c-1.2,0-1.39.71-1.42.91L19,38.57a5.61,5.61,0,0,1,1.33.06,2,2,0,0,0-1.47-.82Z"/><polyline class="cls-1" points="19.23 37.07 19.23 34.74 17.7 34.26 17.44 37.31"/><polygon points="17.94 37.35 16.94 37.27 17.25 33.6 19.73 34.37 19.73 37.07 18.73 37.07 18.73 35.11 18.15 34.92 17.94 37.35"/><path d="M9.44,39.2A3.32,3.32,0,0,1,8,38.92a1.16,1.16,0,0,1-.66-.68c-.34-1,1-2.18,2-2.6a4.43,4.43,0,0,1,3.89.68l.38.27-.25.4A4.54,4.54,0,0,1,11,38.94,5.15,5.15,0,0,1,9.44,39.2Zm1.16-2.78a2.26,2.26,0,0,0-.87.16c-.9.34-1.5,1.13-1.46,1.33a2.87,2.87,0,0,0,2.44.09,3.45,3.45,0,0,0,1.54-1.13A3.59,3.59,0,0,0,10.6,36.42Z"/><path d="M13.9,35.29a3.84,3.84,0,0,1-2.06-.56c-1-.64-2.13-2.12-1.58-3s2.5-.49,3.61.17a4.8,4.8,0,0,1,2,2.45l.18.48-.48.17A5.08,5.08,0,0,1,13.9,35.29ZM11.46,32.2a.59.59,0,0,0-.36.07,2.72,2.72,0,0,0,1.27,1.61,3.25,3.25,0,0,0,2.35.33,3.69,3.69,0,0,0-1.35-1.45A4.19,4.19,0,0,0,11.46,32.2Z"/><path d="M5.56,35.3A5.13,5.13,0,0,1,4,35.05a4.22,4.22,0,0,1-2.43-2,1.11,1.11,0,0,1,0-1c.55-1,3-1,4.42-.55A5.12,5.12,0,0,1,8.89,33.8l.28.46-.49.24A7.17,7.17,0,0,1,5.56,35.3ZM4,32.22c-.78,0-1.38.15-1.48.33a.51.51,0,0,0,0,.19,3.39,3.39,0,0,0,1.8,1.36,5.09,5.09,0,0,0,3.39-.25,4.14,4.14,0,0,0-2-1.37A6.27,6.27,0,0,0,4,32.22Z"/><rect x="75.09" y="54.65" width="12.1" height="1" transform="translate(-6.44 10.93) rotate(-7.41)"/><rect x="16.46" y="48.49" width="1" height="12.14" transform="matrix(0.05, -1, 1, 0.05, -38.34, 68.93)"/></g><path class="cls-1" d="M74.48,56.33c-2.85-1.57-4.17-4.47-3.45-6.73a4.54,4.54,0,0,1,3.57-3.1c1.48-.19,3.33.49,3.49,1.44s-1.73,2.51-4.69,3.6"/><path d="M74.23,56.77c-3-1.64-4.51-4.72-3.68-7.32a5.09,5.09,0,0,1,4-3.45c1.67-.21,3.82.56,4,1.86.35,2-3.75,3.69-5,4.15l-.34-.94c3.18-1.17,4.47-2.48,4.37-3s-1.61-1.2-2.93-1a4,4,0,0,0-3.16,2.77c-.68,2.11.7,4.74,3.21,6.13Z"/><path d="M75.23,41.71c-2-2.39-2.38-5.63-.89-7.87a6.79,6.79,0,0,1,5.87-2.69,3.06,3.06,0,0,1,2.65,1.11c.51.91-.11,2.28-1.94,4.32l-.74-.67c2-2.28,1.9-3,1.8-3.17s-.77-.56-1.81-.6a5.87,5.87,0,0,0-5,2.25A5.69,5.69,0,0,0,76,41.07Z"/><path class="cls-1" d="M88.13,44.36a3.51,3.51,0,0,0-1.36-4c-2.06-1.34-5.18.66-6.47,2.56-.28.41-1,1.55-.63,2.38s2,.9,3.1.89C84.49,46.23,87.37,46.22,88.13,44.36Z"/><path d="M82.58,46.73c-1.18,0-2.8,0-3.36-1.17s.34-2.39.67-2.88c1.41-2.09,4.77-4.25,7.16-2.69a4,4,0,0,1,1.55,4.56c-.9,2.17-4,2.18-5.83,2.18Zm2.65-6.26a6.34,6.34,0,0,0-4.51,2.77c-.59.87-.8,1.5-.61,1.88.31.62,1.79.62,2.66.61,1.59,0,4.26,0,4.9-1.56h0a3,3,0,0,0-1.17-3.35A2.28,2.28,0,0,0,85.23,40.47Z"/><path class="cls-1" d="M89.84,46.83a4.34,4.34,0,0,0-4.22-1.7c-1.71.25-3.69,1.59-3.7,3.32a2.45,2.45,0,0,0,1.32,2.25c1.31.48,2.73-1.23,3.4-.72s-.16,1.6.35,2,2.7-.42,3.31-2.09A3.59,3.59,0,0,0,89.84,46.83Z"/><path d="M87.45,52.6a1.2,1.2,0,0,1-.77-.23,1.47,1.47,0,0,1-.35-1.43,1.84,1.84,0,0,0,0-.57,3.7,3.7,0,0,0-.8.34,3.12,3.12,0,0,1-2.47.46,2.94,2.94,0,0,1-1.65-2.72c0-2,2.15-3.53,4.13-3.82a4.87,4.87,0,0,1,4.7,1.92,4,4,0,0,1,.52,3.52,4.17,4.17,0,0,1-2.67,2.44A2.6,2.6,0,0,1,87.45,52.6Zm-1.1-3.22a1,1,0,0,1,.6.2,1.51,1.51,0,0,1,.37,1.47,1.71,1.71,0,0,0,0,.55,1.34,1.34,0,0,0,.66-.1,3.25,3.25,0,0,0,1.87-1.78,3.11,3.11,0,0,0-.42-2.61h0a3.85,3.85,0,0,0-3.72-1.49c-1.55.23-3.27,1.44-3.28,2.83a2,2,0,0,0,1,1.78,2.31,2.31,0,0,0,1.67-.41A3,3,0,0,1,86.35,49.38Z"/><path class="cls-1" d="M25.63,51.88a3.92,3.92,0,0,0,3.27-1.65c.61-1.33-.54-2.81-1.28-3.44-2.15-1.85-6.35-1.12-7.1.68a2.44,2.44,0,0,0,.3,2.08,3.24,3.24,0,0,0,3.4,1.19"/><path d="M25.66,52.38h0v-1A3.44,3.44,0,0,0,28.45,50c.45-1-.44-2.26-1.15-2.86A5.08,5.08,0,0,0,23,46.36a2.86,2.86,0,0,0-2,1.3,2.06,2.06,0,0,0,.25,1.62,2.77,2.77,0,0,0,2.9,1l.18,1a3.75,3.75,0,0,1-3.91-1.41,3,3,0,0,1-.34-2.56,3.72,3.72,0,0,1,2.72-1.88,6,6,0,0,1,5.17,1c.87.74,2.14,2.43,1.4,4C28.83,51.59,27,52.38,25.66,52.38Z"/><path class="cls-1" d="M11.84,50.79c-.22.06.32,1.71-.05,1.91s-3.41-1.78-2.85-4.25a3.57,3.57,0,0,1,2.94-2.56,4.11,4.11,0,0,1,4.3,2.94,3.11,3.11,0,0,1-.47,3,2.43,2.43,0,0,1-2.72.51C12.17,51.86,12,50.74,11.84,50.79Z"/><path d="M11.68,53.23a2.51,2.51,0,0,1-1.34-.61,4.39,4.39,0,0,1-1.88-4.28A4.05,4.05,0,0,1,11.8,45.4a4.61,4.61,0,0,1,4.86,3.29,3.42,3.42,0,0,1-.6,3.47,2.89,2.89,0,0,1-3.32.59,1.5,1.5,0,0,1-.33-.23.75.75,0,0,1-.38.62A.73.73,0,0,1,11.68,53.23Zm.71-6.88a3.42,3.42,0,0,0-.44,0,3,3,0,0,0-2.52,2.17A2.9,2.9,0,0,0,10,50.91a4.44,4.44,0,0,0,1.38,1.22c0-.18-.05-.41-.07-.56-.08-.58-.16-1.12.35-1.26h0c.47-.14.68.32.8.59a2.06,2.06,0,0,0,.73,1,2,2,0,0,0,2.12-.42A2.62,2.62,0,0,0,15.7,49,3.68,3.68,0,0,0,12.39,46.35Z"/><path class="cls-1" d="M13.07,42a3.37,3.37,0,0,0-2.72,2c-.46.91-.71,1.4-.6,2,.31,1.68,3.17,2.83,5.45,2.34.15,0,2.45-.55,2.68-1.87.05-.33.32-1.1-2.3-3.24C14.2,42.09,14.09,42,13.07,42Z"/><path d="M14.08,48.93a6.35,6.35,0,0,1-3.44-1,3,3,0,0,1-1.38-1.87,3.55,3.55,0,0,1,.64-2.32,3.89,3.89,0,0,1,3.15-2.23h0c1.21-.05,1.43.15,2.76,1.24l.09.07c2.42,2,2.61,3,2.48,3.67-.29,1.66-2.79,2.25-3.08,2.31A6.08,6.08,0,0,1,14.08,48.93Zm-1-6.41a2.9,2.9,0,0,0-2.3,1.68c-.45.89-.62,1.27-.55,1.69a2,2,0,0,0,1,1.22,5.39,5.39,0,0,0,3.89.72c.59-.13,2.15-.64,2.3-1.47.11-.61-.61-1.52-2.13-2.76l-.08-.07c-1.28-1-1.28-1-2.09-1Z"/></g><path d="M29,106h5v4.19H32.37l-.21-1.11a4,4,0,0,1-3.28,1.22c-2.84,0-4.51-1.28-4.51-4s1.67-4,4.84-4S33.9,103.5,34,105.6H31.09c-.11-.39-.67-.76-1.88-.76-1.69,0-2,.72-2,1.64s.3,1.77,2,1.77c1.1,0,1.77-.15,1.88-.67H29Z"/><path d="M42.86,108l1.37,2.21H40.84l-1.07-1.8H38.09v1.8H35.23v-7.7h6.05A3,3,0,0,1,42.86,108Zm-4.77-2h2.64c.29,0,.64,0,.64-.53S41,105,40.73,105H38.09Z"/><path d="M52.28,108.85H49l-.53,1.38H45.33l3.19-7.7h4.24l3.19,7.7H52.81Zm-.75-2-.89-2.36-.89,2.36Z"/><path d="M66.05,105.48a2.82,2.82,0,0,1-2.95,3H59.91v1.8H57.05v-7.7H63.1A2.83,2.83,0,0,1,66.05,105.48Zm-2.86,0c0-.53-.35-.53-.64-.53H59.91V106h2.64C62.84,106,63.19,106,63.19,105.48Z"/><path d="M77.49,102.53v7.7H74.63v-2.64H70.12v2.64H67.26v-7.7h2.86v2.64h4.51v-2.64Z"/><path d="M81.67,110.23H78.81v-7.7h2.86Z"/><path d="M87.61,102.42c3.08,0,4.69,1.08,4.81,3.51H89.49c-.11-.72-.67-1.09-1.88-1.09-1.69,0-2,.72-2,1.53s.3,1.55,2,1.55c1.21,0,1.77-.37,1.88-1.11h2.93c-.12,2.44-1.72,3.53-4.81,3.53-3.39,0-4.84-1.28-4.84-4S84.22,102.42,87.61,102.42Z"/><path d="M31.41,73.75a2.06,2.06,0,0,1-.3,1.11,1.75,1.75,0,0,1-.95.77,1.71,1.71,0,0,1-.55.09,1.47,1.47,0,0,1-.9-.3v1.75h-1V72.43h.18a.5.5,0,0,0,.8.07,1.64,1.64,0,0,1,1-.55h.15a1.44,1.44,0,0,1,1.07.47A1.94,1.94,0,0,1,31.41,73.75Zm-1.05.08c0-1.19-.32-1.61-.83-1.61a.91.91,0,0,0-.41.1h0a1.37,1.37,0,0,0-.41.34v2.24a.85.85,0,0,0,.77.69.72.72,0,0,0,.65-.45A3.06,3.06,0,0,0,30.36,73.83Z"/><path d="M35.33,74.55c0,.63-.5,1.17-1.49,1.17a3.48,3.48,0,0,1-1.36-.28l.21-.7c.46.07.68.88,1.25.88s.78-.24.78-.59-.39-.56-.82-.72l-.28-.11c-.4-.16-1.08-.43-1.08-1.14S33,71.94,34,71.94a3.13,3.13,0,0,1,1.19.25l-.2.74c-.27-.12-.56-.9-1.09-.9s-.71.24-.71.55.43.56.83.71l.28.1C34.63,73.55,35.33,73.81,35.33,74.55Z"/><path d="M40.08,75.64h-1v-.49a1.5,1.5,0,0,1-1.16.57,1.65,1.65,0,0,1-1.55-1.82,1.85,1.85,0,0,1,1.81-2,1.42,1.42,0,0,1,.89.29h0V70.47a1,1,0,0,1,1,1v3.05C40.07,74.83,40.08,75.34,40.08,75.64Zm-1-2.9v0a.82.82,0,0,0-.76-.67c-.57,0-.88.66-.88,1.78s.33,1.59.85,1.59a1,1,0,0,0,.8-.44Z"/><g id="Text"><path d="M39.68,18.27a3.74,3.74,0,0,1-2.41,4.89,54.57,54.57,0,0,0-5.51,2.39c-1.36-2.77-2-4.15-3.39-6.92A60,60,0,0,1,34.55,16C36.59,15.19,38.91,15.76,39.68,18.27Zm-3,1c-.49-1.34-1.56-.94-2.21-.69-.84.33-1.26.5-2.08.86l1.13,2.63c.79-.35,1.19-.51,2-.83C36.15,21,37.18,20.62,36.69,19.27Z"/><path d="M43.62,15.48l.16.69a57.34,57.34,0,0,1,5.76-1.11c.12.74.17,1.11.28,1.85A53.7,53.7,0,0,0,44.22,18l.17.7a55.28,55.28,0,0,1,5.54-1.08l.32,2.18A53.12,53.12,0,0,0,42,21.58c-.86-3-1.28-4.44-2.14-7.4a60,60,0,0,1,9.22-2c.13.87.2,1.31.33,2.18A55.34,55.34,0,0,0,43.62,15.48Z"/><path d="M54.07,16.61c0,.37.43.57,2.36.47s2.06-.17,2.06-.46-.28-.4-2.22-.35c-3.74.07-5.25-.22-5.48-2s1.6-2.71,5.11-2.89S61.3,12,61.26,14c-1.28,0-1.91,0-3.18,0,0-.41-.75-.49-2.32-.41s-1.8.19-1.78.49.33.23,2.19.21c3.37,0,5.44.27,5.38,2.28s-1.89,2.55-5.13,2.72-5.1-.08-5.4-2.35C52.24,16.78,52.85,16.71,54.07,16.61Z"/><path d="M65.65,19.39c-1.17-.11-1.76-.16-2.94-.22.16-3.07.23-4.61.38-7.69,1.32.07,2,.12,3.3.24C66.09,14.79,65.94,16.32,65.65,19.39Z"/><path d="M72.31,16.12a52.9,52.9,0,0,1,5.37,1.26l-1.13,4c-.66-.18-1-.27-1.65-.43l0-1.13a4.61,4.61,0,0,1-3.6.46c-2.87-.54-4.44-2-4.13-4.64s2.38-3.77,6-3.07,5,2.29,4.59,4.35c-1.26-.35-1.89-.51-3.16-.8,0-.41-.57-.91-1.9-1.17-1.86-.37-2.3.31-2.44,1.23s0,1.77,1.79,2.12c1.15.22,1.88.23,2.11-.24-.87-.2-1.31-.29-2.18-.46Z"/><path d="M90.8,18.63l-3.38,6.92c-1.42-.7-2.14-1-3.59-1.62A55.87,55.87,0,0,0,82.1,18.4c-.61,1.71-.91,2.57-1.51,4.28-1.13-.39-1.69-.58-2.83-.92.88-3,1.33-4.42,2.21-7.37,1.67.5,2.5.77,4.15,1.38a57.29,57.29,0,0,1,1.81,5.62c.73-1.67,1.09-2.5,1.81-4.17C89,17.75,89.59,18,90.8,18.63Z"/></g></g></g></svg>