<svg xmlns="http://www.w3.org/2000/svg" viewBox="0 0 92.34 30.43"><defs><style>.cls-1{fill:#fff;}</style></defs><g id="Calque_2" data-name="Calque 2"><g id="Luxe"><rect class="cls-1" width="92.34" height="30.43" rx="10.21"/><path d="M82.21,27.56H10.13a6.29,6.29,0,0,1-6.29-6.28V9.7a6.29,6.29,0,0,1,6.29-6.28H82.21A6.29,6.29,0,0,1,88.5,9.7V21.28A6.29,6.29,0,0,1,82.21,27.56ZM10.13,4.42A5.29,5.29,0,0,0,4.84,9.7V21.28a5.29,5.29,0,0,0,5.29,5.28H82.21a5.29,5.29,0,0,0,5.29-5.28V9.7a5.29,5.29,0,0,0-5.29-5.28Z"/><path d="M21.55,16.55V19H13.63v-7.7h2.86v5.28Z"/><path d="M27.82,19.08c-3.39,0-4.84-1.28-4.84-4V11.27h2.86v3.84c0,.83.29,1.55,2,1.55s2-.73,2-1.55V11.27h2.86v3.84C32.66,17.79,31.19,19.08,27.82,19.08Z"/><path d="M37.73,15.12l-3.64-3.85h3.74l1.93,2.2,1.94-2.2h3.74L41.8,15.12,45.44,19H41.7l-1.94-2.2L37.83,19H34.09Z"/><path d="M51.49,19.08c-3.39,0-4.84-1.28-4.84-4V11.27h2.86v3.84c0,.83.3,1.55,2,1.55s2-.73,2-1.55V11.27h2.86v3.84C56.33,17.79,54.87,19.08,51.49,19.08Z"/><path d="M65.5,16.76,66.87,19H63.48l-1.07-1.8H60.73V19H57.87v-7.7h6.05a2.83,2.83,0,0,1,3,3A2.84,2.84,0,0,1,65.5,16.76Zm-4.77-2h2.64c.29,0,.64,0,.64-.53s-.35-.53-.64-.53H60.73Z"/><path d="M67.2,11.27h3.3l2,2.86,2-2.86h3.3L74,16.44V19H71.11V16.44Z"/></g></g></svg>