<svg xmlns="http://www.w3.org/2000/svg" viewBox="0 0 97.87 118.74"><defs><style>.cls-1{fill:#fcfcfc;}.cls-2{fill:#fff;}</style></defs><g id="Calque_2" data-name="Calque 2"><g id="Etiquette_8" data-name="Etiquette 8"><g id="Fond"><ellipse class="cls-1" cx="48.94" cy="59.37" rx="48.94" ry="59.37"/><path d="M48.94,114C24.21,114,4.1,89.6,4.1,59.66S24.21,5.36,48.94,5.36s44.84,24.36,44.84,54.3S73.66,114,48.94,114Zm0-107.6C24.76,6.36,5.1,30.27,5.1,59.66S24.76,113,48.94,113s43.84-23.91,43.84-53.3S73.11,6.36,48.94,6.36Z"/></g><g id="Personnage"><path class="cls-2" d="M42.23,62.64l-.33-.17-.3-.16L17.78,50.22a1.79,1.79,0,0,0-.39-.13c-1.4-.22-9.45-1.34-2.12,4.41a1.14,1.14,0,0,0,.34.19l24.86,9.87.2.11.87.54a1.34,1.34,0,0,0,2-.79h0a1.34,1.34,0,0,0-.8-1.58Z"/><path d="M42.24,65.91a1.82,1.82,0,0,1-1-.28l-.87-.54L40.28,65,15.42,55.16a2.13,2.13,0,0,1-.46-.27c-2.62-2-3.58-3.43-3.13-4.46.59-1.35,3.4-1.19,5.64-.83a1.93,1.93,0,0,1,.53.17L42.44,62.18l.48.19a1.84,1.84,0,0,1,0,3.41A2,2,0,0,1,42.24,65.91ZM14.74,50.35c-1.17,0-1.87.2-2,.48,0,.08-.26.86,2.82,3.27a1.27,1.27,0,0,0,.22.13L40.65,64.1a1.59,1.59,0,0,1,.29.15l.86.53A.82.82,0,0,0,43,64.29a.83.83,0,0,0-.49-1l-1.18-.54L17.55,50.67a.68.68,0,0,0-.24-.08A15.7,15.7,0,0,0,14.74,50.35Z"/><path class="cls-2" d="M36.68,59.37s16,10.86,18.89,18.27a6,6,0,0,0-3.44,6.64H74.34V76.49s-6.25-7.28-11.87.77c0,0-7.15-12.26-13.53-16.73"/><path d="M74.84,84.78H51.7l-.07-.43a6.5,6.5,0,0,1,3.3-6.95C51.66,70.23,36.55,59.89,36.4,59.79L37,59c.66.45,16.12,11,19.08,18.49l.18.47-.46.18a5.44,5.44,0,0,0-3.19,5.68H73.84v-7.1c-.55-.57-2.9-2.85-5.7-2.7-1.91.1-3.68,1.29-5.26,3.56l-.45.64L62,77.51C62,77.39,54.87,65.3,48.65,60.94l.57-.82c5.63,3.94,11.7,13.61,13.29,16.23,1.66-2.13,3.54-3.27,5.58-3.37,3.73-.18,6.51,3,6.63,3.18l.12.14Z"/><path d="M71.79,74.45s-3.64-1-3.26,9.83h5.81V76.49Z"/><path d="M74.84,84.78H68.05l0-.49c-.18-5.28.54-8.6,2.14-9.86A2,2,0,0,1,71.92,74l.18.09,2.74,2.19Zm-5.82-1h4.82v-7l-2.26-1.81a1.2,1.2,0,0,0-.83.32C70,75.84,68.87,77.74,69,83.78Z"/><path class="cls-2" d="M48.8,69.07C42.2,75,35.74,74,35.74,74c9.54.42,7.83,9.7,7.83,9.7H32.68L29.36,70.49C28,66.74,30,67,30,67l5.11-.51C36.6,66.32,36.68,68,36.68,68c6.3-.17,5.86-4.18,5.86-4.18"/><path d="M44,84.18H32.29L28.88,70.61c-.62-1.68-.65-2.86-.1-3.56A1.51,1.51,0,0,1,30,66.5L35.1,66a1.72,1.72,0,0,1,1.34.37,2.18,2.18,0,0,1,.66,1.14,5.84,5.84,0,0,0,4.19-1.57,2.92,2.92,0,0,0,.75-2l1-.11a3.89,3.89,0,0,1-1,2.79c-1.07,1.23-2.88,1.88-5.37,2h-.48l0-.48a1.49,1.49,0,0,0-.39-.93.73.73,0,0,0-.58-.13L30,67.5H30a.49.49,0,0,0-.42.18c-.14.18-.39.81.27,2.64l3.24,12.86H43.14A8.94,8.94,0,0,0,41.64,77a7.19,7.19,0,0,0-5-2.47,8.33,8.33,0,0,1-1-.08l.11-1c.28,0,.55,0,.82.06A17.32,17.32,0,0,0,48.47,68.7l.67.74a19.29,19.29,0,0,1-9.49,4.86,7.13,7.13,0,0,1,2.78,2.1c2.4,3,1.67,7.19,1.64,7.37Z"/><polygon points="43.7 64.97 44.66 71.82 48.39 69.05 43.7 64.97"/><path d="M44.28,72.73l-1.26-9,6.17,5.37Zm.1-6.51.66,4.7L47.6,69Z"/><path d="M31.49,79.89l-13.92.28c-.64,0-1.28.06-1.92.14-2.59.32-8.39,1.3-.74,3a18.81,18.81,0,0,0,4,.41H32.68Z"/><path d="M33.36,84.18H18.87a19.21,19.21,0,0,1-4.06-.42c-3.54-.77-4.24-1.39-4.21-2.08s.65-1.33,5-1.87c.64-.08,1.31-.12,2-.14l14.29-.28ZM11.68,81.72A10.39,10.39,0,0,0,15,82.78a17.89,17.89,0,0,0,3.85.4H32l-.88-2.78-13.54.27a18.67,18.67,0,0,0-1.87.14A12.31,12.31,0,0,0,11.68,81.72Z"/><path d="M70.15,72.38c-1.29,0-3.28-.56-6.12-2.77l-.4-.32,8-9.65c-1.36-1.86-3.42-4.34-4.2-4.59l-.35-.11V45.63L80,55.84a4.67,4.67,0,0,1,2.58,2.81,4.27,4.27,0,0,1-1.37,3.75l-3.49,3.87-5.68,5.51A2.7,2.7,0,0,1,70.15,72.38Zm-5.09-3.25c4.56,3.39,6.28,1.94,6.3,1.93L77,65.58l3.47-3.85a3.35,3.35,0,0,0,1.13-2.86c-.31-1.39-2-2.12-2.06-2.13l-.12-.07-11.31-9v6.57c1.52.88,4.06,4.37,4.58,5.11l.23.31Z"/><path d="M54.27,61.12c-17.26-.85-19.32-4.57-19.5-5l0-.12-.63-4.24-11-1.8,0-.45c0-.25.43-6.1.86-8.73A3.92,3.92,0,0,1,25.7,38c1.47-1,3.86-1.11,7.09-.35,4.43,1,8.8,7.45,10.55,10.3l1.22-13.44,15.83-.8,3.06,3.68-.77.64L60,34.75l-14.47.73L44.05,51.23l-.79-1.44c0-.1-5.53-9.94-10.69-11.15-3-.7-5.08-.63-6.31.2A3,3,0,0,0,25,41c-.35,2.17-.7,6.73-.81,8.18L35,50.91l.73,4.86c.24.36,2.87,3.58,18.6,4.35Z"/><path d="M45,35s-6.55.14-8.82,5c0,0,5.91,5,7.5,8.93Z"/><path d="M44,51.07l-.77-1.9c-1.53-3.8-7.3-8.69-7.36-8.74l-.29-.24.16-.35c2.37-5.13,9-5.33,9.26-5.34h.56ZM36.82,39.92a36.62,36.62,0,0,1,6.55,7.31l1.1-11.69C42.93,35.71,38.66,36.47,36.82,39.92Z"/><path d="M51.58,54.59l0-.55a4.52,4.52,0,0,1,3-4.71l.08,0,3.32.12a8.73,8.73,0,0,0,2.33-.22l3.24-.74h.07a2.54,2.54,0,0,1,2,1,4.1,4.1,0,0,1,.46,3l-.08.35Zm3.23-4.28a3.43,3.43,0,0,0-2.24,3.14l12.57-1.58a2.7,2.7,0,0,0-.34-1.82,1.53,1.53,0,0,0-1.15-.57l-3.09.71a10.29,10.29,0,0,1-2.59.24Z"/><path d="M54.11,57.28l3.17-.73a9.21,9.21,0,0,1,2.46-.22l3.24.12a4,4,0,0,0,2.68-4.21L52.15,53.93S51.43,57.09,54.11,57.28Z"/><path d="M54.15,57.78h-.07a2.54,2.54,0,0,1-2-1,4.07,4.07,0,0,1-.46-3l.08-.34,14.4-1.81,0,.55a4.51,4.51,0,0,1-3,4.71L63,57l-3.32-.13a9.59,9.59,0,0,0-2.33.22Zm-1.57-3.4a2.75,2.75,0,0,0,.35,1.82,1.47,1.47,0,0,0,1.14.57l3.1-.7a9.37,9.37,0,0,1,2.58-.24l3.16.12a3.44,3.44,0,0,0,2.25-3.15Z"/><circle cx="46.96" cy="53.28" r="2.07"/><path d="M47,55.85a2.58,2.58,0,1,1,2.57-2.57A2.58,2.58,0,0,1,47,55.85Zm0-4.15a1.58,1.58,0,1,0,1.57,1.58A1.58,1.58,0,0,0,47,51.7Z"/><path d="M38.16,37.47c-.1-.14-2.37-3.27-1.79-6.49a5.86,5.86,0,0,1,2.72-3.9,8.34,8.34,0,0,1,4.41-1.3l13.34-.34a4,4,0,0,1,2.8,1.61c1.15,1.52,1.41,3.84.76,6.9l-1-.2c.56-2.71.37-4.81-.57-6.08a3.15,3.15,0,0,0-2-1.24l-13.28.35a7.27,7.27,0,0,0-3.89,1.14,4.94,4.94,0,0,0-2.29,3.23c-.5,2.79,1.59,5.7,1.61,5.72Z"/><circle cx="43.64" cy="29.38" r="0.72"/><circle cx="46.48" cy="30.72" r="0.62"/><circle cx="49.99" cy="31.94" r="0.83"/><circle cx="53.85" cy="29.7" r="0.7"/><circle cx="56.47" cy="28.66" r="0.72"/><circle cx="49.83" cy="29" r="1.21"/><circle cx="45.86" cy="28.27" r="0.62"/><circle cx="41.95" cy="31.94" r="0.73"/><circle cx="38.91" cy="30.72" r="0.57"/><circle cx="38.34" cy="33.76" r="0.57"/><circle cx="40.45" cy="34.01" r="0.59"/><circle cx="45.23" cy="32.96" r="0.62"/><circle cx="53.66" cy="32.34" r="0.7"/><circle cx="57.52" cy="31.55" r="0.61"/><circle cx="53.15" cy="27.44" r="0.51"/><circle cx="40.73" cy="28.27" r="0.62"/><circle class="cls-2" cx="51.74" cy="43.49" r="4.9"/><path d="M51.74,48.89a5.4,5.4,0,1,1,5.4-5.4A5.4,5.4,0,0,1,51.74,48.89Zm0-9.8a4.4,4.4,0,1,0,4.4,4.4A4.4,4.4,0,0,0,51.74,39.09Z"/><circle class="cls-2" cx="63.68" cy="41.99" r="4.82"/><path d="M63.68,47.31A5.32,5.32,0,1,1,69,42,5.33,5.33,0,0,1,63.68,47.31Zm0-9.64A4.32,4.32,0,1,0,68,42,4.33,4.33,0,0,0,63.68,37.67Z"/><path d="M61.56,42.31A3.31,3.31,0,1,0,65.17,39a5.52,5.52,0,0,0-1.31.17l.59,2.64L62.4,40.24A6.63,6.63,0,0,0,61.56,42.31Z"/><path d="M49.66,43.89a3.32,3.32,0,1,0,3.61-3.26,5.49,5.49,0,0,0-1.3.17l.59,2.63-2.06-1.6A6.92,6.92,0,0,0,49.66,43.89Z"/><path class="cls-2" d="M71.42,59.89s-4.16-6.12-5-5.17"/><path d="M71,60.17c-1.62-2.37-3.76-5-4.36-5.05a.17.17,0,0,0,.15-.07l-.75-.65a.8.8,0,0,1,.66-.28c1.31.08,4,3.87,5.12,5.49Z"/><path class="cls-2" d="M66.68,56.77c0-.59-.24-3.92-2.62-5.3-.17-.1-1.7-1-2.55-.38s-.34,2.7.06,3.76a9,9,0,0,1,.79,2c.16.86.14,2.13-.27,2.25s-1.22-1.45-3.45-4.21C57.1,53,56.52,52.72,56,52.74a2.3,2.3,0,0,0-1.91,1.86c-.33,2.16,3.55,4.27,3.12,5-.24.42-1.58-.3-2.36.39a2.43,2.43,0,0,0-.44,2c.39,3.25,8.72,6.72,9.91,7.21"/><path d="M64.15,69.68c-2.29-1-9.82-4.27-10.22-7.62a2.89,2.89,0,0,1,.61-2.48,2.44,2.44,0,0,1,2-.39h.07c-.19-.21-.47-.48-.69-.7-1-1-2.49-2.42-2.26-4A2.8,2.8,0,0,1,56,52.25c.72,0,1.43.3,3,2.29.91,1.13,1.58,2.08,2.07,2.77.3.42.6.85.81,1.09a4.85,4.85,0,0,0,0-1.5,3.09,3.09,0,0,0-.38-1,6.75,6.75,0,0,1-.38-.83c-.13-.34-1.25-3.38.11-4.35,1-.71,2.5,0,3.09.35,2.48,1.45,2.82,4.74,2.87,5.71l-1,0c0-.85-.33-3.7-2.37-4.89-.71-.41-1.6-.69-2-.41s-.24,1.94.24,3.18a5.74,5.74,0,0,0,.34.73,4.34,4.34,0,0,1,.47,1.32c0,.1.44,2.49-.62,2.82-.64.2-1-.38-1.94-1.65-.48-.68-1.14-1.62-2-2.72-1.58-2-2-1.94-2.2-1.93a1.83,1.83,0,0,0-1.45,1.43c-.15,1,1.07,2.23,2,3.1s1.48,1.44,1.1,2.06c-.27.45-.8.4-1.27.35a1.66,1.66,0,0,0-1.19.15c-.42.38-.31,1.3-.28,1.61.27,2.23,5.35,5.06,9.61,6.81Z"/><path class="cls-2" d="M23.36,49.72c-1.27,2-3.36,5.89-2.13,9.71.41,1.27,1.42,3.23,2.22,3.1s1.09-1.67,1.15-3.83a5.66,5.66,0,0,0,1.27,4.51c.26.26,1.25,1.28,2.09,1s1.41-1.86,1.06-4c-.46,2.1.6,3.93,2,4.3S34,64,34.13,63s-1.35-1.38-1.28-2.59a1.86,1.86,0,0,1,1.28-1.62c.94-.27,1.62,1.28,2.25,1.06.27-.09.58-.49.6-2"/><path d="M31.63,65.11a2.84,2.84,0,0,1-2.46-1.37,1.88,1.88,0,0,1-1.06,1c-.75.23-1.63-.15-2.59-1.15a4.71,4.71,0,0,1-1-1.5,1.42,1.42,0,0,1-1,1c-1.57.27-2.76-3.4-2.77-3.44-1.2-3.72.52-7.56,2.18-10.13l.84.54c-1.54,2.39-3.15,5.94-2.07,9.28C22.2,60.78,23.06,62,23.37,62s.54-.79.68-2.48a7.45,7.45,0,0,1,.05-.92l1,.08c0,.26,0,.57-.05.88a4.68,4.68,0,0,0,1.18,3.26c.94,1,1.41,1,1.58.9s.61-.58.74-1.36a5,5,0,0,1,0-2.27l.56-2.56.42,2.58a7.74,7.74,0,0,1,.07,2.18,2.47,2.47,0,0,0,1.57,1.72,2.57,2.57,0,0,0,1.92-.39,1.2,1.2,0,0,0,.56-.68c0-.2-.15-.41-.44-.74a2.41,2.41,0,0,1-.84-1.82A2.37,2.37,0,0,1,34,58.35a1.94,1.94,0,0,1,1.81.7,2.25,2.25,0,0,0,.46.36,4.08,4.08,0,0,0,.22-1.57l1,0c0,1.52-.31,2.3-.94,2.51s-1-.23-1.41-.57-.63-.56-.86-.49a1.38,1.38,0,0,0-.92,1.17c0,.4.2.68.58,1.09a1.9,1.9,0,0,1,.69,1.54,2,2,0,0,1-1,1.38A3.67,3.67,0,0,1,31.63,65.11Z"/></g><g id="Text"><path d="M36.74,15.72l1.7,3.84c-.38.17-.57.26-.95.45-.91-1.86-1.36-2.79-2.27-4.64h0a1.32,1.32,0,0,1,.92-.12A.88.88,0,0,1,36.74,15.72Z"/><path d="M40.43,17.39a.4.4,0,0,0,.08.25.35.35,0,0,0,.05.08l0,0h0a1.07,1.07,0,0,0,1.1.29,1.51,1.51,0,0,0,.94-.88l.1,0a2.13,2.13,0,0,1-1.37,1.37,1.88,1.88,0,0,1-1.43-3.46,2.41,2.41,0,0,1,.5-.21h.06a2,2,0,0,1,.8-.11l.22,0c.81.13,1.18.62,1,1.18-.25.81-1.46.86-1.92,1.15h0a.41.41,0,0,0-.15.14s0,0,0,0a.28.28,0,0,0,0,.09S40.42,17.39,40.43,17.39Zm.11-.53,0,0,0,0c.33-.24.78-.46.91-.93a.81.81,0,0,0,0-.3.71.71,0,0,0-.91-.64h-.08a1,1,0,0,0-.3.14c-.4.31-.48.92-.22,1.7a3.66,3.66,0,0,0,.2.48l0,.07s0,0,0,.08A.52.52,0,0,1,40.54,16.86Z"/><path d="M48,17.12v0a1.46,1.46,0,0,1-.76.26.67.67,0,0,1-.69-.29,2.4,2.4,0,0,1-1.18.52c-.87.12-1.52-.2-1.65-.86-.23-1.15,1.79-1.68,1.72-2.26a.25.25,0,0,0-.24-.21h-.11a1.86,1.86,0,0,0-.26,0,1.19,1.19,0,0,0-.4.21l-.18-.15a1.81,1.81,0,0,1,1.44-.63,1.7,1.7,0,0,1,1.75,1.58h0c0,.51,0,.77.06,1.28,0,.33,0,.51.36.5ZM46.52,17h0l-.15-1.68h0c-.1-.87-.19-1.41-.74-1.41-.22,0-.34.14-.45.34.29,0,.52.1.55.35.07.58-1,1.07-.85,1.92a.84.84,0,0,0,1,.71A1.34,1.34,0,0,0,46.52,17Z"/><path d="M52.72,17.54l-1-.12c0-.19,0-.29.06-.49a1.72,1.72,0,0,1-1.25.49,1.74,1.74,0,0,1-1.6-1.85A1.9,1.9,0,0,1,51,13.66,1.61,1.61,0,0,1,52,14h0c.06-.7.1-1,.16-1.75a1.33,1.33,0,0,1,.88.44.87.87,0,0,1,.2.68L52.91,16l-.06.42C52.81,16.74,52.76,17.25,52.72,17.54Zm-.75-3v0a.92.92,0,0,0-.82-.74c-.67,0-1,.62-1.09,1.74s.3,1.6.83,1.63a1.11,1.11,0,0,0,.87-.37C51.84,15.88,51.88,15.43,52,14.54Z"/><path d="M55.39,16.69a.45.45,0,0,0-.06.26.38.38,0,0,0,0,.1v0h0a1,1,0,0,0,.79.81,1.49,1.49,0,0,0,1.26-.26l.07.07a2.07,2.07,0,0,1-1.87.46,1.87,1.87,0,0,1,.56-3.69,2,2,0,0,1,.54.08h.05a2,2,0,0,1,.75.33l.17.13c.62.54.69,1.15.25,1.54-.63.56-1.69,0-2.24,0h0a.36.36,0,0,0-.19,0s0,0,0,0a.17.17,0,0,0-.06.06Zm.37-.39h.08A1.89,1.89,0,0,0,57.11,16a.69.69,0,0,0,.18-.24.71.71,0,0,0-.45-1h-.07a1,1,0,0,0-.34,0c-.49,0-.88.53-1.06,1.34a2.4,2.4,0,0,0-.07.51.28.28,0,0,0,0,.09v.08A.51.51,0,0,1,55.76,16.3Z"/><path d="M62.42,16.76l-.38.77,0,0a.91.91,0,0,0-.49-.53,1.11,1.11,0,0,0-.43-.09,1,1,0,0,0-.38.11h0a.88.88,0,0,0-.25.22l0,.05-.9,2.13c-.38-.16-.58-.24-1-.38l1.28-3.38.08,0a1.16,1.16,0,0,1,.56.53.91.91,0,0,1,.06.72l-.06.15h0a1.31,1.31,0,0,1,1.58-.47,2,2,0,0,1,.32.15Z"/><path d="M28.94,95.83c-.57.78-.86,1.17-1.42,2-.43-.31-.64-.47-1.05-.79L28,95a.75.75,0,0,0,0-1.16,1.5,1.5,0,0,0-.95-.32h0l-2,2.26-1-.89,3.54-3.77.09.09a1.14,1.14,0,0,1,.23,1.27l0,.06-.76.88a2.19,2.19,0,0,1,1.47.5A1.25,1.25,0,0,1,28.94,95.83Z"/><path d="M33.14,100.94v0a2.2,2.2,0,0,1-1-.24c-.44-.24-.55-.51-.55-.7a2.73,2.73,0,0,1-1.52-.44c-.95-.57-1.3-1.36-.92-1.92.66-1,2.67.06,3-.44a.27.27,0,0,0-.07-.32h0L32,96.84h0a1.36,1.36,0,0,0-.23-.14,1.14,1.14,0,0,0-.45-.11,1.85,1.85,0,0,0,0-.23,2,2,0,0,1,1.52.42,1.85,1.85,0,0,1,.66,2.31h0l-.6,1.14c-.15.29-.23.46.13.64Zm-1.51-1.08h0l.82-1.46.06,0-.06,0c.42-.77.64-1.26.2-1.59a.53.53,0,0,0-.56,0c.23.18.36.4.23.62-.29.51-1.51.18-2,.91-.27.44-.08,1,.52,1.3A1.68,1.68,0,0,0,31.63,99.86Z"/><path d="M38.29,99.38l-.28.8h0a1,1,0,0,0-.54-.48.91.91,0,0,0-.43,0,.81.81,0,0,0-.38.12h0a.8.8,0,0,0-.23.22l-.05,0c-.34.86-.51,1.29-.86,2.15-.46-.18-.7-.28-1.16-.49l1.46-3.3.08,0a1.25,1.25,0,0,1,.53.54,1,1,0,0,1,.06.72l-.06.15h0a1.41,1.41,0,0,1,1.54-.57l.32.11Z"/><path d="M42.43,104.19l-1.24-.25.13-.47a2,2,0,0,1-1.56.21,1.76,1.76,0,0,1-1.33-2.27A2.05,2.05,0,0,1,41,100.1a1.8,1.8,0,0,1,.92.52h0c.16-.69.23-1,.38-1.72a1.18,1.18,0,0,1,.74.49,1,1,0,0,1,.13.7l-.47,2.57-.08.42C42.56,103.4,42.49,103.9,42.43,104.19Zm-.61-3.08v0a.93.93,0,0,0-.69-.85c-.64-.16-1.16.38-1.46,1.46s0,1.65.6,1.8a1.34,1.34,0,0,0,1.07-.19C41.53,102.43,41.62,102,41.82,101.11Z"/><path d="M50,101.16c-.31.57-.56,1.11-1.07,2.11-.33.66-.51,1-.87,1.64h0c-.44-1-.65-1.42-1-2.38-.51.9-.78,1.35-1.35,2.23h0a35.18,35.18,0,0,1-1.41-4l.67.09a.82.82,0,0,1,.68.52c.29.81.44,1.21.77,2,.54-.91.79-1.37,1.27-2.29h0c.38,1,.58,1.43,1,2.38l.14-.29a3.61,3.61,0,0,0,.36-2.06Z"/><path d="M54,104.46a2.26,2.26,0,0,1-3-.93A1.88,1.88,0,0,1,52.28,101a2.23,2.23,0,0,1,2.88.82C55.75,102.84,55.26,104,54,104.46Zm.09-2.08c-.54-1-1.19-1.5-1.79-1.27s-.64,1-.17,2,1.21,1.52,1.86,1.26S54.59,103.32,54.07,102.38Z"/><path d="M59,99.64c.11.32.16.48.26.81h0a1,1,0,0,0-.71-.06.83.83,0,0,0-.38.21.86.86,0,0,0-.23.33h0a.59.59,0,0,0-.06.32v.06c.23.9.35,1.35.59,2.24-.48.13-.72.19-1.21.3-.32-1.41-.48-2.11-.81-3.52l.09,0a1.24,1.24,0,0,1,.74.12.93.93,0,0,1,.47.54l0,.15h0a1.39,1.39,0,0,1,.89-1.37c.13,0,.27-.08.33-.1Z"/><path d="M65.35,100.61a.75.75,0,0,1,.09.29c-.51.26-.77.38-1.28.62a.81.81,0,0,0-.07-.4c-.36-.79-1.62-.61-1.84-1.15h0c-.15.24-.22.37-.38.61l.65,1.65c-.47.19-.7.27-1.18.44-.7-1.94-1-2.91-1.74-4.86h0a1.21,1.21,0,0,1,.82,0,1,1,0,0,1,.56.53l.83,2.09c.23-.38.34-.56.56-.94.4-.66.34-.9.23-1.22l1-.48h0c-.38.54-.67,1-1,1.57l0,0,0,0c-.06.12-.13.3,0,.41l0,0h0C63,100.26,64.86,99.64,65.35,100.61Z"/><path d="M67.22,98.42a.37.37,0,0,0,.14.22l.08.07,0,0h0a1.23,1.23,0,0,0,1.3-.11,1.77,1.77,0,0,0,.8-1.27l.11,0a2.43,2.43,0,0,1-1.17,1.94,1.9,1.9,0,0,1-2.82-.48,2,2,0,0,1,.54-2.5,3.39,3.39,0,0,1,.42-.33l0,0a2.31,2.31,0,0,1,.74-.34l.2,0c.82-.15,1.38.12,1.41.73,0,.86-1.25,1.39-1.69,1.82h0a.51.51,0,0,0-.13.18,0,0,0,0,1,0,0v.1Zm0-.56,0,0,0,0c.3-.34.71-.72.7-1.22a.54.54,0,0,0-.07-.29A.71.71,0,0,0,66.86,96h0l0,0h0a1.05,1.05,0,0,0-.24.23c-.31.39-.27,1,.15,1.71a3.82,3.82,0,0,0,.3.42.46.46,0,0,0,.07.07l.06.06S67,98.21,67.24,97.86Z"/><path d="M71.55,92.26l.58.62,0,0a1,1,0,0,0-.69.28,1,1,0,0,0-.28.37,1.15,1.15,0,0,0-.08.41h0a.72.72,0,0,0,.08.32l0,.06,1.49,1.76c-.4.34-.6.51-1,.83L69.4,94.11l.07-.06a1.27,1.27,0,0,1,.75-.23.9.9,0,0,1,.67.27l.1.12h0a1.45,1.45,0,0,1,.27-1.67l.26-.24Z"/></g></g></g></svg>