<svg xmlns="http://www.w3.org/2000/svg" viewBox="0 0 92.34 30.43"><defs><style>.cls-1{fill:#fff;}</style></defs><g id="Calque_2" data-name="Calque 2"><g id="DUT_MMI" data-name="DUT MMI"><rect class="cls-1" width="92.34" height="30.43" rx="10.21"/><path d="M82.21,27.56H10.13a6.29,6.29,0,0,1-6.29-6.28V9.7a6.3,6.3,0,0,1,6.29-6.29H82.21A6.3,6.3,0,0,1,88.5,9.7V21.28A6.29,6.29,0,0,1,82.21,27.56ZM10.13,4.41A5.3,5.3,0,0,0,4.84,9.7V21.28a5.29,5.29,0,0,0,5.29,5.28H82.21a5.29,5.29,0,0,0,5.29-5.28V9.7a5.3,5.3,0,0,0-5.29-5.29Z"/><path d="M21.14,15.12A3.52,3.52,0,0,1,17.53,19H11.81v-7.7h5.72A3.52,3.52,0,0,1,21.14,15.12Zm-2.86,0c0-1.43-1-1.43-1.63-1.43h-2v2.86h2C17.27,16.55,18.28,16.55,18.28,15.12Z"/><path d="M27.41,19.08c-3.39,0-4.84-1.28-4.84-4V11.27h2.86v3.84c0,.83.3,1.55,2,1.55s2-.73,2-1.55V11.27h2.86v3.84C32.25,17.79,30.79,19.08,27.41,19.08Z"/><path d="M43.14,13.69h-3.3V19H37V13.69h-3.3V11.27h9.46Z"/><path d="M61.86,19H59V15.31L56.9,19H55l-2.1-3.66V19H50.07v-7.7h3.52L56,15.67l2.37-4.4h3.52Z"/><path d="M75.2,19H72.33V15.31L70.23,19H68.36l-2.1-3.66V19H63.4v-7.7h3.52l2.38,4.4,2.37-4.4H75.2Z"/><path d="M79.59,19H76.73v-7.7h2.86Z"/></g></g></svg>