<svg xmlns="http://www.w3.org/2000/svg" viewBox="0 0 96 160.85"><defs><style>.cls-1{fill:#fff;}.cls-2{fill:#1d1d1b;}</style></defs><g id="Calque_2" data-name="Calque 2"><g id="ai"><rect class="cls-1" width="96" height="160.85" rx="41.87"/><path class="cls-2" d="M53.93,155.4H42.07A37,37,0,0,1,5.13,118.45V43.05A37,37,0,0,1,42.07,6.11H53.93A37,37,0,0,1,90.87,43.05v75.4A37,37,0,0,1,53.93,155.4ZM42.07,8.11A35,35,0,0,0,7.13,43.05v75.4a35,35,0,0,0,34.94,35H53.93a35,35,0,0,0,34.94-34.95V43.05A35,35,0,0,0,53.93,8.11Z"/><rect class="cls-2" x="6.13" y="53.38" width="83.74" height="2"/><rect class="cls-2" x="6.13" y="105.98" width="83.74" height="2"/><path d="M53.3,96.31v.29a12.05,12.05,0,0,1-5.93,1.57c-3.09,0-4.43-1.34-5-2.56A16.53,16.53,0,0,1,33,98.37c-6.71,0-11-3.28-11-8.22,0-8.47,14.54-10,14.54-14.2a1.83,1.83,0,0,0-1.43-1.76l-.12,0a3,3,0,0,0-.56-.1h0a7.21,7.21,0,0,0-1.8,0,6.71,6.71,0,0,0-2.87,1l-1.07-1.3a12.3,12.3,0,0,1,10.14-3.06c6.22.79,10.86,5.6,11.08,12.54h0l-.1,9.37c0,2.36,0,3.73,2.5,3.75A6.36,6.36,0,0,0,53.3,96.31ZM42,94.46a.13.13,0,0,1,0-.06h0L42,82.18l.44.06L42,82.18c-.05-6.37-.35-10.32-4-10.79-1.45-.18-2.38.7-3.27,2,1.91.21,3.41,1.19,3.41,3,0,4.26-7.82,6.75-7.82,13,0,3.72,2.64,6.17,6.87,6.17A10.21,10.21,0,0,0,42,94.46Z"/><path d="M57.47,64.5a3.9,3.9,0,1,1,3.06,2.83A3.76,3.76,0,0,1,57.47,64.5Zm7.71,14.11V97.74H57.41V71.43C61.7,71.43,65.18,74.64,65.18,78.61Z"/><path d="M36.06,126.53c-.53,1-.92,1.88-1.68,3.57L33.12,133h0l-2.85-6.43h1.09a1.16,1.16,0,0,1,1.06.69l1.53,3.48.28-.67a7.43,7.43,0,0,0,.61-3.5Z"/><path d="M38.35,130.47a.76.76,0,0,0,0,.45,1.36,1.36,0,0,0,0,.17l0,.06h0a1.63,1.63,0,0,0,1.55,1,2.28,2.28,0,0,0,1.83-1l.13.08a3.15,3.15,0,0,1-2.71,1.63,2.92,2.92,0,0,1-3-3.14,3.16,3.16,0,0,1,2.45-3.24,3.33,3.33,0,0,1,.78-.09h.08a2.88,2.88,0,0,1,1.17.21l.29.14c1.09.57,1.5,1.52,1,2.39-.65,1.25-2.51.77-3.33,1h0a.68.68,0,0,0-.28.15l0,0-.06.12Zm.42-.79.06,0,.06,0c.6-.23,1.37-.38,1.74-1.1a1.34,1.34,0,0,0,.16-.49,1.16,1.16,0,0,0-1-1.47h-.11a1.2,1.2,0,0,0-.47.1c-.69.29-1.09,1.23-1.09,2.64a6,6,0,0,0,.06.89.77.77,0,0,0,0,.15l0,.14A.9.9,0,0,1,38.77,129.68Z"/><path d="M48.75,131.23A3.16,3.16,0,0,1,46,132.86a2.92,2.92,0,0,1-3-3.14,3.18,3.18,0,0,1,3.24-3.33,3,3,0,0,1,2.37,1l-1,.85c-.47-.78-.55-1.69-1.26-1.69-1,0-1.57,1-1.57,2.74,0,1.95.76,2.88,1.89,2.88a2.28,2.28,0,0,0,1.83-1Z"/><path d="M53.56,132.19a3,3,0,0,1-1.86.67A1.47,1.47,0,0,1,50,131.23v-4.45h-.76v-.24H50v-1.65h.13a1.67,1.67,0,0,1,1.06.49,1.65,1.65,0,0,1,.49,1.1.11.11,0,0,1,0,0h0v0h1.65v1.1h0c-.7-.59-1-.89-1.52-.89h-.12v4.52c0,.28,0,1.05.81,1.05a2,2,0,0,0,.93-.28Z"/><path d="M58.23,132.73a3.07,3.07,0,0,1-4.07-2.08,3.18,3.18,0,0,1,2.22-4.12,3.06,3.06,0,0,1,4.07,2.08A3.18,3.18,0,0,1,58.23,132.73Zm.53-3.51c-.56-1.78-1.46-2.81-2.39-2.52s-1.06,1.6-.51,3.36,1.45,2.79,2.38,2.5S59.3,131,58.76,129.22Z"/><path d="M65.78,126.53V128h-.06a1.28,1.28,0,0,0-1-.45,1.17,1.17,0,0,0-.62.16,1.3,1.3,0,0,0-.46.44h0a1.42,1.42,0,0,0-.19.51l0,.1v4H61.74v-6.19h.13a1.64,1.64,0,0,1,1,.49,1.69,1.69,0,0,1,.48,1.1v.27h0c.3-1.13,1-1.8,1.83-1.85.2,0,.42,0,.5,0Z"/><path class="cls-2" d="M51.23,33a4.57,4.57,0,1,1,0-6.46A4.56,4.56,0,0,1,51.23,33Z"/></g></g></svg>