<svg xmlns="http://www.w3.org/2000/svg" viewBox="0 0 130.98 132.51"><defs><style>.cls-1{fill:#fff;}.cls-2{fill:#edebea;}</style></defs><g id="Calque_2" data-name="Calque 2"><g id="Etiquette_4" data-name="Etiquette 4"><g id="Formes"><circle class="cls-1" cx="69.19" cy="70.72" r="61.79"/><polygon class="cls-1" points="42.12 15.17 7.4 0 0 13.11 27.83 25.34 42.12 15.17"/><path d="M68.47,123.72a53,53,0,1,1,53-53A53.06,53.06,0,0,1,68.47,123.72Zm0-104a51,51,0,1,0,51,51A51.06,51.06,0,0,0,68.47,19.72Z"/><path d="M68.47,116.06a46,46,0,1,1,46-46A46.06,46.06,0,0,1,68.47,116.06Zm0-90a44,44,0,1,0,44,44A44.06,44.06,0,0,0,68.47,26Z"/></g><g id="Personnage"><polygon points="35.91 28.67 111.35 59.13 111.87 57.81 36.76 26.59 35.91 28.67"/><path d="M111.63,59.78,35.25,29l1.24-3,76,31.61ZM36.56,28.39l74.51,30.08.15-.39L37,27.24Z"/><polyline class="cls-1" points="112.81 60.81 35.94 28.69 10.21 88.97 76.85 114.67"/><polygon points="76.67 115.14 9.55 89.25 35.67 28.03 113 60.35 112.62 61.27 36.2 29.34 10.87 88.69 77.03 114.2 76.67 115.14"/><rect x="52.58" y="83.05" width="64.33" height="1" transform="translate(-24.24 131.35) rotate(-68.27)"/><rect x="57.14" y="84.44" width="63.74" height="1" transform="translate(-23.27 135.24) rotate(-67.79)"/><rect x="64.39" y="84.36" width="59.72" height="1" transform="translate(-19.48 141) rotate(-68.27)"/><rect x="72.11" y="83.8" width="55.56" height="1" transform="translate(-15.4 145.88) rotate(-68.27)"/><rect x="82.23" y="84.05" width="45.53" height="1" transform="translate(-12.41 150.78) rotate(-68.27)"/><rect x="61.39" y="101.26" width="21.66" height="1" transform="translate(-49.05 131.17) rotate(-68.27)"/><rect x="57.22" y="99.6" width="21.66" height="1" transform="translate(-50.13 126.25) rotate(-68.27)"/><rect x="53.15" y="97.98" width="21.66" height="1" transform="translate(-51.19 121.45) rotate(-68.27)"/><rect x="48.98" y="96.32" width="21.66" height="1" transform="translate(-52.27 116.53) rotate(-68.27)"/><rect x="45.14" y="94.78" width="21.66" height="1" transform="translate(-53.27 112) rotate(-68.27)"/><rect x="40.97" y="93.12" width="21.66" height="1" transform="translate(-54.35 107.08) rotate(-68.27)"/><rect x="37.14" y="91.59" width="21.66" height="1" transform="translate(-55.34 102.56) rotate(-68.27)"/><rect x="32.97" y="89.93" width="21.66" height="1" transform="translate(-56.42 97.64) rotate(-68.27)"/><rect x="29.08" y="88.38" width="21.66" height="1" transform="translate(-57.43 93.05) rotate(-68.27)"/><rect x="24.91" y="86.72" width="21.66" height="1" transform="translate(-58.51 88.13) rotate(-68.27)"/><rect x="20.84" y="85.09" width="21.66" height="1" transform="translate(-59.57 83.32) rotate(-68.27)"/><rect x="16.67" y="83.43" width="21.66" height="1" transform="translate(-60.65 78.4) rotate(-68.27)"/><rect x="12.64" y="81.82" width="21.66" height="1" transform="translate(-61.7 73.64) rotate(-68.27)"/><rect x="8.47" y="80.16" width="21.66" height="1" transform="translate(-62.78 68.72) rotate(-68.27)"/><path d="M64,86.82,35.22,75.38s-4.31,11.79,9.89,17.37S64,86.82,64,86.82Z"/><path class="cls-2" d="M53,90.77a1.35,1.35,0,0,0,.25-2.28c-2.4-2.41-9.23-4.52-9.3-.57C43.87,91.33,50.14,92.22,53,90.77Z"/><path d="M44.49,70.79a7.33,7.33,0,0,1-2.71-.51c-2.63-1.06-4.48-3.59-5.19-7.13a20.52,20.52,0,0,1,1.31-11.4,20.45,20.45,0,0,1,6.89-9.17c3-2.09,6-2.65,8.67-1.6s4.48,3.58,5.19,7.13A20.49,20.49,0,0,1,57.34,59.5a20.39,20.39,0,0,1-6.89,9.17A10.47,10.47,0,0,1,44.49,70.79Zm6.26-29.33a9.52,9.52,0,0,0-5.39,1.94,19.48,19.48,0,0,0-6.53,8.72A19.52,19.52,0,0,0,37.57,63c.64,3.2,2.27,5.48,4.58,6.4s5.05.39,7.73-1.49a19.57,19.57,0,0,0,6.53-8.73A19.51,19.51,0,0,0,57.67,48.3c-.64-3.2-2.27-5.47-4.58-6.39A6.21,6.21,0,0,0,50.75,41.46Z"/><path d="M65.34,79.1a7.42,7.42,0,0,1-2.72-.51c-2.63-1-4.48-3.59-5.19-7.13a20.44,20.44,0,0,1,1.32-11.4,20.43,20.43,0,0,1,6.88-9.17c3-2.08,6-2.65,8.67-1.6s4.48,3.58,5.2,7.13a20.49,20.49,0,0,1-1.32,11.39h0A20.39,20.39,0,0,1,71.29,77,10.45,10.45,0,0,1,65.34,79.1Zm6.25-29.33a9.47,9.47,0,0,0-5.38,1.94,19.43,19.43,0,0,0-6.54,8.72,19.52,19.52,0,0,0-1.26,10.83c.65,3.2,2.27,5.48,4.58,6.4s5.06.39,7.73-1.49a19.43,19.43,0,0,0,6.53-8.73h0a19.43,19.43,0,0,0,1.27-10.83c-.65-3.2-2.28-5.47-4.59-6.39A6.17,6.17,0,0,0,71.59,49.77Z"/><polygon class="cls-1" points="105.29 44.98 108.4 50.17 111.05 56.6 3.24 12.23 8.67 3 105.29 44.98"/><path d="M112,57.52,2.52,12.48l6-10.11,97.16,42.22,3.19,5.32ZM4,12,110.13,55.68l-2.2-5.32-3-5L8.88,3.64Z"/><rect x="6.78" y="10.92" width="6.58" height="1" transform="translate(-4.88 14.31) rotate(-59.53)"/><rect x="10.96" y="12.95" width="6.69" height="1" transform="translate(-4.51 19.07) rotate(-59.85)"/><rect x="14.94" y="14.46" width="7.07" height="1" transform="translate(-3.58 23.85) rotate(-60.96)"/><rect x="19.88" y="16.3" width="6.35" height="1" transform="translate(-2.84 28.78) rotate(-60.91)"/><rect x="23.73" y="18.15" width="6.58" height="1" transform="translate(-2.75 32.48) rotate(-59.53)"/><rect x="27.91" y="20.18" width="6.69" height="1" transform="translate(-2.32 37.32) rotate(-59.85)"/><rect x="31.89" y="21.69" width="7.07" height="1" transform="translate(-1.18 42.38) rotate(-60.96)"/><rect x="36.83" y="23.53" width="6.35" height="1" transform="translate(-0.44 47.3) rotate(-60.91)"/><rect x="41.21" y="25.11" width="6.58" height="1" transform="translate(-0.14 50.97) rotate(-59.53)"/><rect x="45.39" y="27.14" width="6.69" height="1" transform="translate(0.36 55.9) rotate(-59.85)"/><rect x="49.36" y="28.65" width="7.07" height="1" transform="translate(1.73 61.24) rotate(-60.96)"/><rect x="54.3" y="30.49" width="6.35" height="1" transform="translate(2.45 66.15) rotate(-60.91)"/><rect x="58.43" y="32.49" width="6.58" height="1" transform="translate(1.98 69.45) rotate(-59.53)"/><rect x="62.61" y="34.53" width="6.69" height="1" transform="translate(2.54 74.47) rotate(-59.85)"/><rect x="66.58" y="36.04" width="7.07" height="1" transform="translate(4.13 80.1) rotate(-60.96)"/><rect x="71.53" y="37.87" width="6.35" height="1" transform="translate(4.85 84.99) rotate(-60.91)"/><rect x="75.49" y="39.75" width="6.58" height="1" transform="translate(4.14 87.73) rotate(-59.53)"/><rect x="79.67" y="41.78" width="6.69" height="1" transform="translate(4.77 92.84) rotate(-59.85)"/><rect x="83.65" y="43.29" width="7.07" height="1" transform="translate(6.57 98.75) rotate(-60.96)"/><rect x="88.59" y="45.13" width="6.35" height="1" transform="translate(7.28 103.63) rotate(-60.91)"/><rect x="93.13" y="46.47" width="6.58" height="1" transform="translate(7.04 106.25) rotate(-59.53)"/><rect x="97.31" y="48.5" width="6.69" height="1" transform="translate(7.73 111.44) rotate(-59.85)"/><rect x="101.33" y="50.24" width="6.4" height="1" transform="translate(12.56 121.74) rotate(-63.56)"/><rect x="106.87" y="53.15" width="3.33" height="1" transform="translate(10.34 124.48) rotate(-62.11)"/><path d="M79,112.77a32.64,32.64,0,0,1-6.65,1.12c-3.85.25,3.78,1.27,3.78,1.27l3.27-1Z"/><path d="M111,58.91a32,32,0,0,1,1.29,6.63c.36,3.83,1.18-3.82,1.18-3.82l-1.11-3.24Z"/><path d="M62.12,61.45c-1.85,5.35-.66,10.62,2.66,11.77s7.5-2.27,9.35-7.62S74.79,55,71.48,53.83a8,8,0,0,0-2.6,0L68,61.3l-2.64-5.23A26.29,26.29,0,0,0,62.12,61.45Z"/><path d="M41.1,53.83C39,59.1,39.94,64.41,43.2,65.71s7.6-1.91,9.7-7.17S54.06,48,50.8,46.66a8.07,8.07,0,0,0-2.6-.17L46.93,54l-2.4-5.34A26.35,26.35,0,0,0,41.1,53.83Z"/></g></g></g></svg>