<svg xmlns="http://www.w3.org/2000/svg" viewBox="0 0 101.36 62.98"><defs><style>.cls-1{fill:#fff;}</style></defs><g id="Calque_2" data-name="Calque 2"><g id="Etiquette_13" data-name="Etiquette 13"><path id="Forme" class="cls-1" d="M34,8.82h0A22.76,22.76,0,0,0,28.8,3,9.65,9.65,0,0,0,25,.72a9.37,9.37,0,0,0-7.08,1.41A10.66,10.66,0,0,0,14.38,5.7l.45,20.17a10.12,10.12,0,0,0-8,.19c-.45.24-3.81,2-3.89,4.53-.06,1.94,1.82,2.65,1.47,4.22S1.73,36.41.59,38.25s-.23,4.69.26,6c3.08,8.3,16.68,14,17.36,14.3a59.58,59.58,0,0,0,25.66,4.34A56.65,56.65,0,0,0,74,52.68,56.29,56.29,0,0,0,94.1,26.06a13,13,0,0,0,6.51-7A12.41,12.41,0,0,0,83.89,3.4c-5.76,2.54-7.14,8.44-7.28,9.07a13.46,13.46,0,0,1-4.72,5.61c-1.49,1-2.91,1.93-4.66,1.73-2.11-.24-2.71-1.9-5.94-3.58a16.83,16.83,0,0,0-3.7-1.4h0Q52.46,8,47.31,1.17C47.25.55,43.74-.62,40.42.4A9.61,9.61,0,0,0,34,8.82Z"/><g id="Personnage"><path d="M41.73,57.8c-.66,0-1.14,0-1.39,0C21,56.89,8.52,44.52,5.17,40.75l-.41-.46,6.35-3.56L8,30.35l12.26-.78L19.85,6.82l.1-.14a3.68,3.68,0,0,1,2.22-1.55,4.05,4.05,0,0,1,3.06.79C29.9,9,33.6,17.81,33.75,18.19c1.45,3.5,2.75,7.12,3.87,10.76l2.11.45.13-22,.2-.15A4.51,4.51,0,0,1,44,6.11a3.53,3.53,0,0,1,1.72,1.26C51,14,53.6,17.39,54.81,20.85a32.82,32.82,0,0,1,1.64,14,16.39,16.39,0,0,1,4,1.37,19.41,19.41,0,0,1,8.15-11.1,17.93,17.93,0,0,1,6.91-2.49,9.16,9.16,0,0,1,3.35-5.06c.79-.58,3.19-2.33,6-1.52,3.61,1,4.49,5.22,4.52,5.4a8.13,8.13,0,0,1-1,5.44,9.41,9.41,0,0,1-2.24,2.79,43.68,43.68,0,0,1-7.7,12.63C65.89,56.67,47.29,57.8,41.73,57.8ZM6.34,40.55c3.81,4.15,15.78,15.39,34,16.22,2.37.11,23.56.6,37.39-15.14a42.53,42.53,0,0,0,7.57-12.46l0-.11.09-.09a8.19,8.19,0,0,0,2.09-2.57,7.11,7.11,0,0,0,.89-4.77c0-.16-.79-3.78-3.81-4.64-2.39-.68-4.5.86-5.19,1.37a8.18,8.18,0,0,0-3,4.8l-.07.35-.36,0A17,17,0,0,0,69.13,26a18.51,18.51,0,0,0-7.86,11.11l-.16.62-.57-.31a15.59,15.59,0,0,0-4.78-1.65A15.38,15.38,0,0,0,49.5,36l-.28-1a13.3,13.3,0,0,1,2.48-.57,13,13,0,0,1,3.78,0,31.75,31.75,0,0,0-1.62-13.3C52.71,17.88,50.12,14.57,45,8a2.51,2.51,0,0,0-1.23-.93,3.51,3.51,0,0,0-2.86.8l-.13,22.77-3.89-.83-.09-.28c-1.13-3.71-2.45-7.4-3.92-11,0-.09-3.74-8.93-8.15-11.81a3.12,3.12,0,0,0-2.3-.66,2.72,2.72,0,0,0-1.52,1l.43,23.37-11.73.75,2.86,5.88Z"/></g><path d="M28.05,29.08C27.74,20,25,17.39,25,17.37l.67-.75c.12.12,3.1,2.87,3.42,12.42Z"/><rect x="20.36" y="36.69" width="1" height="15.25" transform="translate(-15.61 11.62) rotate(-22.92)"/><rect x="19.71" y="45.83" width="6.37" height="1" transform="translate(-16.99 13.47) rotate(-24.21)"/><rect x="16.91" y="39.83" width="5.52" height="1" transform="translate(-13.87 10.53) rotate(-22.38)"/><rect x="42.47" y="27.71" width="1" height="29.57" transform="translate(-16.79 51.53) rotate(-53.28)"/><polygon points="26.71 34.96 26.52 33.97 30.53 33.2 32.72 30.13 33.53 30.71 31.12 34.11 26.71 34.96"/><path d="M41.26,56.16a12.61,12.61,0,0,1-9.47-4c-9-9.47-1.42-18.75-1.34-18.84l.76.64c-.29.35-7.09,8.7,1.3,17.51,8.24,8.64,21.43-.61,21.56-.7l.58.81C54.56,51.66,48.14,56.16,41.26,56.16Z"/><rect x="26.37" y="41.54" width="11.73" height="1" transform="translate(-20.73 43.43) rotate(-54.03)"/><rect x="31.45" y="47.58" width="13.67" height="1" transform="translate(-23.08 51.59) rotate(-54.74)"/><rect x="39.28" y="50.74" width="11" height="1" transform="translate(-23 57.33) rotate(-53.98)"/><circle cx="89.08" cy="14.3" r="6.87"/><circle class="cls-1" cx="55.75" cy="26.81" r="7.15"/><path d="M55.75,34.46a7.66,7.66,0,1,1,7.66-7.65A7.66,7.66,0,0,1,55.75,34.46Zm0-14.31a6.66,6.66,0,1,0,6.66,6.66A6.66,6.66,0,0,0,55.75,20.15Z"/><path d="M57.84,26.5a4.41,4.41,0,1,1-8.73.78A4.64,4.64,0,0,1,53,22a6.92,6.92,0,0,1,1.74.23L54,25.87l2.72-2.19A9.44,9.44,0,0,1,57.84,26.5Z"/><circle class="cls-1" cx="42.82" cy="26.83" r="7.15"/><path d="M42.82,34.48a7.66,7.66,0,1,1,7.65-7.65A7.66,7.66,0,0,1,42.82,34.48Zm0-14.31a6.66,6.66,0,1,0,6.65,6.66A6.66,6.66,0,0,0,42.82,20.17Z"/><path d="M44.84,26.5a4.65,4.65,0,0,1-3.94,5.24,4.63,4.63,0,0,1-4.79-4.46A4.64,4.64,0,0,1,40,22a6.92,6.92,0,0,1,1.74.23L41,25.87l2.72-2.19A9.44,9.44,0,0,1,44.84,26.5Z"/></g></g></svg>