<svg xmlns="http://www.w3.org/2000/svg" viewBox="0 0 68.68 33.57"><defs><style>.cls-1{fill:#fff;}</style></defs><g id="Calque_2" data-name="Calque 2"><g id="Creative_Resume" data-name="Creative Resume"><rect class="cls-1" width="68.68" height="33.57" rx="3.89"/><path d="M61.2,31.89H6.52a4.4,4.4,0,0,1-4.4-4.39V6.59A4.4,4.4,0,0,1,6.52,2.2H61.2a4.4,4.4,0,0,1,4.39,4.39V27.5A4.4,4.4,0,0,1,61.2,31.89ZM6.52,3.2a3.4,3.4,0,0,0-3.4,3.39V27.5a3.4,3.4,0,0,0,3.4,3.39H61.2a3.39,3.39,0,0,0,3.39-3.39V6.59A3.39,3.39,0,0,0,61.2,3.2Z"/><path d="M12,8.65c2.24,0,3.41.79,3.49,2.55H13.34c-.08-.52-.49-.79-1.37-.79-1.23,0-1.44.52-1.44,1.11s.22,1.13,1.44,1.13c.88,0,1.29-.27,1.37-.81h2.12c-.08,1.78-1.24,2.57-3.49,2.57-2.46,0-3.52-.94-3.52-2.89S9.51,8.65,12,8.65Z"/><path d="M21.26,12.72l1,1.61H19.79L19,13H17.79v1.31H15.71V8.73h4.4a2.06,2.06,0,0,1,2.14,2.15A2.08,2.08,0,0,1,21.26,12.72Zm-3.47-1.46h1.92c.2,0,.46,0,.46-.38s-.26-.39-.46-.39H17.79Z"/><path d="M24.57,10.33v.52h3.84v1.36H24.57v.52h3.84v1.6H22.49V8.73h5.92v1.6Z"/><path d="M33.63,13.32H31.24l-.38,1H28.57l2.32-5.6H34l2.32,5.6H34Zm-.55-1.44-.65-1.71-.64,1.71Z"/><path d="M42,10.49h-2.4v3.84H37.5V10.49H35.1V8.73H42Z"/><path d="M44.3,14.33H42.22V8.73H44.3Z"/><path d="M52.26,8.73,50,14.33H46.86l-2.32-5.6h2.29l1.57,4.16L50,8.73Z"/><path d="M54.51,10.33v.52h3.83v1.36H54.51v.52h3.83v1.6H52.43V8.73h5.91v1.6Z"/><path d="M17.77,22.32l1,1.61H16.3l-.77-1.31H14.3v1.31H12.22v-5.6h4.4a2.17,2.17,0,0,1,1.15,4ZM14.3,20.86h1.92c.21,0,.47,0,.47-.38s-.26-.39-.47-.39H14.3Z"/><path d="M21.09,19.93v.52h3.83v1.36H21.09v.52h3.83v1.6H19v-5.6h5.91v1.6Z"/><path d="M27.17,22c0,.28.25.46,1.57.46s1.42-.08,1.42-.29-.19-.27-1.5-.31c-2.52-.08-3.49-.5-3.49-1.8s1.21-1.76,3.41-1.76,3.42.53,3.42,2H29.92c0-.29-.48-.36-1.5-.36s-1.17,0-1.17.27.2.2,1.41.25c2.21.09,3.58.24,3.58,1.7S31,24,28.66,24s-3.57-.39-3.57-2.06Z"/><path d="M36,24c-2.46,0-3.52-.94-3.52-2.89V18.33h2.08v2.79c0,.6.22,1.13,1.44,1.13s1.44-.54,1.44-1.13V18.33h2.08v2.79C39.52,23.07,38.45,24,36,24Z"/><path d="M48.41,23.93H46.33V21.27l-1.52,2.66H43.45l-1.53-2.66v2.66H39.84v-5.6H42.4l1.73,3.2,1.72-3.2h2.56Z"/><path d="M50.82,19.93v.52h3.83v1.36H50.82v.52h3.83v1.6H48.74v-5.6h5.91v1.6Z"/></g></g></svg>