<svg xmlns="http://www.w3.org/2000/svg" viewBox="0 0 75.23 87.61"><defs><style>.cls-1{fill:#fff;}.cls-2,.cls-4{fill:none;}.cls-2,.cls-3,.cls-4{stroke:#000;}.cls-2,.cls-3{stroke-miterlimit:10;}.cls-4{stroke-linejoin:round;}</style></defs><g id="Calque_2" data-name="Calque 2"><g id="Etiquette_27" data-name="Etiquette 27"><g id="Frome"><path class="cls-1" d="M40.46,0,23.39,0a9.58,9.58,0,0,0-4.27,7.09,10.85,10.85,0,0,0-4.86,3.57A11,11,0,0,0,12,17,5.14,5.14,0,0,0,11,19.47a6.25,6.25,0,0,0,2.87,5.81A10.8,10.8,0,0,0,8.9,28.6,11.38,11.38,0,0,0,6.48,37a11.16,11.16,0,0,0-4.22,3.45c-.38.52-3.49,4.9-1.72,9.38s7,5.47,9.13,5.87c1.94.37,6,1.13,8.49-1.4A7,7,0,0,0,20,50.17a16.68,16.68,0,0,0,4,4.34,16.48,16.48,0,0,0,5,2.55,20.76,20.76,0,0,1-4,7.47,16.86,16.86,0,0,1-1.59,1.53c-1.65,1.35-2.54,1.45-3.51,2.3A6.23,6.23,0,0,0,18,72.13a5.69,5.69,0,0,0-4.53-2,5.15,5.15,0,0,0-4,2.23,5.09,5.09,0,0,0,.32,5.62L18,86.81a7.09,7.09,0,0,0,5,.57c3.7-1,4.85-4.82,4.91-5l7.28-.13A6.89,6.89,0,0,0,38,86.43a6.68,6.68,0,0,0,5,1,6.46,6.46,0,0,0,2.43-1.15q4.17-4.41,8.36-8.81a5,5,0,0,0-.64-5.3,5.18,5.18,0,0,0-6.89-.45,10,10,0,0,0-2-2.93,10.25,10.25,0,0,0-5-2.75l6.51-11.23a6.44,6.44,0,0,0,1.92,3c2,1.76,5.23,2,8.17.7,5-2.27,9-4,11.68-5.1,4-1.66,6.17-2.51,7.15-4.79,1.18-2.79-.33-5.72-.52-6.07-2-3.68-7.16-5.55-13-4.53l1.23-5.51a11,11,0,0,0,3.62-3.19c2.19-3.06,3.15-7.9.89-11.49a10.31,10.31,0,0,0-4.72-3.7c-2-1-5.06-2.46-8.26-1.24-3.89,1.5-5,5.85-5.19,6.39-.18-1-.35-2-.53-3a2.37,2.37,0,0,0,.83-.77A2.62,2.62,0,0,0,49.56,14a5,5,0,0,0-1.4-3.13Z"/></g><g id="Personnage"><path class="cls-2" d="M21.41,8.94a17.5,17.5,0,0,1,.83-3.13,16.88,16.88,0,0,1,1.28-2.68l13.85-.19A12.85,12.85,0,0,1,41.07,10a25.89,25.89,0,0,1-9.64,1.66,17.28,17.28,0,0,1-9.65-2.49C21.62,9.08,21.5,9,21.41,8.94Z"/><path class="cls-2" d="M21.29,9.28l-4.71,3.63A48.78,48.78,0,0,0,31.05,15.3a48.59,48.59,0,0,0,14.13-1.92q-2-1.59-4-3.19"/><ellipse class="cls-3" cx="36.21" cy="7.77" rx="2.49" ry="1.76"/><path class="cls-2" d="M22.41,18.91a4.28,4.28,0,0,0-2.17-4c-2-1-4.34.32-5.4,1.87-1.2,1.76-1.36,4.68.47,6.05a4.27,4.27,0,0,0,4.47.12,6.76,6.76,0,0,0,1,4,6.84,6.84,0,0,0,2.6,2.43l17.36-.09a6.29,6.29,0,0,0,3.87-3.44,6.45,6.45,0,0,0-2.23-7.29"/><path class="cls-2" d="M31.65,29.6c.05,1.54.11,3.09.17,4.63a3,3,0,0,0,2.34,1,2.91,2.91,0,0,0,2.42-1.62c0-1.35,0-2.7,0-4"/><path class="cls-4" d="M31.52,32.06a2.8,2.8,0,0,0-3.83,1.66L18,29.89a5.48,5.48,0,0,0-4-.85c-2.48.57-3.64,3.29-4.46,5.24a14.61,14.61,0,0,0-1.15,5.83,4,4,0,0,0-2.05,0c-2.44.64-3.6,3.76-3.61,6,0,.31,0,3.3,1.49,3.79a1.9,1.9,0,0,0,1.44-.21c0-.94,0-1.87,0-2.81a5.8,5.8,0,0,0,.85,3.49,2.76,2.76,0,0,0,1.83,1.53,2.31,2.31,0,0,0,1.74-.64L10,47.89a5.77,5.77,0,0,0,.93,3.62,2.24,2.24,0,0,0,1,.94c1.15.42,2.51-.63,3.14-1.36a4.6,4.6,0,0,0,1-3.41L14,45.81a2.65,2.65,0,0,0,1.83.89,2.59,2.59,0,0,0,2.29-1.23,2.73,2.73,0,0,0-.72-3.7,2.66,2.66,0,0,0-3.7,1"/><path class="cls-4" d="M15,41.2a6.44,6.44,0,0,1-.59-3,6.55,6.55,0,0,1,1.23-3.5l7.3,3.85q0,4.4-.08,8.77A9.44,9.44,0,0,0,26,51.72a9.32,9.32,0,0,0,4.12,1.83l11.32-.19a8.84,8.84,0,0,0,3.07-2.7,9,9,0,0,0,1.38-3.09l-.09-10.52"/><path class="cls-4" d="M36.88,31.94a14.43,14.43,0,0,1,2.64.38,14,14,0,0,1,2.21.72"/><path class="cls-4" d="M23.05,43.09,34.2,43"/><path class="cls-4" d="M33.65,43.89l9.66-12.25c2.15-2.14,3.9-2.27,4.59-2.26,3.85.09,7.94,5.31,8.66,13.31"/><path class="cls-4" d="M53.69,46a8.82,8.82,0,0,1,3.7-3.79c3.94-2,9.56-.61,13.83,3.7A50.81,50.81,0,0,1,62,51.72a51,51,0,0,1-11.15,4A5.55,5.55,0,0,1,49,53.83c-1.91-3.12.22-7,.36-7.19a20.54,20.54,0,0,0,.14-5c-.21-2.22-.49-5.22-1.63-5.62s-3.46,1.57-8.62,10.66"/><path class="cls-4" d="M34.05,53.74c-1.57,2.92-3.25,5.91-5,8.94q-2,3.36-4,6.51A5,5,0,0,0,20,75.7l22.5,0a8.46,8.46,0,0,0-2.14-4.58,6.25,6.25,0,0,0-4.47-2.36,5.84,5.84,0,0,0-4,1.72l9.25-16.85"/><path class="cls-4" d="M56.73,42.16l1.26-12A3.81,3.81,0,0,0,61,29a3.67,3.67,0,0,0,.6-3.83"/><path class="cls-4" d="M51.93,31.31c.13-1.39.27-2.79.4-4.18a3.78,3.78,0,0,1-2.6-2,3.87,3.87,0,0,1,.56-3.58,3.22,3.22,0,0,1,1.61-1.44c2-.65,5.1,1.71,4.9,3.83a2.45,2.45,0,0,1-1.58,2,3.19,3.19,0,0,1-3.57-2"/><path class="cls-4" d="M52,19.72a2.38,2.38,0,0,1-.32-1.56,2.44,2.44,0,0,1,1.88-1.95c1.52-.27,2.69,1.44,3,1.95,1,1.48,1.36,3.62.73,4-.23.14-.79.14-2.32-1.28"/><path class="cls-4" d="M55.13,16.59a1.09,1.09,0,0,1,.07-.87c.58-.8,3.36-.47,4.6,1.15a4.64,4.64,0,0,1,.57,3.51c0,.3-.24,2.82-1.11,2.94-.72.09-1.48-1.55-1.61-1.83"/><path class="cls-4" d="M60.31,17.17a1.73,1.73,0,0,1,1.1-.06c1.39.4,1.68,2.69,1.75,3.27a6.55,6.55,0,0,1-.9,3.9c-.41.65-.67.77-.87.81-.6.09-1.33-.58-1.85-1.71"/><path class="cls-4" d="M46.67,75.77l-31.32,0-1.66-1.83c-.89-.6-1.8-.71-2.17-.34s.1,1.73.26,2a5.25,5.25,0,0,0,2.89,2.46l32.42.43,2.77-2a1.43,1.43,0,0,0,0-2.13,1.41,1.41,0,0,0-1.87.3Z"/><path class="cls-4" d="M17.55,17a1.72,1.72,0,0,1,1.66,1.24,1.74,1.74,0,0,1-1.5,2"/><path class="cls-4" d="M40.16,15l-2,2.17a2.27,2.27,0,0,0,.17,2,2.51,2.51,0,0,0,3.49-.1L44.78,14Z"/><path class="cls-4" d="M33.8,15.62l2.39,1.71a2.31,2.31,0,0,1,.25,2A2.51,2.51,0,0,1,33,20l-4.77-4.54Z"/><path d="M31.69,16a1.77,1.77,0,0,1-.16.86,1.81,1.81,0,0,1-.48.64l1.69,1.79A3.8,3.8,0,0,1,33.35,18a3.94,3.94,0,0,1,1.47-1.21l-1.18-1Z"/><path d="M39,16.7a3.67,3.67,0,0,1,1.4.47,3.82,3.82,0,0,1,1.37,1.32l1.44-2.43a3.45,3.45,0,0,1-1.7.09,3.73,3.73,0,0,1-1.49-.66Z"/><path class="cls-2" d="M29.74,21.1c-.07.81.31,1.45.71,1.53s1.17-.48,1.27-1.5"/><path d="M27.16,15.55c-.26,1.3-.51,2.6-.77,3.9l-3.78-.56a4.66,4.66,0,0,0-.47-2.53,4.74,4.74,0,0,0-2.3-2.15c1.33.31,2.73.6,4.19.85C25.1,15.25,26.14,15.41,27.16,15.55Z"/><path d="M23.06,38.1l3.43.39a5.73,5.73,0,0,0-1.88,1.6c-1,1.3-1.05,2.63-1.25,2.61S23,41.8,23.06,38.1Z"/><path d="M40.05,45.72l5.38-2.12-.12-5.73Z"/><path d="M69.73,45a55.17,55.17,0,0,0-19.91,9.51l1.06,1a49.92,49.92,0,0,0,10.17-3.56,48.88,48.88,0,0,0,9.83-6.19Z"/><path d="M32.9,56.4l6.19.22,1.73-3.07-6.45.17Z"/><polygon points="32.16 31.4 36.18 31.4 36.31 29.49 31.92 29.6 32.16 31.4"/><circle cx="21.05" cy="80.7" r="2.85"/><circle cx="41.16" cy="80.7" r="2.66"/><path class="cls-2" d="M37.82,23.1a2.32,2.32,0,0,0-1.92-.61,2.14,2.14,0,0,0-1.66,2.27c.26,1.27,2.63,1.74,4.21,1.61s3.85-.94,4-2.37c.1-1-.9-2.15-1.62-2.11a4.61,4.61,0,0,0-2,1.25.66.66,0,0,1-.42.23A.81.81,0,0,1,37.82,23.1Z"/><path class="cls-2" d="M36.29,23.84a2.9,2.9,0,0,0,2.18.88,2.93,2.93,0,0,0,2.16-1.2"/><path class="cls-2" d="M46.31,36.89c.34.25.7.5,1,.77.64.48,1.25,1,1.82,1.45"/><path class="cls-2" d="M45.81,44.41a6.4,6.4,0,0,0,1.3,1.13,6.65,6.65,0,0,0,2,.9"/></g></g></g></svg>