<svg xmlns="http://www.w3.org/2000/svg" viewBox="0 0 74.98 62.96"><defs><style>.cls-1{fill:#fff;}</style></defs><g id="Calque_2" data-name="Calque 2"><g id="Boxing_Club" data-name="Boxing Club"><polygon class="cls-1" points="74.58 25.53 68.45 29.8 74.98 33.43 67.81 36.31 73.02 41.21 65.26 42.51 68.84 48.37 60.97 48 62.69 54.45 55.21 52.46 54.96 59.09 48.34 55.58 46.13 61.99 40.79 57.19 36.77 62.96 33.03 57.17 27.45 61.94 25.56 55.53 18.77 59 18.84 52.37 11.26 54.33 13.3 47.89 5.41 48.21 9.28 42.37 1.57 41.04 7.03 36.16 0 33.25 6.7 29.65 0.78 25.35 8.31 23.25 3.88 17.82 11.76 17.35 9.08 11.15 16.82 12.34 16.08 5.74 23.19 8.52 24.42 1.95 30.46 6.13 33.59 0 38.17 5.34 43.01 0.02 45.84 6.17 52.08 2.01 52.99 8.59 60.24 5.85 59.18 12.44 66.97 11.29 64 17.48 71.85 17.99 67.16 23.39 74.58 25.53"/><path d="M23.19,28.8a1.6,1.6,0,0,1-1.82,1.66H16.25v-5.6h4.88c1.27,0,1.66.58,1.66,1.42a1.63,1.63,0,0,1-.44,1A1.83,1.83,0,0,1,23.19,28.8Zm-4.86-2h1.92c.21,0,.46,0,.46-.31s-.25-.3-.46-.3H18.33Zm2.78,1.81c0-.29-.25-.29-.46-.29H18.33v.59h2.32C20.86,28.94,21.11,28.94,21.11,28.64Z"/><path d="M24,27.65c0-1.94,1.05-2.87,3.51-2.87S31,25.72,31,27.65,30,30.54,27.51,30.54,24,29.6,24,27.65Zm4.95,0c0-.58-.2-1.11-1.44-1.11s-1.43.52-1.43,1.11.21,1.13,1.43,1.13S29,28.24,29,27.65Z"/><path d="M33.84,27.66l-2.64-2.8h2.72l1.4,1.6,1.41-1.6h2.72l-2.65,2.8,2.65,2.8H36.73l-1.41-1.6-1.4,1.6H31.2Z"/><path d="M42.49,30.46H40.41v-5.6h2.08Z"/><path d="M50.83,24.86v5.6H48.11l-2.42-3.31v3.31H43.61v-5.6h2.72l2.42,3.3v-3.3Z"/><path d="M55.17,27.41H58.8v3.05H57.6l-.15-.81a2.93,2.93,0,0,1-2.38.89c-2.07,0-3.28-.94-3.28-2.89s1.21-2.87,3.52-2.87,3.4.78,3.49,2.31H56.67c-.08-.29-.48-.55-1.36-.55-1.23,0-1.44.52-1.44,1.19S54.08,29,55.31,29c.8,0,1.28-.11,1.36-.49h-1.5Z"/><path d="M26,34.38c2.24,0,3.4.78,3.49,2.55H27.39c-.08-.53-.48-.79-1.36-.79-1.23,0-1.44.52-1.44,1.11s.21,1.13,1.44,1.13c.88,0,1.28-.27,1.36-.81h2.13c-.09,1.78-1.25,2.57-3.49,2.57-2.47,0-3.52-.94-3.52-2.89S23.56,34.38,26,34.38Z"/><path d="M36.32,38.3v1.76H30.56v-5.6h2.08V38.3Z"/><path d="M40.88,40.14c-2.46,0-3.51-.94-3.51-2.89V34.46h2.07v2.79c0,.6.22,1.13,1.44,1.13s1.44-.54,1.44-1.13V34.46H44.4v2.79C44.4,39.19,43.34,40.14,40.88,40.14Z"/><path d="M52.46,38.4a1.6,1.6,0,0,1-1.82,1.66H45.52v-5.6H50.4c1.27,0,1.66.58,1.66,1.42a1.67,1.67,0,0,1-.43,1A1.84,1.84,0,0,1,52.46,38.4Zm-4.86-2h1.92c.21,0,.47,0,.47-.31s-.26-.3-.47-.3H47.6Zm2.79,1.81c0-.29-.26-.29-.47-.29H47.6v.59h2.32C50.13,38.54,50.39,38.54,50.39,38.24Z"/></g></g></svg>