<svg xmlns="http://www.w3.org/2000/svg" viewBox="0 0 92.34 30.43"><defs><style>.cls-1{fill:#fff;}</style></defs><g id="Calque_2" data-name="Calque 2"><g id="Urban"><rect class="cls-1" width="92.34" height="30.43" rx="10.21"/><path d="M82.21,27.56H10.13a6.29,6.29,0,0,1-6.29-6.28V9.7a6.3,6.3,0,0,1,6.29-6.29H82.21A6.3,6.3,0,0,1,88.5,9.7V21.28A6.29,6.29,0,0,1,82.21,27.56ZM10.13,4.41A5.3,5.3,0,0,0,4.84,9.7V21.28a5.29,5.29,0,0,0,5.29,5.28H82.21a5.29,5.29,0,0,0,5.29-5.28V9.7a5.3,5.3,0,0,0-5.29-5.29Z"/><path d="M23.68,19.08c-3.39,0-4.84-1.28-4.84-4V11.27H21.7v3.84c0,.83.3,1.55,2,1.55s2-.73,2-1.55V11.27h2.86v3.84C28.52,17.79,27.06,19.08,23.68,19.08Z"/><path d="M37.7,16.76,39.06,19H35.67l-1.07-1.8H32.92V19H30.06v-7.7h6.05a2.82,2.82,0,0,1,3,3A2.86,2.86,0,0,1,37.7,16.76Zm-4.78-2h2.64c.29,0,.64,0,.64-.53s-.35-.53-.64-.53H32.92Z"/><path d="M50,16.7A2.19,2.19,0,0,1,47.53,19h-7v-7.7H47.2c1.75,0,2.29.79,2.29,2a2.25,2.25,0,0,1-.61,1.44A2.55,2.55,0,0,1,50,16.7ZM43.35,14H46c.28,0,.64,0,.64-.42s-.36-.42-.64-.42H43.35Zm3.83,2.5c0-.41-.36-.41-.64-.41H43.35v.81h3.19C46.82,16.88,47.18,16.88,47.18,16.48Z"/><path d="M57.65,17.59H54.37L53.84,19H50.7l3.19-7.7h4.24L61.32,19H58.18Zm-.75-2L56,13.25l-.89,2.36Z"/><path d="M72.57,11.27V19H68.83L65.5,14.43V19H62.64v-7.7h3.74l3.32,4.55V11.27Z"/></g></g></svg>