<svg xmlns="http://www.w3.org/2000/svg" viewBox="0 0 100.67 88.32"><defs><style>.cls-1,.cls-3{fill:#fff;}.cls-2{fill:none;stroke-miterlimit:10;}.cls-2,.cls-3{stroke:#000;}</style></defs><g id="Calque_2" data-name="Calque 2"><g id="Etiquette_26" data-name="Etiquette 26"><g id="Forme"><ellipse class="cls-1" cx="49.02" cy="44.16" rx="49.02" ry="44.16"/><path class="cls-1" d="M7.62,64.43c-.25,0-2.36,0-3.24,1.44-.64,1.07-.24,2.29.17,3.49A12.18,12.18,0,0,0,8.72,75a6.72,6.72,0,0,0-3.66.59c-.25.13-2.91,1.41-2.89,3.07,0,1.46,2.12,3.11,5.28,3.32l19.83.34Z"/><path class="cls-1" d="M90.13,65.85a9.57,9.57,0,0,1,6.38,1.41,9.31,9.31,0,0,1,3.83,10.08,8.7,8.7,0,0,1-3.45,4.6c-3.79,2.64-10,2.7-12.25-.58a6,6,0,0,1-.77-4.4l-2.1-2.43"/><path class="cls-2" d="M33.51,81.87c5.91,2.6,8.13,2.66,15.15,2.66s10.1-.73,16-3.28"/><path class="cls-2" d="M9.45,63C5.24,56.91,4.08,51.69,4.08,44,4.08,22,24,4.12,48.57,4.12S93.06,22,93.06,44c0,7.72-.3,12.08-4.53,18.18"/><path class="cls-2" d="M80.25,72.46A17.09,17.09,0,0,1,75.62,76"/></g><g id="Personnage"><path d="M48.58,47.18a2.31,2.31,0,0,1-1.45-.47,2.53,2.53,0,0,1-.83-1.48c-.36-1.92,3.15-4.67,6.64-6.28,6-2.8,11.32-1.94,15.18-1.32A9.33,9.33,0,0,1,72.8,39.8c.47.42,1.57,1.41,1.35,2.59a2.26,2.26,0,0,1-1,1.34h0c-3.35,2.34-7.61,2.24-11.73,2.14a50.26,50.26,0,0,0-12.28,1.26A3.25,3.25,0,0,1,48.58,47.18ZM61.9,38a20,20,0,0,0-8.54,1.85c-4,1.86-6.25,4.27-6.08,5.19a1.54,1.54,0,0,0,.48.88,1.55,1.55,0,0,0,1.21.22,51.51,51.51,0,0,1,12.5-1.28c4,.09,8.06.19,11.14-2a1.32,1.32,0,0,0,.56-.71c.11-.62-.72-1.37-1-1.66A8.27,8.27,0,0,0,68,38.62,37.2,37.2,0,0,0,61.9,38Z"/><path d="M53,40.82,53,40.26c-.41-3-.74-6-1-9l-.14-1.81.61.09a13.88,13.88,0,0,1,3.41.92,13.63,13.63,0,0,1,2.59,1.43l4.25-3.65.3.52a17.93,17.93,0,0,1,1.61,3.81,17.67,17.67,0,0,1,.65,6l0,.45h-.46a47.86,47.86,0,0,0-5.62.48,49.77,49.77,0,0,0-5.56,1.13ZM53,31.18c.23,2.77.54,5.59.91,8.39a47.3,47.3,0,0,1,5.12-1,48.84,48.84,0,0,1,5.28-.47,16.66,16.66,0,0,0-.64-5.22,17.17,17.17,0,0,0-1.23-3.06l-3.92,3.37-.32-.24a12.79,12.79,0,0,0-5.25-2.29Z"/><path d="M64.56,35.69a42,42,0,0,0-6.51.29,42.42,42.42,0,0,0-4.62.83c.12,1,.25,1.91.38,2.87,1.49-.34,3.11-.65,4.85-.89,2.1-.3,4.07-.47,5.87-.55Z"/><path d="M53.39,40.29l-.52-3.86.44-.11a42.51,42.51,0,0,1,11.27-1.13l.49,0,0,3.51-.48,0c-1.94.09-3.9.27-5.82.54-1.61.23-3.23.53-4.81.89Zm.59-3.1.25,1.88c1.44-.31,2.9-.57,4.36-.78,1.8-.25,3.63-.43,5.45-.52l0-1.59a40.76,40.76,0,0,0-6,.29C56.73,36.64,55.34,36.89,54,37.19Z"/><path d="M46.8,66.71c-.25,0-.5,0-.77,0a8.85,8.85,0,0,1-5.47-3,14,14,0,0,1-3.58-13c.4-1.52,2.05-6.61,6.88-8.45a10.38,10.38,0,0,1,5-.56l-.13,1a9.25,9.25,0,0,0-4.46.5c-4.39,1.66-5.91,6.36-6.27,7.76a12.94,12.94,0,0,0,3.32,12,8,8,0,0,0,4.87,2.72,7.72,7.72,0,0,0,5.68-2l.66.75A8.89,8.89,0,0,1,46.8,66.71Z"/><path d="M51.84,80.4l-12.41-.14-.87-12.5,0-.1a5.74,5.74,0,0,1,1.12-1.89,5.54,5.54,0,0,1,2.22-1.49l.35.93a4.58,4.58,0,0,0-1.82,1.23,4.48,4.48,0,0,0-.89,1.46l.79,11.37,10.55.12A4.94,4.94,0,0,0,49.68,76a5.36,5.36,0,0,0-6.31-.79l-.45-.89a6.35,6.35,0,0,1,7.49,1,6.1,6.1,0,0,1,1.47,4.66Z"/><rect x="44.62" y="71.4" width="1" height="2.48" transform="translate(-3.22 2.1) rotate(-2.58)"/><path d="M47.09,72.4a8.8,8.8,0,0,1-3.6-.84l.42-.91c2.33,1.07,4.79,1,5.84-.22a4.36,4.36,0,0,0,.9-2.37,6,6,0,0,0-.22-2.62l1-.3a6.92,6.92,0,0,1,.26,3.06,5.45,5.45,0,0,1-1.14,2.9A4.45,4.45,0,0,1,47.09,72.4Z"/><path d="M27.2,48.8l-.95-.32c.36-1,2.4-6.33,7.29-7.56a7.44,7.44,0,0,1,5.46.43,6.71,6.71,0,0,1,2.58,2.52l-.86.51a5.71,5.71,0,0,0-2.19-2.15,6.43,6.43,0,0,0-4.75-.34C29.3,43,27.4,48.21,27.2,48.8Z"/><path d="M20.85,62.43a14.74,14.74,0,0,1-5-4.94,12.13,12.13,0,0,1-2-6.2,11.82,11.82,0,0,1,2.66-7.69,10.29,10.29,0,0,1,6.76-4.1,7.83,7.83,0,0,1,5.41,1.24,7.13,7.13,0,0,1,1.87,1.92l-.83.55a6.21,6.21,0,0,0-1.62-1.65,6.8,6.8,0,0,0-4.72-1.06,9.33,9.33,0,0,0-6.09,3.73,10.79,10.79,0,0,0-2.44,7A11.16,11.16,0,0,0,16.68,57a13.72,13.72,0,0,0,4.68,4.6Z"/><path d="M30.7,80.33l-1.7,0-14.41-.24-9-12.75L5.9,67a8.05,8.05,0,0,1,4.75-2.55,6.12,6.12,0,0,1,2.74.25A6,6,0,0,1,16,66.46L27.78,54.91l.7.72L15.91,67.94l-.34-.44a5.24,5.24,0,0,0-2.5-1.83,5.16,5.16,0,0,0-2.29-.21,6.92,6.92,0,0,0-3.87,2l8.2,11.66,14,.23a13.69,13.69,0,0,0-3.44-4.16,8.29,8.29,0,0,0-3.87-2,7.14,7.14,0,0,0-3.59.33,8.46,8.46,0,0,0-1.31.59l-2.65,1.46,4.59-5L28.4,60l2.25-2.46.74.67-2.25,2.46L19.56,71.16,18.5,72.32A7.85,7.85,0,0,1,22,72.15a9.18,9.18,0,0,1,4.31,2.22,14.6,14.6,0,0,1,4.09,5.25Z"/><path d="M35.51,66.71a7,7,0,0,1-4.42-1.64,8.08,8.08,0,0,1-2.83-4.73l1-.18a7,7,0,0,0,2.47,4.13,5.93,5.93,0,0,0,3.89,1.42,6.31,6.31,0,0,0,4.63-2.4l.79.62a7.25,7.25,0,0,1-5.4,2.78Z"/><path d="M35.66,76.09l-.3-1c1.84-.57,2.31-1.46,2.43-1.81s.14-.87-1-3.74c-.52-1.3-1-2.37-1.31-3.11l.91-.41c.34.76.8,1.83,1.33,3.15,1.18,3,1.29,3.66,1,4.43S37.85,75.4,35.66,76.09Z"/><path d="M24.92,73.29h-1l.09-8.6.31-.12c1.76-.72,3.2-.76,4.27-.13A3.77,3.77,0,0,1,30,66.22c.17.31.37.69.63,1.13a28.58,28.58,0,0,0,1.88,2.82s0-.11-.05-.17c-.12-.45-.27-1-.44-1.7-.34-1.32-.58-2.41-.74-3.13l1-.21c.15.71.39,1.79.73,3.1.17.68.32,1.23.44,1.68.42,1.57.53,2,0,2.24-.66.31-1.9-1.06-3.69-4.12-.27-.46-.47-.85-.65-1.17-.43-.81-.61-1.14-1.05-1.4a3.64,3.64,0,0,0-3.08.08Z"/><path d="M29.82,80.33l0-1,7.85-.23c-1.1-2.41-3.07-4-5.06-4h0a4.43,4.43,0,0,0-2.24.65l-.51-.86a5.24,5.24,0,0,1,2.79-.79c2.62,0,5.07,2.1,6.25,5.3l.24.65Z"/><path d="M69.17,80.42l-16.78-.35-.07-.41a6,6,0,0,1,1-4.55,5.89,5.89,0,0,1,2.52-2c0-1.32-.09-5.91-3.66-8.79a9.92,9.92,0,0,0-5.1-2.07l.1-1a10.72,10.72,0,0,1,5.62,2.28c4.38,3.52,4.07,9.31,4,10l0,.32-.3.11a4.94,4.94,0,0,0-2.36,1.74,5,5,0,0,0-.9,3.38l15.36.33a10.45,10.45,0,0,0,0-10.37,5.51,5.51,0,0,0-4.54,1.2,5.32,5.32,0,0,0-1.7,3.81h-1a16,16,0,0,0-3.55-10.23A16.39,16.39,0,0,0,46.15,58l0-1a17.41,17.41,0,0,1,12.45,6.14,16.67,16.67,0,0,1,3.55,7.94,5.76,5.76,0,0,1,1.26-1.61,6.55,6.55,0,0,1,5.64-1.39l.21,0,.11.18a11.47,11.47,0,0,1-.09,11.84Z"/><path d="M66.65,68.58a19.52,19.52,0,0,0-5.85-6.47l.57-.82a20.6,20.6,0,0,1,6.15,6.81Z"/><path d="M69.21,80.46l0-1,5.09-.18A6.27,6.27,0,0,0,73.06,76a6.36,6.36,0,0,0-2.48-2L71,73a7.28,7.28,0,0,1,4.29,6.75v.48Z"/><path d="M53.41,76.34l-2.18-.23,0-.39a4.43,4.43,0,0,1,.71-3.55,3.84,3.84,0,0,1,1.48-1,2.4,2.4,0,0,0,1-.7c.52-.66.56-1.76.15-3.25l1-.27c.51,1.82.4,3.2-.32,4.13a3.33,3.33,0,0,1-1.4,1,2.85,2.85,0,0,0-1.13.77,3.22,3.22,0,0,0-.54,2.38l1.4.15Z"/><path d="M47.94,52.16a6.47,6.47,0,0,1,1.41-5.87l.75.66A5.34,5.34,0,0,0,49,49a5.51,5.51,0,0,0-.06,2.93Z"/><path d="M63.21,63.3l-.21-1a11.22,11.22,0,0,0,3.67-1.47,9.82,9.82,0,0,0,4.92-6.68,9.37,9.37,0,0,0-1.26-6.43,9.75,9.75,0,0,0-1.91-2.35l.67-.74a10.7,10.7,0,0,1,2.11,2.59,10.4,10.4,0,0,1,1.38,7.1A10.84,10.84,0,0,1,67.2,61.7,12.42,12.42,0,0,1,63.21,63.3Z"/><path d="M86.89,70.16l-.75-.66,1.71-1.94L86,65.34c-.85-1-1.7-2-2.56-3.05l-.36-.43v-.17a17.93,17.93,0,0,0-1.32-5.93C81,54,80.58,53,79.51,52.45a5.83,5.83,0,0,0-3.85-.21,10.12,10.12,0,0,0-3,1l-.46-.88a11.08,11.08,0,0,1,3.28-1.12,6.9,6.9,0,0,1,4.5.31c1.43.76,2,2.11,2.69,3.82a18.93,18.93,0,0,1,1.39,6.09l.15.17c.85,1,1.71,2,2.55,3.06l2.41,2.88Z"/><path d="M98.5,76.42,86,76.2,75.7,65.94l0-.16a3.2,3.2,0,0,1,1.21-3.08,3.11,3.11,0,0,1,2-.59c0-2.84-.49-4.69-1.44-5.1a4.11,4.11,0,0,0-1.62,0l-.37,0c-1.68.09-3,.14-3.93.17l0-1c.9,0,2.25-.08,3.91-.17l.37,0a4.4,4.4,0,0,1,2.07.1c1.48.63,2.17,2.86,2,6.61l0,.63-.61-.16a2.1,2.1,0,0,0-2.63,2.3l9.74,9.74,11.27.2a6.53,6.53,0,0,0-6-7.25,6.45,6.45,0,0,0-4.77,2l-.29.33-.74-.67.3-.34a7.72,7.72,0,0,1,5.54-2.34c4.17.16,6.15,4,6.17,4.06A7.6,7.6,0,0,1,98.57,76Z"/><path d="M62.84,60.46h-.48c-2.2-.13-5.37-1.24-5.51-3.31a3,3,0,0,1,.8-2.06A3.13,3.13,0,0,1,59.81,54a3.43,3.43,0,0,1,2.75,1.32h0c.12.16.24.26.33.26a.38.38,0,0,0,.23-.11S65.07,54,66.2,54.06a2.18,2.18,0,0,1,1.49,1,3.39,3.39,0,0,1,.65,2.65C67.86,59.76,64.89,60.46,62.84,60.46ZM60,55h-.12a2.2,2.2,0,0,0-1.47.77,2,2,0,0,0-.55,1.34c.09,1.31,2.72,2.27,4.57,2.38s4.61-.52,4.94-2a2.4,2.4,0,0,0-.47-1.83,1.34,1.34,0,0,0-.77-.59,5.34,5.34,0,0,0-2.36,1.17,1.33,1.33,0,0,1-.91.33,1.44,1.44,0,0,1-1.08-.65A2.46,2.46,0,0,0,60,55Z"/><path d="M63,58.32h-.34a4.16,4.16,0,0,1-3-1.75l.83-.56a3.09,3.09,0,0,0,2.23,1.31,3.14,3.14,0,0,0,2.51-1L66,57A4.22,4.22,0,0,1,63,58.32Z"/><path d="M59,54.36a5.55,5.55,0,0,1-1.35-.16c-2.3-.63-4-3.42-4.3-7.11l-.07-.82,6.13,2.53a4.14,4.14,0,0,1,2.38,2.07A2.62,2.62,0,0,1,62.06,53C61.62,54,60.27,54.36,59,54.36Zm-4.55-6.53c.42,2.85,1.74,4.93,3.46,5.4,1.15.32,2.88.06,3.2-.67a1.69,1.69,0,0,0-.23-1.26,3.15,3.15,0,0,0-1.81-1.56h0Z"/><path class="cls-1" d="M66,48.84a3.72,3.72,0,0,0-2.1,1.82,2.13,2.13,0,0,0-.23,1.68c.47,1.06,2.53,1.29,3.79.95,2.13-.59,3.64-3.26,3.93-6.67Z"/><path d="M66.21,53.94c-1.24,0-2.59-.4-3-1.41a2.6,2.6,0,0,1,.24-2.08,4.14,4.14,0,0,1,2.38-2.07l6.12-2.54-.07.82c-.31,3.69-2,6.48-4.29,7.11A5.53,5.53,0,0,1,66.21,53.94Zm4.55-6.54-4.62,1.92a3.12,3.12,0,0,0-1.82,1.55,1.75,1.75,0,0,0-.22,1.27c.32.73,2.05,1,3.2.66C69,52.33,70.34,50.25,70.76,47.4Z"/><path class="cls-1" d="M64.13,45.77a1.67,1.67,0,1,0,1.81,2.72l3.38-1.75A1,1,0,0,0,69.4,46c-.22-.53-1.09-.6-1.68-.64a12.26,12.26,0,0,0-2.36.23C64.42,45.66,64.33,45.65,64.13,45.77Z"/><path d="M64.78,49.34a2.39,2.39,0,0,1-.66-.09,2,2,0,0,1-1.31-1,2.38,2.38,0,0,1,1.07-2.92h0a2.2,2.2,0,0,1,1-.22l.46,0,1.25-.16a4.8,4.8,0,0,1,1.21-.08c.7,0,1.77.13,2.11.94a1.45,1.45,0,0,1-.1,1.2l-.07.15-3.54,1.82A2.48,2.48,0,0,1,64.78,49.34Zm-.41-3.14c-.46.26-1,1-.67,1.59a1.07,1.07,0,0,0,.68.5,1.66,1.66,0,0,0,1.29-.22l3.26-1.69a.37.37,0,0,0,0-.23c-.1-.24-.91-.31-1.26-.33a3.38,3.38,0,0,0-1,.07l-1.27.16L65,46.1C64.47,46.16,64.44,46.16,64.37,46.2Z"/><path class="cls-1" d="M59.22,48.87a1.73,1.73,0,0,0,2-.71,1.77,1.77,0,0,0-.83-2.4h-2.8L54.2,46a.74.74,0,0,0-.37.56.75.75,0,0,0,.73.69Z"/><path d="M59.76,49.45a2.24,2.24,0,0,1-.68-.1h0l-4.6-1.59A1.15,1.15,0,0,1,54,45.58l.1-.06,3.5-.25h3l.11.05a2.39,2.39,0,0,1,1.21,1.43,2.14,2.14,0,0,1-.17,1.67A2.19,2.19,0,0,1,59.76,49.45Zm-.39-1.05a1.26,1.26,0,0,0,1.42-.49,1.15,1.15,0,0,0,.08-.88,1.33,1.33,0,0,0-.6-.77H57.59l-3.2.23s-.06.06-.06.08a.27.27,0,0,0,.26.18l.14,0Z"/><path d="M58,49a11.16,11.16,0,0,0-.57,1.72,10.27,10.27,0,0,0-.28,2.39,6.29,6.29,0,0,1-1.74-1.62,6.58,6.58,0,0,1-1.22-4Z"/><path d="M66.66,48.89a3.48,3.48,0,0,0,1.13,4A3.23,3.23,0,0,1,66,53.3c-.29,0-1.77-.12-2.17-1.11s.66-2.16.85-2.36A3.39,3.39,0,0,1,66.66,48.89Z"/><circle cx="52.15" cy="55.66" r="1.31"/><path d="M28,55.08a3.72,3.72,0,0,1-1.32-1.21,3.63,3.63,0,0,1-.55-1.32c-.63,1.34-1.37,2.77-2.26,4.26a48.43,48.43,0,0,1-3.06,4.55l.42.43Z"/><path d="M36.7,56.18a34,34,0,0,1,.16,4.66,34.32,34.32,0,0,1-.54,5,7,7,0,0,0,1.82-.61,7.36,7.36,0,0,0,2.6-2.12,18.19,18.19,0,0,1-2.63-3.65A18.62,18.62,0,0,1,36.7,56.18Z"/><path d="M69.16,69.39a19,19,0,0,0-2.33,3.77,18.81,18.81,0,0,0-1.69,6.54h3.57a10,10,0,0,0,1.57-4.11A10.36,10.36,0,0,0,69.16,69.39Z"/><path d="M91.47,77.66c-2.54,0-5.78.49-5.79,1.07s3.07,1.23,5.89,1.19,5.63-.73,5.61-1.29S94,77.64,91.47,77.66Z"/><path d="M12.77,77.19,14.89,80a24.79,24.79,0,0,1-4.76-.11c-.38,0-4.87-.59-4.85-1.36s3-1.16,4.51-1.32A17.88,17.88,0,0,1,12.77,77.19Z"/><path d="M17.69,73.37,17.23,73l.68-.73.44.39Z"/></g><g id="Text"><path class="cls-3" d="M21,14.43l0,1.1,6.17-.19.1,3.23-6.17.19.09,2.72-3.82.11-.32-10.28L27.94,11l.1,3.23Z"/><path class="cls-3" d="M34,21.08l-3.82.12-.32-10.28,3.82-.12Z"/><path class="cls-3" d="M41.78,15.24,48.45,15l.17,5.59-2.2.07-.33-1.47c-.83,1-2.16,1.7-4.32,1.76-3.79.12-6.08-1.53-6.19-5.11s2.07-5.34,6.3-5.47,6.3,1.24,6.55,4l-3.91.12c-.16-.52-.92-1-2.54-.93-2.26.07-2.61,1-2.58,2.27s.47,2.35,2.72,2.28c1.47-.05,2.36-.28,2.48-1l-2.76.08Z"/><path class="cls-3" d="M66.27,20.08l-3.82.12-.15-4.89-2.66,5-2.49.08-3-4.8.15,4.89-3.82.12L50.2,10.29l4.7-.15,3.36,5.77,3-6L66,9.8Z"/><path class="cls-3" d="M77.25,17.88,72.87,18l-.65,1.87L68,20,72,9.61l5.66-.18,4.58,10.15-4.2.13Zm-1.08-2.61-1.29-3.1-1.09,3.18Z"/><path d="M27.09,23.49l-1.5,5.13-2.8.08-.92-2.89-.75,2.94-2.79.09-1.83-5,2-.06,1.16,3.55,1-3.62,2.25-.07,1.21,3.55.94-3.61Z"/><path d="M30,24.85l0,.47,3.48-.1,0,1.23L30,26.56V27l3.48-.11,0,1.45-5.36.17L28,23.46l5.37-.16,0,1.45Z"/><path d="M40.75,26.65c0,.83-.45,1.51-1.6,1.55l-4.64.14-.16-5.07,4.42-.14c1.15,0,1.53.48,1.55,1.24a1.47,1.47,0,0,1-.37,1A1.69,1.69,0,0,1,40.75,26.65ZM36.29,25l1.74,0c.19,0,.42,0,.41-.29s-.24-.27-.43-.26l-1.74.05Zm2.57,1.57c0-.27-.24-.26-.43-.26l-2.1.07,0,.54,2.1-.07C38.64,26.83,38.87,26.83,38.86,26.56Z"/><path d="M51.43,25.28a2.32,2.32,0,0,1-2.29,2.61L45.37,28l-.16-5.07L49,22.81A2.33,2.33,0,0,1,51.43,25.28Zm-1.88,0c0-.94-.7-.92-1.1-.9l-1.31,0,.06,1.88,1.31,0C48.91,26.3,49.58,26.28,49.55,25.33Z"/><path d="M54.23,24.1l0,.47,3.47-.11,0,1.24-3.47.1v.48l3.48-.11,0,1.45-5.36.16-.16-5.07,5.36-.17L57.71,24Z"/><path d="M60.52,25.74c0,.25.25.41,1.44.37s1.28-.11,1.28-.3-.18-.24-1.36-.24c-2.3,0-3.19-.35-3.22-1.53s1-1.63,3-1.69,3.11.38,3.15,1.68l-1.88,0c0-.26-.45-.31-1.37-.28s-1.06.08-1.05.27.18.19,1.28.19c2,0,3.25.12,3.29,1.45S64,27.5,61.94,27.56s-3.25-.25-3.3-1.76Z"/><path d="M68,27.3l-1.88.06L66,22.29l1.89-.06Z"/><path d="M71.85,24.42l3.29-.11.09,2.77-1.09,0L74,26.38a2.64,2.64,0,0,1-2.13.87c-1.87.06-3-.75-3-2.52s1-2.64,3.1-2.7,3.11.61,3.23,2l-1.92.06c-.08-.25-.46-.48-1.26-.46-1.11,0-1.29.51-1.27,1.12s.23,1.16,1.34,1.13c.73,0,1.17-.14,1.23-.48l-1.36,0Z"/><path d="M82.55,21.77l.16,5.07-2.46.08L78,24l.09,3-1.88.06L76,22l2.46-.07,2.28,2.92-.09-3Z"/></g></g></g></svg>