<svg xmlns="http://www.w3.org/2000/svg" viewBox="0 0 85.11 117.62"><defs><style>.cls-1{fill:#fcfcfc;}.cls-2{fill:#fff;}</style></defs><g id="Calque_2" data-name="Calque 2"><g id="Etiquette_21" data-name="Etiquette 21"><g id="Forme"><path class="cls-1" d="M40,0h5.11a40,40,0,0,1,40,40v77.62a0,0,0,0,1,0,0H0a0,0,0,0,1,0,0V40A40,40,0,0,1,40,0Z"/><path d="M83.05,115.61h-1V42.55a39.5,39.5,0,0,0-79,0v73.06h-1V42.55a40.5,40.5,0,0,1,81,0Z"/><rect x="2.55" y="114.67" width="79.64" height="1"/></g><g id="Personne"><path d="M43.73,53.52c-7.4,0-14.36-1-19.11-2.86l.35-.94c4.65,1.78,11.48,2.8,18.76,2.8,14.33,0,24-3.75,24-7.25,0-3.2-7.51-6.14-17.85-7l.09-1c9.33.77,18.76,3.54,18.76,8C68.7,49.9,57.73,53.52,43.73,53.52Z"/><path d="M23.17,50A13.52,13.52,0,0,1,21,48.78h0l-.06-.05-.05,0-.2-.16-.1-.08a4.17,4.17,0,0,1-1.82-3.18,4.4,4.4,0,0,1,2.07-3.38,11.54,11.54,0,0,1,1.55-1l.12-.06a20.24,20.24,0,0,1,2.67-1.15c.54-.2,1.13-.4,1.75-.58a50.23,50.23,0,0,1,7.56-1.52l.13,1a46.54,46.54,0,0,0-7.4,1.48c-.6.18-1.17.36-1.7.56a18.88,18.88,0,0,0-2.65,1.15l-.12.06a9.74,9.74,0,0,0-1.3.84,3.44,3.44,0,0,0-1.68,2.58,3.26,3.26,0,0,0,1.46,2.41l.12.1h.33V48a12.51,12.51,0,0,0,1.92,1.09Z"/><path d="M50.66,85h0l-25.53-.17a.5.5,0,0,1-.38-.17.52.52,0,0,1-.11-.4,10.6,10.6,0,0,1,3-6.08c.67-.65,4.25-3.82,8.72-2.68a8.56,8.56,0,0,1,3.26,1.67c-1-3.1-1.81-6.26-2.51-9.41a114.68,114.68,0,0,1-2.26-14.88.51.51,0,0,1,.45-.54.5.5,0,0,1,.54.46,114.53,114.53,0,0,0,2.25,14.74A113,113,0,0,0,41.27,78.9a.51.51,0,0,1-.88.47,7.92,7.92,0,0,0-4.23-2.89c-4-1-7.18,1.85-7.79,2.43a9.49,9.49,0,0,0-2.64,4.93L50.22,84a5.9,5.9,0,0,0-.36-2.72c-1.3-3.34-5.33-4.09-5.5-4.12a.51.51,0,0,1-.41-.44L41.49,53.05a.5.5,0,0,1,.45-.55.51.51,0,0,1,.55.45l2.42,23.32c1.19.28,4.6,1.36,5.88,4.65a7.18,7.18,0,0,1,.37,3.67A.51.51,0,0,1,50.66,85Z"/><path d="M43.56,63.82l-.92-.38a20.1,20.1,0,0,0,1.37-10l1-.12A20.67,20.67,0,0,1,44.9,59,20.35,20.35,0,0,1,43.56,63.82Z"/><path d="M44.36,71.49,44,70.55a7.82,7.82,0,0,0,4.09-2.91c.83-1.25,1.05-2.51,1-8.92,0-2.32,0-4.27-.08-5.69l1,0c0,1.42.07,3.38.08,5.71,0,6.34-.17,7.94-1.19,9.47A8.76,8.76,0,0,1,44.36,71.49Z"/><path d="M30,76.74A20.76,20.76,0,0,1,27.7,65.55c.16-1.63.42-4.09,2.2-4.93,1.61-.76,3.51.3,4.32.75a8.16,8.16,0,0,1,3.39,3.78l-.91.41a7.12,7.12,0,0,0-3-3.32c-.68-.37-2.25-1.26-3.41-.71s-1.48,2.72-1.63,4.13A19.57,19.57,0,0,0,30.85,76.3Z"/><path d="M37.08,76.67l-.3-1A2.44,2.44,0,0,0,37.87,75a2.72,2.72,0,0,0,.52-2.2l1-.2a3.69,3.69,0,0,1-.74,3.06A3.39,3.39,0,0,1,37.08,76.67Z"/><path d="M22.51,64.85a.5.5,0,0,1-.5-.5.52.52,0,0,1,0-.18q.12-.35.21-.69a.5.5,0,0,1,.62-.35.51.51,0,0,1,.35.62q-.11.38-.24.75A.5.5,0,0,1,22.51,64.85Z"/><path d="M19.33,69.27A3.1,3.1,0,0,1,17,68a2.64,2.64,0,0,1-.46-1.06.5.5,0,0,1,.39-.59.51.51,0,0,1,.59.4,1.59,1.59,0,0,0,.29.67,2,2,0,0,0,1.67.9,1.18,1.18,0,0,0,.68-.35.41.41,0,0,1,.11-.07.5.5,0,0,1,.6.08.51.51,0,0,1,0,.71l-.08.06a2.1,2.1,0,0,1-1.21.56Z"/><path d="M24.25,56.36h-.07a.5.5,0,0,1-.43-.56c.27-2.13.48-4.42.62-6.85-1,1.56-1.95,3.12-2.8,4.65,0,0-.3.53-.72,1.44a.5.5,0,0,1-.91-.43c.45-1,.76-1.49.76-1.49,1.13-2,2.43-4.15,3.85-6.25a.51.51,0,0,1,.57-.19.49.49,0,0,1,.35.49c-.14,3.14-.39,6.08-.73,8.76A.49.49,0,0,1,24.25,56.36Z"/><polygon class="cls-1" points="26.82 37.51 27.39 42.3 32.12 43.25 27.74 45.27 28.3 50.05 25.03 46.51 20.65 48.53 23.01 44.32 19.73 40.78 24.46 41.72 26.82 37.51"/><path d="M28.3,50.56a.5.5,0,0,1-.37-.17l-3-3.27L20.86,49a.5.5,0,0,1-.65-.7l2.18-3.89-3-3.27a.5.5,0,0,1-.07-.59.48.48,0,0,1,.53-.24l4.38.87,2.18-3.89a.5.5,0,0,1,.53-.25.51.51,0,0,1,.4.44l.52,4.43,4.38.87a.5.5,0,0,1,.11.94l-4,1.87L28.8,50a.5.5,0,0,1-.29.51A.54.54,0,0,1,28.3,50.56ZM25,46a.52.52,0,0,1,.37.16l2.22,2.42-.38-3.27a.49.49,0,0,1,.29-.51l3-1.37-3.22-.65a.5.5,0,0,1-.4-.43l-.38-3.26L24.9,42a.49.49,0,0,1-.53.25l-3.22-.64L23.37,44a.5.5,0,0,1,.07.59l-1.6,2.86,3-1.37A.54.54,0,0,1,25,46Z"/><path d="M21.4,72A12.15,12.15,0,0,1,18,71.46c-1.22-.4-4-1.3-5-4a5.19,5.19,0,0,1,.69-5.29A4.68,4.68,0,0,1,17.94,61a7.84,7.84,0,0,1,2.58.85A5.62,5.62,0,0,1,23,64.13a.14.14,0,0,1,0,.06,2.78,2.78,0,0,1,.27,1.26,3.6,3.6,0,0,1-2.58,3.3l0,0h0a1.77,1.77,0,0,1-.29.07A3.54,3.54,0,0,1,16.57,67a2.8,2.8,0,0,1-.14-.25.5.5,0,0,1,.22-.67.49.49,0,0,1,.67.22l.11.2a2.58,2.58,0,0,0,2.75,1.32l.11,0,.07,0a2.59,2.59,0,0,0,1.89-2.37,2,2,0,0,0-.19-.86l0-.06a4.68,4.68,0,0,0-2-1.76A6.92,6.92,0,0,0,17.79,62a3.73,3.73,0,0,0-3.36.9c-1.18,1.29-.86,3.28-.49,4.25.85,2.21,3.21,3,4.35,3.36s4.5,1.17,7.24-.7c1.46-1,1.89-2.21,3-5.45.27-.75.57-1.6.94-2.57,1.09-3,2.35-6,3.75-9.06a.5.5,0,0,1,.91.42c-1.39,3-2.64,6.06-3.73,9-.36,1-.66,1.81-.93,2.56-1.16,3.26-1.7,4.76-3.42,5.94A8.29,8.29,0,0,1,21.4,72Z"/><path d="M22.77,64.11a5.43,5.43,0,0,1-.56,0,.5.5,0,0,1-.47-.52.48.48,0,0,1,.53-.47,3.49,3.49,0,0,0,2.25-.36,1.65,1.65,0,0,0,.69-1c0-.89-1.61-1.77-2.93-2.47-2.34-1.24-4-2.13-5.56-1.45A3.16,3.16,0,0,0,14.9,60a2.52,2.52,0,0,0,.27,1.38A.49.49,0,0,1,15,62a.5.5,0,0,1-.67-.22,3.44,3.44,0,0,1-.37-2,4.14,4.14,0,0,1,2.4-2.95c2-.88,4,.16,6.44,1.48,1.65.88,3.53,1.88,3.46,3.41a2.56,2.56,0,0,1-1.06,1.75A4,4,0,0,1,22.77,64.11Z"/><path d="M25.51,60.56a5,5,0,0,1-1.23-.17l.26-1c1.23.33,2.11,0,2.26-.34.06-.13.11-.54-.65-1.44a5.09,5.09,0,0,0-2.69-1.5c-2.52-.73-5.66-1.64-6.39-.62A1.7,1.7,0,0,0,17,56.86l-1,.23a2.54,2.54,0,0,1,.25-2.15c1.14-1.59,4.22-.71,7.47.24A6,6,0,0,1,26.92,57c.3.36,1.23,1.47.8,2.48A2.29,2.29,0,0,1,25.51,60.56Z"/><polygon points="67.22 31.44 66.79 33.73 66.56 31.41 64.61 30.94 66.6 30.64 67.03 28.36 67.26 30.67 69.22 31.15 67.22 31.44"/><polygon points="66.64 37.25 66.1 31.82 62 30.82 66.17 30.2 67.19 24.84 67.72 30.27 71.82 31.26 67.65 31.89 66.64 37.25"/><polygon points="75.07 52.75 74.74 55.06 74.41 52.75 72.44 52.37 74.41 51.98 74.74 49.68 75.07 51.98 77.05 52.37 75.07 52.75"/><polygon points="74.74 58.58 73.97 53.18 69.83 52.37 73.97 51.56 74.74 46.16 75.52 51.56 79.65 52.37 75.52 53.18 74.74 58.58"/><polygon points="17.34 32.68 17.01 34.99 16.68 32.68 14.7 32.3 16.68 31.91 17.01 29.61 17.34 31.91 19.31 32.3 17.34 32.68"/><polygon points="17.01 38.51 16.23 33.11 12.09 32.3 16.23 31.49 17.01 26.09 17.78 31.49 21.92 32.3 17.78 33.11 17.01 38.51"/><path d="M59.28,76.16a15.5,15.5,0,0,1-2.93-.33l.19-1c2.78.55,4.58.37,5.21-.49s.13-2.78-.12-3.68c-.18-.63-.32-1.12.21-1.28s.68.32.87.81.61,1.56,1,1.6c.21,0,.72-.43,1.14-1.22a5.19,5.19,0,0,0-.85-5.8,5.12,5.12,0,0,0-3.17-1.39l-.43,0-.8-12.18,1-.06.74,11.32a6.07,6.07,0,0,1,3.37,1.63,6.14,6.14,0,0,1,1,7c-.36.7-1.13,1.86-2.13,1.75a1.16,1.16,0,0,1-.57-.21,3.43,3.43,0,0,1-.48,2.35C62,75.75,60.89,76.16,59.28,76.16Z"/><path d="M55.09,76.18a4.41,4.41,0,0,1-2-.46,5,5,0,0,1-2.55-3.21,2.61,2.61,0,0,1,.33-2.21c1-1.35,3.34-1,3.6-.92l-.18,1c-.68-.12-2.09-.17-2.62.53a1.67,1.67,0,0,0-.16,1.39,4.06,4.06,0,0,0,2,2.55,3.45,3.45,0,0,0,3.7-.44,3.63,3.63,0,0,0,.58-4.6l.86-.52a4.65,4.65,0,0,1-.78,5.87A4.31,4.31,0,0,1,55.09,76.18Z"/><path d="M51.62,70.36A3.62,3.62,0,0,1,49.75,68a3.79,3.79,0,0,1,2.64-4L51.61,52.2l1-.06.83,12.57-.39.11a2.88,2.88,0,0,0-2.32,3,2.62,2.62,0,0,0,1.36,1.68Z"/><path d="M35.71,37.8a6.44,6.44,0,1,1,6.43-6.44A6.45,6.45,0,0,1,35.71,37.8Zm0-11.88a5.44,5.44,0,1,0,5.43,5.44A5.45,5.45,0,0,0,35.71,25.92Z"/><path d="M48.43,37.8a6.44,6.44,0,1,1,6.44-6.44A6.45,6.45,0,0,1,48.43,37.8Zm0-11.88a5.44,5.44,0,1,0,5.44,5.44A5.45,5.45,0,0,0,48.43,25.92Z"/><path d="M42.26,48.37H42A8.56,8.56,0,0,1,34,42l0-.12,0-4.44h1l0,4.4A7.5,7.5,0,0,0,49.43,42l0-4.71h1l0,4.86,0,.07A8.53,8.53,0,0,1,42.26,48.37Z"/><path d="M42.21,45.56h0a3.51,3.51,0,0,1-2.59-1.28,4.07,4.07,0,0,1-1-3.21l.06-.44,7.08,0,.06.43a4.05,4.05,0,0,1-1,3.27A3.55,3.55,0,0,1,42.21,45.56Zm-2.63-3.93a3.09,3.09,0,0,0,.75,2,2.54,2.54,0,0,0,1.85.94,2.62,2.62,0,0,0,1.91-.92,3.08,3.08,0,0,0,.77-2Z"/><polygon points="38.35 43.31 37.35 43.28 37.47 39.26 39.05 37.65 45.19 37.65 46.82 38.69 47.24 42.71 46.25 42.82 45.87 39.27 44.9 38.65 39.47 38.65 38.45 39.68 38.35 43.31"/><path d="M45.33,21.13a4.15,4.15,0,0,0-8-.42l-1-.32a5.23,5.23,0,0,1,4.81-3.57,5.29,5.29,0,0,1,5.13,4.09Z"/><rect class="cls-2" x="30.82" y="20.58" width="10.43" height="4.15" rx="2.07" transform="translate(7.35 -8.79) rotate(15.48)"/><path d="M39.06,26.07a2.59,2.59,0,0,1-.68-.09L32.32,24.3a2.57,2.57,0,0,1,1.37-5L39.75,21a2.57,2.57,0,0,1,.58,4.71A2.52,2.52,0,0,1,39.06,26.07ZM33,20.25a1.57,1.57,0,0,0-.42,3.09l6,1.67a1.58,1.58,0,0,0,1.2-.15,1.55,1.55,0,0,0,.74-.94A1.58,1.58,0,0,0,39.48,22L33.42,20.3A1.44,1.44,0,0,0,33,20.25Z"/><rect class="cls-2" x="42.19" y="20.58" width="10.43" height="4.15" rx="2.07" transform="translate(99.13 31.84) rotate(164.52)"/><path d="M44.37,26.07a2.49,2.49,0,0,1-1.26-.34,2.54,2.54,0,0,1-1.21-1.55,2.51,2.51,0,0,1,.24-1.95A2.54,2.54,0,0,1,43.69,21l6.05-1.68a2.57,2.57,0,0,1,2.93,3.75,2.54,2.54,0,0,1-1.55,1.21L45.06,26A2.67,2.67,0,0,1,44.37,26.07Zm6.06-5.82a1.51,1.51,0,0,0-.42.05L44,22a1.58,1.58,0,0,0-1.1,1.94,1.52,1.52,0,0,0,.74.94,1.55,1.55,0,0,0,1.19.15l6.06-1.67a1.61,1.61,0,0,0,.95-.75A1.55,1.55,0,0,0,52,21.4,1.58,1.58,0,0,0,50.43,20.25Z"/><circle cx="54.47" cy="43.72" r="0.48"/><circle cx="58.27" cy="43.94" r="0.48"/><circle cx="62.24" cy="45.64" r="0.48"/><circle cx="60.03" cy="48.07" r="0.48"/><circle cx="57.13" cy="48.44" r="0.48"/><circle cx="54.63" cy="47.48" r="0.48"/><circle cx="49.54" cy="48.92" r="0.48"/><circle cx="46.61" cy="48.92" r="0.48"/><circle cx="51.32" cy="45.4" r="0.48"/><circle cx="54.15" cy="45.77" r="0.48"/><circle cx="57.96" cy="46.73" r="0.48"/><circle cx="53.07" cy="41.2" r="0.48"/><circle cx="60.03" cy="42.24" r="0.48"/><circle cx="56.01" cy="40.03" r="0.48"/><circle cx="52.73" cy="50.06" r="0.48"/><circle cx="33.44" cy="45.17" r="0.48"/><circle cx="30.47" cy="45.88" r="0.48"/><circle cx="21.11" cy="44.9" r="0.48"/><circle cx="29.19" cy="48.77" r="0.48"/><circle cx="32.09" cy="49.14" r="0.48"/><circle cx="34.59" cy="48.19" r="0.48"/><circle cx="39.68" cy="49.62" r="0.48"/><circle cx="42.47" cy="50.57" r="0.48"/><circle cx="37.02" cy="48.3" r="0.48"/><circle cx="35.07" cy="46.1" r="0.48"/><circle cx="45.49" cy="51.05" r="0.48"/><circle cx="29.77" cy="41.28" r="0.48"/><circle cx="33.21" cy="40.73" r="0.48"/><circle cx="36.49" cy="50.76" r="0.48"/><path d="M43,31.08a4.11,4.11,0,1,0,8.17.73A4.28,4.28,0,0,0,47.48,27a6.79,6.79,0,0,0-1.62.21l.73,3.27-2.55-2A8.39,8.39,0,0,0,43,31.08Z"/><path d="M30.17,31.08a4.28,4.28,0,0,0,3.7,4.78,4.27,4.27,0,0,0,4.47-4.05A4.27,4.27,0,0,0,34.65,27a6.88,6.88,0,0,0-1.62.21l.73,3.27-2.55-2A8.39,8.39,0,0,0,30.17,31.08Z"/><polygon points="24.97 53.02 32.63 55.38 33.68 52.59 25.13 50.54 24.97 53.02"/><polygon points="35.81 52.96 36.02 56.02 41.99 55.91 41.75 53.23 35.81 52.96"/><polygon points="44.9 53.46 44.9 55.95 49.32 55.84 49.13 53.02 44.9 53.46"/><polygon points="52.58 52.85 52.73 56.22 60.21 55.95 59.89 51.24 52.58 52.85"/></g><g id="Text"><path d="M13.65,105.2H11.27l-.39,1H8.6l2.32-5.6H14l2.32,5.6H14Zm-.54-1.44-.65-1.71-.65,1.71Z"/><path d="M19.36,106.29c-2.46,0-3.51-.94-3.51-2.89v-2.79h2.07v2.79c0,.6.22,1.13,1.44,1.13s1.44-.54,1.44-1.13v-2.79h2.08v2.79C22.88,105.34,21.82,106.29,19.36,106.29Z"/><path d="M30,103.41a2.57,2.57,0,0,1-2.63,2.8H23.21v-5.6h4.15A2.57,2.57,0,0,1,30,103.41Zm-2.08,0c0-1-.74-1-1.19-1H25.28v2.08h1.44C27.17,104.45,27.91,104.45,27.91,103.41Z"/><path d="M32.31,106.21H30.23v-5.6h2.08Z"/><path d="M32.47,103.4c0-1.94,1.06-2.87,3.52-2.87s3.52.94,3.52,2.87-1.07,2.89-3.52,2.89S32.47,105.35,32.47,103.4Zm5,0c0-.58-.21-1.11-1.44-1.11s-1.44.52-1.44,1.11.21,1.13,1.44,1.13S37.43,104,37.43,103.4Z"/><path d="M46.67,100.61l-2.32,5.6H41.27L39,100.61h2.29l1.57,4.16,1.58-4.16Z"/><path d="M48.92,106.21H46.84v-5.6h2.08Z"/><path d="M51.24,104.23c0,.27.25.46,1.57.46s1.42-.08,1.42-.29-.19-.27-1.5-.31c-2.53-.08-3.49-.5-3.49-1.8s1.2-1.76,3.41-1.76,3.42.53,3.42,2H54c0-.3-.48-.36-1.5-.36s-1.17.05-1.17.26.2.21,1.41.26c2.21.09,3.58.24,3.58,1.7s-1.28,1.94-3.58,1.94-3.57-.39-3.57-2.06Z"/><path d="M60.07,106.29c-2.47,0-3.52-.94-3.52-2.89v-2.79h2.08v2.79c0,.6.21,1.13,1.44,1.13s1.44-.54,1.44-1.13v-2.79h2.08v2.79C63.59,105.34,62.52,106.29,60.07,106.29Z"/><path d="M66,102.21v.52h3.84v1.36H66v.52h3.84v1.6H63.91v-5.6h5.92v1.6Z"/><path d="M75.83,104.45v1.76H70.07v-5.6h2.08v3.84Z"/><path d="M30.46,95.76A2.11,2.11,0,0,1,28.39,98a2.08,2.08,0,0,1-1.49-.51l-.63.49h0V92h.05a1.54,1.54,0,0,1,.37.09l.05,0,.05,0h0a1.05,1.05,0,0,1,.27.2,1.13,1.13,0,0,1,.34.8v1.18a1.7,1.7,0,0,1,1.3-.63A1.89,1.89,0,0,1,30.46,95.76Zm-1.21.08c0-1.35-.36-1.83-.94-1.83a1.23,1.23,0,0,0-.93.5v2.58a1,1,0,0,0,.87.78C28.9,97.87,29.25,97.12,29.25,95.84Z"/><path d="M35.37,97.68v0a1.68,1.68,0,0,1-.86.25.74.74,0,0,1-.73-.4,2.31,2.31,0,0,1-1.36.43c-1,0-1.6-.51-1.6-1.29,0-1.33,2.11-1.57,2.11-2.23a.27.27,0,0,0-.21-.27h-.1a.75.75,0,0,0-.26,0,.85.85,0,0,0-.42.16l-.16-.2a1.68,1.68,0,0,1,1.48-.48,1.92,1.92,0,0,1,1.61,2l0,1.47c0,.37,0,.59.37.59Zm-1.65-.29h0V95.46h0c0-1,0-1.62-.58-1.69-.21,0-.34.11-.47.31.28,0,.49.19.49.48,0,.67-1.13,1.06-1.13,2a.92.92,0,0,0,1,1A1.39,1.39,0,0,0,33.72,97.39Z"/><path d="M39.47,96.91A2.09,2.09,0,0,1,37.66,98a2,2,0,0,1-2-2.1,2.11,2.11,0,0,1,2.16-2.21,2.05,2.05,0,0,1,1.58.67l-.64.57c-.32-.53-.37-1.13-.84-1.13-.65,0-1.05.68-1.05,1.83,0,1.3.51,1.92,1.26,1.92a1.51,1.51,0,0,0,1.22-.69Z"/><path d="M44,95.15v2.76H42.88V95c0-.28,0-1-.71-1a1.24,1.24,0,0,0-.88.42v3.45H40.14V92h.14a1.15,1.15,0,0,1,1,.9.28.28,0,0,1,0,.09v1.32h0a1.82,1.82,0,0,1,1.38-.63C43.52,93.69,44,94.15,44,95.15Z"/><path d="M46.15,96.41a.5.5,0,0,0,0,.3.26.26,0,0,0,0,.11s0,0,0,0h0a1.1,1.1,0,0,0,1,.69,1.52,1.52,0,0,0,1.23-.69l.09,0A2.11,2.11,0,0,1,46.73,98a2,2,0,0,1-2-2.1,2.11,2.11,0,0,1,1.64-2.16,2.19,2.19,0,0,1,.52,0H47a1.77,1.77,0,0,1,.78.14l.19.08c.73.39,1,1,.7,1.6-.44.83-1.67.52-2.22.67h0a.39.39,0,0,0-.19.1,0,0,0,0,0,0,0,.22.22,0,0,0-.05.08Zm.28-.54h0l0,0c.4-.15.91-.25,1.16-.73a.84.84,0,0,0,.1-.32c.1-.83-.49-1-.69-1H47a.87.87,0,0,0-.32.06c-.45.2-.72.83-.72,1.77a3.65,3.65,0,0,0,0,.59s0,.06,0,.1a.29.29,0,0,1,0,.09A.62.62,0,0,1,46.43,95.87Z"/><path d="M50.62,93.11v4.8H49.48V92h0a1.12,1.12,0,0,1,.8.33A1.14,1.14,0,0,1,50.62,93.11Z"/><path d="M54.19,97.91a2,2,0,0,1-2.71-1.39A2.12,2.12,0,0,1,53,93.78a2,2,0,0,1,2.71,1.38A2.12,2.12,0,0,1,54.19,97.91Zm.36-2.34c-.38-1.19-1-1.87-1.6-1.68s-.7,1.07-.34,2.24,1,1.86,1.59,1.67S54.91,96.73,54.55,95.57Z"/><path d="M59.23,93.78v1h0a.86.86,0,0,0-1.07-.19.92.92,0,0,0-.3.29h0a.85.85,0,0,0-.14.34.19.19,0,0,1,0,.07V97.9H56.54V93.78h.08a1.05,1.05,0,0,1,.69.33,1.07,1.07,0,0,1,.32.73V95h0c.21-.75.63-1.2,1.22-1.23.14,0,.28,0,.34,0Z"/></g></g></g></svg>