<svg xmlns="http://www.w3.org/2000/svg" viewBox="0 0 92.42 93.98"><defs><style>.cls-1{fill:#fff;}</style></defs><g id="Calque_2" data-name="Calque 2"><g id="Etiquette_22" data-name="Etiquette 22"><g id="Forme"><path class="cls-1" d="M88.12,20.45c-7.61-7.15-23.14-7.19-29.49-7a6.41,6.41,0,0,0-3.32-3.63,6.64,6.64,0,0,0-5.87.44,17.54,17.54,0,0,0-11.1-4.85,16.24,16.24,0,0,0-5.62.79A14.77,14.77,0,0,0,12.38,2.49c-1.55,1-5.22,3.5-5.7,8.09-.54,5.1,3.29,8.62,3.74,9a15.35,15.35,0,0,0-8.08,6.21c-.39.61-4.19,6.83-1.2,13.62a14.81,14.81,0,0,0,8.51,7.74,4.44,4.44,0,0,0-2,3.41,4.25,4.25,0,0,0,2.73,4l11.14.17q-1.35,10-2.72,19.91C8,76.22,1,82.19.93,87.86c0,1.1.23,3.36,2.62,6.12L66,93.79a9,9,0,0,0,2-4.53c.72-5.57-4.74-9.8-6-10.79A18,18,0,0,0,50.53,74.9L47,54.73l5.1-3c.92,1,5.73,6,12.7,5.81,7.68-.21,14.86-6.63,16.73-15.83A8.79,8.79,0,0,0,87,39.35a9.1,9.1,0,0,0,2.17-9c1.08-.37,2.64-1.09,3.13-2.49C93.2,25.22,89.74,22,88.12,20.45ZM34,79.6l-2.21-2.72L34,62.41l3,14.64Z"/></g><g id="Personnage"><path d="M4.7,90l0-.53a13.11,13.11,0,0,1,4.52-9.12,12.93,12.93,0,0,1,12.44-2.08l4.64-27.88,6.28-.44L27.84,80a8.71,8.71,0,0,1,4.83,2.8,8.87,8.87,0,0,1,2,6.69l0,.44ZM17.27,78.5a11.59,11.59,0,0,0-7.38,2.59A12,12,0,0,0,5.77,89l27.94-.08a7.54,7.54,0,0,0-6.51-8l-.5-.07L31.42,51l-4.23.3-4.72,28.3-.57-.23A12.8,12.8,0,0,0,17.27,78.5Z"/><path d="M64.74,90l-30.4-.13-.07-.42a8.49,8.49,0,0,1,2-6.93,8.2,8.2,0,0,1,5.09-2.6L36.41,50.43,43,50.05l4.42,29.57a10.68,10.68,0,0,1,5.36-1.52A11.31,11.31,0,0,1,61,81.69a13,13,0,0,1,3.72,7.77ZM35.2,88.89,63.61,89a11.94,11.94,0,0,0-3.35-6.61,10.32,10.32,0,0,0-7.43-3.3,9.9,9.9,0,0,0-5.47,1.76l-.66.45L42.18,51.1l-4.6.27,4.91,29.49-.56,0a7.27,7.27,0,0,0-5,2.32A7.4,7.4,0,0,0,35.2,88.89Z"/><path d="M11.21,51.09l4.67-5,.73.68-3.07,3.26,29.9-.25a10.56,10.56,0,0,0,7.79-3.65C54.77,42,53.48,35.6,52.76,33l1-.27c.76,2.72,2.12,9.53-1.73,14.06a11.48,11.48,0,0,1-8.55,4Z"/><path d="M64.3,53.54c-2.14,0-4-1-6.51-2.44a27.63,27.63,0,0,1-6-4.51l.71-.71a26.28,26.28,0,0,0,5.76,4.35c2.71,1.51,4.5,2.52,6.64,2.28,3.59-.4,5.86-4,6.47-5.11l.87.48C71.4,49.43,69,53.07,65,53.5A6.06,6.06,0,0,1,64.3,53.54Z"/><path d="M65.14,45.53a1.75,1.75,0,0,1-.4-.05,2.15,2.15,0,0,1-1.35-1.16,3.18,3.18,0,0,1,0-2.65l2.12-3.27.84.55-2.08,3.19a2.13,2.13,0,0,0,.06,1.73,1.18,1.18,0,0,0,.69.64,1.65,1.65,0,0,0,1.53-.95l4.62-9.08a1.35,1.35,0,0,0,.39-1c-.1-.66-1.08-1.09-1.86-1a2.2,2.2,0,0,0-1.56,1l-.07.09-4.6,4.62L57.54,33l.65-.75,5.18,4.51,3.9-3.92a3.21,3.21,0,0,1,2.3-1.43c1.27-.09,2.74.64,2.93,1.89a2.29,2.29,0,0,1-.59,1.76L67.38,44A2.77,2.77,0,0,1,65.14,45.53Z"/><polygon points="68.85 40.93 68.39 40.04 74.03 37.14 73.62 36.01 70.53 37.28 70.15 36.35 74.2 34.68 75.27 37.63 68.85 40.93"/><path d="M74,35.29l1.52-.7.76,2-1.51.64Z"/><path d="M74.47,37.93,73.35,35l2.43-1.12,1.12,3Zm.15-2.38L75,36.61l.6-.25-.41-1.09Z"/><path d="M74.7,34.87A2.3,2.3,0,0,0,72,33.79l-.27-1a3.27,3.27,0,0,1,1.8,0,3.38,3.38,0,0,1,2,1.55Z"/><path d="M68.59,47.47a2.68,2.68,0,0,1-2.44-1.26,2.48,2.48,0,0,1,.3-2.57l.81.59A1.5,1.5,0,0,0,67,45.75a1.79,1.79,0,0,0,1.67.71,2.11,2.11,0,0,0,1.84-1.52l3.89-8.17.9.43-3.86,8.1a3.08,3.08,0,0,1-2.67,2.16Z"/><path d="M73.87,49.28c-1.06,0-2-1.14-2.39-1.8a5.22,5.22,0,0,1,0-4.6l.91.42A4.21,4.21,0,0,0,72.34,47c.4.7,1.19,1.4,1.62,1.29s.78-1.15.91-1.6c.66-2.33,1.61-5.16,2.92-8.65a1.78,1.78,0,0,0-.17-1,1.91,1.91,0,0,0-1.71-1l0-1a2.91,2.91,0,0,1,2.57,1.52,2.72,2.72,0,0,1,.24,1.72c-1.32,3.56-2.27,6.35-2.91,8.64-.22.74-.6,2.08-1.65,2.33Z"/><path d="M18.42,47.67A2.42,2.42,0,0,1,16.78,47L8.28,42.2A9.46,9.46,0,0,1,5.77,40C2.82,36.22,3.83,31.52,4,31a11.5,11.5,0,0,1,5.79-7.34,13.77,13.77,0,0,1,11.19-.87l-.33.94a12.8,12.8,0,0,0-10.36.79,10.49,10.49,0,0,0-5.31,6.71,10.09,10.09,0,0,0,1.63,8.12,8.74,8.74,0,0,0,2.23,2l8.64,4.91a1.31,1.31,0,0,0,1.65.21,1.13,1.13,0,0,0,.46-.84,1.35,1.35,0,0,0-.3-1L13.77,41.5l.44-.89,5.71,2.47a1.2,1.2,0,0,0,1.57-.1,1.08,1.08,0,0,0,.22-.85,1.28,1.28,0,0,0-.57-.9l-5.83-3,.41-.91,6.55,2.41a1.25,1.25,0,0,0,1.4.08A1,1,0,0,0,24,39a1.52,1.52,0,0,0-.38-1.12l-5.87-3.31.49-.87,6,3.44A2.51,2.51,0,0,1,25,39.09a2,2,0,0,1-.77,1.48,2.18,2.18,0,0,1-2.18.16A2.2,2.2,0,0,1,22.7,42a2,2,0,0,1-.46,1.64,2.08,2.08,0,0,1-2,.65,2.39,2.39,0,0,1,.3,1.46,2.2,2.2,0,0,1-.87,1.54A2.08,2.08,0,0,1,18.42,47.67Z"/><polygon points="18.7 48.75 18.65 47.33 19.65 47.29 19.67 47.68 31.44 46.8 31.05 30.16 32.05 30.14 32.46 47.72 18.7 48.75"/><path d="M21.09,18.65h0a3.44,3.44,0,0,1-2.4-1.27,4.93,4.93,0,0,1-.5-.63,3.26,3.26,0,0,1-1.43,1.5A3.17,3.17,0,0,1,13.59,18a2.6,2.6,0,0,1-.93-1.39,5.27,5.27,0,0,1-2.07-3.26,5.47,5.47,0,0,1,.78-3.65A7.06,7.06,0,0,1,14,7.12a.52.52,0,0,1,.69.19.5.5,0,0,1-.18.68,5.85,5.85,0,0,0-2.21,2.23,4.5,4.5,0,0,0-.68,3,3.72,3.72,0,0,0,.53,1.38,6.29,6.29,0,0,1,.43-2.95A6.38,6.38,0,0,1,14,9.5a.5.5,0,0,1,.66,0,.5.5,0,0,1,.13.64,9.2,9.2,0,0,0-1.09,3.06c-.18,1.07-.55,3.29.51,4.08a2.14,2.14,0,0,0,2.09.11,2.76,2.76,0,0,0,1.27-1.77,10.55,10.55,0,0,1-.16-5.75.49.49,0,0,1,.48-.38h0a.5.5,0,0,1,.48.38,12.08,12.08,0,0,1,.25,5.69,4.27,4.27,0,0,0,.78,1.17,2.52,2.52,0,0,0,1.68,1h0c1.18,0,2.13-1.38,2.44-2.25a3.58,3.58,0,0,0,.16-.56,9,9,0,0,1-1.62-4.47.5.5,0,0,1,.86-.38,6.08,6.08,0,0,1,1.8,4.53,2.66,2.66,0,0,0,.92.58,1.73,1.73,0,0,0,1.38.07c.72-.44.56-2.1.51-2.65a6.51,6.51,0,0,0-.13-.77,11.79,11.79,0,0,1-2-3.61.51.51,0,0,1,.21-.6.5.5,0,0,1,.63.1,8.72,8.72,0,0,1,2,3.63c.57.62,1.11.92,1.52.84a1.69,1.69,0,0,0,1-1.42c.16-1.3-1.43-3.21-4.69-4.16a.51.51,0,0,1-.33-.63.49.49,0,0,1,.62-.33c3.37,1,5.64,3.19,5.39,5.24A2.63,2.63,0,0,1,30,13.09a2.09,2.09,0,0,1-1.47-.33c.08,1,.1,2.59-1,3.27a2.61,2.61,0,0,1-2.23,0,3.21,3.21,0,0,1-.8-.42l-.05.12C24,17.15,22.69,18.65,21.09,18.65Z"/><path d="M21.27,24.09a.49.49,0,0,1-.49-.46l-.42-5.15a.5.5,0,0,1,.46-.54.5.5,0,0,1,.54.46l.41,5.15a.49.49,0,0,1-.46.54Z"/><path d="M24.56,23.82a.51.51,0,0,1-.5-.44l-.73-6.61a.5.5,0,0,1,.44-.55.51.51,0,0,1,.56.44l.73,6.61a.5.5,0,0,1-.44.55Z"/><path d="M16.85,21a.5.5,0,0,1-.13-1L20.4,19a.5.5,0,1,1,.28,1L17,21A.32.32,0,0,1,16.85,21Z"/><path d="M24.3,23.89a.4.4,0,0,1-.15,0L24,23.8a.5.5,0,1,1,.48-.88.5.5,0,0,1-.17,1Z"/><path d="M29.91,36.65h-.09A11.26,11.26,0,0,1,23.1,32.7a10.44,10.44,0,0,1-1.42-2.35,8.56,8.56,0,0,1-2.09,3.07,9.15,9.15,0,0,1-6,2.37h0a.49.49,0,0,1-.49-.41A11.08,11.08,0,0,1,15,27.05a10.73,10.73,0,0,1,5.68-3.92.5.5,0,0,1,.52.15.62.62,0,0,1,.23-.07.49.49,0,0,1,.51.35,10.27,10.27,0,0,1,.26,5.18,9.48,9.48,0,0,0,1.72,3.34,10.18,10.18,0,0,0,5.7,3.49,9.37,9.37,0,0,0,.25-4.89,5.92,5.92,0,0,0-.22-.78.5.5,0,0,1,.32-.63.49.49,0,0,1,.63.31,8.31,8.31,0,0,1,.25.89,10.49,10.49,0,0,1-.43,5.85A.52.52,0,0,1,29.91,36.65ZM20.85,24.11a9.74,9.74,0,0,0-5.09,3.53A10,10,0,0,0,14,34.77a8.09,8.09,0,0,0,4.91-2.08,7.69,7.69,0,0,0,2.22-3.92A11.81,11.81,0,0,1,20.85,24.11Z"/><path d="M31.56,30.37A8.11,8.11,0,0,1,26.94,29a8.49,8.49,0,0,1-3.36-5.4.49.49,0,0,1,.29-.55,9.58,9.58,0,0,1,9.83,1,8.7,8.7,0,0,1,2.82,4.44.5.5,0,0,1-.23.56A9.32,9.32,0,0,1,31.56,30.37Zm-6.92-6.58a7.42,7.42,0,0,0,2.87,4.36,7.64,7.64,0,0,0,7.93.23,7.59,7.59,0,0,0-2.37-3.55A8.49,8.49,0,0,0,24.64,23.79Z"/><path d="M27.8,31.19a.5.5,0,0,1-.4-.21l-4.17-5.83a.5.5,0,0,1,.11-.7.51.51,0,0,1,.7.11l4.17,5.83a.5.5,0,0,1-.12.7A.53.53,0,0,1,27.8,31.19Z"/><path d="M21.8,24a.51.51,0,0,1-.5-.49.5.5,0,0,1,.49-.51L24.06,23a.48.48,0,0,1,.51.49.5.5,0,0,1-.49.51L21.81,24Z"/><path d="M32.57,28a.54.54,0,0,1-.36-.14,9.36,9.36,0,0,0-2.36-1.74,9.55,9.55,0,0,0-3.38-1,.5.5,0,0,1,.11-1,10.63,10.63,0,0,1,6.34,3.06.5.5,0,0,1,0,.71A.52.52,0,0,1,32.57,28Z"/><path d="M16,32.38a.41.41,0,0,1-.19,0,.51.51,0,0,1-.28-.65,16.51,16.51,0,0,1,3.64-5.53.5.5,0,1,1,.71.71,14.78,14.78,0,0,0-1.92,2.33,15.59,15.59,0,0,0-1.5,2.86A.49.49,0,0,1,16,32.38Z"/><path d="M21,4.17c-1.08-.06-3.69-.22-5.62,1.54-.39.36-1.77,1.62-1.46,3s1.83,1.79,2.36,2c1.22.44,2.43.22,4.79-.22,3-.56,3.61-1.09,3.86-1.31s1.6-1.45,1.31-2.71C25.75,4.46,21.55,4.21,21,4.17Z"/><path d="M17.71,11.39a4.73,4.73,0,0,1-1.63-.27c-.58-.2-2.34-.82-2.68-2.33-.25-1.09.3-2.25,1.62-3.45,2.08-1.9,4.91-1.73,6-1.66h0c1.55.09,5.21.52,5.69,2.61.34,1.44-1,2.82-1.46,3.2s-1.27.9-4.1,1.43A20.07,20.07,0,0,1,17.71,11.39ZM20,4.64a6.25,6.25,0,0,0-4.31,1.44c-1,.94-1.48,1.78-1.32,2.48.23,1,1.6,1.46,2.05,1.62,1.07.38,2.16.2,4.52-.24a8.9,8.9,0,0,0,3.62-1.19c.64-.58,1.33-1.51,1.16-2.23C25.45,5.35,23,4.79,20.94,4.67h0C20.7,4.66,20.37,4.64,20,4.64Z"/><polygon points="29.54 22.52 29.38 19.85 32.11 19.92 27.22 13.52 32.76 14.16 30.23 7.71 36.21 11.23 36.16 7.58 47.45 14.75 46.92 15.6 37.19 9.41 37.23 12.99 32.22 10.04 34.29 15.34 29.44 14.78 34.17 20.98 30.44 20.88 30.54 22.46 29.54 22.52"/><rect class="cls-1" x="46.84" y="13.59" width="8.57" height="4.15" rx="2.07" transform="translate(103.49 26.44) rotate(174.6)"/><path d="M48.92,18.44a2.57,2.57,0,0,1-.24-5.13l4.4-.42a2.58,2.58,0,0,1,2.8,2.32,2.53,2.53,0,0,1-.58,1.88,2.58,2.58,0,0,1-1.74.93l-4.4.41Zm4.4-4.56h-.15l-4.4.41a1.58,1.58,0,1,0,.3,3.14l4.4-.42a1.59,1.59,0,0,0,1.42-1.71A1.58,1.58,0,0,0,53.32,13.88Z"/><rect class="cls-1" x="38.36" y="13.25" width="8.57" height="4.15" rx="2.07" transform="translate(80.74 39.86) rotate(-166.99)"/><path d="M44.8,18.4a2.25,2.25,0,0,1-.58-.07l-4.31-1a2.58,2.58,0,1,1,1.16-5l4.31,1A2.57,2.57,0,0,1,47.3,16.4,2.53,2.53,0,0,1,46.16,18,2.59,2.59,0,0,1,44.8,18.4Zm-4.67-2,4.31,1a1.6,1.6,0,0,0,1.19-.2,1.59,1.59,0,0,0,.7-1,1.6,1.6,0,0,0-.2-1.19,1.63,1.63,0,0,0-1-.7l-4.31-1a1.57,1.57,0,1,0-.71,3.06Z"/><path d="M61,35.64,53.82,43a18.78,18.78,0,0,0-.34-10.08l4.28-.07Z"/><path d="M27,51c-.25,1.42-.51,2.84-.76,4.26H31c.24-1.53.49-3.05.74-4.58Z"/><path d="M37.31,51c.19,1.47.39,2.94.58,4.41h5.17c-.24-1.53-.49-3-.73-4.58Z"/><polygon points="50.59 33.21 50.66 28.17 51.66 28.18 51.61 32.2 67.75 32.08 67.76 33.08 50.59 33.21"/><path d="M71.85,32.86l-.06-1a17.5,17.5,0,0,0,3.6-.62A16.92,16.92,0,0,0,78.61,30l.46.89a18,18,0,0,1-3.41,1.36A18.19,18.19,0,0,1,71.85,32.86Z"/><path d="M63.74,26.25v-1l22.59-.18a37.21,37.21,0,0,0-7.64-4.22,38.55,38.55,0,0,0-9.59-2.46,51.26,51.26,0,0,0-14.84.05l-.14-1a52.2,52.2,0,0,1,15.13-.05,39.68,39.68,0,0,1,9.81,2.52,38.07,38.07,0,0,1,9.06,5.24l1.13.89Z"/><path d="M62.59,28.54l-.51-.86a2.54,2.54,0,0,0,1.16-1.94,2.35,2.35,0,0,0-1.61-2.2L62,22.6a3.34,3.34,0,0,1,2.28,3.15A3.51,3.51,0,0,1,62.59,28.54Z"/><rect x="69.95" y="21.14" width="2.95" height="1" transform="translate(-1.6 6.22) rotate(-4.93)"/><path d="M82.14,37.65H81.9a4,4,0,0,1-3.43-2.48l0-.09L78.49,26h1l-.06,8.86A3,3,0,0,0,82,36.64a3,3,0,0,0,2.88-1.74L84.65,26l1,0,.2,9.14,0,.1A4,4,0,0,1,82.14,37.65Z"/><rect x="78.64" y="28.85" width="7.03" height="1" transform="translate(49.77 110.36) rotate(-87.87)"/><polygon points="85.68 28.37 85.14 27.53 86.59 26.59 85.26 26.35 85.43 25.37 89.25 26.05 85.68 28.37"/><path d="M76.38,26.05l2.23,1.61c0-.56.11-1.12.16-1.69Z"/><path d="M79,28.58l-4.12-3,4.42-.15ZM77.86,26.5l.33.25,0-.26Z"/><path d="M52,28.31a5.67,5.67,0,1,1,5.68-5.67A5.68,5.68,0,0,1,52,28.31ZM52,18a4.67,4.67,0,1,0,4.68,4.67A4.68,4.68,0,0,0,52,18Z"/><path d="M41.69,28.74a5.67,5.67,0,1,1,5.66-5.67A5.69,5.69,0,0,1,41.69,28.74Zm0-10.34a4.67,4.67,0,1,0,4.66,4.67A4.68,4.68,0,0,0,41.69,18.4Z"/><path d="M36.91,22.7a4.11,4.11,0,1,0,8.17.73,4.28,4.28,0,0,0-3.7-4.78,6.88,6.88,0,0,0-1.62.21l.74,3.27-2.55-2A8.27,8.27,0,0,0,36.91,22.7Z"/><path d="M47.2,22.5a4.11,4.11,0,1,0,8.17.72,4.26,4.26,0,0,0-3.69-4.77,7.06,7.06,0,0,0-1.62.2l.73,3.27-2.55-2A8.37,8.37,0,0,0,47.2,22.5Z"/></g></g></g></svg>