<svg xmlns="http://www.w3.org/2000/svg" viewBox="0 0 113.09 95.47"><defs><style>.cls-1,.cls-5{fill:#fff;}.cls-2,.cls-3{fill:none;}.cls-2,.cls-3,.cls-4,.cls-5{stroke:#000;}.cls-2{stroke-miterlimit:10;}.cls-3,.cls-4,.cls-5{stroke-linejoin:round;}</style></defs><g id="Calque_2" data-name="Calque 2"><g id="Etiquette_23" data-name="Etiquette 23"><g id="Forme"><path class="cls-1" d="M45.64,3.3.77,86.17a6.3,6.3,0,0,0,5.54,9.3H96.06a6.3,6.3,0,0,0,5.54-9.3L75.5,38Q66.11,20.63,56.73,3.3A6.32,6.32,0,0,0,51.18,0a6.25,6.25,0,0,0-5.54,3.3L.77,86.17a6.3,6.3,0,0,0,5.54,9.3H96.06a6.3,6.3,0,0,0,5.54-9.3L56.73,3.3A6.31,6.31,0,0,0,45.64,3.3Z"/><polyline class="cls-2" points="84.9 60.13 84.65 59.68 84.65 59.68"/><path class="cls-2" d="M3.62,85.53A5.11,5.11,0,0,0,3,88a5.23,5.23,0,0,0,1.48,3.62,5.17,5.17,0,0,0,3.75,1.57H94.16A5.21,5.21,0,0,0,99.39,88a5.11,5.11,0,0,0-.64-2.47"/><path class="cls-2" d="M18.24,58.73,3.62,85.53A5.11,5.11,0,0,0,3,88a5.23,5.23,0,0,0,1.48,3.62,5.17,5.17,0,0,0,3.75,1.57H94.16A5.21,5.21,0,0,0,99.39,88a5.11,5.11,0,0,0-.64-2.47L86.58,63l0,0"/><path class="cls-2" d="M34.94,28.09s0,0,0,0,0,0,0,0"/><path class="cls-2" d="M36.79,24.71l9.8-18A5.25,5.25,0,0,1,54.9,5.55a5.4,5.4,0,0,1,.88,1.19L73.38,39,55.78,6.74a5.4,5.4,0,0,0-.88-1.19,5.25,5.25,0,0,0-8.31,1.19"/><path class="cls-1" d="M35.79,23.17a8.11,8.11,0,0,0-5.87,1.6,7.89,7.89,0,0,0-2.81,4.47l-5.36.32a9.22,9.22,0,0,0-5.94,8l-.32,7.92H12a3.67,3.67,0,0,0-2,2.42,3.63,3.63,0,0,0,1.59,3.77,5.86,5.86,0,0,0,1.41,4.85,5.58,5.58,0,0,0,3.51,1.66Z"/><path class="cls-1" d="M79.3,34.86c.25-.13,3.54-1.74,6.47,0a6.21,6.21,0,0,1,2.38,2.72h1.4c.09-.74.17-1.47.26-2.21a34.77,34.77,0,0,1,7.83-3c3.65-.92,7.35-1.79,11.15-.22,1.34.56,3.73,1.55,4.21,3.54.86,3.51-4.92,7.32-5.74,7.87a20.42,20.42,0,0,1-13.37,2.89,6.67,6.67,0,0,1-.76,2.85,7.1,7.1,0,0,1-4.47,3.41,6.81,6.81,0,0,1-2.3.13A6.73,6.73,0,0,1,88.28,56a6.89,6.89,0,0,1-.6,5L74.75,38.05Q77,36.44,79.3,34.86Z"/></g><g id="Personnage"><path class="cls-3" d="M35.63,38.29a17.52,17.52,0,0,0-6.74-5.35c-1.64-.73-3.29-1.46-5.36-1.08a8.19,8.19,0,0,0-5.23,3.83l-.45,10.46a5.17,5.17,0,0,0-2.64,3,4,4,0,0,0-.12.81l.21,4.47a1.93,1.93,0,0,0,.32,1.17,2,2,0,0,0,1.44.83l3.73.21a2.69,2.69,0,0,0,.7,1.07,3,3,0,0,0,1.64.72,3.35,3.35,0,0,0,2.72-1.3,6.68,6.68,0,0,0,1.24.85,5.4,5.4,0,0,0,2.57.75c1.41-.1,2.73-1.53,3.35-3.48a6,6,0,0,1-2.87-1.41c-.38-.34-1.74-1.56-1.44-2.48s1.89-1.35,3.93-1a7.65,7.65,0,0,0-2.81-3.93A7.53,7.53,0,0,0,26,45.07a3.54,3.54,0,0,1-.54-2.3A2.6,2.6,0,0,1,26.41,41c.85-.37,3,1.49,8.77,10.73"/><path class="cls-2" d="M34.83,28.79A4.88,4.88,0,0,0,36.24,30a4.81,4.81,0,0,0,1.29.52"/><path class="cls-3" d="M39,57.64l4.81,7-9.32-7.88a33,33,0,0,0-.34,17l17.15.3a8.28,8.28,0,0,0-2.72-4.08c-2.71-2.12-6.76-2.25-10.34-.39,0-.85,0-1.7-.05-2.55l3,1.49"/><path d="M41,41c-.59,4.57,2.57,8.17,5.49,8.34s6.81-3.37,6.34-8.26Z"/><path class="cls-1" d="M43.77,41.82c.18,1.44.68,2.42,1.07,2.41s.82-1,.92-2.44Z"/><path class="cls-1" d="M47.84,41.82c.18,1.44.68,2.42,1.07,2.41s.82-1,.92-2.44Z"/><ellipse class="cls-1" cx="46.8" cy="47.04" rx="2.6" ry="1.36"/><path class="cls-3" d="M46.41,59.62A16.31,16.31,0,0,1,48.62,63c.76,1.58,1.28,2.67,1,4A4.2,4.2,0,0,1,48,69.28"/><path class="cls-3" d="M47.85,55.22a14.45,14.45,0,0,1,3.7.76A14.65,14.65,0,0,1,55,57.71"/><path class="cls-3" d="M61.77,47.92l-6.34,9.45a2.41,2.41,0,0,0-.17,3.23c.73.6,2.43.36,3.32-1.11l5.91-8.8a2.3,2.3,0,0,0,0-3.39A2.22,2.22,0,0,0,61.77,47.92Z"/><path class="cls-3" d="M61.41,48a14.2,14.2,0,0,1-3.15-3.38,14.66,14.66,0,0,1-2.3-6"/><path class="cls-3" d="M56.31,39.23a20.69,20.69,0,0,0,4.4,2.26c.58.22,9.19,3.29,14.21-.25.3-.21,1.38-1,2.64-2,2.34-1.85,2.7-2.34,3.77-2.65a4.28,4.28,0,0,1,3.89.48,3.69,3.69,0,0,1,1.19,3.76,3.05,3.05,0,0,1-1.92,2.24,2.55,2.55,0,0,1-2.87-1.12,2.52,2.52,0,0,1,.22-2.74"/><path class="cls-3" d="M65.24,50a18.63,18.63,0,0,0,2.61.32,22.42,22.42,0,0,0,11.24-2.42"/><path class="cls-3" d="M79.43,44.86a5.57,5.57,0,0,0,.12,4.29c.46,1.29.78,2.22,1.75,2.64A2.6,2.6,0,0,0,84,51.43c1.38-1.27.2-4,0-4.45-.74-1.71-2.45-3.56-3.62-3.19A1.78,1.78,0,0,0,79.43,44.86Z"/><path class="cls-3" d="M84.62,51.11a2.77,2.77,0,0,0,2.13.3c1.74-.63,1.81-3.65,1.83-4.47A6.27,6.27,0,0,0,87,42.39a4.51,4.51,0,0,0-.72-.6"/><path class="cls-3" d="M83,43.25a2.44,2.44,0,0,0-.22.51,3,3,0,0,0-.15,1.14"/><path class="cls-3" d="M87.17,41.94c1.51-.61,3.09-.59,4,.26s.7,1.84.53,4.06c-.1,1.41-.21,2.61-1.1,3.53a2.29,2.29,0,0,1-1.88.85,1.38,1.38,0,0,1-.57-.27"/><path class="cls-4" d="M75.27,43.41l5.63-1.86.27-.09.89,1.37.48.61-.32.61L81,43.54l-1,0-.89,1.18-.32.77L75.87,46Z"/><path class="cls-4" d="M91.11,42.15l1.76.15c-.28-1-.56-2-.85-3l-5.19.91c-.06.39-.13.78-.19,1.17.13.16.25.32.38.47l.42,0"/><path class="cls-3" d="M91.86,36.26c.5,2.51,1,5,1.51,7.53l.92.61,9.21-1.92a11.8,11.8,0,0,0,4.11-1.71c1.84-1.23,4.11-3.09,3.75-4.57-.64-2.63-9.1-2.38-9.64-2.37A25.47,25.47,0,0,0,91.86,36.26Z"/><circle class="cls-3" cx="96.28" cy="36.32" r="0.45"/><circle class="cls-3" cx="93.32" cy="37.22" r="0.45"/><circle class="cls-3" cx="99.51" cy="35.76" r="0.45"/><circle class="cls-3" cx="102.6" cy="35.41" r="0.45"/><circle class="cls-3" cx="106.04" cy="35.04" r="0.45"/><circle class="cls-3" cx="108.53" cy="34.95" r="0.45"/><circle class="cls-3" cx="96.85" cy="38.79" r="0.45"/><circle class="cls-3" cx="93.9" cy="39.7" r="0.45"/><circle class="cls-3" cx="100.09" cy="38.24" r="0.45"/><circle class="cls-3" cx="103.17" cy="37.88" r="0.45"/><circle class="cls-3" cx="106.62" cy="37.52" r="0.45"/><circle class="cls-3" cx="109.53" cy="37.52" r="0.45"/><circle class="cls-3" cx="97.43" cy="41.43" r="0.45"/><circle class="cls-3" cx="94.47" cy="42.33" r="0.45"/><circle class="cls-3" cx="100.66" cy="40.87" r="0.45"/><circle class="cls-3" cx="103.75" cy="40.52" r="0.45"/><circle class="cls-3" cx="107.19" cy="40.15" r="0.45"/><path class="cls-3" d="M63.21,52.94a8.75,8.75,0,0,1,5.58.72c3.7,2,5.66,7,4.51,12.51a12.92,12.92,0,0,1,3.19-6,13.59,13.59,0,0,1,9.45-4L81.26,74l-18,.38a7.31,7.31,0,0,1,1.28-5.82A7.13,7.13,0,0,1,68.49,66a10.4,10.4,0,0,0-.64-5.1,7.26,7.26,0,0,0-2.34-3.53A6.61,6.61,0,0,0,61,56.17"/><path d="M84.06,56.77A33.75,33.75,0,0,0,77,73.68L81,73.57Q83.26,65,85.5,56.45Z"/><path d="M66.27,53.19A4.13,4.13,0,0,0,63.75,56l-2.09-.24-.1-.4,1.56-2.33Z"/><path class="cls-3" d="M45.87,53.3a13.6,13.6,0,0,0,2-.47c.45-.14.87-.29,1.25-.45a10.2,10.2,0,0,0-2.36-1.54,9,9,0,0,0-7-.51,8.14,8.14,0,0,0-3.67,3,8.3,8.3,0,0,0,2.3,3.83,8.39,8.39,0,0,0,4.08,2.11c.93.19,3.16.64,4.88-.64a4.26,4.26,0,0,0,.74-.7,8.09,8.09,0,0,0-1.6-1A8.31,8.31,0,0,0,45,56.3a5.31,5.31,0,0,0,3.29-.83,8.82,8.82,0,0,0-1.06-1.18A8.66,8.66,0,0,0,45.87,53.3Z"/><path class="cls-3" d="M15.65,47.69l-2.2-.42a.87.87,0,0,0-1.09.22.89.89,0,0,0,.42,1.25l2.1.67"/><path class="cls-3" d="M29.7,50.51l7.41,1.59"/><path class="cls-3" d="M36.14,54.1,29,52.54"/><path class="cls-3" d="M51.81,40.44a5.65,5.65,0,1,1,5.65-5.65,5.65,5.65,0,0,1-5.65,5.65"/><circle class="cls-3" cx="40.48" cy="35.38" r="5.65"/><path class="cls-3" d="M31.13,33.75l3.49-4.89a2,2,0,0,0-2.9-2.69c-1.41,2-2.83,3.95-4.24,5.92"/><path d="M46.42,34.43a4.11,4.11,0,1,0,8.17.72,4.26,4.26,0,0,0-3.69-4.77,7.06,7.06,0,0,0-1.62.2L50,33.85l-2.55-2A8.37,8.37,0,0,0,46.42,34.43Z"/><path d="M35.31,35.43a4.11,4.11,0,1,0,4.48-4.05,6.9,6.9,0,0,0-1.63.21l.74,3.27-2.55-2A8.27,8.27,0,0,0,35.31,35.43Z"/><polygon points="33.97 60.45 37.83 59.97 34.77 57.45 33.97 60.45"/><rect class="cls-5" x="36.74" y="25.72" width="8.81" height="3.72" rx="1.86" transform="translate(5.83 -7.16) rotate(10.69)"/><rect class="cls-5" x="46.78" y="25.61" width="8.81" height="3.72" rx="1.86" transform="translate(107.48 41.8) rotate(166.06)"/><line class="cls-2" x1="82.14" y1="55.07" x2="81.29" y2="53.56"/></g><g id="Text"><path d="M25.25,84.21a2.88,2.88,0,0,1-2.95,3.15H17.61v-6.3H22.3A2.88,2.88,0,0,1,25.25,84.21Zm-2.34,0c0-1.17-.83-1.17-1.33-1.17H20v2.34h1.63C22.08,85.38,22.91,85.38,22.91,84.21Z"/><path d="M26.33,81.06H29L30.7,83.4l1.68-2.34h2.7l-3.21,4.23v2.07H29.53V85.29Z"/><path d="M45.18,81.06v6.3H42.11L39.4,83.64v3.72H37.05v-6.3h3.07l2.71,3.72V81.06Z"/><path d="M52.84,86.23H50.16l-.43,1.13H47.15l2.61-6.3h3.48l2.61,6.3H53.27Zm-.61-1.62-.73-1.93-.73,1.93Z"/><path d="M67.48,87.36H65.14v-3l-1.72,3H61.89l-1.72-3v3H57.83v-6.3h2.88l1.94,3.6,1.95-3.6h2.88Z"/><path d="M72,87.36H69.63v-6.3H72Z"/><path d="M77.91,81c2.53,0,3.84.88,3.94,2.87h-2.4c-.08-.59-.54-.89-1.54-.89-1.38,0-1.62.59-1.62,1.25s.25,1.27,1.62,1.27c1,0,1.46-.3,1.54-.91h2.4c-.1,2-1.4,2.89-3.94,2.89-2.77,0-4-1-4-3.25S75.14,81,77.91,81Z"/></g></g></g></svg>