<svg xmlns="http://www.w3.org/2000/svg" viewBox="0 0 123.04 80.09"><defs><style>.cls-1{fill:#fff;}</style></defs><g id="Calque_2" data-name="Calque 2"><g id="Flèche"><path class="cls-1" d="M9.9,79.33a2.49,2.49,0,0,1-2.3-3.46C32,17.09,77,4,90.25,1.36c12.24-2.43,22.59-1.56,26.36,2.21,3.17,3.18,6.53,9.8,6.43,18.89-.12,10-4.61,26.14-25.37,46a2.5,2.5,0,1,1-3.45-3.61C113.72,46.18,117.93,31.47,118,22.4c.08-7.54-2.62-12.95-5-15.29-1.79-1.8-9.75-3.24-21.85-.84-12.59,2.49-55.52,15-79,71.52A2.5,2.5,0,0,1,9.9,79.33Z"/><path class="cls-1" d="M9.91,80.09a2.49,2.49,0,0,1-2.15-1.21L.35,66.49a2.5,2.5,0,0,1,4.3-2.56l6.17,10.33,9.39-5.06a2.5,2.5,0,0,1,2.37,4.4L11.09,79.79A2.41,2.41,0,0,1,9.91,80.09Z"/><path d="M10.37,77l-.93-.38C33.5,18.77,77.67,5.89,90.64,3.32,101.89,1.09,112,1.78,115.19,5c2.76,2.75,5.94,9,5.85,17.44-.11,9.65-4.5,25.2-24.75,44.55l-.69-.73c20-19.1,24.33-34.38,24.44-43.83.09-8.16-2.93-14.11-5.55-16.73S103,1.89,90.83,4.3C78,6.85,34.23,19.62,10.37,77Z"/><polygon points="9.72 78.26 2.07 65.47 2.93 64.95 10.09 76.93 21.16 70.96 21.63 71.84 9.72 78.26"/></g></g></svg>