<svg xmlns="http://www.w3.org/2000/svg" viewBox="0 0 92.34 30.43"><defs><style>.cls-1{fill:#fff;}</style></defs><g id="Calque_2" data-name="Calque 2"><g id="Fashion"><rect class="cls-1" width="92.34" height="30.43" rx="10.21"/><path d="M82.21,27.56H10.13a6.29,6.29,0,0,1-6.29-6.28V9.7a6.29,6.29,0,0,1,6.29-6.28H82.21A6.29,6.29,0,0,1,88.5,9.7V21.28A6.29,6.29,0,0,1,82.21,27.56ZM10.13,4.42A5.29,5.29,0,0,0,4.84,9.7V21.28a5.29,5.29,0,0,0,5.29,5.28H82.21a5.29,5.29,0,0,0,5.29-5.28V9.7a5.29,5.29,0,0,0-5.29-5.28Z"/><path d="M14.73,13.69v.83h4.62v2.42H14.73v2H11.87v-7.7H20v2.42Z"/><path d="M27.07,17.59H23.79L23.26,19H20.12l3.19-7.7h4.24L30.74,19H27.6Zm-.75-2-.89-2.36-.89,2.36Z"/><path d="M34.15,16.26c0,.37.35.62,2.17.62s2-.11,2-.39-.26-.38-2.06-.43c-3.48-.11-4.81-.68-4.81-2.48s1.66-2.42,4.7-2.42,4.7.73,4.7,2.7H37.94c0-.41-.66-.5-2.06-.5s-1.62.07-1.62.37.28.28,2,.35c3,.12,4.92.33,4.92,2.34s-1.76,2.66-4.92,2.66-4.92-.54-4.92-2.82Z"/><path d="M52.79,11.27V19H49.93V16.33H45.42V19H42.56v-7.7h2.86v2.64h4.51V11.27Z"/><path d="M57.19,19H54.33v-7.7h2.86Z"/><path d="M58.51,15.11c0-2.67,1.45-3.95,4.84-3.95s4.84,1.29,4.84,3.95-1.47,4-4.84,4S58.51,17.8,58.51,15.11Zm6.82,0c0-.8-.29-1.53-2-1.53s-2,.72-2,1.53.29,1.55,2,1.55S65.33,15.93,65.33,15.11Z"/><path d="M79.54,11.27V19H75.8l-3.32-4.54V19H69.62v-7.7h3.74l3.32,4.55V11.27Z"/></g></g></svg>