<svg xmlns="http://www.w3.org/2000/svg" viewBox="0 0 148.25 65.77"><defs><style>.cls-1{fill:#edebea;}.cls-2{fill:#1d1d1b;}</style></defs><g id="Calque_2" data-name="Calque 2"><g id="Psd."><g id="Psd.-2" data-name="Psd."><circle class="cls-1" cx="119.41" cy="28.83" r="28.83"/><path d="M123.39,32.81a5.62,5.62,0,1,1,0-8A5.63,5.63,0,0,1,123.39,32.81Z"/><path class="cls-2" d="M34.53,38.06l-.15.52c.15-.41.3-.83.42-1.26C34.7,37.56,34.61,37.8,34.53,38.06Z"/><path class="cls-1" d="M20.93,20.46a6.75,6.75,0,0,0-3.21.8s0,0,0,0a10.87,10.87,0,0,0-3.12,2.62V41.35c.93,3.18,3.08,5.37,6,5.37,2.17,0,3.86-1.23,5-3.51s1.83-5.86,1.83-10.27C27.35,23.75,24.84,20.46,20.93,20.46Zm0,0a6.75,6.75,0,0,0-3.21.8s0,0,0,0a10.87,10.87,0,0,0-3.12,2.62V41.35c.93,3.18,3.08,5.37,6,5.37,2.17,0,3.86-1.23,5-3.51s1.83-5.86,1.83-10.27C27.35,23.75,24.84,20.46,20.93,20.46Zm0,0a6.75,6.75,0,0,0-3.21.8s0,0,0,0a10.87,10.87,0,0,0-3.12,2.62V41.35c.93,3.18,3.08,5.37,6,5.37,2.17,0,3.86-1.23,5-3.51s1.83-5.86,1.83-10.27C27.35,23.75,24.84,20.46,20.93,20.46Zm0,0a6.75,6.75,0,0,0-3.21.8s0,0,0,0a10.87,10.87,0,0,0-3.12,2.62V41.35c.93,3.18,3.08,5.37,6,5.37,2.17,0,3.86-1.23,5-3.51s1.83-5.86,1.83-10.27C27.35,23.75,24.84,20.46,20.93,20.46Zm19.78,3a19.92,19.92,0,0,0-3.93-6.26l0,0a17.93,17.93,0,0,0-13.25-5.79,17.52,17.52,0,0,0-2,.12h-.07A18.63,18.63,0,0,0,11.58,16a6.82,6.82,0,0,0-3.23-.81H6.88A6.89,6.89,0,0,0,0,22.07V58.89a6.88,6.88,0,0,0,6.88,6.88h7.68a6.88,6.88,0,0,0,6.88-6.88V54.5h.06a20.74,20.74,0,0,0,6.37-1A20.24,20.24,0,0,0,34.32,50a21.44,21.44,0,0,0,6.58-9.21h0a7.41,7.41,0,0,0,.26-.75,24,24,0,0,0,1.22-7.51v-.15A23.64,23.64,0,0,0,40.71,23.48Zm-6.33,15.1h0A16.13,16.13,0,0,1,33.19,41,13.55,13.55,0,0,1,21.5,47.61a10.82,10.82,0,0,1-6.94-2.35V58.89H6.88V22.07H8.35a4.33,4.33,0,0,0,3.31,1.84,4.41,4.41,0,0,0,2.9-1.29c2.15-2.16,4.42-3.86,7.76-4.28a9,9,0,0,1,1.17-.07,11.13,11.13,0,0,1,8.26,3.64A14.28,14.28,0,0,1,33.35,24a16.13,16.13,0,0,1,2.15,8.33,18.88,18.88,0,0,1-.16,2.41,17.06,17.06,0,0,1-.54,2.54C34.68,37.75,34.53,38.17,34.38,38.58ZM20.93,20.46a6.75,6.75,0,0,0-3.21.8s0,0,0,0a10.87,10.87,0,0,0-3.12,2.62V41.35c.93,3.18,3.08,5.37,6,5.37,2.17,0,3.86-1.23,5-3.51s1.83-5.86,1.83-10.27C27.35,23.75,24.84,20.46,20.93,20.46Z"/><path d="M33.35,24a14.28,14.28,0,0,0-1.6-2.13,11.13,11.13,0,0,0-8.26-3.64,9,9,0,0,0-1.17.07c-3.34.42-5.61,2.12-7.76,4.28a4.41,4.41,0,0,1-2.9,1.29,4.33,4.33,0,0,1-3.31-1.84H6.88V58.89h7.68V45.26a10.82,10.82,0,0,0,6.94,2.35A13.55,13.55,0,0,0,33.19,41a16.13,16.13,0,0,0,1.19-2.39h0l.15-.52c.08-.26.17-.5.27-.74a17.06,17.06,0,0,0,.54-2.54,18.88,18.88,0,0,0,.16-2.41A16.13,16.13,0,0,0,33.35,24ZM25.52,43.21c-1.15,2.28-2.84,3.51-5,3.51-2.87,0-5-2.19-6-5.37V23.91a10.87,10.87,0,0,1,3.12-2.62s0,0,0,0a6.75,6.75,0,0,1,3.21-.8c3.91,0,6.42,3.29,6.42,12.48C27.35,37.35,26.73,40.85,25.52,43.21Z"/><path d="M44.28,19.79a7.57,7.57,0,0,0-1.09.71A8.52,8.52,0,0,1,44.28,19.79Zm-1.09.71a7.22,7.22,0,0,0-1,.89A7.93,7.93,0,0,1,43.19,20.5Zm-.81,12,.34.3-.34-.31Zm-1.67-9-.15.34a2.34,2.34,0,0,0-.09.24c0,.12-.09.24-.13.36a3,3,0,0,0-.1.32.86.86,0,0,0-.06.23,2.64,2.64,0,0,0-.07.3,3.1,3.1,0,0,0-.08.42,8,8,0,0,0-.1,1.3c0,.15,0,.3,0,.45l0,.31c0,.2,0,.4.08.6s0,.23.07.35a3.69,3.69,0,0,0,.11.45c.07.23.15.46.24.68a7.12,7.12,0,0,0,.93,1.61l.23.29a9.15,9.15,0,0,0,.75.78v-.14A23.64,23.64,0,0,0,40.71,23.48Zm.19,17.3a7.41,7.41,0,0,0,.26-.75h0Z"/><path class="cls-1" d="M42.38,32.52l.34.3-.34-.31ZM65.78,30h0c-.31-.42-.64-.81-1-1.19a7.13,7.13,0,0,0,.36-1l1.6-5.72a6.88,6.88,0,0,0-.86-5.61,6.71,6.71,0,0,0-2.69-2.39A30,30,0,0,0,50.9,11.38c-6.44,0-11.2,2.37-14.16,5.79A15,15,0,0,0,33.35,24a16.13,16.13,0,0,1,2.15,8.33,18.88,18.88,0,0,1-.16,2.41c.16.26.35.52.54.78a6.72,6.72,0,0,0-1.08,1.76c-.1.24-.19.48-.27.74l-.15.52h0l-1.47,4.92a6.93,6.93,0,0,0,3.14,7.92c3,1.74,9,3.07,14,3.07,6.65,0,11.4-2.27,14.41-5.53A15.18,15.18,0,0,0,68,42.44a15.49,15.49,0,0,0,.5-3.86A14,14,0,0,0,65.78,30ZM59,44.67a1.86,1.86,0,0,1-.26.23l-.06.05a7,7,0,0,1-.73.56,3,3,0,0,1-.35.22,2.55,2.55,0,0,1-.39.24c-.12.07-.24.14-.37.2l-.69.32-.41.17a11.3,11.3,0,0,1-1.39.44c-.2,0-.41.11-.62.15l-.15,0c-.25.06-.51.1-.77.14s-.46.07-.7.09l-.37,0-.52,0-.41,0H50c-4.13,0-8.88-1.2-10.5-2.14l1.39-4.69h0l.23-.76h0a1.83,1.83,0,0,1,.39.09,1,1,0,0,1,.25.08,6.71,6.71,0,0,1,2.55,1.95c.17.18.34.38.51.57l.27.32c.18.2.35.41.52.61s.54.62.83.92l.28.29a8.69,8.69,0,0,0,1.57,1.29l.47.26a4.39,4.39,0,0,0,2,.47c3.91,0,6.11-1.88,6.11-4.6,0-3.13-3.09-4.38-6.38-5.63l-2.19-.84L48,35.68l-.7-.28-.75-.32-.38-.17a16.54,16.54,0,0,1-2.36-1.28l-.36-.25-.38-.29a4.11,4.11,0,0,1-.35-.27l-.34-.31a9.15,9.15,0,0,1-.75-.78l-.23-.29a7.12,7.12,0,0,1-.93-1.61c-.09-.22-.17-.45-.24-.68a3.69,3.69,0,0,1-.11-.45c0-.12,0-.24-.07-.35S40,28,40,27.75l0-.31c0-.15,0-.3,0-.45a8,8,0,0,1,.1-1.3,3.1,3.1,0,0,1,.08-.42c0-.1,0-.2.07-.3a.86.86,0,0,1,.06-.23,3,3,0,0,1,.1-.32c0-.12.08-.24.13-.36a2.34,2.34,0,0,1,.09-.24l.15-.34c.09-.17.17-.34.27-.5l.05-.09a5.66,5.66,0,0,1,.31-.48.13.13,0,0,1,0-.06,5.82,5.82,0,0,1,.36-.47,5.12,5.12,0,0,1,.44-.49,7.93,7.93,0,0,1,1-.89,8.52,8.52,0,0,1,1.09-.71l.11-.06c.19-.11.4-.21.61-.31l0,0,.61-.25.09,0c.21-.08.42-.16.65-.23s.68-.19,1.05-.27l.55-.11.19,0c.21,0,.42-.07.63-.09l.15,0,.32,0a4.07,4.07,0,0,1,.5,0,1,1,0,0,1,.25,0c.28,0,.57,0,.86,0a23.28,23.28,0,0,1,9.23,2L58.54,26c-2.1-.94-4.36-7-8.43-7-3.55,0-5.49,1.88-5.49,4.23,0,3.13,3.29,4.33,6.43,5.54l2.14.77,1.24.51.64.28c.36.16.74.34,1.12.53l.32.18.36.2c.24.13.47.27.7.42l.35.24c.23.16.45.33.67.51l.23.2a2.8,2.8,0,0,1,.31.28,7.53,7.53,0,0,1,1.94,2.81l.09.25c0,.07.05.15.07.21a8,8,0,0,1,.36,2.42c0,.24,0,.48,0,.71a2.09,2.09,0,0,1,0,.35.76.76,0,0,1,0,.15c0,.15,0,.31-.08.46v0c0,.18-.09.36-.13.54s-.11.37-.17.54a3.28,3.28,0,0,1-.2.52c-.07.17-.14.33-.22.48s-.19.35-.29.53A7.82,7.82,0,0,1,59,44.67Z"/><path d="M61.59,38.58c0,.24,0,.48,0,.71a2.09,2.09,0,0,1,0,.35.76.76,0,0,1,0,.15c0,.15,0,.31-.08.46v0c0,.18-.09.36-.13.54s-.11.37-.17.54a3.28,3.28,0,0,1-.2.52c-.07.17-.14.33-.22.48s-.19.35-.29.53A7.82,7.82,0,0,1,59,44.67l-.26.23-.06.05a8.74,8.74,0,0,1-.73.56c-.11.07-.22.15-.35.22a2.55,2.55,0,0,1-.39.24c-.12.07-.24.14-.37.2l-.69.32-.41.17a11.3,11.3,0,0,1-1.39.44c-.2,0-.41.11-.62.15l-.15,0c-.25.06-.51.1-.77.14s-.46.07-.7.09l-.37,0-.52,0-.41,0H50c-4.13,0-8.88-1.2-10.5-2.14l1.39-4.69h0a7.41,7.41,0,0,0,.26-.75,1.83,1.83,0,0,1,.39.09,1,1,0,0,1,.25.08,6.71,6.71,0,0,1,2.55,1.95l.51.57.27.32c.18.2.35.41.52.61s.54.62.83.92a3.83,3.83,0,0,0,.28.29,8.69,8.69,0,0,0,1.57,1.29,3.1,3.1,0,0,0,.47.26,4.39,4.39,0,0,0,2,.47c3.91,0,6.11-1.88,6.11-4.6,0-3.13-3.09-4.38-6.38-5.63l-2.19-.84L48,35.68l-.7-.28-.75-.32-.38-.17a16.54,16.54,0,0,1-2.36-1.28l-.36-.25-.38-.29c-.12-.08-.24-.18-.35-.27l-.34-.31v-.14a23.64,23.64,0,0,0-1.67-8.89c.09-.17.17-.34.27-.5l.05-.09a5.66,5.66,0,0,1,.31-.48.13.13,0,0,1,0-.06,5.82,5.82,0,0,1,.36-.47,5.12,5.12,0,0,1,.44-.49,7.93,7.93,0,0,1,1-.89,8.52,8.52,0,0,1,1.09-.71l.11-.06c.19-.11.4-.21.61-.31l0,0,.61-.25.09,0c.21-.08.42-.16.65-.23s.68-.19,1.05-.27l.55-.11.19,0c.21,0,.42-.07.63-.09l.15,0,.32,0a4.07,4.07,0,0,1,.5,0,1,1,0,0,1,.25,0c.28,0,.57,0,.86,0a23.28,23.28,0,0,1,9.23,2L58.54,26c-2.1-.94-4.36-7-8.43-7-3.55,0-5.49,1.88-5.49,4.23,0,3.13,3.29,4.33,6.43,5.54l2.14.77,1.24.51.64.28c.36.16.74.34,1.12.53l.32.18.36.2c.24.13.47.27.7.42l.35.24c.23.16.45.33.67.51l.23.2a2.8,2.8,0,0,1,.31.28,7.53,7.53,0,0,1,1.94,2.81,1.84,1.84,0,0,1,.09.25c0,.07.05.15.07.21A8,8,0,0,1,61.59,38.58Z"/><path d="M94.16,47H86.38l.1-3.82c-2.45,2.72-5.32,4.44-9,4.44-6.74,0-12-5.79-12-14.1,0-9,6.26-15.24,14-15.24a10.72,10.72,0,0,1,6.94,2.3h0V6.88a7.87,7.87,0,0,1,5.84,2.63,7.52,7.52,0,0,1,1.84,5.08V38.25C94.06,40.75,94.16,44.69,94.16,47ZM86.38,24.48a1.21,1.21,0,0,0,0-.18c-1-3-3.09-5.2-5.9-5.2-4.44,0-6.84,5.17-6.84,13.84,0,9.19,2.56,12.38,6.58,12.38,2.14,0,4.13-1,6.21-3.4Z"/><path class="cls-1" d="M101,42.68c0-1.58,0-3.21,0-4.44V14.59a14.42,14.42,0,0,0-3.59-9.67A14.81,14.81,0,0,0,86.43,0h0A6.88,6.88,0,0,0,79.5,6.88v4.5h-.06A20.26,20.26,0,0,0,65.9,16.49a18.73,18.73,0,0,0-1.36,1.32,22.5,22.5,0,0,0-6,14.6l.23.2a2.8,2.8,0,0,1,.31.28,7.53,7.53,0,0,1,1.94,2.81,1.84,1.84,0,0,1,.09.25c0,.07.05.15.07.21a8,8,0,0,1,.36,2.42c0,.24,0,.48,0,.71a2.09,2.09,0,0,1,0,.35.76.76,0,0,1,0,.15c0,.15,0,.31-.08.46v0c0,.18-.09.36-.13.54s-.11.37-.17.54a3.28,3.28,0,0,1-.2.52c-.07.17-.14.33-.22.48s-.19.35-.29.53a20.15,20.15,0,0,0,4,6.07,17.85,17.85,0,0,0,13,5.53,17.34,17.34,0,0,0,6.3-1.15,6.68,6.68,0,0,0,2.63.53h7.77A6.9,6.9,0,0,0,101.05,47C101.05,45.81,101,44.29,101,42.68ZM86.39,47l.09-3.82c-2.45,2.72-5.32,4.44-9,4.44A11.28,11.28,0,0,1,68,42.44a15.83,15.83,0,0,1-2.53-8.93A17.87,17.87,0,0,1,65.78,30h0c1.39-7.06,7-11.75,13.66-11.75a10.78,10.78,0,0,1,7,2.3V6.88a7.87,7.87,0,0,1,5.83,2.63,7.58,7.58,0,0,1,1.85,5.08V38.24c0,2.51.1,6.45.1,8.75Zm-6-27.89c-4.44,0-6.84,5.17-6.84,13.84,0,9.19,2.56,12.38,6.58,12.38,2.14,0,4.12-1,6.22-3.4V24.48a.64.64,0,0,1-.06-.18C85.36,21.26,83.25,19.1,80.43,19.1Zm5.9,5.2c-1-3-3.08-5.2-5.9-5.2-4.44,0-6.84,5.17-6.84,13.84,0,9.19,2.56,12.38,6.58,12.38,2.14,0,4.12-1,6.22-3.4V24.48A.64.64,0,0,1,86.33,24.3Zm0,0c-1-3-3.08-5.2-5.9-5.2-4.44,0-6.84,5.17-6.84,13.84,0,9.19,2.56,12.38,6.58,12.38,2.14,0,4.12-1,6.22-3.4V24.48A.64.64,0,0,1,86.33,24.3Z"/></g></g></g></svg>