<svg xmlns="http://www.w3.org/2000/svg" viewBox="0 0 89.68 68.77"><defs><style>.cls-1{fill:#fff;}</style></defs><g id="Calque_2" data-name="Calque 2"><g id="Etiquette_10" data-name="Etiquette 10"><path id="Forme" class="cls-1" d="M55.3,17.42a.85.85,0,0,1-.83-.88C54.56,7,47.22-.14,39.71,0A14.33,14.33,0,0,0,26.35,11.75c-.9,5.58,2.17,9.92,3.28,11.3a.86.86,0,0,1,.13.82l-1.23,3.38a1.13,1.13,0,0,0-.05.32l.25,8.94c-.28.08-1.15.73-1.36.17-1.74-4.69-4.87-3.92-6.72-3.83-1.26.07-3.13.32-5.94,3.73a.88.88,0,0,1-.9.29,17.58,17.58,0,0,0-2.27-.44,19.38,19.38,0,0,0-8.82.94.87.87,0,0,0-.55.64L0,48.93a.85.85,0,0,0,1.1,1,8.58,8.58,0,0,1,2.25-.38,10.28,10.28,0,0,1,7.41,3.32c2.9,3.1,1,4.95,3.74,8.85a16.92,16.92,0,0,0,9,6,17.81,17.81,0,0,0,4.51.68l49.76.34a.78.78,0,0,0,.22,0,15.54,15.54,0,0,0,8.07-5c.77-.93,4.44-5.3,3.4-11.32a13.88,13.88,0,0,0-6-9,.85.85,0,0,1-.37-.71q0-8.1,0-16.18A.85.85,0,0,1,83.4,26c1.23-1.14,5.37-5.46,4.91-11.5A14.28,14.28,0,0,0,73.88,1.64c-7.42.27-13.64,7.2-13.6,15.08a.87.87,0,0,1-.87.88C58,17.6,56.68,17.43,55.3,17.42Z"/><path class="cls-1" d="M48.85,19.92a11.17,11.17,0,1,0-15.39,2.77"/><path d="M33.18,23.1a11.67,11.67,0,1,1,18.23-9.65,11.55,11.55,0,0,1-2.16,6.76l-.81-.58a10.57,10.57,0,0,0,2-6.18,10.67,10.67,0,1,0-16.67,8.82Z"/><path d="M77,65.87H28c-5.87-.58-9.91-2.78-12.06-6.53-4.5-7.82.74-19.48,1-20l.14-.29H30.89L31.3,28a8.27,8.27,0,0,1,2.32-6.21,9.37,9.37,0,0,1,6.28-2.35h23a11.67,11.67,0,1,1,17.27,6l1.22,1.19V43.22c4.31,4.93,6,9.48,4.93,13.55-1.6,6.25-9,9-9.26,9.07ZM17.66,40.08c-.78,1.85-4.75,12.05-.89,18.76,2,3.46,5.77,5.49,11.25,6h48.8c.78-.31,7.17-3,8.56-8.36,1-3.76-.67-8-4.85-12.77l-.12-.14V27L78.55,25.2l.58-.33a10.67,10.67,0,1,0-15.86-9.31,10.52,10.52,0,0,0,.84,4.16l.29.7H39.89a8.5,8.5,0,0,0-5.58,2.07,7.34,7.34,0,0,0-2,5.51l-.45,12.08Z"/><path d="M80,15.31a5.58,5.58,0,0,1-5.14,5.57l-.44,0A5.59,5.59,0,1,1,80,15.31Z"/><path d="M26.7,40.38A5.58,5.58,0,0,1,21.56,46l-.44,0a5.59,5.59,0,1,1,5.58-5.59Z"/><path d="M15.44,43.57S14.6,40.5,5.06,40.5H4.51l0-1c10.88-.12,11.86,3.47,11.93,3.88l-1,.18.5-.09Z"/><path d="M15.13,47.38l-.62-.3.25-.12-.25.06s-1.39-3-11-3.12v-1c10.91.09,11.94,3.88,12,3.92Z"/><path d="M14.17,50.71s-.9-3.21-10.93-3.07v-1c10.87-.12,11.85,3.47,11.92,3.88l-1,.18.49-.09Z"/><path d="M28.24,50.43l-.72-.69A12.55,12.55,0,0,1,44,48.83l-.58.82C34.87,43.68,28.51,50.15,28.24,50.43Z"/><path d="M29.24,54.54,28.42,54c0-.08,5.86-8.24,15.52-2.09l-.54.84C34.55,47.09,29.45,54.24,29.24,54.54Z"/><path d="M30.49,57.54l-.79-.61c.05-.07,5.79-7.4,15.1-1.17l-.56.83C35.73,50.89,30.7,57.27,30.49,57.54Z"/><path d="M36.36,65.85l-.23-1c.15,0,14.48-3.54,19.24-13.73l.9.43C51.31,62.2,37,65.71,36.36,65.85Z"/><path d="M64.2,65.43c-.71-5.54-2.56-9.48-5.5-11.7a9.2,9.2,0,0,0-6.38-1.87l-.15-1a10.15,10.15,0,0,1,7.13,2.06c3.17,2.39,5.15,6.55,5.89,12.37Z"/><path d="M56.47,65.42c-.37-3.36-3.83-9.48-3.87-9.54l.87-.49c.15.25,3.6,6.35,4,9.92Z"/><path d="M48.94,65.45a15.73,15.73,0,0,0-1.59-4.7l.86-.5a16.28,16.28,0,0,1,1.72,5Z"/><path d="M46,45.5a8.44,8.44,0,1,1,8.44-8.43A8.44,8.44,0,0,1,46,45.5Zm0-15.87a7.44,7.44,0,1,0,7.44,7.44A7.45,7.45,0,0,0,46,29.63Z"/><path d="M63.05,45.71a8.44,8.44,0,1,1,8.44-8.43A8.44,8.44,0,0,1,63.05,45.71Zm0-15.87a7.44,7.44,0,1,0,7.44,7.44A7.44,7.44,0,0,0,63.05,29.84Z"/><path class="cls-1" d="M66.29,21.81l-8.91,2.28a3.42,3.42,0,0,0-2.62,3.45A2.78,2.78,0,0,0,56.4,29.9a4.64,4.64,0,0,0,3.32.29l9-2.31a3.55,3.55,0,0,0,2.71-3.28c0-1.24-.51-2.5-2.69-2.9A5.73,5.73,0,0,0,66.29,21.81Z"/><path d="M58.39,30.86a4.89,4.89,0,0,1-2.22-.51,3.27,3.27,0,0,1-1.9-2.77,3.87,3.87,0,0,1,3-4l8.91-2.29a6.26,6.26,0,0,1,2.61-.11c2.78.5,3.13,2.35,3.1,3.41a4.09,4.09,0,0,1-3.09,3.75l-9,2.3A5.61,5.61,0,0,1,58.39,30.86Zm9.37-8.74a5.66,5.66,0,0,0-1.34.17L57.5,24.58a2.92,2.92,0,0,0-2.24,2.93,2.3,2.3,0,0,0,1.37,1.95,4.24,4.24,0,0,0,3,.25l9-2.31a3.05,3.05,0,0,0,2.34-2.81c0-1.33-.7-2.11-2.28-2.4A5.71,5.71,0,0,0,67.76,22.12Z"/><path class="cls-1" d="M41.3,21.81l8.91,2.28a3.42,3.42,0,0,1,2.62,3.45,2.78,2.78,0,0,1-1.64,2.36,4.64,4.64,0,0,1-3.32.29l-8.95-2.31a3.55,3.55,0,0,1-2.71-3.28c0-1.24.51-2.5,2.69-2.9A5.73,5.73,0,0,1,41.3,21.81Z"/><path d="M49.2,30.86a5.67,5.67,0,0,1-1.45-.19l-9-2.3a4.09,4.09,0,0,1-3.09-3.75c0-1.06.32-2.91,3.1-3.41a6.26,6.26,0,0,1,2.61.11l8.91,2.29a3.87,3.87,0,0,1,3,4,3.27,3.27,0,0,1-1.9,2.77A4.89,4.89,0,0,1,49.2,30.86Zm-9.37-8.74a5.71,5.71,0,0,0-.84.07c-1.58.29-2.32,1.07-2.28,2.4a3.05,3.05,0,0,0,2.34,2.81l9,2.31a4.24,4.24,0,0,0,3-.25,2.3,2.3,0,0,0,1.37-1.95,2.92,2.92,0,0,0-2.24-2.93l-8.92-2.29A5.66,5.66,0,0,0,39.83,22.12Z"/><path d="M55.14,36.81a5.31,5.31,0,1,0,10.55.93,5.52,5.52,0,0,0-4.77-6.16,8.7,8.7,0,0,0-2.09.26l.94,4.23L56.48,33.5A10.57,10.57,0,0,0,55.14,36.81Z"/><path d="M38.12,36.81A5.53,5.53,0,0,0,42.89,43a5.53,5.53,0,0,0,5.78-5.23,5.52,5.52,0,0,0-4.77-6.16,8.7,8.7,0,0,0-2.09.26l.95,4.23L39.47,33.5A10.76,10.76,0,0,0,38.12,36.81Z"/></g></g></svg>