<svg xmlns="http://www.w3.org/2000/svg" viewBox="0 0 115.82 115.82"><defs><style>.cls-1{fill:#fff;}</style></defs><g id="Calque_2" data-name="Calque 2"><g id="InDesign"><circle class="cls-1" cx="57.91" cy="57.91" r="57.91"/><path d="M64.55,64.55a9.4,9.4,0,1,1,0-13.29A9.4,9.4,0,0,1,64.55,64.55Z"/><path d="M39.72,26l-3.3-6,1.32-.72,3.3,6Z"/><path d="M44.85,19.92l1.3,3.14-1.29.53-1.34-3.26c-.13-.33-.48-1.14-1.3-.81a1.5,1.5,0,0,0-.8.92L43,24.35l-1.29.53L40,20.71l.25-.1a.72.72,0,0,0,1.08-.34,2.26,2.26,0,0,1,1.28-1.39A1.54,1.54,0,0,1,44.85,19.92Z"/><path d="M52.26,18c.49,2.16-.75,3.76-3.3,4.34l-2.23.51L45.2,16.11l2.51-.57C49.94,15,51.76,15.8,52.26,18Zm-1.59.39c-.43-1.9-1.57-3-3-2.67l-1,.22,1.43,6.34a3.77,3.77,0,0,0,1.07-.15C50.65,21.78,51.14,20.44,50.67,18.37Z"/><path d="M54.77,19.5a.81.81,0,0,0,0,.37,1.12,1.12,0,0,0,.05.13.08.08,0,0,0,0,.05h0a1.33,1.33,0,0,0,1.32.76,1.86,1.86,0,0,0,1.45-.94l.12.06a2.61,2.61,0,0,1-2.15,1.48A2.4,2.4,0,0,1,53,19a2.59,2.59,0,0,1,1.84-2.78,2.78,2.78,0,0,1,.64-.12h.06a2.25,2.25,0,0,1,1,.11l.25.1c.92.41,1.3,1.17,1,1.91-.47,1.05-2,.76-2.68,1h0a.53.53,0,0,0-.23.14l0,0a.36.36,0,0,0,0,.11S54.77,19.49,54.77,19.5Zm.31-.68,0,0,.05,0c.48-.22,1.1-.38,1.37-1a1.09,1.09,0,0,0,.11-.41c.06-1-.68-1.14-.93-1.15h0a0,0,0,0,0,0,0h0a.8.8,0,0,0-.38.1c-.55.27-.83,1.07-.76,2.22a5,5,0,0,0,.09.73l0,.12,0,.11A.75.75,0,0,1,55.08,18.82Z"/><path d="M62.44,19.92c-.06.88-.81,1.59-2.21,1.5a4.77,4.77,0,0,1-1.87-.51l.35-1c.64.14.88,1.3,1.67,1.36s1.13-.27,1.16-.76-.51-.83-1.09-1.1l-.38-.18c-.55-.25-1.49-.69-1.42-1.69s.79-1.54,2.09-1.45a4.26,4.26,0,0,1,1.65.47l-.36,1c-.37-.19-.71-1.31-1.44-1.36s-1,.28-1.05.7.55.83,1.1,1.08l.38.17C61.54,18.44,62.5,18.87,62.44,19.92Z"/><path d="M64.9,18.13l-.58,3.65L63,21.56l.79-5A1.39,1.39,0,0,1,64.9,18.13ZM64,15.22a.7.7,0,0,1,.94-.69.71.71,0,0,1,.45.63.7.7,0,0,1-.94.68A.68.68,0,0,1,64,15.22Z"/><path d="M70.45,18.39a.79.79,0,0,0-.43,0,1.61,1.61,0,0,1-.83,2.41.63.63,0,0,1,0,.9c-.62.55-1.91-.18-2.82.62A1.13,1.13,0,0,0,66.3,24a1.74,1.74,0,0,0,1,.55h.09l.08,0c.57.07,1.44-.08,1.23-1.8l1,.28a2.2,2.2,0,0,1-2.54,1.67h-.23a2.74,2.74,0,0,1-1.52-.9c-.8-.9-.84-1.9-.12-2.53,1.22-1.08,3.17.67,3.78.13a.39.39,0,0,0,0-.56,2.89,2.89,0,0,1-1.46,0,3.08,3.08,0,0,1-1-.43l-.13-.11a1.61,1.61,0,0,1-.61-1.73,2,2,0,0,1,2.65-1.15,2.67,2.67,0,0,1,1.37.82,1.39,1.39,0,0,1,1.46-.42l-.36.9A1.63,1.63,0,0,0,70.45,18.39Zm-1.45,1c.25-1,.09-1.69-.52-1.85s-1.09.37-1.34,1.33-.1,1.66.52,1.83S68.74,20.34,69,19.39Z"/><path d="M75.82,22l-1.33,3.12-1.28-.54,1.38-3.25c.14-.32.48-1.14-.33-1.49a1.51,1.51,0,0,0-1.22.07l-1.66,3.89-1.28-.55,1.77-4.14.24.1a.71.71,0,0,0,1,.53A2.29,2.29,0,0,1,75,19.64,1.55,1.55,0,0,1,75.82,22Z"/><path d="M83.59,31.25a.63.63,0,0,1-.65-.61.63.63,0,1,1,1.26,0A.63.63,0,0,1,83.59,31.25Z"/><path d="M87.76,30.71l-2.69,2.53-.95-1,3.7-3.49A1.4,1.4,0,0,1,87.76,30.71Zm1-2.88a.7.7,0,1,1,0,.78A.68.68,0,0,1,88.8,27.83Z"/><path d="M91.23,35.49l-2.7,2.06-.85-1.1,2.81-2.15c.28-.21,1-.76.44-1.46a1.5,1.5,0,0,0-1.09-.54l-3.36,2.57-.85-1.11L89.21,31l.16.21a.71.71,0,0,0,.61.95,2.28,2.28,0,0,1,1.67.88A1.55,1.55,0,0,1,91.23,35.49Z"/><path d="M91.27,42.43l-.69-1.24.62-.32a2.14,2.14,0,0,1-1.5-1,2.33,2.33,0,0,1,1.18-3.14,2.6,2.6,0,0,1,3.65.88,1.88,1.88,0,0,1,.24,1.3h0l2.17-1.2a1.38,1.38,0,0,1-.54,1.9l-3.23,1.78-.53.29Zm2.88-3.21,0,0a1.18,1.18,0,0,0,.3-1.39c-.39-.7-1.42-.63-2.79.13S90,39.42,90.3,40.06a1.48,1.48,0,0,0,1.09.69Z"/><path d="M93.2,47.57l-.49-1.32.65-.22A2.17,2.17,0,0,1,92,44.77a2.33,2.33,0,0,1,1.64-2.93,2.6,2.6,0,0,1,3.47,1.42,2,2,0,0,1,0,1.33h0l2.33-.86a1.46,1.46,0,0,1-.08,1.16,1.42,1.42,0,0,1-.75.63L95.24,46.8l-.56.21C94.25,47.16,93.59,47.43,93.2,47.57Zm3.33-2.74,0,0a1.19,1.19,0,0,0,.52-1.33c-.28-.75-1.31-.83-2.79-.29s-1.94,1.21-1.69,1.9a1.46,1.46,0,0,0,1,.84Z"/><path d="M94.6,57.32l6.89.11,0,1.51-6.89-.11Z"/><path d="M97.48,64.8l-3.38-.38L94.25,63l3.51.39c.35,0,1.24.13,1.33-.75a1.49,1.49,0,0,0-.41-1.15l-4.2-.47.15-1.38,4.48.5,0,.26a.72.72,0,0,0-.22,1.11,2.26,2.26,0,0,1,.6,1.79C99.34,64.4,98.71,64.93,97.48,64.8Z"/><path d="M95.62,72.22c-2.13-.61-2.94-2.46-2.22-5L94,65l6.63,1.89-.71,2.48C99.32,71.6,97.77,72.83,95.62,72.22ZM96,70.64c1.88.53,3.38.06,3.78-1.34l.27-1-6.25-1.79a4.26,4.26,0,0,0-.38,1C93.06,69,94,70.05,96,70.64Z"/><path d="M93.06,73.71a.73.73,0,0,0-.33-.15l-.14,0h-.06a1.34,1.34,0,0,0-1.31.79A1.85,1.85,0,0,0,91.35,76l-.11.07A2.6,2.6,0,0,1,91,73.52a2.4,2.4,0,0,1,3.37-1.09,2.59,2.59,0,0,1,1.55,3,2.45,2.45,0,0,1-.21.61l0,.06a2.31,2.31,0,0,1-.56.79l-.2.17c-.82.61-1.66.58-2.15-.07-.69-.92.31-2.13.42-2.83h0a.49.49,0,0,0,0-.27l0,0a.24.24,0,0,0-.06-.09S93.07,73.72,93.06,73.71Zm.44.6v.11a2.24,2.24,0,0,0,.2,1.67,1.05,1.05,0,0,0,.31.29,1,1,0,0,0,1.46-.25v0l0,0v0a1.12,1.12,0,0,0,.1-.39c0-.61-.54-1.24-1.59-1.74a4.37,4.37,0,0,0-.67-.26.5.5,0,0,0-.13,0,.35.35,0,0,0-.11,0A.71.71,0,0,1,93.5,74.31Z"/><path d="M89,80.22c-.74-.48-1-1.48-.25-2.66a4.83,4.83,0,0,1,1.36-1.39l.67.78c-.43.49-1.56.13-2,.8s-.31,1.12.1,1.39,1,0,1.49-.42l.34-.26c.48-.35,1.32-1,2.17-.42a1.72,1.72,0,0,1,.26,2.53,4.25,4.25,0,0,1-1.21,1.22L91.21,81c.35-.22,1.49,0,1.89-.6s.25-1-.11-1.25-1,.08-1.47.44l-.33.25C90.72,80.15,89.87,80.78,89,80.22Z"/><path d="M89.38,83.21,86.46,81l.85-1.1,4,3.12A1.38,1.38,0,0,1,89.38,83.21Zm3,.59a.7.7,0,1,1-.77.1A.68.68,0,0,1,92.38,83.8Z"/><path d="M86.46,88a.79.79,0,0,0,.23-.37,1.56,1.56,0,0,1-1.25-.45A1.61,1.61,0,0,1,85,85.68a.62.62,0,0,1-.79-.43c-.18-.8,1.09-1.58.82-2.76a1.13,1.13,0,0,0-1.46-.89,1.71,1.71,0,0,0-.94.57h0l0,0,0,0-.05.07c-.34.46-.63,1.3,1,2l-.75.78a2.2,2.2,0,0,1-.23-3l0,0,0,0,0-.05,0,0h0l0,0h0a2.87,2.87,0,0,1,1.52-.9c1.18-.26,2.07.19,2.28,1.12.36,1.6-2.12,2.45-1.94,3.25,0,.19.23.31.5.26a2.72,2.72,0,0,1,.71-1.27,3,3,0,0,1,.83-.62l.16-.07a1.65,1.65,0,0,1,1.82.3c.77.74.61,2-.28,2.88a2.51,2.51,0,0,1-1.38.8,1.4,1.4,0,0,1-.33,1.49l-.62-.75A1.48,1.48,0,0,0,86.46,88Zm-.17-1.75c.73.69,1.44.9,1.87.44s.21-1.13-.51-1.82-1.42-.89-1.86-.42S85.58,85.52,86.29,86.2Z"/><path d="M80.75,90.94l-2.1-2.67,1.1-.86,2.18,2.78c.21.27.77,1,1.46.42a1.48,1.48,0,0,0,.53-1.1l-2.61-3.33,1.09-.86,2.79,3.55L85,89a.72.72,0,0,0-1,.62,2.25,2.25,0,0,1-.85,1.69A1.55,1.55,0,0,1,80.75,90.94Z"/><path d="M68.87,93.28a.63.63,0,1,1,1.12.57.63.63,0,0,1-1.12-.57Z"/><path d="M67.36,97.18l-.92-3.58,1.34-.35,1.27,4.93A1.39,1.39,0,0,1,67.36,97.18Zm2,2.29a.7.7,0,0,1-.59,1,.67.67,0,0,1-.66-.39.7.7,0,1,1,1.25-.61Z"/><path d="M61.46,97.91,61,94.55l1.37-.2.52,3.49c.06.35.2,1.23,1.07,1.1a1.53,1.53,0,0,0,1-.7l-.62-4.18,1.38-.21.66,4.46-.26,0a.72.72,0,0,0-1.13.07,2.31,2.31,0,0,1-1.58,1C62.32,99.61,61.64,99.14,61.46,97.91Z"/><path d="M55.4,94.54l1.41,0,0,.69a2.14,2.14,0,0,1,1.65-.78,2.32,2.32,0,0,1,2.14,2.59A2.6,2.6,0,0,1,58,99.79a1.89,1.89,0,0,1-1.25-.43h0l0,2.48a1.42,1.42,0,0,1-1.05-.49,1.32,1.32,0,0,1-.32-.93l.05-3.69v-.6C55.4,95.68,55.39,95,55.4,94.54Zm1.35,4.11v0a1.18,1.18,0,0,0,1.05,1c.8,0,1.25-.92,1.28-2.49s-.43-2.25-1.16-2.26a1.45,1.45,0,0,0-1.14.6Z"/><path d="M49.92,93.8l1.4.21-.12.68a2.14,2.14,0,0,1,1.74-.55A2.32,2.32,0,0,1,54.71,97a2.6,2.6,0,0,1-2.91,2.36,2,2,0,0,1-1.19-.6l-.36,2.45a1.36,1.36,0,0,1-1.17-1.58L49.62,96l.09-.59C49.78,94.93,49.86,94.22,49.92,93.8Zm.8,4.25v0a1.19,1.19,0,0,0,.92,1.09c.8.12,1.37-.74,1.6-2.3s-.13-2.29-.85-2.39a1.45,1.45,0,0,0-1.21.44Z"/><path d="M40.7,90.31l-3.36,6L36,95.6l3.36-6Z"/><path d="M32.77,89.23l2-2.77,1.13.8-2,2.88c-.2.29-.71,1,0,1.53a1.53,1.53,0,0,0,1.21.2l2.45-3.45,1.13.8L36,92.9l-.22-.16a.71.71,0,0,0-.86-.73,2.27,2.27,0,0,1-1.86-.34A1.55,1.55,0,0,1,32.77,89.23Z"/><path d="M27.19,84c1.56-1.57,3.57-1.38,5.42.46l1.63,1.61L29.38,91l-1.82-1.82C25.94,87.56,25.61,85.61,27.19,84Zm1.18,1.13c-1.38,1.39-1.69,2.93-.66,3.95l.71.71L33,85.2a3.82,3.82,0,0,0-.7-.81C31.26,83.35,29.86,83.65,28.37,85.15Z"/><path d="M27.12,81.08a.76.76,0,0,0,.3-.22l.09-.11,0,0h0a1.35,1.35,0,0,0-.06-1.52,1.86,1.86,0,0,0-1.58-.72v-.13a2.59,2.59,0,0,1,2.4,1,2.4,2.4,0,0,1-.67,3.48,2.58,2.58,0,0,1-3.33-.07,2.54,2.54,0,0,1-.44-.48l0,0a2.33,2.33,0,0,1-.42-.88,1.84,1.84,0,0,1-.05-.25c-.15-1,.29-1.73,1.09-1.85,1.14-.17,1.72,1.3,2.28,1.73h0a.68.68,0,0,0,.24.12h0a.25.25,0,0,0,.12,0Zm-.74.1,0,0-.05,0a2.19,2.19,0,0,0-1.57-.63A1.11,1.11,0,0,0,23.84,82s0,0,0,0a.05.05,0,0,0,0,0v0a.77.77,0,0,0,.3.27c.52.32,1.34.13,2.28-.55a4.59,4.59,0,0,0,.56-.46l.09-.09.08-.09A.73.73,0,0,1,26.38,81.18Z"/><path d="M23.37,74.37c.77-.42,1.77-.16,2.44,1.07a4.7,4.7,0,0,1,.57,1.85l-1,.22c-.22-.62.64-1.44.26-2.14s-.83-.8-1.26-.57-.43.87-.35,1.5l.06.42c.08.6.21,1.63-.68,2.11-.74.4-1.71.15-2.33-1a4.22,4.22,0,0,1-.49-1.64L21.63,76c0,.42-.73,1.3-.38,2s.78.71,1.15.51.4-.9.32-1.51l-.06-.4C22.59,75.92,22.45,74.88,23.37,74.37Z"/><path d="M18.58,75.59a.7.7,0,0,1-1.08-.42.7.7,0,1,1,1.36-.3A.69.69,0,0,1,18.58,75.59Zm2-2.34,3.39-1.47.55,1.28-4.67,2A1.38,1.38,0,0,1,20.54,73.25Z"/><path d="M17.81,68.41a.92.92,0,0,0,.21.38,1.62,1.62,0,0,1,2.49-.59.64.64,0,0,1,.76-.48c.79.24.86,1.71,2,2a1.12,1.12,0,0,0,1.49-.84,1.84,1.84,0,0,0,0-1.1h0v0l0,0,0-.09c-.24-.51-.83-1.17-2.18-.08l-.32-1a2.21,2.21,0,0,1,2.77,1.26l0,0v0L25,68v0h0s0,0,0,.05h0a2.85,2.85,0,0,1,0,1.76C24.74,71,23.91,71.52,23,71.25c-1.57-.45-1.13-3-1.91-3.26-.19-.06-.38,0-.47.3a2.72,2.72,0,0,1,.77,1.25,2.91,2.91,0,0,1,.14,1v.18a1.63,1.63,0,0,1-1.15,1.44c-1,.31-2-.41-2.38-1.64A2.56,2.56,0,0,1,18,69a1.41,1.41,0,0,1-1.14-1l1-.18A1.56,1.56,0,0,0,17.81,68.41Zm1.61.7c-1,.3-1.48.82-1.29,1.43S19,71.26,20,71s1.46-.8,1.27-1.42S20.36,68.82,19.42,69.11Z"/><path d="M18,62l3.35-.54.22,1.37L18,63.35c-.35.06-1.23.21-1.08,1.08a1.48,1.48,0,0,0,.7,1l4.18-.68.22,1.38-4.45.72,0-.27a.71.71,0,0,0-.08-1.12,2.28,2.28,0,0,1-1.06-1.57C16.26,62.85,16.72,62.16,18,62Z"/><path d="M21.64,50.46a.64.64,0,0,1-.17.88.63.63,0,1,1,.17-.88Z"/><path d="M16,47.87a.7.7,0,0,1-.59-1,.67.67,0,0,1,.66-.4.7.7,0,0,1-.07,1.4Zm3-.66,3.59.91-.35,1.35-4.93-1.26A1.38,1.38,0,0,1,19,47.21Z"/><path d="M21.15,41.7l3.19,1.19-.49,1.3L20.54,43c-.33-.12-1.17-.42-1.47.41a1.48,1.48,0,0,0,.12,1.21l4,1.48-.48,1.3-4.23-1.57.09-.25a.71.71,0,0,0,.48-1,2.3,2.3,0,0,1-.15-1.88A1.55,1.55,0,0,1,21.15,41.7Z"/><path d="M27,38l-.68,1.23-.59-.35a2.18,2.18,0,0,1-.09,1.82,2.31,2.31,0,0,1-3.29.68,2.6,2.6,0,0,1-1.2-3.56,1.93,1.93,0,0,1,1-.9h0L20,35.71a1.45,1.45,0,0,1,.93-.7,1.38,1.38,0,0,1,1,.16L25.08,37l.53.29Zm-4.25-.74h0a1.17,1.17,0,0,0-1.34.48c-.39.7.22,1.54,1.6,2.29s2.19.68,2.54,0a1.45,1.45,0,0,0,0-1.28Z"/><path d="M30.33,33.6l-.86,1.12-.54-.43a2.16,2.16,0,0,1-.35,1.78,2.33,2.33,0,0,1-3.36.18,2.6,2.6,0,0,1-.65-3.7,1.94,1.94,0,0,1,1.1-.74l-2-1.51A1.38,1.38,0,0,1,25.65,30l2.93,2.25.48.36C29.42,32.93,30,33.35,30.33,33.6Zm-4.1-1.36h0a1.18,1.18,0,0,0-1.4.27c-.49.64,0,1.56,1.24,2.51s2.06,1,2.5.42a1.45,1.45,0,0,0,.2-1.27Z"/><path d="M57.91,109.67a51.76,51.76,0,1,1,51.76-51.76A51.82,51.82,0,0,1,57.91,109.67Zm0-101.52a49.76,49.76,0,1,0,49.76,49.76A49.81,49.81,0,0,0,57.91,8.15Z"/></g></g></svg>