<svg xmlns="http://www.w3.org/2000/svg" viewBox="0 0 187.01 251.22"><defs><style>.cls-1{fill:#fff;}.cls-2{fill:#edebea;}</style></defs><g id="Calque_2" data-name="Calque 2"><g id="Etiquette_2" data-name="Etiquette 2"><g id="Formes"><rect class="cls-1" x="9.07" y="5.96" width="168.86" height="239.3" rx="9.4" transform="translate(10.98 -7.47) rotate(4.86)"/><path d="M154.16,246c-.29,0-.59,0-.89,0h0L15,234.2A10.42,10.42,0,0,1,5.47,223L23.2,14.46A10.42,10.42,0,0,1,34.45,5L172.77,16.74A10.4,10.4,0,0,1,182.25,28L164.52,236.48A10.42,10.42,0,0,1,154.16,246Zm-.72-2a8.41,8.41,0,0,0,9.09-7.66L180.26,27.82a8.4,8.4,0,0,0-7.66-9.08L34.28,7a8.42,8.42,0,0,0-9.08,7.66L7.46,223.12a8.41,8.41,0,0,0,7.66,9.08Z"/></g><g id="Illustration"><path d="M93.43,164.44l-13.49,2-1.43,20.34S64.62,171.15,52,189.28l-2.45,9.16L96,202.63Z"/><path d="M112.25,160.55l-9.71,2.5,7.77,41.37L151.93,207s-4.73-35.45-28.9-18.56Z"/><path class="cls-2" d="M141.32,146.64s-42.68,25.09-87.81,22S38.12,96.38,71,86.54,166.61,126.32,141.32,146.64Z"/><path d="M61.19,169.42c-2.57,0-5.14-.08-7.72-.26C36,168,31.2,157.4,30.23,148.74c-1.19-10.64,2.92-24.56,11-37.22,8.32-13,19.12-22.31,29.64-25.46,10.85-3.25,26-.29,41.49,8.11C126.73,102,139,113.24,144.5,123.63c5.1,9.7,4.11,17.79-2.87,23.4l-.06,0C141.17,147.31,103.05,169.42,61.19,169.42Zm19-83.63A31.59,31.59,0,0,0,71.15,87C50,93.35,28.71,126.17,31.22,148.63c.93,8.28,5.55,18.39,22.32,19.53,43.95,3,86.13-21.14,87.49-21.93,8.25-6.66,6-15.71,2.59-22.13C133.84,105.48,103,85.79,80.21,85.79Z"/><path d="M102,133.45l-36.2,8.66s11,21.53,25.69,14.45S102,133.45,102,133.45Z"/><ellipse class="cls-2" cx="88.94" cy="151.61" rx="6.43" ry="3.3" transform="translate(-40.67 32.87) rotate(-17.11)"/><ellipse class="cls-2" cx="66.3" cy="117.47" rx="11.2" ry="17.8" transform="translate(-17.15 11.5) rotate(-8.78)"/><path d="M67.93,135.65c-6,0-11.75-7-13.2-16.39-1.54-10,2.4-18.89,8.78-19.87,3.13-.49,6.35,1,9.07,4.11a24.39,24.39,0,0,1,5.29,12.19h0a24.49,24.49,0,0,1-1.36,13.22c-1.65,3.81-4.28,6.17-7.42,6.65A7.46,7.46,0,0,1,67.93,135.65Zm-3.25-35.36a7,7,0,0,0-1,.08c-5.83.9-9.39,9.31-7.94,18.74s7.38,16.36,13.22,15.47c2.78-.43,5.14-2.59,6.65-6.07a23.45,23.45,0,0,0,1.29-12.67h0a23.43,23.43,0,0,0-5-11.69C69.65,101.64,67.14,100.29,64.68,100.29Z"/><ellipse class="cls-2" cx="91.82" cy="112.26" rx="11.2" ry="17.8" transform="translate(-16.06 15.33) rotate(-8.78)"/><path d="M93.45,130.44c-6,0-11.75-7-13.2-16.4a24.35,24.35,0,0,1,1.36-13.21C83.26,97,85.89,94.65,89,94.17c6.37-1,12.82,6.33,14.36,16.3h0c1.54,10-2.39,18.89-8.77,19.88A7.46,7.46,0,0,1,93.45,130.44ZM90.2,95.08a5.84,5.84,0,0,0-1,.08c-2.78.43-5.15,2.58-6.65,6.06a23.45,23.45,0,0,0-1.29,12.67c1.46,9.43,7.38,16.36,13.22,15.47s9.39-9.31,7.94-18.74C101,101.75,95.69,95.08,90.2,95.08Z"/><path d="M38.3,115.74S27.15,92.85,49.91,96.86c0,0,4.6-45.39,37.85-18.53,0,0,20.54-17.54,26.21,5.72,0,0,24.05,1.37,16.36,22.23C130.33,106.28,73,56.61,38.3,115.74Z"/><path d="M38.26,116.8l-.41-.84c-.22-.45-5.36-11.17-1.11-16.81,2.2-2.92,6.48-3.89,12.73-2.87C49.9,92.88,52.63,75,63.71,70.4c6.5-2.71,14.59-.26,24,7.28,1.81-1.45,10.57-8.07,18-5.68,4.12,1.33,7,5.22,8.65,11.58,2,.18,11.62,1.35,15.93,7.92,2.55,3.9,2.72,8.93.5,15l-.25.68-.54-.48c-.28-.23-27.4-23.36-55.11-18.78C60.43,90.26,48.27,99.72,38.73,116Zm6.79-19.92c-3.55,0-6.07,1-7.51,2.87-3.23,4.29-.29,12.27.82,14.9,9.62-16,21.86-25.37,36.38-27.77,26-4.29,51.31,15.26,55.36,18.55,1.85-5.4,1.64-9.9-.64-13.38-4.46-6.8-15.4-7.5-15.51-7.5l-.37,0-.09-.36c-1.51-6.2-4.23-10-8.08-11.22-7.58-2.45-17.23,5.68-17.33,5.76l-.31.27-.33-.26c-9.28-7.5-17.13-10-23.34-7.4C52.65,76.1,50.43,96.7,50.41,96.91l-.06.53-.53-.09A27.7,27.7,0,0,0,45.05,96.88Z"/><path d="M147.06,139.19l-.93-.36c12.11-31.68-17.38-48.33-17.68-48.49l.48-.88C129.24,89.63,159.49,106.68,147.06,139.19Z"/><circle class="cls-2" cx="136.28" cy="102.91" r="0.72"/><path d="M136.28,104.14a1.19,1.19,0,0,1-.32,0,1.23,1.23,0,0,1-.87-1.5,1.25,1.25,0,0,1,.57-.74,1.22,1.22,0,0,1,.93-.12,1.23,1.23,0,0,1,.75.57,1.22,1.22,0,0,1-.45,1.67A1.22,1.22,0,0,1,136.28,104.14Zm0-1.45a.22.22,0,0,0-.22.16.23.23,0,0,0,.16.28.22.22,0,1,0,.11-.43Z"/><circle class="cls-2" cx="140.22" cy="107.7" r="0.66"/><path d="M140.22,108.87a1.54,1.54,0,0,1-.3,0,1.22,1.22,0,0,1-.71-.55,1.17,1.17,0,0,1-.11-.88,1.15,1.15,0,0,1,1.42-.82,1.17,1.17,0,0,1,.71.54,1.13,1.13,0,0,1,.12.88,1.19,1.19,0,0,1-1.13.87Zm0-1.33a.17.17,0,0,0-.16.12.18.18,0,0,0,.12.2.14.14,0,0,0,.12,0,.14.14,0,0,0,.08-.1h0a.18.18,0,0,0-.12-.2Z"/><circle class="cls-2" cx="143.94" cy="112.53" r="0.66"/><path d="M143.94,113.69a1.15,1.15,0,0,1-.31,0,1.16,1.16,0,0,1-.82-1.42,1.14,1.14,0,0,1,.54-.71,1.16,1.16,0,0,1,.89-.12,1.18,1.18,0,0,1,.82,1.43h0A1.16,1.16,0,0,1,143.94,113.69Zm0-1.33a.19.19,0,0,0-.09,0,.14.14,0,0,0-.07.09.17.17,0,0,0,.11.21.16.16,0,0,0,.2-.12.19.19,0,0,0-.11-.2Z"/><path d="M70.84,117.09c1.23,5.53-.56,10.62-4,11.38s-7.2-3.11-8.42-8.64.56-10.62,4-11.38a7.88,7.88,0,0,1,2.59.25l.06,7.57,3.22-4.89A26,26,0,0,1,70.84,117.09Z"/><path d="M97,113c1.23,5.53-.55,10.63-4,11.39s-7.2-3.11-8.42-8.64.56-10.63,4-11.39a7.88,7.88,0,0,1,2.59.25l.06,7.57,3.23-4.89A26.19,26.19,0,0,1,97,113Z"/></g><g id="Texte"><path d="M67.28,29.1c-.19,2.29-1.72,4-4.89,3.74L49.63,31.75,50.82,17.8l12.16,1c3.17.27,4,1.79,3.84,3.9a4.16,4.16,0,0,1-1.32,2.52A4.61,4.61,0,0,1,67.28,29.1Zm-5.14-.84c.06-.74-.58-.8-1.1-.84l-5.78-.49-.12,1.47,5.78.5C61.43,28.94,62.07,29,62.14,28.26Zm-6.56-5.12,4.79.41c.52,0,1.15.1,1.22-.66S61,22.08,60.5,22l-4.79-.4Z"/><path d="M79.12,31.73l-5.94-.51L72,33.65l-5.7-.48,7-13.46,7.69.65,4.6,14.45-5.71-.49ZM78.07,28l-1.25-4.41-2,4.13Z"/><path d="M90.35,30.25c-.06.68.54,1.19,3.83,1.47,3.07.27,3.54.11,3.59-.41s-.4-.72-3.67-1.1c-6.28-.73-8.6-2-8.32-5.22.26-3.07,3.38-4.13,8.88-3.66s8.4,2,8.09,5.6l-5.18-.44c.06-.74-1.12-1-3.65-1.21s-2.94-.13-3,.41.45.56,3.47.93c5.48.69,8.86,1.36,8.55,5-.33,3.84-3.6,4.55-9.32,4.06S84.81,34,85.16,29.81Z"/><path d="M109.37,26.79l-.11,1.3,9.56.81-.28,3.39L109,31.48l-.11,1.29,9.57.82-.34,4-14.75-1.25,1.18-13.95,14.75,1.25-.34,4Z"/><path d="M132.19,38.77,127,38.33l1.19-13.95,5.18.44Z"/><path d="M152.33,26.43l-1.18,14-6.78-.57-5.32-8.75-.7,8.24-5.18-.44,1.19-14,6.77.58,5.32,8.74.7-8.23Z"/><path d="M44.87,48.27c-.2,2.29-1.73,4-4.9,3.73L27.22,50.92,28.4,37l12.16,1c3.17.27,4,1.79,3.85,3.9a4.21,4.21,0,0,1-1.32,2.52A4.61,4.61,0,0,1,44.87,48.27Zm-5.15-.84c.06-.74-.57-.8-1.09-.84l-5.78-.49-.13,1.47,5.78.5C39,48.11,39.66,48.16,39.72,47.43Zm-6.55-5.12,4.78.41c.52,0,1.16.1,1.22-.66s-.57-.81-1.09-.86l-4.78-.4Z"/><path d="M45.29,45.41c.41-4.84,3.24-6.93,9.38-6.41s8.57,3.08,8.16,7.9-3.26,7-9.38,6.45S44.87,50.27,45.29,45.41Zm12.36,1.05c.12-1.45-.28-2.81-3.36-3.08s-3.69,1-3.82,2.47.3,2.86,3.35,3.12S57.52,47.94,57.65,46.46Z"/><path d="M77.18,51.13l2.13,4.22-6.14-.52-1.65-3.44-3-.25-.28,3.26L63,54,64.2,40l11,.93a5.43,5.43,0,0,1,2,10.19Zm-8.34-4.38,4.79.41c.51,0,1.15.1,1.23-.86s-.55-1-1.07-1.06L69,44.84Z"/><path d="M97.58,49.88c-.4,4.74-3.76,6.7-7.13,6.42l-10.36-.88,1.18-14,10.37.89C95,42.63,98,45.13,97.58,49.88Zm-5.18-.44c.22-2.59-1.61-2.75-2.73-2.85l-3.59-.3-.44,5.18,3.59.31C90.35,51.87,92.18,52,92.4,49.44Z"/><path d="M103.79,47.39l-.11,1.3,9.57.81L113,52.89l-9.57-.81-.11,1.29,9.57.82-.34,4L97.76,56.92,99,43l14.75,1.25-.34,4Z"/><path d="M125.9,56.78l-5.94-.5-1.17,2.43-5.7-.49,7-13.46,7.7.66,4.59,14.44-5.7-.48Zm-1.05-3.7-1.25-4.4-2,4.13Z"/><path d="M140.07,60.72c-6.14-.52-8.57-3.08-8.16-7.94l.6-7,5.18.44-.59,7c-.13,1.49.3,2.85,3.34,3.11s3.71-1,3.83-2.5l.59-7,5.19.44-.6,7C149,59.11,146.19,61.24,140.07,60.72Z"/><path d="M156.82,54.92l-6-7.54,6.78.57,3.17,4.29,3.84-3.69,6.78.58-7.19,6.41,6,7.54-6.77-.58-3.17-4.28-3.85,3.69-6.78-.58Z"/><path d="M36.16,219a3.17,3.17,0,0,1-3.37,3.09,3.12,3.12,0,0,1-2.16-1l-1,.65h0l.76-8.92h.07a2.85,2.85,0,0,1,.54.18l.07,0,.08,0h0a2.05,2.05,0,0,1,.38.34,1.64,1.64,0,0,1,.4,1.23l-.15,1.76a2.59,2.59,0,0,1,2-.77A2.83,2.83,0,0,1,36.16,219Zm-1.81,0c.17-2-.31-2.79-1.17-2.86a1.86,1.86,0,0,0-1.46.64l-.33,3.84a1.41,1.41,0,0,0,1.2,1.28C33.56,222,34.19,220.91,34.35,219Z"/><path d="M39.14,220.26a1,1,0,0,0,0,.45s0,.1,0,.17l0,.06h0a1.65,1.65,0,0,0,1.46,1.15,2.27,2.27,0,0,0,1.91-.88l.13.1a3.13,3.13,0,0,1-2.84,1.39,2.92,2.92,0,0,1-2.69-3.38,3.17,3.17,0,0,1,2.72-3,3.47,3.47,0,0,1,.79,0h.07a2.8,2.8,0,0,1,1.15.31l.28.15c1,.67,1.36,1.65.83,2.48-.75,1.18-2.56.55-3.4.72h0a.71.71,0,0,0-.29.13l0,0a.36.36,0,0,0-.08.12Zm.49-.76.06,0,.06,0a2.71,2.71,0,0,0,1.83-.94,1.44,1.44,0,0,0,.2-.47,1.16,1.16,0,0,0-.91-1.56h-.11a1.27,1.27,0,0,0-.48.06c-.71.23-1.19,1.14-1.31,2.54a5.34,5.34,0,0,0,0,.89.76.76,0,0,0,0,.15.68.68,0,0,0,0,.14A.88.88,0,0,1,39.63,219.5Z"/><path d="M48.79,221.48c-.09,1.07-1,1.91-2.72,1.77a5.84,5.84,0,0,1-2.26-.67l.45-1.17c.78.18,1,1.61,2,1.69s1.38-.3,1.43-.89-.6-1-1.3-1.36l-.46-.23c-.66-.32-1.79-.88-1.68-2.09.08-1,1-1.85,2.57-1.71a5.08,5.08,0,0,1,2,.6l-.46,1.23c-.44-.25-.82-1.61-1.72-1.69s-1.24.31-1.28.83c-.06.69.64,1,1.31,1.33l.45.22C47.74,219.66,48.9,220.21,48.79,221.48Z"/><path d="M53.7,223.23a3,3,0,0,1-1.91.5A1.47,1.47,0,0,1,50.27,222l.38-4.42-.76-.07,0-.24.74.05h0l.14-1.65h0l.13,0a1.7,1.7,0,0,1,1,.58,1.65,1.65,0,0,1,.39,1.14v0h0v0l1.65.14-.09,1.1h0c-.65-.64-.92-1-1.44-1h-.12L52,222.16c0,.29-.09,1.06.72,1.13a1.89,1.89,0,0,0,.95-.21Z"/><path d="M68.78,209.12c6.7.57,10,3.21,9.81,8.51l-6.37-.54c-.1-1.6-1.25-2.49-3.89-2.71-3.68-.32-4.43,1.19-4.58,3s.36,3.42,4,3.74c2.63.22,3.91-.49,4.29-2.07l6.36.54c-.71,5.28-4.38,7.36-11.1,6.79-7.37-.63-10.29-3.7-9.79-9.53S61.42,208.49,68.78,209.12Z"/><path d="M86.52,227.73l-6.22-.53,1.42-16.74,6.22.53Z"/><path d="M110.57,218.21l-7.17-.61-1,11.48-6.22-.53,1-11.48L90,216.46l.45-5.26L111,213Z"/><path d="M113.29,213.14l7.17.61,3.92,6.6,5-5.84,7.17.61-9.47,10.51-.46,5.51-6.22-.53.47-5.5Z"/></g></g></g></svg>