<svg xmlns="http://www.w3.org/2000/svg" viewBox="0 0 195.81 41.38"><defs><style>.cls-1{fill:#fff;}</style></defs><g id="Calque_2" data-name="Calque 2"><g id="Premiere_Pro" data-name="Premiere Pro"><rect class="cls-1" width="195.81" height="41.38" rx="5.98"/><path d="M24.6,16.46c0,3.27-2.57,5.38-6.77,5.38a17.43,17.43,0,0,1-2.2-.15V29H11.81V11.57h6C22.35,11.57,24.6,13.39,24.6,16.46Zm-4,.29c0-2.76-1-4.8-3.58-4.8H15.63v9.31a4.36,4.36,0,0,0,1.39.2C19.47,21.46,20.62,19.68,20.62,16.75Z"/><path d="M35,16.14v3.05h-.12a2.65,2.65,0,0,0-2-.95,2.48,2.48,0,0,0-1.3.35,2.75,2.75,0,0,0-1,.9h0a2.74,2.74,0,0,0-.42,1.06l-.06.21V29H26.64V16.14h.27a3.31,3.31,0,0,1,2.15,1,3.5,3.5,0,0,1,1,2.29V20c.63-2.35,2-3.75,3.8-3.85.43,0,.87,0,1.05,0Z"/><path d="M39.77,24.35a1.73,1.73,0,0,0,0,.94,2.9,2.9,0,0,0,.09.34l0,.14h0a3.4,3.4,0,0,0,3.23,2.14A4.71,4.71,0,0,0,47,25.75l.29.17a6.59,6.59,0,0,1-5.66,3.41c-3.46,0-6.17-2.52-6.17-6.55A6.59,6.59,0,0,1,40.52,16a7.27,7.27,0,0,1,1.63-.18h.16a5.78,5.78,0,0,1,2.44.44l.6.27c2.28,1.2,3.12,3.18,2.17,5-1.36,2.6-5.22,1.61-6.94,2.11h0A1.24,1.24,0,0,0,40,24l-.06.06a.9.9,0,0,0-.13.26S39.77,24.33,39.77,24.35Zm.89-1.66.11-.05.13-.05c1.25-.47,2.84-.79,3.63-2.29a2.89,2.89,0,0,0,.32-1c.31-2.57-1.53-3-2.16-3.07h-.22a2.55,2.55,0,0,0-1,.2C40.05,17,39.2,19,39.2,21.91a11.45,11.45,0,0,0,.13,1.84,3.06,3.06,0,0,0,.05.32l.06.29A1.88,1.88,0,0,1,40.66,22.69Z"/><path d="M70.72,20.39V29H67.19v-9c0-.89,0-3.15-2.25-3.15a3.87,3.87,0,0,0-2.79,1.37v1.24a7.85,7.85,0,0,1,.05.87V29H58.63V19.1a2.16,2.16,0,0,0-2.21-2.19,3.85,3.85,0,0,0-2.78,1.37V29H50.11V17.58h.67a1.81,1.81,0,0,0,2.86.25,5.75,5.75,0,0,1,4.34-2c1.91,0,3.24.73,3.84,2.28a1.71,1.71,0,0,0,.33-.26,5.77,5.77,0,0,1,4.35-2C69.18,15.81,70.72,17.25,70.72,20.39Z"/><path d="M73.59,12.73A1.77,1.77,0,1,1,75,14.12,1.77,1.77,0,0,1,73.59,12.73Zm3.5,6.92V29H73.57V16.13A3.52,3.52,0,0,1,77.09,19.65Z"/><path d="M83.84,24.35a1.84,1.84,0,0,0,0,.94,1.81,1.81,0,0,0,.1.34.74.74,0,0,0,0,.14h0a3.4,3.4,0,0,0,3.23,2.14A4.73,4.73,0,0,0,91,25.75l.29.17a6.59,6.59,0,0,1-5.67,3.41c-3.46,0-6.16-2.52-6.16-6.55A6.59,6.59,0,0,1,84.59,16a7.43,7.43,0,0,1,1.64-.18h.16a5.83,5.83,0,0,1,2.44.44l.59.27c2.29,1.2,3.13,3.18,2.17,5-1.36,2.6-5.22,1.61-6.94,2.11h0a1.34,1.34,0,0,0-.59.32L84,24a.92.92,0,0,0-.14.26Zm.89-1.66.12-.05.12-.05c1.25-.47,2.85-.79,3.63-2.29a2.92,2.92,0,0,0,.33-1c.3-2.57-1.54-3-2.16-3.07h-.23a2.5,2.5,0,0,0-1,.2c-1.43.6-2.27,2.57-2.27,5.51a12.82,12.82,0,0,0,.12,1.84l.06.32a1.36,1.36,0,0,0,.06.29A1.84,1.84,0,0,1,84.73,22.69Z"/><path d="M102.67,16.14v3.05h-.12a2.69,2.69,0,0,0-2-.95,2.53,2.53,0,0,0-1.3.35,2.64,2.64,0,0,0-1,.9h0a2.73,2.73,0,0,0-.41,1.06c0,.07,0,.14-.07.21V29H94.26V16.14h.27a3.34,3.34,0,0,1,2.16,1,3.55,3.55,0,0,1,1,2.29V20c.62-2.35,2-3.75,3.79-3.85.44,0,.88,0,1.06,0Z"/><path d="M107.39,24.35a1.84,1.84,0,0,0,0,.94,2.9,2.9,0,0,0,.09.34l0,.14h0a3.4,3.4,0,0,0,3.23,2.14,4.73,4.73,0,0,0,3.82-2.16l.28.17a6.56,6.56,0,0,1-5.66,3.41c-3.46,0-6.17-2.52-6.17-6.55A6.6,6.6,0,0,1,108.14,16a7.43,7.43,0,0,1,1.64-.18h.16a5.76,5.76,0,0,1,2.43.44l.6.27c2.28,1.2,3.13,3.18,2.17,5-1.36,2.6-5.22,1.61-6.94,2.11h0a1.34,1.34,0,0,0-.59.32l0,.06a.92.92,0,0,0-.14.26S107.39,24.33,107.39,24.35Zm.89-1.66.12-.05.12-.05c1.25-.47,2.85-.79,3.63-2.29a2.92,2.92,0,0,0,.33-1c.3-2.57-1.54-3-2.16-3.07h-.23a2.47,2.47,0,0,0-1,.2c-1.43.6-2.27,2.57-2.27,5.51a12.82,12.82,0,0,0,.12,1.84,3,3,0,0,0,.06.32,1.36,1.36,0,0,0,.06.29A1.84,1.84,0,0,1,108.28,22.69Z"/><path d="M139.25,16.46c0,3.27-2.57,5.38-6.77,5.38a17.73,17.73,0,0,1-2.21-.15V29h-3.81V11.57h6C137,11.57,139.25,13.39,139.25,16.46Zm-4,.29c0-2.76-1-4.8-3.58-4.8h-1.42v9.31a4.43,4.43,0,0,0,1.4.2C134.11,21.46,135.27,19.68,135.27,16.75Z"/><path d="M149.69,16.14v3.05h-.12a2.67,2.67,0,0,0-2-.95,2.47,2.47,0,0,0-1.29.35,2.59,2.59,0,0,0-1,.9h0a2.74,2.74,0,0,0-.42,1.06l-.06.21V29h-3.53V16.14h.28a3.31,3.31,0,0,1,2.15,1,3.5,3.5,0,0,1,1,2.29V20c.62-2.35,2-3.75,3.8-3.85.43,0,.87,0,1,0Z"/><path d="M158.86,29.05c-3.73,1.17-7.24-.4-8.47-4.33a6.63,6.63,0,0,1,4.63-8.6c3.73-1.16,7.24.4,8.47,4.34A6.63,6.63,0,0,1,158.86,29.05ZM160,21.74c-1.16-3.71-3-5.86-5-5.25s-2.2,3.33-1,7,3,5.82,4.95,5.22S161.1,25.36,160,21.74Z"/><path d="M182.21,23.61a4.14,4.14,0,1,1,0-5.85A4.13,4.13,0,0,1,182.21,23.61Z"/><path d="M185.27,39.17H9a6.49,6.49,0,0,1-6.48-6.48v-24A6.48,6.48,0,0,1,9,2.21h176.3a6.48,6.48,0,0,1,6.48,6.47v24A6.49,6.49,0,0,1,185.27,39.17ZM9,3.21A5.48,5.48,0,0,0,3.49,8.68v24A5.49,5.49,0,0,0,9,38.17h176.3a5.49,5.49,0,0,0,5.48-5.48v-24a5.48,5.48,0,0,0-5.48-5.47Z"/></g></g></svg>