<svg xmlns="http://www.w3.org/2000/svg" viewBox="0 0 122.42 89.37"><defs><style>.cls-1{fill:#fff;}.cls-2,.cls-3,.cls-6{fill:none;}.cls-2,.cls-3,.cls-4,.cls-5{stroke:#000;}.cls-2,.cls-5,.cls-6{stroke-miterlimit:10;}.cls-3,.cls-4{stroke-linejoin:round;}.cls-6{stroke:#fff;}</style></defs><g id="Calque_2" data-name="Calque 2"><g id="Etiquette_25" data-name="Etiquette 25"><g id="Forme"><path class="cls-1" d="M53.17,16.79c-.75,1.07-1.5,2.13-2.26,3.19l-4.8-2.42q.53,6.3,1.06,12.59a27.06,27.06,0,0,0-2.55,2.51,26.38,26.38,0,0,0-2.81,3.79,14,14,0,0,0-5.41-3.32,8.82,8.82,0,0,0-3.06-.59c-3.5.08-6,3.37-8.34,6.42a34.61,34.61,0,0,0-4.85,8.77,16.58,16.58,0,0,0-8.64-5.36,5.24,5.24,0,0,0-2-.15c-3,.39-4.95,3-6.46,5C1.42,49.39-.2,51.53,0,54.49c.27,3.62,3.09,5.87,4,6.6a13.25,13.25,0,0,0,10.09,2.43l6.68,5.91a18.1,18.1,0,0,0-7.32,3.28A16.62,16.62,0,0,0,7,82.32a15.7,15.7,0,0,0,0,6.6l46.4.19,2.17-1.85a8.21,8.21,0,0,0,1.34,1.15,8,8,0,0,0,2,1l25.41,0a2.77,2.77,0,0,0,1.31-.79,3.13,3.13,0,0,0,.67-1.85,8.5,8.5,0,0,0-.64-4.47,8.9,8.9,0,0,0-4.85-4.38,19.21,19.21,0,0,0,4.3-3.28c1.83-1.86,3.49-3.54,3.52-5.91A6.48,6.48,0,0,0,87,64.54a25.58,25.58,0,0,0,7.62-16.09l2.75,2a10.4,10.4,0,0,0,.76,5,8,8,0,0,0,3.58,4.27,7.31,7.31,0,0,0,3.83.77,8.43,8.43,0,0,0,5.3-2.43,8.08,8.08,0,0,0,2.23.64A8.7,8.7,0,0,0,119.59,57,7.5,7.5,0,0,0,122,53.62a7.83,7.83,0,0,0-.25-5.55,8.51,8.51,0,0,0-2.94-3.7,8.72,8.72,0,0,0,.32-3.45A9,9,0,0,0,113,33.39a7.88,7.88,0,0,0-3.64-.13,9.53,9.53,0,0,0-4.15-1.09,8.5,8.5,0,0,0-5.81,1.92c-3,2.67-2.6,6.81-2.55,7.21l-2.55-.06c-.09-1-.17-2-.26-3a9.54,9.54,0,0,0-3.87-2.81c-1.2-.46-3.85-1.49-5.91,0a5.28,5.28,0,0,0-2,3.7H80a4.23,4.23,0,0,0-3.45,1.72v0a12.9,12.9,0,0,0-1.7,3.32l-5.15-2.76c-.12-1.24-.23-2.47-.34-3.7a24.65,24.65,0,0,0-8.39-6.81l-.42-14.39L55.94,19.3C55,18.47,54.09,17.63,53.17,16.79Z"/></g><g id="Personnage"><path class="cls-2" d="M53.21,19.81C52.62,21,52,22.14,51.42,23.3l-3.83-2.72L49.3,31.43a7.27,7.27,0,0,0,3.87,1.49,7.42,7.42,0,0,0,5-1.49l.51-11.87-3.11,3.23Z"/><path class="cls-2" d="M49,31.64a16.51,16.51,0,0,0-4.34,4,16.16,16.16,0,0,0-2.13,3.79"/><path class="cls-3" d="M43.55,41.94a25.53,25.53,0,0,0-4.08-4.34c-2.18-1.83-3.81-3.19-5.75-3.15-2.15,0-3.77,1.78-5.57,4.09a67.94,67.94,0,0,0-8.43,14.08,44.9,44.9,0,0,0-2.68,4c-1.85,3.08-1.91,4-1.87,4.59.12,1.8,1.45,3.78,2.55,3.62.84-.12,1.52-1.46,1.75-3.15a4.68,4.68,0,0,0,0,3.75,4.6,4.6,0,0,0,2,2c1.32.75,3.16,1.07,3.49.51.17-.27-.1-.61-.34-1.19a6.42,6.42,0,0,1-.25-3.66,6.71,6.71,0,0,0,.81,3.49,4.16,4.16,0,0,0,1.49,1.74,4.44,4.44,0,0,0,3.95.09A3.68,3.68,0,0,0,33,65.77a3.37,3.37,0,0,0-1.62-3.19,3.53,3.53,0,0,0,3.83-.64,3.42,3.42,0,0,0,.72-2.89,5.24,5.24,0,0,0-4.08-3.88L34,50.79,38.57,55l-5.06.77"/><path class="cls-3" d="M58.13,31.92a7.7,7.7,0,0,1,1.85.77,8.19,8.19,0,0,1,2.68,2.48"/><path class="cls-3" d="M67.19,42.9,75.81,57a4.73,4.73,0,0,1,.32,2.81,4.42,4.42,0,0,1-1.79,2.81c-1.74,1.11-4.8.41-6.89-2.17a5.36,5.36,0,0,1-.39,3.89,5.12,5.12,0,0,1-2.87,2.49c-2.17.66-4.88-.56-6.38-3.12a3.7,3.7,0,0,1-1.66,1.59c-2.44,1.09-6.43-1.08-9.7-5.61L38.53,66.2"/><path class="cls-3" d="M44.91,61.26q1.83,2.73,3.66,5.83T52,73.26c.84,1.64,1.14,3.58.38,4.43-1.61,1.79-8.24-1.88-9.28-2.46"/><path class="cls-3" d="M56,65.69a31.84,31.84,0,0,1,3.83,7.14c1.5,4,1.3,5.89,1.23,6.43A6.85,6.85,0,0,1,59,83.86c-.52.43-1.78,1.29-5.32,1.14a22.59,22.59,0,0,1-10-2.89"/><path class="cls-3" d="M65.42,66.54q2.4.64,4.86,1.36T75,69.3a47.33,47.33,0,0,1-4.51,2.39c-1.41.64-3,1.26-3.2,1.36-2.91,1.16-3.11,1-3.74,1.53-2,1.54-2.16,4.41-2.17,4.81-.15,4,3.38,6.48,3.64,6.66l-7.75.15.07.63,27.25.34a8.72,8.72,0,0,0-1.93-6,9.19,9.19,0,0,0-10-2.29,38.76,38.76,0,0,0,7.25-3.11,18.44,18.44,0,0,0,5.36-4.23A4.82,4.82,0,0,0,86.64,69c.28-2.51-2.58-4.5-3-4.76"/><path class="cls-3" d="M75.81,61.77a9.81,9.81,0,0,0,6.06,2A8.92,8.92,0,0,0,87,62.17c3-2.15,3.33-5.59,3.76-9.76.19-1.83.06-2.68-.44-3.38-1.08-1.52-3.8-2.25-5.17-1a2.55,2.55,0,0,0-.77,2.37,3.35,3.35,0,0,0,3.7,2.23"/><path class="cls-3" d="M81.94,47.47q-2.26,4.61-4.52,9.19l7.37,3.62,2.76-7.4"/><path class="cls-3" d="M79.72,46a4.5,4.5,0,0,0,3.49,1.62c.11,0,2.25-.15,2.77-1.49.63-1.64-1.73-3.59-2.13-3.91a4.34,4.34,0,0,0-2.94-1.28,3.58,3.58,0,0,0-2.85,1.49c-.73,1.16-.06,2.15-1,3.53A3.66,3.66,0,0,1,76,47c-1.57,1-5.07-.64-8.43-4.08"/><path class="cls-3" d="M86.32,45.09a6.32,6.32,0,0,1,4.85.51c.54.34,1.79,1.11,1.66,2.13a2.3,2.3,0,0,1-2,1.61"/><path class="cls-3" d="M83.21,41.3a5.58,5.58,0,0,1,.77-2,4.84,4.84,0,0,1,2.42-2.09,4.78,4.78,0,0,1,3.45.17c.26.11,2.65,1.1,2.55,2.6a1.83,1.83,0,0,1-1.53,1.66c-.57,0-.74-.59-1.45-.77a2.45,2.45,0,0,0-1.87.51"/><path class="cls-3" d="M84.57,42.32l.39-.89L90.23,44l-.42,1"/><path class="cls-4" d="M87.39,42.2l.94-1.26,1.55.75-.83,1.24Z"/><path class="cls-3" d="M89.79,42.39a51.35,51.35,0,0,1,10.78,8.42,4.89,4.89,0,0,0-.89,2.68,5.54,5.54,0,0,0,4.09,5.24A5.79,5.79,0,0,0,110.4,55a5.77,5.77,0,0,0,10.22-4.28,6.34,6.34,0,0,0-4.22-5.43A6.1,6.1,0,0,0,117.74,41a6.34,6.34,0,0,0-3.19-4.66,7.1,7.1,0,0,0-5.3-.7,6.37,6.37,0,0,0-3.76-1.85,6.85,6.85,0,0,0-6.64,4.15c-.15.34-1.33,3.15.06,5.36a4.46,4.46,0,0,0,.83,1Z"/><path class="cls-3" d="M47.47,46.92q-.84,4-1.66,7.91"/><path class="cls-3" d="M59,50.05l1,11.17"/><path class="cls-3" d="M64.38,50.17l3.32,6.9"/><path class="cls-3" d="M76.51,46.89l.19,4.69"/><path class="cls-3" d="M14.85,61.79a14,14,0,0,1-5.3-.38C8,61,4.53,60,2.79,56.88,2.44,56.25,1,53.65,2.15,51a5.43,5.43,0,0,1,1.91-2.32,7.85,7.85,0,0,1,1.92-1,7.16,7.16,0,0,1,3-.41,10.84,10.84,0,0,1,4.58,1.55,11.45,11.45,0,0,1,4.81,5.66"/><path class="cls-3" d="M15.36,59.17a11.08,11.08,0,0,1-7.08-1c-1.08-.57-4.16-2.21-4-4.66a3.5,3.5,0,0,1,.12-.66h0a4.33,4.33,0,0,1,2-2.39h0a4,4,0,0,1,.47-.22c2.4-1,4.87.84,6,1.69a10.6,10.6,0,0,1,3.51,4.48c.12.28.22.53.3.76"/><path class="cls-3" d="M17,58.87a14.22,14.22,0,0,1-5.3-.39c-1.58-.43-5-1.36-6.76-4.53a9.28,9.28,0,0,1-.54-1.12h0"/><path class="cls-3" d="M4.06,48.68a4.76,4.76,0,0,1,.21-.6A6.41,6.41,0,0,1,8.1,44.76c3.43-1.26,6.65.6,7.59,1.15a11.44,11.44,0,0,1,4.81,5.65"/><path class="cls-3" d="M9,47.28c2.4-1,4.87.84,6,1.69a11,11,0,0,1,3.81,5.25"/><path class="cls-3" d="M6.4,50.43h0s0,.09,0,.14c-.14,2.44,2.94,4.08,4,4.66a10.84,10.84,0,0,0,6,1.15c.41,0,.77-.08,1.07-.13"/><path class="cls-3" d="M32.92,66a11.48,11.48,0,0,1,1,2,11.62,11.62,0,0,1,.76,3.67,45.32,45.32,0,0,0-8.55-.16c-4.55.35-8,.62-11,2.56C9.68,77.63,8.83,85,8.66,87.07L43.32,87a23.76,23.76,0,0,0,.25-9.44,21.67,21.67,0,0,0-4.91-10.85,20.26,20.26,0,0,0-4.72-4"/><circle class="cls-3" cx="53.13" cy="40.2" r="5.06"/><circle class="cls-3" cx="63.42" cy="40.06" r="5.06"/><path d="M48.41,39.9A3.27,3.27,0,1,0,52,36.68a5.38,5.38,0,0,0-1.29.17l.58,2.6-2-1.58A6.55,6.55,0,0,0,48.41,39.9Z"/><path d="M58.67,39.77a3.28,3.28,0,1,0,3.57-3.22,5.56,5.56,0,0,0-1.29.16l.58,2.61-2-1.59A6.65,6.65,0,0,0,58.67,39.77Z"/><path class="cls-5" d="M32.63,85h-14a4.24,4.24,0,1,1,0-8.48h14a4.24,4.24,0,0,1,0,8.48Z"/><path class="cls-6" d="M22.22,78.48l0,1.5"/><path class="cls-6" d="M29.59,78.61c0,.36.05.72.07,1.09"/><path class="cls-6" d="M22.48,81.29a4.41,4.41,0,0,0,3.38,2.08,4.41,4.41,0,0,0,3.64-1.76"/><path d="M43.38,87.43l9.53-.17c.06-.68.12-1.36.17-2L47.34,84l-3.19-1.27Z"/><path d="M69.81,67.47a24.86,24.86,0,0,1,2.81-2.42,26.66,26.66,0,0,1,3.86-2.4l-1-.73a4.66,4.66,0,0,1-2.33,1.37,5.45,5.45,0,0,1-5.33-2.14,6.34,6.34,0,0,1-.57,3.19A6.51,6.51,0,0,1,66,66.2Z"/><path d="M48.65,66.55c1,0,2,.08,3,.16,1.74.12,3.4.3,5,.51l-1.09-1.5a6.19,6.19,0,0,1-2.93-.26A7.4,7.4,0,0,1,50,63.71a44.42,44.42,0,0,1-3.61-3.64l-1.24,1.18Z"/><path d="M66.19,72.88c-1-.15-2.1-.35-3.28-.64s-2.36-.66-3.36-1l1.83,6a18.61,18.61,0,0,1,2.43-2.55A17.69,17.69,0,0,1,66.19,72.88Z"/><path d="M35.55,52.69a4.15,4.15,0,0,1,0,1.19,4.32,4.32,0,0,1-.42,1.4l2.74-.68Z"/><path d="M79.85,52.34l6.36,3-1.47,4.4-6.83-3.21C78.56,55.17,79.2,53.76,79.85,52.34Z"/><path d="M74.91,47.77a10.17,10.17,0,0,0-.59,2.43,10.32,10.32,0,0,0,.57,4.7L68.68,44.47A10.93,10.93,0,0,0,73,47.3,10.61,10.61,0,0,0,74.91,47.77Z"/></g><g id="Text"><path class="cls-1" d="M15.1,22.13c.38.73.76,1.36,1.5,2.55l1.22,1.95,0,0-3.13-.78,1.72,2.75,0,0-5.09-1.17.44-.62a.89.89,0,0,1,.94-.35l2.62.6-1.75-2.77,0,0,3.15.78-.21-.34a5.67,5.67,0,0,0-1.93-1.86Z"/><path class="cls-1" d="M19.33,17.46l.65-.7c.29.76.59,1.44,1.18,2.7l1,2.09,0,0-3-1.15,1.38,2.94,0,0-4.92-1.77.51-.56a.92.92,0,0,1,1-.24l2.53.92-1.41-3,0,0,3,1.15L21,19.53a5.73,5.73,0,0,0-1.68-2.07Z"/><path class="cls-1" d="M25.48,12c.19.79.41,1.5.84,2.83L27,17l0,0-2.86-1.51,1,3.08,0,0-4.67-2.36L21,15.8a.9.9,0,0,1,1-.12l2.4,1.22-1-3.12,0,0,2.87,1.52-.12-.39a5.65,5.65,0,0,0-1.43-2.26Z"/><path class="cls-1" d="M29.57,14.51a.58.58,0,1,1-.47-.66A.58.58,0,0,1,29.57,14.51Z"/><path class="cls-1" d="M30.94,12a.69.69,0,0,0,.17.29l.1.08a.08.08,0,0,0,0,0h0a1.22,1.22,0,0,0,1.39.05A1.69,1.69,0,0,0,33.41,11h.12a2.37,2.37,0,0,1-1.1,2.11,2.19,2.19,0,0,1-3.12-.86,2.36,2.36,0,0,1,.31-3,2.48,2.48,0,0,1,.47-.37l.05,0A1.9,1.9,0,0,1,31,8.54a.85.85,0,0,1,.23,0c.93-.06,1.56.39,1.6,1.13.07,1-1.3,1.47-1.74,1.94h0a.39.39,0,0,0-.12.2,0,0,0,0,0,0,0,.41.41,0,0,0,0,.11Zm0-.68,0,0,0,0a2,2,0,0,0,.69-1.38,1.06,1.06,0,0,0-.09-.37.87.87,0,0,0-1.24-.54h-.05l0,0a.9.9,0,0,0-.27.24c-.33.45-.22,1.22.33,2.12a4.2,4.2,0,0,0,.38.54.36.36,0,0,0,.08.09l.07.08A.69.69,0,0,1,30.9,11.27Z"/><path class="cls-1" d="M37.33,10a2.24,2.24,0,0,1-1,1.07,1.1,1.1,0,0,1-1.65-.56l-1.47-3-.51.25-.08-.17.49-.25h0L32.54,6.2h0l.08,0a1.27,1.27,0,0,1,.88,0,1.28,1.28,0,0,1,.7.58v0h0l1.11-.54.37.74h0c-.67-.17-1-.27-1.32-.1l-.08,0,1.49,3c.09.2.34.72.89.45a1.42,1.42,0,0,0,.53-.5Z"/><path class="cls-1" d="M41.13,5.61l1.08,2.91L41,9l-1.12-3c-.11-.3-.4-1.06-1.14-.78A1.32,1.32,0,0,0,38,6s0,0,0,0l1.34,3.62-1.2.44L35.81,3.81,36,3.76a1.28,1.28,0,0,1,1.41.56l0,.09.52,1.39h0a2,2,0,0,1,1.21-1.21A1.42,1.42,0,0,1,41.13,5.61Z"/><path class="cls-1" d="M47.57,6.9l0,0a1.85,1.85,0,0,1-.88.5.81.81,0,0,1-.9-.25A2.54,2.54,0,0,1,44.43,8c-1.06.26-1.88-.14-2.09-1-.35-1.46,1.9-2.27,1.72-3a.31.31,0,0,0-.3-.24h0a.27.27,0,0,0-.09,0h0a1.33,1.33,0,0,0-.29.07,1,1,0,0,0-.41.29L42.72,4a1.94,1.94,0,0,1,1.49-.92A2.16,2.16,0,0,1,46.49,4.8l.37,1.61c.09.41.15.64.55.55ZM45.7,7h0l-.49-2.1h0c-.27-1.09-.48-1.76-1.08-1.7-.24,0-.35.21-.44.47.32,0,.6.08.67.39.18.73-1,1.46-.7,2.54A1,1,0,0,0,45,7.4,1.61,1.61,0,0,0,45.7,7Z"/><path class="cls-1" d="M52.15,3.45l.37,3.09-1.26.15-.39-3.2c0-.32-.15-1.13-.94-1a1.36,1.36,0,0,0-.94.61l.46,3.84-1.26.15L47.7,3l.24,0a.65.65,0,0,0,1,0A2.06,2.06,0,0,1,50.44,2C51.4,1.88,52,2.33,52.15,3.45Z"/><path class="cls-1" d="M58.15,4.05a2.8,2.8,0,0,1-.37,1.42,2.28,2.28,0,0,1-1.23,1,2.33,2.33,0,0,1-.7.11,1.84,1.84,0,0,1-1.16-.38l0,2.25H53.43l0-6.09h.25a.65.65,0,0,0,1,.09A2.14,2.14,0,0,1,56,1.73h.19a1.87,1.87,0,0,1,1.37.6A2.47,2.47,0,0,1,58.15,4.05Zm-1.35.1c0-1.52-.42-2.07-1.07-2.06a1.12,1.12,0,0,0-.53.13h0a1.77,1.77,0,0,0-.51.43V5.55a1.07,1.07,0,0,0,1,.88.91.91,0,0,0,.83-.58A3.88,3.88,0,0,0,56.8,4.15Z"/><path class="cls-1" d="M60.5,3.3l-.27,3.36L59,6.56l.36-4.63A1.28,1.28,0,0,1,60.5,3.3ZM59.43.71A.64.64,0,1,1,60.7.56a.64.64,0,0,1-.81.69A.65.65,0,0,1,59.43.71Z"/><path class="cls-1" d="M66.33,5.1a2.38,2.38,0,0,1-2.7,2.12,2.41,2.41,0,0,1-1.56-.84l-.79.43h0L62.33.17l.06,0a1.61,1.61,0,0,1,.39.16l0,0,.06,0h0a1,1,0,0,1,.27.28,1.29,1.29,0,0,1,.23.94l-.21,1.31a1.93,1.93,0,0,1,1.56-.46A2.12,2.12,0,0,1,66.33,5.1ZM65,5c.24-1.51-.07-2.11-.71-2.21a1.37,1.37,0,0,0-1.13.39L62.67,6a1.05,1.05,0,0,0,.82,1C64.22,7.16,64.75,6.39,65,5Z"/><path class="cls-1" d="M69.54,8.49A2.29,2.29,0,0,1,67,6.15a2.39,2.39,0,0,1,2.45-2.52A2.3,2.3,0,0,1,72,6,2.38,2.38,0,0,1,69.54,8.49Zm1.11-2.42c0-1.4-.47-2.33-1.21-2.31s-1.09.93-1.06,2.31.47,2.32,1.2,2.3S70.68,7.44,70.65,6.07Z"/><path class="cls-1" d="M77.15,6.34c-.63.54-1.15,1.06-2.06,2L73,10.43a2.64,2.64,0,0,1-.61.46,1.73,1.73,0,0,1-.95.21L71,11l-.34-.11.45-.86c.29.79.78.81,1.22.6h0a2.64,2.64,0,0,0,.46-.31h0l.43-.43L73.1,4.71l.75.31a.85.85,0,0,1,.54.77l.09,2.89L75,8.2A5.45,5.45,0,0,0,76.27,6Z"/><path class="cls-1" d="M77.68,9.91a.56.56,0,0,0-.15.29l0,.13v.05h0a1.22,1.22,0,0,0,.69,1.22,1.71,1.71,0,0,0,1.58-.06l.06.1a2.39,2.39,0,0,1-2.38.16,2.19,2.19,0,0,1-.89-3.12A2.37,2.37,0,0,1,79.3,7.36a3.1,3.1,0,0,1,.55.21l.05,0a2,2,0,0,1,.71.54l.15.19a1.33,1.33,0,0,1-.13,2c-.87.6-1.94-.35-2.57-.48h0a.63.63,0,0,0-.24,0h0l-.08.06Zm.56-.39h.1a2.09,2.09,0,0,0,1.54-.14,1.15,1.15,0,0,0,.27-.27A.87.87,0,0,0,80,7.78h0l0,0h0a.88.88,0,0,0-.35-.1C79,7.6,78.39,8.09,77.9,9a5.85,5.85,0,0,0-.26.61l0,.11a.54.54,0,0,0,0,.1A.67.67,0,0,1,78.24,9.52Z"/><path class="cls-1" d="M85.6,12.66l-1.86,2.83-.88-.58.18-.68h0A2,2,0,0,1,81.33,14a2.08,2.08,0,0,1-.51-.46A1.46,1.46,0,0,1,81,11.81l1.7-2.6h0l.08,0a1.28,1.28,0,0,1,.33,1.65l0,0v0l-.19.29L82,12.61c-.18.27-.62,1,.05,1.39a1.41,1.41,0,0,0,1.13.08h0l2.08-3.17.08.05a1.27,1.27,0,0,1,.33,1.64l0,0Z"/><path class="cls-1" d="M88.08,19l-.79-.65a1,1,0,0,1-.36-.78L87,15.31l-.68.19c-.93.24-.92.78-1.13,1.12l-1.09-.9a8.13,8.13,0,0,0,2.19-.38l.71-.19.07-3,.91.75a.62.62,0,0,1,.23.49l0,1.55a2.16,2.16,0,0,0,1.26-.85l.76.63a10.27,10.27,0,0,0-2,.38Z"/><path class="cls-1" d="M89.33,19.87a.57.57,0,0,1-.59-.56.59.59,0,0,1,.57-.59.58.58,0,0,1,.58.57A.57.57,0,0,1,89.33,19.87Z"/><path class="cls-1" d="M94.71,18.48l-.36.35.79.85-.14.13L94.21,19l-3.27,3-.87-.94,3.27-3L93,17.61l.14-.13.38.41.24-.23a1.53,1.53,0,0,1,2.32.06,2.79,2.79,0,0,1,.68,1.47l-.13,0a1.91,1.91,0,0,0-.41-.77A1,1,0,0,0,94.71,18.48Z"/><path class="cls-1" d="M97.61,22.73l-.86.69,0,0a1,1,0,0,0-.19-.78,1,1,0,0,0-.39-.29.94.94,0,0,0-.47-.06h0a.89.89,0,0,0-.39.12l-.08,0-2.32,1.86-.79-1,3.62-2.9.06.07a1.27,1.27,0,0,1,.2.84,1.31,1.31,0,0,1-.42.8l-.16.13h0a1.61,1.61,0,0,1,1.94.2c.1.12.19.25.23.3Z"/></g></g></g></svg>