<svg xmlns="http://www.w3.org/2000/svg" viewBox="0 0 108.77 108.77"><defs><style>.cls-1{fill:#fff;}.cls-2{fill:#fcfcfc;}.cls-3{fill:#1d1d1b;}</style></defs><g id="Calque_2" data-name="Calque 2"><g id="Etiquettes_6" data-name="Etiquettes 6"><g id="Formes"><circle class="cls-1" cx="54.38" cy="54.38" r="54.38"/><path d="M54.38,106.29a51.91,51.91,0,1,1,51.91-51.91A52,52,0,0,1,54.38,106.29Zm0-102.81a50.91,50.91,0,1,0,50.91,50.9A51,51,0,0,0,54.38,3.48Z"/></g><g id="Personnage"><path class="cls-1" d="M62.5,63.65s9.07,16.05-13.73,14l-1.54,5.45s36.19,5.3,18.9-23.23Z"/><path d="M53.48,84a47.31,47.31,0,0,1-6.32-.41l-.56-.08,1.8-6.4.41,0c7.38.66,12.1-.5,14-3.47,2.52-3.89-.72-9.73-.76-9.79l-.18-.33,4.35-4.5.33.56c4.94,8.14,6,14.39,3.25,18.58C66.6,83.05,59,84,53.48,84Zm-5.61-1.33c3,.34,16.76,1.53,21.11-5,2.48-3.75,1.49-9.45-2.94-17l-2.93,3c.7,1.37,3.06,6.61.56,10.49-2.1,3.24-7,4.58-14.53,4Z"/><path d="M47.63,84.41,51.1,72.24l-12-3.56-1.83,5.54,1.17.6-.58,1.64-1.31-.31s-5.89,8.58,3.16,14.12c0,0-1.34-4.58.62-7.07Z"/><path class="cls-2" d="M56.76,32.66l-6.59-4.4A3.47,3.47,0,0,0,46,29c-2.17,2-9.58,11-9.58,11S13.66,33.49,15.32,62.21c0,0-5.49-1-2,5.75s8.17.38,8.17-2l-1.92,4.18s3.41,4,6.21,1.06l.9-4.6S25,72.13,28.55,71.36s5.15-2.21,2.3-8.42l1.7,3.91S39.06,60.94,30,59l.47-3.74L47.32,72.64s3.15,1.53,3.49,11.91l-.26,2.64h6.81L52.3,68.85l-17.83-17,18.4-19.75,3.89.6"/><path d="M57.36,87.69H50.55a.52.52,0,0,1-.37-.16.51.51,0,0,1-.12-.39l.25-2.63C50,74.76,47.12,73.1,47.09,73.08L47,73,30.84,56.37l-.29,2.26c2.68.64,4.25,1.74,4.66,3.26.69,2.56-2.2,5.22-2.32,5.33l-.11.08a4.06,4.06,0,0,1-.33,2.32c-.69,1.39-2.31,1.91-3.79,2.23a2.21,2.21,0,0,1-2.21-.51l-.19-.24,0,.14a.5.5,0,0,1-.13.25,3.64,3.64,0,0,1-2.78,1.23,6.47,6.47,0,0,1-4-2.17,4.47,4.47,0,0,1-1.66.83c-1.29.31-3.16,0-4.79-3.2-1.29-2.54-1.53-4.39-.7-5.49a3.1,3.1,0,0,1,2.66-1c-.44-9.32,1.66-15.9,6.25-19.57C26.81,37.47,34.52,39,36.2,39.44c1.23-1.48,7.42-8.91,9.41-10.78a4,4,0,0,1,4.83-.83L57,32.25a.5.5,0,0,1-.35.91l-3.64-.57L35.17,51.79l17.48,16.7a.59.59,0,0,1,.14.23l5.05,18.34a.47.47,0,0,1-.08.43A.49.49,0,0,1,57.36,87.69Zm-6.26-1h5.61L51.86,69.11,34.12,52.17a.51.51,0,0,1,0-.7L52.5,31.72a.52.52,0,0,1,.44-.16l1.66.26-4.71-3.15a3,3,0,0,0-3.59.72c-2.12,2-9.46,10.84-9.53,10.93a.51.51,0,0,1-.52.16c-.09,0-8.62-2.38-14.59,2.4-4.41,3.53-6.38,10-5.84,19.3a.52.52,0,0,1-.17.41.5.5,0,0,1-.42.11s-1.66-.28-2.3.59c-.4.53-.59,1.73.79,4.44,1.07,2.11,2.3,3,3.67,2.68A4.34,4.34,0,0,0,19.5,69L21,65.71a.5.5,0,0,1,.56-.28.5.5,0,0,1,.4.49,6.37,6.37,0,0,1-1.61,3.6l-.21.47a5.34,5.34,0,0,0,3.23,1.73,2.51,2.51,0,0,0,1.92-.82l.54-2.76a11,11,0,0,1,.34-1.73.5.5,0,0,1,1,.24l-.31,1.61a3.3,3.3,0,0,0,.36,2.39c.1.11.39.41,1.27.22,1.77-.38,2.7-.89,3.11-1.7.49-1,.26-2.6-.69-4.93l-.48-1.1a.5.5,0,0,1,.92-.41c.18.4.35.79.5,1.15l.9,2.09c.72-.8,1.92-2.41,1.53-3.82-.33-1.21-1.79-2.1-4.34-2.64a.5.5,0,0,1-.4-.55L30,55.21a.51.51,0,0,1,.34-.41.51.51,0,0,1,.52.13l16.8,17.31c.56.35,3.36,2.59,3.68,12.3Z"/><path class="cls-1" d="M53.2,31.73,34.88,49.94a1.78,1.78,0,0,0,0,2.55L53.74,70.2a1.78,1.78,0,0,0,2.5-.06L74.67,51a1.78,1.78,0,0,0-.1-2.57L55.63,31.66A1.78,1.78,0,0,0,53.2,31.73Z"/><path d="M55,71.18a2.28,2.28,0,0,1-1.56-.61L34.57,52.86a2.27,2.27,0,0,1,0-3.28l18.32-18.2A2.26,2.26,0,0,1,56,31.29L74.9,48.1A2.26,2.26,0,0,1,75,51.38L56.6,70.49A2.26,2.26,0,0,1,55,71.18Zm-.51-39.47a1.28,1.28,0,0,0-.9.38L35.23,50.29a1.3,1.3,0,0,0-.38.93,1.27,1.27,0,0,0,.41.91L54.09,69.84a1.28,1.28,0,0,0,1.79,0l18.43-19.1a1.26,1.26,0,0,0,.36-.94,1.29,1.29,0,0,0-.43-.9L55.3,32A1.25,1.25,0,0,0,54.45,31.71Z"/><line class="cls-2" x1="42.06" y1="56.72" x2="60.58" y2="38.79"/><path d="M42.06,57.22a.5.5,0,0,1-.34-.86L60.24,38.43a.5.5,0,0,1,.69.72L42.41,57.08A.47.47,0,0,1,42.06,57.22Z"/><line class="cls-1" x1="68.62" y1="55.42" x2="49.21" y2="38.79"/><rect x="58.41" y="34.32" width="1" height="25.56" transform="translate(-15.19 61.18) rotate(-49.4)"/><line class="cls-1" x1="42.33" y1="46.16" x2="67.8" y2="46.16"/><rect x="42.33" y="45.66" width="25.47" height="1"/><ellipse class="cls-2" cx="61.18" cy="39.63" rx="5.6" ry="2.94" transform="translate(-2.05 3.37) rotate(-3.1)"/><path d="M60.75,43.07c-3.13,0-5.56-1.31-5.66-3.11s2.49-3.58,5.9-3.77a9.22,9.22,0,0,1,4.23.69,3,3,0,0,1,2,2.42,3,3,0,0,1-1.76,2.61,9.18,9.18,0,0,1-4.14,1.15Zm.86-5.89h-.56c-3,.17-5,1.54-5,2.71s2.22,2.32,5.22,2.16a8.2,8.2,0,0,0,3.67-1c.85-.51,1.32-1.13,1.29-1.71h0c0-.58-.57-1.15-1.46-1.56A7.87,7.87,0,0,0,61.61,37.18Z"/><ellipse class="cls-2" cx="49.92" cy="39.23" rx="2.94" ry="5.6" transform="translate(6.44 85.5) rotate(-84.94)"/><path d="M50.6,42.7c-.32,0-.65,0-1,0a9.23,9.23,0,0,1-4.1-1.29,3,3,0,0,1-1.67-2.68A3,3,0,0,1,46,36.35a9.16,9.16,0,0,1,4.25-.54c3.41.3,5.94,2,5.77,4a3,3,0,0,1-2.12,2.34A8.55,8.55,0,0,1,50.6,42.7Zm-1.37-5.93a7.55,7.55,0,0,0-2.88.51c-.91.38-1.46.92-1.51,1.5s.4,1.22,1.22,1.75a8.31,8.31,0,0,0,3.64,1.13,8.22,8.22,0,0,0,3.78-.47c.91-.38,1.46-.93,1.51-1.51.11-1.17-1.82-2.61-4.86-2.87C49.83,36.78,49.53,36.77,49.23,36.77Z"/><path class="cls-2" d="M52.69,55.64a3.15,3.15,0,0,0-3.19.51,3.2,3.2,0,0,0-.83,2.71,4.28,4.28,0,0,0,3.38,3.29L58.12,62a3.38,3.38,0,0,0,3.09-2,3.3,3.3,0,0,0-1.08-3.9,3.55,3.55,0,0,0-3-.25c-1.26.46-1.41,1.37-2.26,1.34S53.9,56.11,52.69,55.64Z"/><path d="M52.05,62.65l-.12,0a4.74,4.74,0,0,1-3.75-3.7,3.64,3.64,0,0,1,1-3.15,3.7,3.7,0,0,1,3.71-.61h0a3.41,3.41,0,0,1,1.38,1c.29.32.4.42.61.43s.33-.08.65-.38a4,4,0,0,1,1.41-.93,4.06,4.06,0,0,1,3.49.31,3.81,3.81,0,0,1,1.26,4.5,3.87,3.87,0,0,1-3.55,2.35l-6,.16Zm-.56-6.73a2.39,2.39,0,0,0-1.65.6,2.69,2.69,0,0,0-.67,2.27,3.75,3.75,0,0,0,2.94,2.86l6-.16a2.88,2.88,0,0,0,2.65-1.73,2.79,2.79,0,0,0-.9-3.29,3.08,3.08,0,0,0-2.58-.2,2.91,2.91,0,0,0-1.08.72,1.85,1.85,0,0,1-1.37.65,1.77,1.77,0,0,1-1.32-.77,2.5,2.5,0,0,0-1-.77A3,3,0,0,0,51.49,55.92Z"/><circle class="cls-2" cx="48.96" cy="48.11" r="5.52"/><path d="M49,54.13a6,6,0,1,1,6-6A6,6,0,0,1,49,54.13Zm0-11a5,5,0,1,0,5,5A5,5,0,0,0,49,43.09Z"/><circle class="cls-2" cx="60.58" cy="48.41" r="5.52"/><path d="M60.58,54.43a6,6,0,1,1,6-6A6,6,0,0,1,60.58,54.43Zm0-11a5,5,0,1,0,5,5A5,5,0,0,0,60.58,43.39Z"/><path d="M57.16,48.11a3.31,3.31,0,1,0,3.6-3.26,5.49,5.49,0,0,0-1.3.17l.59,2.63L58,46.05A6.72,6.72,0,0,0,57.16,48.11Z"/><path d="M45.72,48.11a3.31,3.31,0,1,0,3.61-3.26A5.52,5.52,0,0,0,48,45l.59,2.63-2-1.6A6.65,6.65,0,0,0,45.72,48.11Z"/><path d="M60,85.67,47.39,85.1l-.7,12.51,5.81.51.32-1.28,1.72.19v1.34s9.7,3.77,13-6.32c0,0-4.15,2.36-7,1Z"/><path class="cls-1" d="M70.81,74.81s8.44,12.79,24.1-14.73"/><path class="cls-3" d="M76.54,78.28a7.7,7.7,0,0,1-6.15-3.19l.84-.55a6.64,6.64,0,0,0,5.56,2.73C80.4,77.15,86.4,74,94.48,59.83l.87.5C88.67,72.05,82.43,78.09,76.8,78.27Z"/><line class="cls-1" x1="73.1" y1="52.66" x2="78.09" y2="56.72"/><rect class="cls-3" x="75.09" y="51.48" width="1" height="6.43" transform="translate(-14.55 78.76) rotate(-50.83)"/><path class="cls-1" d="M79.81,53.36S78,58.21,76.36,59.49"/><path class="cls-3" d="M76.67,59.89l-.61-.8c1.26-1,2.8-4.59,3.28-5.9l.94.34C80.2,53.74,78.42,58.54,76.67,59.89Z"/><g id="Pistolet"><path d="M87.49,62.9l-.24-.55c-.09-.18-8.31-18.71-9.56-21a3.49,3.49,0,0,1-.54-2.66,1.61,1.61,0,0,1,.62-.88l3.13-4.7L98.38,55.53ZM81,34.85l-2.5,3.75-.12.06c-.28.17-.57.83.21,2.25,1.17,2.09,8,17.34,9.36,20.49l9-6.09Z"/><path d="M77.53,40.19l-.34-.08a3.31,3.31,0,0,1-2.43-3.59l.38-3.41a2.28,2.28,0,0,1,1.15-1.87c1.73-.92,4.68.55,5,.72l.33.17-.48,2.47Zm.13-8.25a2,2,0,0,0-.9.18,1.3,1.3,0,0,0-.62,1.11l-.39,3.38A2.49,2.49,0,0,0,77.08,39l3.17-4.9.26-1.45A7.87,7.87,0,0,0,77.66,31.94Z"/><path d="M88,43.89l-7.54-10.3L87.51,22.5l13.55,12.85ZM81.67,33.55l6.58,9,11.2-7.33L87.71,24.06Z"/><polygon points="87.61 23.66 84.77 28.3 96 37.7 99.62 35.53 87.61 23.66"/><path d="M96,38.31,84.11,28.4l3.4-5.54,12.92,12.77ZM85.42,28.19l10.63,8.9,2.76-1.65-11.1-11Z"/><rect x="88.21" y="31.94" width="1.15" height="1.15"/><path d="M89.86,33.59H87.71V31.44h2.15Zm-1.15-1h.15v-.15h-.15Z"/><rect x="88.16" y="36.05" width="1.15" height="1.15"/><path d="M89.81,37.7H87.66V35.55h2.15Zm-1.15-1h.15v-.15h-.15Z"/><rect x="92.1" y="35.99" width="1.15" height="1.15"/><path d="M93.74,37.64H91.6V35.49h2.14Zm-1.14-1h.14v-.15H92.6Z"/><rect x="83.97" y="36.02" width="1.15" height="1.15"/><path d="M85.62,37.67H83.47V35.52h2.15Zm-1.15-1h.15v-.15h-.15Z"/><rect x="84.04" y="32.14" width="1.15" height="1.15"/><path d="M85.69,33.79H83.54V31.64h2.15Zm-1.15-1h.15v-.15h-.15Z"/><rect x="88.03" y="40.14" width="1.15" height="1.15"/><path d="M89.68,41.79H87.53V39.64h2.15Zm-1.15-1h.15v-.15h-.15Z"/><rect x="91.78" y="39.76" width="0.77" height="0.57"/><path d="M92.88,40.59H91.45V39.51h1.43Zm-.77-.5h.1V40h-.1Z"/><path class="cls-1" d="M93.57,24.76s-2.37-4,.16-6.8l10.62,11s-2.2,2.61-6.22.64Z"/><path class="cls-1" d="M101,31.81a8,8,0,0,1-3.54-.89,1.48,1.48,0,0,1-.43-.31l-4.56-4.82a1.78,1.78,0,0,1-.21-.27c-.12-.21-2.88-5,.34-8.57a1.52,1.52,0,0,1,1.09-.49,1.46,1.46,0,0,1,1.1.46l10.63,11a1.49,1.49,0,0,1,.07,2A6,6,0,0,1,101,31.81Zm-2-3.47a4.21,4.21,0,0,0,3,.33L94.1,20.51a6,6,0,0,0,.69,3.36Z"/><path class="cls-1" d="M97.63,25.16a6.56,6.56,0,0,1,1.78-6.63c1.47-1.26,4.14-2.13,5.51-.92s.85,4.27-.56,6A6.24,6.24,0,0,1,97.63,25.16Z"/><path d="M101.14,30.93a6.88,6.88,0,0,1-3.09-.79L97.9,30l-4.63-4.91c-.1-.18-2.52-4.38.22-7.39l.36-.4L105.16,29l-.29.35A5.14,5.14,0,0,1,101.14,30.93Zm-2.57-1.65c2.73,1.31,4.51.31,5.21-.24L93.9,18.83c-1.58,2.3,0,5.34.21,5.74Z"/><path d="M98.77,34.87l-10.2-10,5.36-.33,4.84,5Zm-7.9-9.16,6.9,6.78v-2.6l-4.23-4.35Z"/><path class="cls-1" d="M99.55,23.19a3.74,3.74,0,0,1,1.11-3.74c.85-.7,2.39-1.16,3.15-.45s.42,2.44-.41,3.38A3.55,3.55,0,0,1,99.55,23.19Z"/><path class="cls-3" d="M100.93,23.93a4.72,4.72,0,0,1-1.54-.27l-.27-.09-.06-.27a4.24,4.24,0,0,1,1.28-4.24c.92-.75,2.76-1.4,3.81-.43s.64,2.93-.37,4.08A3.76,3.76,0,0,1,100.93,23.93ZM100,22.8a3,3,0,0,0,3-.75c.73-.83,1-2.21.44-2.68s-1.76-.14-2.49.46A3.16,3.16,0,0,0,100,22.8Z"/></g><path class="cls-1" d="M80.47,53.4a5.56,5.56,0,0,1-2.38-3.74,5.16,5.16,0,0,1,2.63-5.28c2.32-1.1,4.7.45,5.83,1.19.35.23,4.84,3.24,3.83,6.47a4.25,4.25,0,0,1-4,2.9,4.42,4.42,0,0,1-4.12-3.71"/><path class="cls-3" d="M86.46,55.44h-.09a4.94,4.94,0,0,1-4.61-4.11l1-.19a3.92,3.92,0,0,0,3.64,3.3,3.78,3.78,0,0,0,3.52-2.55c.9-2.9-3.44-5.78-3.63-5.9-1.07-.69-3.28-2.14-5.34-1.16a4.64,4.64,0,0,0-2.36,4.76A5.11,5.11,0,0,0,80.75,53l-.56.83a6.13,6.13,0,0,1-2.6-4.09,5.66,5.66,0,0,1,2.92-5.8c2.57-1.22,5.1.43,6.32,1.23.53.34,5.13,3.48,4,7A4.76,4.76,0,0,1,86.46,55.44Z"/><path class="cls-1" d="M94.3,57.7c.52.09.14,2.27.81,2.56s3.24-1.75,3.19-4.17c-.06-2.66-3.11-4.08-3.49-4.26C93,51,89.51,50.41,88,52.55a4.17,4.17,0,0,0,.21,4.85c1.5,1.86,4.39,1.91,5.41.94C93.91,58.06,94.07,57.66,94.3,57.7Z"/><path class="cls-3" d="M95.3,60.79a1,1,0,0,1-.39-.07c-.63-.27-.7-1.12-.77-1.87,0-.09,0-.2,0-.31a1.14,1.14,0,0,1-.15.16,3.56,3.56,0,0,1-2.64.76,4.89,4.89,0,0,1-3.5-1.74,4.69,4.69,0,0,1-.23-5.45c1.69-2.4,5.37-1.85,7.43-.89.87.4,3.72,1.94,3.78,4.69a5.4,5.4,0,0,1-2.34,4.28A2.2,2.2,0,0,1,95.3,60.79Zm-1-3.59h.12c.63.11.69.84.76,1.55a3,3,0,0,0,.19,1.05,2.6,2.6,0,0,0,.94-.57A4.37,4.37,0,0,0,97.8,56.1c0-2.18-2.46-3.47-3.2-3.82-1.69-.78-4.86-1.32-6.19.56a3.71,3.71,0,0,0,.19,4.25,3.85,3.85,0,0,0,2.78,1.37A2.67,2.67,0,0,0,93.27,58a1.37,1.37,0,0,0,.22-.27A1.06,1.06,0,0,1,94.26,57.2Z"/><path class="cls-1" d="M96.17,46c.42-1.75-.92-3.83-2.68-4.72a5.35,5.35,0,0,0-6.21,1.36c-.28.31-1.8,2.1-1.15,3.87a3.85,3.85,0,0,0,2.42,2.05C91.25,49.58,95.54,48.66,96.17,46Z"/><path class="cls-3" d="M90.9,49.48a7.7,7.7,0,0,1-2.52-.41,4.35,4.35,0,0,1-2.72-2.34c-.72-2,.77-3.85,1.24-4.38a5.83,5.83,0,0,1,6.82-1.48c1.84.94,3.44,3.17,2.94,5.29h0a3.89,3.89,0,0,1-2.08,2.46A7.89,7.89,0,0,1,90.9,49.48Zm.5-8.15A5.23,5.23,0,0,0,87.65,43c-.27.31-1.59,1.9-1.05,3.37a3.38,3.38,0,0,0,2.12,1.75,7.22,7.22,0,0,0,5.38-.39,2.94,2.94,0,0,0,1.58-1.81h0c.34-1.42-.77-3.33-2.42-4.16A4,4,0,0,0,91.4,41.33Z"/><path class="cls-1" d="M99,49.53a5.24,5.24,0,0,0-2-3.15,5,5,0,0,0-3.15-.81,5.47,5.47,0,0,0-3.49,1.66c-.53.56-1.39,1.45-1.23,2.47s1,1.44,2.51,2.26a8,8,0,0,0,4.85,1.4A3.23,3.23,0,0,0,99,52.3,3.34,3.34,0,0,0,99,49.53Z"/><path class="cls-3" d="M95.94,53.89a9.11,9.11,0,0,1-4.52-1.49c-1.56-.88-2.59-1.45-2.77-2.62s.79-2.28,1.37-2.89a5.86,5.86,0,0,1,3.82-1.81,5.33,5.33,0,0,1,3.47.89A5.76,5.76,0,0,1,99.5,49.4h0a3.78,3.78,0,0,1-.06,3.17,3.67,3.67,0,0,1-2.88,1.29Zm-1.67-7.83h-.36a4.89,4.89,0,0,0-3.17,1.51c-.48.51-1.21,1.27-1.1,2.05s.81,1.08,2.26,1.89a7.61,7.61,0,0,0,4.56,1.34c.72-.07,1.7-.17,2.14-.84a3,3,0,0,0-.06-2.35h0a4.72,4.72,0,0,0-1.8-2.87A4.33,4.33,0,0,0,94.27,46.06Z"/><path class="cls-2" d="M51.32,58a4.27,4.27,0,0,0,7,0"/><path d="M54.82,60.29a5,5,0,0,1-3.91-2,.51.51,0,0,1,.12-.7.5.5,0,0,1,.7.12,4,4,0,0,0,3.1,1.62h.06a4,4,0,0,0,3-1.58.5.5,0,0,1,.81.58,4.93,4.93,0,0,1-3.8,2Z"/></g><g id="Texte"><path d="M12.55,44.46a1.85,1.85,0,0,1,.67,1.73,1.71,1.71,0,0,1-2.1,1.39,1.84,1.84,0,0,1-1.59-2.19,1.74,1.74,0,0,1,.82-1.26l.39.63c-.5.2-1,.15-1.1.56s.44,1,1.42,1.17,1.73-.15,1.85-.8a1.32,1.32,0,0,0-.42-1.15Z"/><path d="M12.51,42.88a.58.58,0,0,0,.25.07h.14a1,1,0,0,0,.81-.72A1.27,1.27,0,0,0,13.4,41l.07-.07A1.83,1.83,0,0,1,14,42.75a1.7,1.7,0,0,1-2.21,1.19,1.84,1.84,0,0,1-1.46-1.87,1.76,1.76,0,0,1,.07-.45s0,0,0,0a1.69,1.69,0,0,1,.29-.63l.12-.14c.49-.53,1.09-.62,1.51-.23.6.55.06,1.53.06,2h0a.48.48,0,0,0,.05.18v0l.06.06Zm-.39-.36v-.08a1.59,1.59,0,0,0-.36-1.14.63.63,0,0,0-.25-.16.67.67,0,0,0-1,.36h0s0,0,0,0v0a.54.54,0,0,0,0,.28c.06.43.53.8,1.33,1a2.6,2.6,0,0,0,.5.1h.17A.53.53,0,0,1,12.12,42.52Z"/><path d="M11.88,37.17l.81.28v0a.75.75,0,0,0-.44.45.82.82,0,0,0,0,.38.71.71,0,0,0,.15.33h0a.91.91,0,0,0,.24.2l.05,0,2.19.76-.33.94-3.4-1.2,0-.07a.94.94,0,0,1,.47-.47,1,1,0,0,1,.7-.06l.15.06h0a1.22,1.22,0,0,1-.66-1.36c0-.12.08-.23.09-.28Z"/><path d="M16,35.93a1.76,1.76,0,0,1-.07,1.15.86.86,0,0,1-1.25.52l-2.39-1-.18.4L12,36.94l.17-.4h0l-.89-.38h0a.25.25,0,0,1,0-.07,1,1,0,0,1,.5-.46,1,1,0,0,1,.71,0h0l.38-.88.59.24h0c-.47.25-.7.33-.82.62l0,.06,2.42,1c.16.07.57.24.76-.19a1.22,1.22,0,0,0,.05-.57Z"/><path d="M12.39,33.63a.5.5,0,0,1-.27-.78.5.5,0,0,1,.79.6A.48.48,0,0,1,12.39,33.63Zm2.17,0,2.36,1.15-.43.88-3.25-1.57A1,1,0,0,1,14.56,33.6Z"/><path d="M14.41,31.28l.33.18.44-.75.12.07-.43.75,2.88,1.66-.48.83-2.88-1.66-.21.36-.12-.07.21-.36-.22-.12a1.14,1.14,0,0,1-.47-1.67A2,2,0,0,1,14,30h0l0,0a.52.52,0,0,0,.19-.22.54.54,0,0,0,0-.23h0a.45.45,0,0,1,.11-.38.49.49,0,0,1,.51-.14.48.48,0,0,1-.15.93h0a.76.76,0,0,0-.62.27.56.56,0,0,1,0,.08A.7.7,0,0,0,14.41,31.28ZM16.69,30l2.18,1.25-.47.83-3-1.73A1,1,0,0,1,16.69,30Z"/><path d="M20.31,27.64a1.85,1.85,0,0,1-.14,1.85,1.71,1.71,0,0,1-2.49.36,1.86,1.86,0,0,1-.5-2.67,1.76,1.76,0,0,1,1.28-.79l.08.74c-.53,0-1-.3-1.23,0s0,1.09.78,1.67,1.63.6,2,.06a1.32,1.32,0,0,0,.12-1.22Z"/><path d="M23.44,24.94l0,0a1.47,1.47,0,0,1-.32.72.63.63,0,0,1-.68.26A2,2,0,0,1,22,27.09c-.55.65-1.25.79-1.77.35-.89-.75.15-2.3-.29-2.67a.27.27,0,0,0-.31,0h0a.12.12,0,0,0-.05,0h0a.89.89,0,0,0-.15.17,1,1,0,0,0-.12.38l-.23,0a1.49,1.49,0,0,1,.51-1.25,1.68,1.68,0,0,1,2.23,0h0l1,.84c.25.21.39.33.6.09A.59.59,0,0,0,23.44,24.94Zm-1.13.94h0L21,24.78l0,0,0,0c-.67-.56-1.11-.88-1.46-.57a.45.45,0,0,0-.05.5.42.42,0,0,1,.6-.06c.44.37.06,1.35.72,1.91a.8.8,0,0,0,1.21-.12A1.18,1.18,0,0,0,22.31,25.88Z"/><path d="M25,23.21a1.78,1.78,0,0,1-.48,1.05.86.86,0,0,1-1.36,0l-1.86-1.81-.31.32-.1-.1.29-.31h0l-.69-.68h0s0,0,0-.05a1,1,0,0,1,.64-.24.93.93,0,0,1,.66.24l0,0h0l.67-.69.47.45h0c-.53,0-.78,0-1,.27l0,.05,1.88,1.84c.12.12.45.43.77.1a1.06,1.06,0,0,0,.26-.51Z"/><path d="M22.48,19.76a.49.49,0,0,1,0-.82.48.48,0,0,1,.55,0,.5.5,0,0,1,0,.82A.48.48,0,0,1,22.48,19.76Zm2,.76,1.78,1.93-.73.67-2.45-2.65A1,1,0,0,1,24.52,20.52Z"/><path d="M28.57,20.56A1.8,1.8,0,0,1,26,21.1a1.86,1.86,0,0,1-.49-2.69,1.8,1.8,0,0,1,2.62-.54A1.86,1.86,0,0,1,28.57,20.56Zm-1-1.79c-.9-.61-1.69-.75-2-.28s.1,1.12,1,1.72,1.68.74,2,.27S28.41,19.36,27.53,18.77Z"/><path d="M31.5,15.59l1.31,2-.82.54-1.37-2.1c-.14-.21-.49-.73-1-.39a1,1,0,0,0-.44.74l1.64,2.52-.83.54-1.75-2.68.16-.1a.51.51,0,0,0,.71-.38,1.57,1.57,0,0,1,.71-1.14A1.09,1.09,0,0,1,31.5,15.59Z"/><path d="M37.38,15.32a1.79,1.79,0,0,1-2.66-.13,1.86,1.86,0,0,1,.18-2.73,1.8,1.8,0,0,1,2.67.13A1.86,1.86,0,0,1,37.38,15.32Zm-.56-2c-.73-.81-1.46-1.14-1.88-.76s-.18,1.1.54,1.9,1.44,1.14,1.86.76S37.52,14.11,36.82,13.32Z"/><path d="M41.91,11.63A2.09,2.09,0,0,1,42,12.78a1.8,1.8,0,0,1-.66,1,1.77,1.77,0,0,1-.49.26,1.47,1.47,0,0,1-1,0l.56,1.66-.93.31L38,11.56l.18-.06a.5.5,0,0,0,.78-.19,1.65,1.65,0,0,1,.77-.84l.14-.06a1.47,1.47,0,0,1,1.16.1A2,2,0,0,1,41.91,11.63Zm-1,.41c-.38-1.12-.82-1.42-1.29-1.26a1,1,0,0,0-.36.23h0a1.39,1.39,0,0,0-.28.45l.72,2.12a.84.84,0,0,0,1,.41.7.7,0,0,0,.46-.63A2.9,2.9,0,0,0,40.94,12Z"/><path d="M45.53,8.89,46.71,14l-1,.22-.46-2a1.48,1.48,0,0,1-1,.8,1.64,1.64,0,0,1-1.91-1.42A1.83,1.83,0,0,1,43.7,9.34,2.19,2.19,0,0,1,45,9.41l.46-.51Zm-.78,1a.85.85,0,0,0-.9-.51c-.56.13-.71.85-.46,1.94s.68,1.47,1.18,1.36a1,1,0,0,0,.68-.61Z"/><path d="M49.91,9.35,50.27,12l-.81.12-.24-.49h0a1.57,1.57,0,0,1-1.11.76,1.85,1.85,0,0,1-.53,0c-.45-.1-.74-.46-.83-1.1l-.33-2.39h.08a.94.94,0,0,1,.65.2,1,1,0,0,1,.38.59v0l0,.27.17,1.24c0,.25.12.88.74.79a1.13,1.13,0,0,0,.71-.54h0l-.41-2.93h.07a1,1,0,0,1,.66.19,1,1,0,0,1,.38.6v0Z"/><path d="M54.38,11.58v0a1.47,1.47,0,0,1-.75.25.63.63,0,0,1-.65-.33,2,2,0,0,1-1.17.43c-.85,0-1.42-.39-1.45-1.07,0-1.16,1.79-1.45,1.77-2a.26.26,0,0,0-.19-.24h-.09a.62.62,0,0,0-.23,0,.76.76,0,0,0-.36.16l-.15-.18a1.53,1.53,0,0,1,1.28-.47,1.67,1.67,0,0,1,1.47,1.66l0,1.29c0,.32,0,.51.33.5Zm-1.45-.19h0L52.87,9.7h0c0-.87-.11-1.41-.57-1.46-.19,0-.3.11-.41.3a.44.44,0,0,1,.46.4c0,.58-1,1-.92,1.82a.8.8,0,0,0,.9.81A1.21,1.21,0,0,0,52.93,11.39Z"/><path d="M57.43,10.86c0,.62-.55,1.13-1.54,1.09a3.39,3.39,0,0,1-1.34-.34l.24-.69c.46.09.64.92,1.2.94s.8-.21.82-.55-.37-.59-.79-.77l-.28-.12c-.39-.17-1.06-.47-1-1.18s.54-1.1,1.46-1.06a3.21,3.21,0,0,1,1.18.31l-.24.73c-.26-.14-.52-.92-1-1s-.72.21-.73.52.4.57.79.74l.27.12C56.78,9.82,57.46,10.11,57.43,10.86Z"/><path d="M60.12,11.94A1.81,1.81,0,0,1,59,12.2a.86.86,0,0,1-.85-1.06l.3-2.58L58,8.51l0-.14.42,0h0l.11-1h.08a1.05,1.05,0,0,1,.58.35,1,1,0,0,1,.21.68v0h0v0l1,.11-.06.64h0c-.37-.39-.52-.59-.83-.62h-.07l-.3,2.62c0,.17-.07.61.4.67a1.16,1.16,0,0,0,.56-.1Z"/><path d="M63.07,10.88l0-.23,1.41.32,0,.24Z"/><path d="M70.2,14.12l-.51.7-3-1.09v0l.5-.25c1.26-.6,2.44-1.27,2.79-2.23a.94.94,0,0,0-.56-1.31,1.39,1.39,0,0,0-1.3.24l-.06-.07a2,2,0,0,1,2-.41,1.36,1.36,0,0,1,1,1.78c-.33.9-1.42,1.29-3.38,1.9l.41.15A14,14,0,0,0,70.2,14.12Z"/><path d="M71.41,12.93c.73-1.5,1.84-2,3-1.43s1.48,1.66.77,3.12-1.85,2-3,1.42S70.7,14.39,71.41,12.93Zm2.74,1.3c.63-1.31.79-2.35.18-2.65s-1.3.48-1.91,1.74-.8,2.35-.19,2.65S73.53,15.49,74.15,14.23Z"/><path d="M77.75,18.19l-.63.57L74.44,17.1v0l.54-.14c1.36-.33,2.65-.75,3.18-1.62a.94.94,0,0,0-.28-1.4,1.38,1.38,0,0,0-1.32,0l0-.08a2,2,0,0,1,2.06,0,1.35,1.35,0,0,1,.58,1.93c-.5.82-1.65,1-3.69,1.18l.38.23A15.36,15.36,0,0,0,77.75,18.19Z"/><path d="M79.16,17.23c1-1.31,2.2-1.56,3.2-.8s1.13,1.92.13,3.22-2.21,1.56-3.21.79S78.17,18.53,79.16,17.23Zm2.43,1.83c.88-1.16,1.25-2.15.7-2.56s-1.36.2-2.22,1.32-1.25,2.15-.71,2.56S80.73,20.18,81.59,19.06Z"/></g></g></g></svg>