<svg xmlns="http://www.w3.org/2000/svg" viewBox="0 0 100.77 150.53"><defs><style>.cls-1{fill:#fff;}.cls-2{fill:none;stroke:#000;stroke-miterlimit:10;}.cls-3{fill:#1d1d1b;}</style></defs><g id="Calque_2" data-name="Calque 2"><g id="Etiquette_14" data-name="Etiquette 14"><g id="Forme"><ellipse class="cls-1" cx="50.38" cy="75.27" rx="50.38" ry="75.27"/><ellipse class="cls-2" cx="50.38" cy="75.67" rx="46.64" ry="71.35"/></g><g id="Personnage"><path d="M49.77,98.34l-1-.17a19.86,19.86,0,0,0,.25-5,22.19,22.19,0,0,0-3.42-10A18.77,18.77,0,0,0,43,79.8a36.29,36.29,0,0,1-3-3.72,50.18,50.18,0,0,1-4.3-7.22l.9-.44a50.61,50.61,0,0,0,4.21,7.08,36.48,36.48,0,0,0,3,3.63,19.63,19.63,0,0,1,2.69,3.55A23.21,23.21,0,0,1,50,93.11,21.34,21.34,0,0,1,49.77,98.34Z"/><path d="M44.84,104l-.15-.22A5.34,5.34,0,0,1,45,97.05a5.08,5.08,0,0,1,4-1.25l-.11,1a4.06,4.06,0,0,0-3.17,1,4.37,4.37,0,0,0-.33,5.27l17-.17a8.07,8.07,0,0,0,2.36-6.41A5.88,5.88,0,0,0,62,91.88a5.21,5.21,0,0,0-5-.25c-1.4.8-2.17,2.51-2.29,5.09v.11l-1,0v-.12a33.25,33.25,0,0,0-.84-9,33.54,33.54,0,0,0-6.13-12.83l.8-.61a34.62,34.62,0,0,1,6.3,13.21,33.75,33.75,0,0,1,.81,5.3,4.76,4.76,0,0,1,1.86-2c2.8-1.6,5.71.06,6,.26a6.86,6.86,0,0,1,3.13,5.3,9.19,9.19,0,0,1-2.79,7.4l-.14.14Z"/><path d="M37.35,103.43A13,13,0,0,1,34,103h-.43l0-.55.55-22,.35,0a9.1,9.1,0,0,1,5.69-1.15,10.11,10.11,0,0,1,6.4,3.59l-.8.6A9,9,0,0,0,40,80.24a8.06,8.06,0,0,0-4.93,1l-.53,20.89a10.45,10.45,0,0,0,6.76-.48,8,8,0,0,0,2.46-1.54l.71.71a8.85,8.85,0,0,1-2.71,1.72A10.9,10.9,0,0,1,37.35,103.43Z"/><path d="M45,97.31h0a10.7,10.7,0,0,0-.52-2.74,13.94,13.94,0,0,0-2.3-4.71l-.23-.32.56-.71.44.28c3.15,2.52,5.59,2.58,6,2.37l.62.79c-.61.5-2.74.42-5.34-1.09a14.72,14.72,0,0,1,1.25,3.13,11.61,11.61,0,0,1,.55,3Z"/><path d="M63.66,93c-1.15-.25-2.62,2.45-3.1,3.32a14.27,14.27,0,0,0-1.69,6.61l3.8.12a8.73,8.73,0,0,0,2-3.57C65.49,96.69,64.86,93.25,63.66,93Z"/><path d="M34.68,80.47a3.76,3.76,0,0,0-2.42,2.34q1,19.29,1.57,19.28T34.68,80.47Z"/><path d="M50.39,79.05l-.1-1a9.58,9.58,0,0,0,4.89-2,9.9,9.9,0,0,0,3.48-5.79l1,.19a10.68,10.68,0,0,1-3.84,6.38A10.55,10.55,0,0,1,50.39,79.05Z"/><path d="M57.47,65.36a11.14,11.14,0,0,1-3.14-.45A11.85,11.85,0,0,1,47.25,59l.9-.45A10.48,10.48,0,0,0,62.91,62.9c1.11-.61,4.75-2.86,4.78-5.82a7.41,7.41,0,0,0-.54-2.55l-.09-.23c-.36-.94-.71-1.82-1.33-2.13-1-.48-2.67.28-4.06,1.81l-.74-.68c1.74-1.91,3.85-2.72,5.25-2,1,.47,1.37,1.53,1.81,2.65l.09.23a8.48,8.48,0,0,1,.61,2.93c0,3.51-4.07,6-5.3,6.69A12.24,12.24,0,0,1,57.47,65.36Z"/><path d="M48.89,72.84c-.76,0-1.36,0-1.79-.06a19.41,19.41,0,0,1-8.51-2,11.37,11.37,0,0,1-5.44-4.94c-1.44-2.93-1.59-7.08.63-9A4.12,4.12,0,0,1,37,55.89a3.28,3.28,0,0,1,1.94,1.52A10.7,10.7,0,0,0,40.26,59a10.1,10.1,0,0,0,3.82,2.25,8.91,8.91,0,0,0,5-.06l.28,1a9.82,9.82,0,0,1-5.58.06,11.36,11.36,0,0,1-4.22-2.47A12.64,12.64,0,0,1,38.1,58c-.54-.7-.8-1-1.35-1.14a3.14,3.14,0,0,0-2.32.73c-1.83,1.54-1.63,5.23-.39,7.76a10.6,10.6,0,0,0,5,4.5,18.13,18.13,0,0,0,8.08,1.92A22.36,22.36,0,0,0,55,71,19.53,19.53,0,0,0,62.2,67c.88-.7,2-1.7,1.87-2.37-.08-.34-.46-.6-.77-.76l.46-.89A2.22,2.22,0,0,1,65,64.44c.28,1.21-.9,2.34-2.22,3.38a20.32,20.32,0,0,1-7.51,4.11A22.83,22.83,0,0,1,48.89,72.84Z"/><rect x="36.45" y="57.95" width="1.62" height="1.62"/><path d="M38.56,60.07H36V57.45h2.61Zm-1.61-1h.61v-.62H37Z"/><rect x="36.91" y="64.05" width="1.62" height="1.62"/><path d="M39,66.17H36.41V63.55H39Zm-1.62-1H38v-.62h-.62Z"/><rect x="43.35" y="66.45" width="1.62" height="1.62"/><path d="M45.47,68.56H42.85V66h2.62Zm-1.62-1h.62V67h-.62Z"/><rect x="49.68" y="68.75" width="1.62" height="1.62"/><path d="M51.8,70.86H49.18V68.25H51.8Zm-1.62-1h.62v-.61h-.62Z"/><rect x="55.28" y="65.04" width="1.62" height="1.62"/><path d="M57.39,67.16H54.78V64.54h2.61Zm-1.61-1h.61v-.62h-.61Z"/><rect x="60.28" y="65.92" width="1.62" height="1.62"/><path d="M62.39,68H59.78V65.42h2.61Zm-1.61-1h.61v-.61h-.61Z"/><rect x="50.53" y="64.72" width="1.62" height="1.62"/><path d="M52.65,66.84H50V64.22h2.62Zm-1.62-1h.62v-.62H51Z"/><rect x="47.97" y="63.16" width="1.62" height="1.62"/><path d="M50.08,65.28H47.47V62.66h2.61Zm-1.61-1h.61v-.62h-.61Z"/><rect x="42.49" y="61.94" width="1.62" height="0.72"/><rect x="41.99" y="61.44" width="2.62" height="1.72"/><circle cx="65.46" cy="52.37" r="2.73"/><path d="M65.46,55.6a3.23,3.23,0,1,1,3.23-3.23A3.23,3.23,0,0,1,65.46,55.6Zm0-5.46a2.23,2.23,0,1,0,2.23,2.23A2.23,2.23,0,0,0,65.46,50.14Z"/><circle cx="43.35" cy="56.21" r="1.52"/><path d="M43.35,58.24a2,2,0,1,1,2-2A2,2,0,0,1,43.35,58.24Zm0-3.05a1,1,0,1,0,1,1A1,1,0,0,0,43.35,55.19Z"/><path d="M49.59,57.12A4.12,4.12,0,1,1,53.71,53,4.13,4.13,0,0,1,49.59,57.12Zm0-7.24A3.12,3.12,0,1,0,52.71,53,3.12,3.12,0,0,0,49.59,49.88Z"/><path d="M57.46,57.38a4.12,4.12,0,1,1,4.12-4.12A4.13,4.13,0,0,1,57.46,57.38Zm0-7.24a3.12,3.12,0,1,0,3.12,3.12A3.12,3.12,0,0,0,57.46,50.14Z"/><path d="M41.21,47.85a15.34,15.34,0,0,0-3.66,2.45c-1.43,1.3-2.48,2.25-2.44,3.62a3,3,0,0,0,1.63,2.57c1.77.82,3.71-.86,3.79-.94C42.24,54,42.52,51,41.21,47.85Z"/><path d="M37.79,57.22a2.91,2.91,0,0,1-1.26-.28,3.5,3.5,0,0,1-1.92-3c0-1.59,1.13-2.65,2.61-4A15.62,15.62,0,0,1,41,47.4l.47-.23.2.49c1.39,3.28,1.06,6.6-.81,8.27A5.26,5.26,0,0,1,37.79,57.22ZM41,48.54a14.42,14.42,0,0,0-3.06,2.13c-1.39,1.27-2.31,2.1-2.28,3.23A2.52,2.52,0,0,0,37,56c1.48.69,3.22-.84,3.24-.86C41.66,53.88,41.94,51.26,41,48.54Z"/><path d="M63.43,48.2H36.48V45.77h27Zm-25.95-1h25v-.43h-25Z"/><rect x="41.44" y="43.71" width="16.02" height="1.91"/><path d="M58,46.13h-17V43.21H58Zm-16-1H57v-.92h-15Z"/><path d="M58,43.75h-17V36.38H58Zm-16-1H57V37.38h-15Z"/><path d="M35.83,42.54a4.25,4.25,0,1,1,4.24-4.24A4.25,4.25,0,0,1,35.83,42.54Zm0-7.49a3.25,3.25,0,1,0,3.24,3.25A3.26,3.26,0,0,0,35.83,35.05Z"/><circle cx="35.83" cy="38.3" r="0.99"/><path d="M35.83,39.79a1.49,1.49,0,1,1,1.49-1.49A1.49,1.49,0,0,1,35.83,39.79Zm0-2a.49.49,0,1,0,.49.49A.49.49,0,0,0,35.83,37.81Z"/><path d="M44.33,41.69a14.63,14.63,0,0,0-2.41-3.5c-1.41-1.7-2.11-1.9-2.3-1.74L39,35.66c1.28-1,3.1,1.17,3.69,1.89a16,16,0,0,1,2.57,3.78Z"/><polygon points="83.79 96.59 65.58 96.59 65.58 95.59 82.84 95.59 84.77 62.87 85.76 62.93 83.79 96.59"/><polygon points="85.83 61.76 84.84 61.74 84.87 61.11 85.86 61.16 85.83 61.76"/><polygon points="83.26 56.72 70.94 56.72 70.94 49.19 68.27 50.97 67.72 50.14 71.94 47.32 71.94 55.72 83.26 55.72 83.26 56.72"/><polygon points="14.88 98.54 14.88 64.32 15.88 64.32 15.88 97.47 33.07 96.39 33.14 97.39 14.88 98.54"/><polygon points="30.62 59.09 22.98 59.09 22.98 58.09 29.55 58.09 29.08 50.23 34.82 53.26 34.35 54.15 30.19 51.94 30.62 59.09"/><rect x="67.23" y="84.82" width="14.04" height="1"/><polygon points="78.97 94.04 77.97 94.04 77.97 82.29 76.78 82.29 76.78 81.27 74.61 81.27 74.61 79.05 72.8 79.05 72.8 81.13 70.67 81.17 70.67 82.56 69.48 82.52 69.48 94.04 68.48 94.04 68.48 81.48 69.67 81.53 69.67 80.19 71.8 80.15 71.8 78.05 75.61 78.05 75.61 80.27 77.78 80.27 77.78 81.29 78.97 81.29 78.97 94.04"/><rect x="71.99" y="76.33" width="3.29" height="1.69"/><path d="M75.78,78.52H71.49V75.83h4.29Zm-3.29-1h2.29v-.69H72.49Z"/><polyline points="71.13 85.08 71.13 84.12 71.8 84.12 71.8 82.75 73.27 82.75 73.27 82.04 73.97 82.04 73.97 82.87 75.62 82.87 75.62 83.8 76.52 83.8 76.52 84.95 71.29 85.08"/><path d="M71.3,85.58v-.5h-.66V83.62h.67V82.25h1.47v-.71h1.7v.83h1.65v.93H77v2.14Zm1-2.33v1.3L76,84.46V84.3h-.9v-.93H73.47v-.12Z"/><path d="M78.15,69.55s-.32,5.54,0,5.6,3.13,0,3.13,0v-5.3Z"/><path d="M79.18,75.68a9.1,9.1,0,0,1-1.13,0c-.46-.09-.74-.15-.4-6.11l0-.52,4.1.39v6.24h-.49C80.79,75.66,79.91,75.68,79.18,75.68Zm-.65-1c.46,0,1.35,0,2.25,0V70.31l-2.16-.21C78.52,72,78.47,74,78.53,74.67Z"/><rect x="71.85" y="71.83" width="5.99" height="1" transform="translate(-1.41 143.18) rotate(-86.92)"/><rect x="64.77" y="71.71" width="5.55" height="1" transform="translate(-9.91 133.68) rotate(-85.35)"/><rect x="64.68" y="67.26" width="16.3" height="1" transform="translate(-0.79 0.86) rotate(-0.67)"/><polygon points="68.61 67.69 67.61 67.63 67.89 63.18 76.34 63.18 75.91 67.56 74.92 67.46 75.24 64.18 68.83 64.18 68.61 67.69"/><polygon points="78.63 67.53 77.63 67.44 77.93 64.14 81.14 64.4 80.86 67.53 79.86 67.45 80.05 65.32 78.84 65.22 78.63 67.53"/><rect x="78.9" y="63.05" width="1.62" height="1" transform="matrix(0.09, -1, 1, 0.09, 9.33, 137.31)"/><polygon points="69.06 63.3 69.19 62.32 70.43 62.15 70.32 61.43 70.92 61.21 71.17 60.23 72.32 60.36 72.68 58.53 72.68 60.3 74.17 60.36 74.17 61.21 75 61.38 75 62.21 75.79 62.51 75.45 63.68 69.06 63.3"/><path d="M75.82,64.2l-7.32-.43.24-1.89,1.12-.16-.1-.63.74-.26.3-1.14,1.12.12.27-1.37,1,.09v1.29l1.49.06v.93l.83.17v.89l.9.34Zm-6.19-1.37,5.45.33.1-.34-.68-.26v-.77l-.83-.17v-.78l-.93,0,0,.11-1.18-.13-.21.82-.46.16.12.82-1.35.18Z"/><polygon class="cls-1" points="20.19 65.92 20.19 74 30.6 74 30.6 66.34 20.19 65.92"/><path class="cls-3" d="M31.1,74.5H19.69V65.39l11.41.47Zm-10.41-1H30.1V66.82l-9.41-.38Z"/><polygon class="cls-1" points="20.19 65.04 20.19 63.68 30.6 63.97 30.6 65.85 20.19 65.04"/><path class="cls-3" d="M31.1,66.39l-11.41-.88V63.17l11.41.31ZM20.69,64.58l9.41.73v-.85l-9.41-.26Z"/><polygon class="cls-1" points="24.34 62.66 24.34 60.6 26.19 60.6 26.19 63.16 24.34 63.16 24.34 62.66"/><path class="cls-3" d="M26.69,63.66H23.84V60.1h2.85Zm-1.85-1h.85V61.1h-.85Z"/><polygon class="cls-1" points="19.65 76.33 29.91 77.43 29.38 79.92 19.2 78.55 19.65 76.33"/><path class="cls-3" d="M29.78,80.48,18.61,79l.64-3.2L30.51,77Zm-10-2.35L29,79.36l.31-1.49-9.25-1Z"/><polygon class="cls-1" points="19.17 78.85 18.53 88.36 29.38 89.7 29.38 80.47 19.17 78.85"/><path class="cls-3" d="M29.88,90.27,18,88.8l.71-10.53L29.88,80ZM19.06,87.92l9.82,1.22V80.9l-9.25-1.47Z"/><polyline class="cls-1" points="23.7 76.33 23.96 74.51 26.94 74.72 26.51 76.85 23.36 76.33"/><path class="cls-3" d="M26.91,77.42l-3.63-.6.09-.54-.16,0L23.53,74l4,.29ZM24.26,76l1.85.31.22-1.1L24.39,75Z"/><rect x="23.01" y="67.61" width="1.67" height="1.67"/><path class="cls-3" d="M25.18,69.78H22.51V67.11h2.67Zm-1.67-1h.67v-.67h-.67Z"/><rect x="25.82" y="70.43" width="1.67" height="1.67"/><path class="cls-3" d="M28,72.6H25.32V69.93H28Zm-1.67-1H27v-.67h-.67Z"/><rect x="21.34" y="81.27" width="1.67" height="1.67" transform="translate(9.94 -2.06) rotate(6.84)"/><path class="cls-3" d="M23.34,83.59l-2.65-.32L21,80.62l2.65.32ZM21.8,82.4l.66.08.08-.67-.66-.08Z"/><rect x="25.82" y="82.34" width="1.67" height="1.67" transform="translate(10.1 -2.58) rotate(6.84)"/><path class="cls-3" d="M27.82,84.66l-2.65-.32.32-2.65,2.65.32Zm-1.54-1.19.67.08.08-.66-.67-.08Z"/><rect x="23.01" y="85.61" width="1.67" height="1.67" transform="translate(10.47 -2.22) rotate(6.84)"/><path class="cls-3" d="M25,87.93l-2.65-.32L22.67,85l2.65.32Zm-1.54-1.19.66.08.08-.66-.66-.09Z"/><path class="cls-3" d="M53.68,86.49,52.79,86a11,11,0,0,0,.9-8l1-.25a12.13,12.13,0,0,1-1,8.7Z"/><path class="cls-3" d="M54.84,93l-.75-.66A20.63,20.63,0,0,0,59.2,80.43a19.46,19.46,0,0,0-.91-7.55l1-.31a20.68,20.68,0,0,1,1,7.94A21.61,21.61,0,0,1,54.84,93Z"/><path d="M59,53a2.48,2.48,0,1,1-2.7-2.52,4,4,0,0,1,1,.13l-.43,2,1.53-1.24A5.13,5.13,0,0,1,59,53Z"/><path d="M51.24,52.78a2.49,2.49,0,1,1-2.71-2.52,4.11,4.11,0,0,1,1,.13l-.44,2,1.54-1.23A5.42,5.42,0,0,1,51.24,52.78Z"/><path d="M85.23,58.32h0c-.73,0-2.06-.25-2.44-1.13-.46-1.1.74-2.75,2.93-4l.5.87c-2.06,1.19-2.66,2.4-2.51,2.75s.84.52,1.53.53a2.89,2.89,0,0,0,1.62-.54c.83-.49,2.1-1.24,2.15-2.52a2.49,2.49,0,0,0-1.4-2.3c-.91-.41-1.9.07-3,.63A9.84,9.84,0,0,0,81,55.48l-.45.58-.37-.63c-1.26-2.12-2.89-3.07-3.68-2.74A1.55,1.55,0,0,0,75.74,54a1.75,1.75,0,0,0,.91,1.51l-.51.86A2.75,2.75,0,0,1,74.74,54a2.55,2.55,0,0,1,1.39-2.21c1.31-.55,3.15.51,4.56,2.55a10.6,10.6,0,0,1,3.4-2.63c1.26-.61,2.57-1.24,3.9-.65a3.53,3.53,0,0,1,2,3.26c-.08,1.83-1.74,2.81-2.64,3.34A4,4,0,0,1,85.23,58.32Z"/><path d="M86.08,61.84a1.84,1.84,0,0,1-.68-.12A2.63,2.63,0,0,1,84,60a2.85,2.85,0,0,1,.47-2.29l.8.6a1.79,1.79,0,0,0-.3,1.45,1.62,1.62,0,0,0,.84,1.07c.46.19,1-.07,1.84-.54l.24-.13a4.55,4.55,0,0,0,1.71-1.49c.59-.87.77-1.6.51-2a1.45,1.45,0,0,0-1-.56l.17-1a2.33,2.33,0,0,1,1.67,1c.33.56.51,1.56-.54,3.12A5.74,5.74,0,0,1,88.33,61l-.25.13A4.34,4.34,0,0,1,86.08,61.84Z"/><path d="M88,64.33A4.9,4.9,0,0,1,86.21,64c-.68-.25-1.46-.54-1.62-1.31a1.84,1.84,0,0,1,.69-1.6l.67.75c-.21.19-.41.48-.38.65s.55.41,1,.57a3.39,3.39,0,0,0,2.07.24,3.32,3.32,0,0,0,1.79-1.17,2.39,2.39,0,0,0,.79-1.9,2,2,0,0,0-1-1.23l.45-.89A2.93,2.93,0,0,1,92.19,60a3.24,3.24,0,0,1-1,2.74,4.21,4.21,0,0,1-2.33,1.51A4,4,0,0,1,88,64.33Z"/><path d="M26.07,58.57l-.95-.33a2,2,0,0,0-.06-1.6,2.26,2.26,0,0,0-2.88-.57l-.41-.91a3.27,3.27,0,0,1,4.15,1A3,3,0,0,1,26.07,58.57Z"/><path d="M15,66.79a5.47,5.47,0,0,1-3.61-2.46,4.67,4.67,0,0,1-.48-4.12,3.85,3.85,0,0,1,1.8-2,4.68,4.68,0,0,1,4.19.42,4.79,4.79,0,0,1,2.47,2.58,3.09,3.09,0,0,1,.1,2.11,3,3,0,0,1-2,1.86c-1.59.39-3.44-.89-4.23-2.92l.93-.36c.68,1.72,2.11,2.54,3.06,2.31A2,2,0,0,0,18.47,63a2.13,2.13,0,0,0-.09-1.46,3.9,3.9,0,0,0-2-2,3.75,3.75,0,0,0-3.29-.41,2.81,2.81,0,0,0-1.32,1.47,3.68,3.68,0,0,0,.42,3.22,4.44,4.44,0,0,0,2.94,2Z"/><path d="M19.67,62.56a2.54,2.54,0,0,1-.61-.07l.22-1a1.39,1.39,0,0,0,1.37-.35A1.37,1.37,0,0,0,20.88,60c-.06-.35-.23-.76-1.48-1.77-1.58-1.28-2.31-1.86-3.36-2.07-.61-.12-2.21-.44-2.89.42a2.61,2.61,0,0,0-.09,2.22l-.93.36A3.43,3.43,0,0,1,12.36,56c1.06-1.36,3.11-1,3.88-.79,1.29.26,2.18,1,3.79,2.27,1.21,1,1.7,1.6,1.83,2.38a2.31,2.31,0,0,1-.46,2A2.27,2.27,0,0,1,19.67,62.56Z"/><path d="M21.78,60.2l-.24,0,.16-1a.38.38,0,0,0,.15,0c.33-.06.6-.55.69-.87.17-.65-.31-1.34-.78-2a5.29,5.29,0,0,0-2.26-2,3.6,3.6,0,0,0-3-.26,3,3,0,0,0-1.32,1.38l-.9-.43a3.93,3.93,0,0,1,1.79-1.85,4.51,4.51,0,0,1,3.83.24,6.25,6.25,0,0,1,2.69,2.33,3.48,3.48,0,0,1,.92,2.84A2.12,2.12,0,0,1,22,60.17Z"/></g><g id="Text"><path d="M18.68,44.42l-.75,1.89.68.62-.72,1.81-3.7-3.59,1-2.45,5.16-.08-.72,1.81Zm-1.31,0-1.56,0,1.15,1Z"/><path d="M21.52,37.28l1.6-.12-1,1.86-1.29.07-.48.92,1,.52-.81,1.57-4.23-2.19,1.72-3.32a1.84,1.84,0,0,1,3.46.69Zm-2.46,2,.75-1.45c.08-.16.18-.35-.11-.5s-.39,0-.47.2L18.48,39Z"/><path d="M23.91,30l-1.13,1.7,2.72,1.81-1,1.47L21.8,33.18l-1.13,1.7-1.25-.83,3.24-4.87Z"/><path d="M28.21,30,27.1,31.33l-3.7-3L24.51,27Z"/><path d="M28.61,27c.16.16.43.12,1.22-.67s.8-.9.68-1-.28-.05-1.09.71c-1.57,1.47-2.4,1.81-3.18,1s-.33-1.78,1-3.11,2.36-1.73,3.22-.87l-1.25,1.25c-.17-.18-.5.07-1.11.68s-.68.73-.55.86.25,0,1-.69c1.38-1.28,2.29-2,3.17-1.13s.39,1.94-1,3.31-2.38,1.92-3.38.92Z"/><path d="M36,18.89,34.3,20.06l1.87,2.67-1.45,1-1.87-2.68-1.67,1.18L30.32,21l4.79-3.36Z"/><path d="M40,20.59l-1.58.8-2.14-4.25,1.58-.8Z"/><path d="M41.68,14.76c1.82-.58,3-.24,3.49,1.17l-1.72.54c-.2-.4-.6-.51-1.32-.29-1,.32-1,.8-.88,1.28s.47.86,1.46.54c.71-.23,1-.55.9-1l1.73-.55c.38,1.47-.35,2.41-2.18,3-2,.63-3.09.14-3.59-1.44S39.68,15.39,41.68,14.76Z"/><path d="M55.3,16.16a2.19,2.19,0,0,1-2.41,2.2l-3.52-.27.36-4.75,3.52.27A2.19,2.19,0,0,1,55.3,16.16ZM53.53,16c.07-.88-.55-.93-.93-1L51.38,15l-.14,1.76,1.22.09C52.84,16.85,53.47,16.9,53.53,16Z"/><path d="M57.28,19.24l-1.71-.44,1.21-4.61,1.71.45Z"/><path d="M62.74,20l.21,1.6L61,20.71l-.15-1.29-1-.42-.46,1-1.61-.73L59.81,15l3.42,1.52a1.85,1.85,0,0,1-.49,3.5Zm-2.19-2.34L62,18.3c.16.07.36.16.49-.14s-.06-.39-.22-.46L60.82,17Z"/><path d="M66.69,20l-.25.36,2.67,1.88-.66.94-2.68-1.87-.25.36,2.67,1.88-.78,1.11-4.12-2.89L66,17.91l4.13,2.89-.79,1.12Z"/><path d="M73.28,23.64c1.35,1.34,1.59,2.51.59,3.63L72.58,26c.27-.37.18-.77-.35-1.29-.74-.74-1.18-.55-1.53-.19s-.55.81.19,1.54c.53.53.94.6,1.31.33l1.29,1.27c-1.12,1-2.29.81-3.65-.54s-1.57-2.66-.4-3.84S71.79,22.17,73.28,23.64Z"/><path d="M78.39,32.18l-1.23-1.63-2.6,2-1.07-1.41,2.6-2-1.23-1.62,1.2-.9,3.53,4.65Z"/><path d="M77,36.25l-.94-1.49,4-2.53.95,1.49Z"/><path d="M79.54,35.66c1.47-.76,2.58-.34,3.56,1.52s.68,3-.78,3.79-2.59.34-3.56-1.51S78.07,36.43,79.54,35.66Zm2,3.74c.44-.23.76-.6.27-1.52s-1-.88-1.41-.65-.76.61-.28,1.53S81.06,39.63,81.5,39.4Z"/><path d="M87.15,46.58l-4.42,1.76-.86-2.14,1.85-3-2.61,1-.65-1.64,4.42-1.77L85.74,43,83.89,46l2.61-1Z"/><path d="M82.43,106.09l.72-1.9-.69-.61.69-1.82,3.76,3.54L86,107.75l-5.15.16.69-1.82Zm1.31,0H85.3l-1.17-1Z"/><path d="M79.68,113.28l-1.6.14.94-1.88,1.29-.09.46-.93-1-.5.79-1.58,4.27,2.13-1.67,3.34a1.85,1.85,0,0,1-3.48-.63Zm2.43-2.09-.73,1.46c-.08.16-.17.35.12.5s.39-.05.47-.21l.73-1.46Z"/><path d="M77.4,120.59l1.11-1.72-2.75-1.76,1-1.49,2.74,1.76,1.11-1.71,1.25.81-3.16,4.92Z"/><path d="M73.1,120.72l1.09-1.4L78,122.25l-1.09,1.4Z"/><path d="M72.77,123.72c-.17-.16-.43-.11-1.21.7s-.78.91-.65,1,.27,0,1.07-.74c1.53-1.51,2.35-1.86,3.15-1.09s.38,1.78-.92,3.13-2.33,1.79-3.21.95l1.22-1.28c.18.17.5-.08,1.1-.71s.66-.75.53-.87-.25,0-1,.72c-1.35,1.3-2.25,2.05-3.15,1.19s-.43-1.92.91-3.33,2.35-2,3.37-1Z"/><path d="M65.59,132l1.64-1.21-1.94-2.62,1.42-1,1.94,2.62,1.64-1.21.89,1.2-4.7,3.48Z"/><path d="M61.55,130.39l1.55-.84,2.28,4.18-1.56.85Z"/><path d="M60,136.26c-1.8.63-3,.33-3.53-1.06l1.71-.6c.21.4.61.5,1.32.25,1-.35,1-.82.84-1.3s-.49-.84-1.47-.49c-.71.24-1,.58-.87,1l-1.71.6c-.43-1.45.28-2.41,2.08-3,2-.7,3.08-.25,3.64,1.32S62,135.57,60,136.26Z"/><path d="M46.34,135.34a2.17,2.17,0,0,1,2.33-2.28l3.53.15L52,138l-3.53-.15A2.18,2.18,0,0,1,46.34,135.34Zm1.76.07c0,.89.59.91,1,.93l1.22,0,.08-1.76-1.22-.06C48.77,134.56,48.14,134.53,48.1,135.41Z"/><path d="M44.27,132.32l1.73.39-1,4.65L43.22,137Z"/><path d="M38.82,131.77l-.26-1.58,1.94.79.19,1.28,1,.4.42-1,1.63.67-1.8,4.4-3.46-1.42a1.85,1.85,0,0,1,.38-3.51ZM41.08,134l-1.51-.62c-.16-.06-.36-.15-.49.16s.08.38.24.45l1.51.62Z"/><path d="M34.84,131.8l.24-.37-2.71-1.81.64-1,2.71,1.81.25-.37-2.72-1.81.75-1.13L38.19,130l-2.63,4-4.19-2.79.75-1.13Z"/><path d="M28.17,128.37c-1.39-1.31-1.65-2.48-.67-3.62L28.81,126c-.26.37-.16.77.39,1.29.76.72,1.19.52,1.54.15s.52-.82-.24-1.54c-.54-.51-.95-.58-1.31-.3l-1.32-1.24c1.09-1,2.27-.86,3.66.46s1.63,2.63.49,3.84S29.69,129.8,28.17,128.37Z"/><path d="M22.91,119.93l1.26,1.61,2.56-2,1.09,1.39-2.56,2,1.26,1.61-1.18.92-3.61-4.59Z"/><path d="M24.18,115.81l1,1.49-4,2.59-1-1.48Z"/><path d="M21.69,116.45c-1.46.79-2.58.38-3.57-1.47s-.73-3,.72-3.79,2.59-.37,3.58,1.46S23.15,115.66,21.69,116.45Zm-2-3.7c-.44.23-.75.6-.25,1.52s1,.87,1.42.63.75-.62.26-1.53S20.12,112.51,19.68,112.75Z"/><path d="M13.93,105.64l4.4-1.82.88,2.14-1.81,3,2.6-1.07.67,1.63-4.4,1.82-.88-2.14,1.81-3-2.59,1.07Z"/></g></g></g></svg>