<svg xmlns="http://www.w3.org/2000/svg" viewBox="0 0 98.21 22.47"><defs><style>.cls-1{fill:#fff;}.cls-2{fill:#1d1d1b;}</style></defs><g id="Calque_2" data-name="Calque 2"><g id="Branding"><rect class="cls-1" width="98.21" height="22.47" rx="11.23"/><path class="cls-2" d="M84.8,21.05H13.59c-6.08,0-11-4.41-11-9.82s4.95-9.81,11-9.81H84.8c6.08,0,11,4.4,11,9.81S90.88,21.05,84.8,21.05ZM13.59,2.26c-5.56,0-10.09,4-10.09,9s4.53,9,10.09,9H84.8c5.56,0,10.09-4,10.09-9s-4.53-9-10.09-9Z"/><path d="M19.23,12.26a1.8,1.8,0,0,1-2.05,1.87H11.41V7.83h5.5c1.43,0,1.87.64,1.87,1.6a1.87,1.87,0,0,1-.5,1.18A2.06,2.06,0,0,1,19.23,12.26ZM13.76,10h2.16c.23,0,.52,0,.52-.34s-.29-.34-.52-.34H13.76Zm3.13,2c0-.33-.29-.33-.52-.33H13.76v.67h2.61C16.6,12.42,16.89,12.42,16.89,12.08Z"/><path d="M27.78,12.32l1.11,1.81H26.12l-.87-1.48H23.87v1.48H21.53V7.83h4.95a2.3,2.3,0,0,1,2.41,2.41A2.34,2.34,0,0,1,27.78,12.32Zm-3.91-1.65H26c.24,0,.52,0,.52-.43s-.28-.43-.52-.43H23.87Z"/><path d="M36.8,13H34.11l-.43,1.14H31.11l2.61-6.3h3.47l2.61,6.3H37.23Zm-.62-1.62-.72-1.92-.73,1.92Z"/><path d="M50.13,7.83v6.3H47.07l-2.72-3.72v3.72H42V7.83h3.07l2.71,3.71V7.83Z"/><path d="M60.16,11a2.88,2.88,0,0,1-2.95,3.15H52.53V7.83h4.68A2.88,2.88,0,0,1,60.16,11Zm-2.34,0c0-1.17-.83-1.17-1.33-1.17H54.87v2.34h1.62C57,12.15,57.82,12.15,57.82,11Z"/><path d="M64.8,14.13H62.46V7.83H64.8Z"/><path d="M75.32,7.83v6.3H72.26l-2.72-3.72v3.72H67.2V7.83h3.06L73,11.54V7.83Z"/><path d="M81.34,10.7h4.08v3.43H84.07l-.17-.91a3.29,3.29,0,0,1-2.68,1c-2.32,0-3.69-1.06-3.69-3.25s1.37-3.23,4-3.23,3.84.88,3.93,2.6H83c-.09-.33-.55-.62-1.54-.62-1.39,0-1.62.58-1.62,1.34s.24,1.45,1.62,1.45c.9,0,1.45-.13,1.54-.55H81.34Z"/></g></g></svg>