<svg xmlns="http://www.w3.org/2000/svg" viewBox="0 0 95.71 130.64"><defs><style>.cls-1{fill:#fff;}.cls-2{fill:none;}.cls-2,.cls-3,.cls-4{stroke:#000;stroke-miterlimit:10;}.cls-4{fill:#fcfcfc;}</style></defs><g id="Calque_2" data-name="Calque 2"><g id="Étiquettes_20" data-name="Étiquettes 20"><g id="Forme"><rect class="cls-1" x="5.79" width="78.98" height="130.64" rx="8.39"/><path class="cls-1" d="M6.48,49.11c-1.33-.27-2.83,1.93-4,3.66-3.73,5.49-2.21,11.65-2,12.6C1.65,69.64,5,75,7.07,74.47,11.17,73.46,10.53,49.94,6.48,49.11Z"/><path class="cls-1" d="M84.16,90c1.52-.32,3.62,3.57,4.4,6.07a13.34,13.34,0,0,1-1.34,10.34c-.88,1.65-2.23,4.17-3.32,4C81.06,109.78,81,90.65,84.16,90Z"/><path class="cls-1" d="M79.94,116l10.71.21a6.22,6.22,0,0,1,4.23,1.92c.18.22,1.59,2.06.28,3.79a5.45,5.45,0,0,1-3.79,1.7l-10.82-.26C80.35,120.87,80.14,118.42,79.94,116Z"/><path class="cls-2" d="M8.45,76.69V120a8.38,8.38,0,0,0,8.38,8.38H73.72a9.33,9.33,0,0,0,5.93-2.45A7.79,7.79,0,0,0,81,124.21a7.49,7.49,0,0,0,.41-.86"/><path class="cls-2" d="M82.11,112.12V116"/><line class="cls-2" x1="82.11" y1="105.92" x2="82.11" y2="99.93"/><path class="cls-2" d="M8.69,50.26,8.6,11.05a8.17,8.17,0,0,1,8.38-8H73.87A8.61,8.61,0,0,1,79.8,5.42a9.05,9.05,0,0,1,2.46,5.63c.65,5.44.78,35.63.24,76.92"/></g><g id="Personnage"><path class="cls-2" d="M25,56.81a14.69,14.69,0,0,1,3.23-2.34,16,16,0,0,1,5.83-1.7,26.59,26.59,0,0,1,12.55.81,25.09,25.09,0,0,1,10.9,7.23c0,2.9,0,5.79,0,8.68L55.71,71.2Q58.58,78,61.45,84.81"/><polyline class="cls-2" points="44.26 62.73 44.26 70.56 54.56 67.92 50.39 62.73"/><path class="cls-2" d="M26,66.69c-1.41-.06-1.56-1.53-3.44-2-1.36-.35-3.27-.09-3.92,1-.85,1.45.85,3.75,1.79,4.72a8.8,8.8,0,0,0,6.51,2.38c1,0,4-.13,5.83-2.42.23-.29,2-2.56,1-4.3a3.79,3.79,0,0,0-3.83-1.49C27.87,64.94,27.54,66.75,26,66.69Z"/><path class="cls-2" d="M21.16,67.45a6.41,6.41,0,0,0,9.53.17"/><path class="cls-2" d="M21.22,72.17A13,13,0,0,1,13.11,71C12.25,70.59,8,68.45,7,63.94c-.28-1.18-.93-4,.44-6.06A6.09,6.09,0,0,0,8.77,55.2c.05-.3.25-1.81-.44-2.24S5.94,53.6,5.2,54.3C2.43,57,2.8,62.32,4,65.79a16.16,16.16,0,0,0,8.93,9.26,15.79,15.79,0,0,0,10,.38"/><path class="cls-3" d="M21.59,71.86a26.38,26.38,0,0,0,15.65,5c.35.88.7,1.76,1,2.64a30.29,30.29,0,0,1-8.19-.92,29.9,29.9,0,0,1-7.94-3.29C22,74.17,21.78,73,21.59,71.86Z"/><path class="cls-3" d="M36.41,79.46q6.06,14.43,12.13,28.84"/><path class="cls-3" d="M37.28,76.56,50.2,107.22"/><path class="cls-3" d="M30.65,78.92l11.7,29.38"/><path class="cls-2" d="M49.82,84.24l-4.09-9.38-1.82,2.8,3.3,7.79"/><path class="cls-2" d="M50.69,95.68l2.76,5.76"/><line class="cls-2" x1="45.28" y1="114.73" x2="49.67" y2="114.73"/><path class="cls-2" d="M50,108.73l-16.17-.13a9.21,9.21,0,0,0-6.29,8.47h6.89a10.46,10.46,0,0,1,6.85-7.92A6,6,0,0,1,43.71,111a6.72,6.72,0,0,1,1,5.66l5.83,0"/><path class="cls-2" d="M33.86,108.73A8.54,8.54,0,0,1,36.79,112"/><line class="cls-2" x1="34.72" y1="116.82" x2="44.84" y2="116.64"/><polyline class="cls-2" points="27.11 117.07 25.5 117.07 25.5 121.03 64.09 121.03 64.09 119.77 25.82 119.77"/><line class="cls-2" x1="33.73" y1="117.35" x2="33.73" y2="119.3"/><path d="M70.24,118.13l-5.74,1.22.06,1.85,26.36.06c1.29-.29,2.24-.92,2.24-1.47s-1.22-1.37-3.07-1.4Z"/><path class="cls-2" d="M68.35,98.81c-3.93,2-5.92,3-6.81,4.94-.13.27-1.46,3.17-.26,4.51,1.77,2,7.71-.9,10.39-2.55,2.23-1.38,5.1-3.15,4.93-5.54a3.85,3.85,0,0,0-2.34-3.11C73.56,96.78,72.56,96.67,68.35,98.81Z"/><path class="cls-2" d="M59.92,95.07c-3.35,2.37-6.08,4.31-7.66,8.08s-2.21,9.59.85,13.11c4.86,5.59,16.55,2.11,23-2,2.52-1.62,11.23-7.25,10-14.73-.86-5.41-6.51-9.25-11.4-10C69.13,88.55,64.73,91.66,59.92,95.07Z"/><polygon points="74.65 89.97 72.67 96.62 65.65 99.75 64.09 92.63 68.61 90.37 71.89 89.33 74.65 89.97"/><path d="M61.07,104.23H52.35l-1.15,4.5.59,4.64,2.13,3.45,3.32,1.5,1.58.37,2.76-9.76a16.21,16.21,0,0,1-1.15-1.71c0-.24.36-2.49.36-2.49Z"/><polygon points="69.75 107.22 75.11 114.43 80.52 110.82 83.79 106.86 85.43 103.96 86.24 101.07 85.92 99.75 76.99 100.16 76.43 101.88 73.84 104.52 69.75 107.22"/><path class="cls-2" d="M25.94,77a9.09,9.09,0,0,0,3,7.1A8.36,8.36,0,0,0,33.28,86"/><path class="cls-2" d="M27.07,82.52a3.42,3.42,0,0,0-2.64,2.42,3.75,3.75,0,0,0,1.32,3.58,3.68,3.68,0,0,0,3.07.8,3.76,3.76,0,0,0,2.68-3.44"/><path class="cls-2" d="M27.58,89.58a2.9,2.9,0,0,0,.34,2.17c.9,1.31,3,1.26,4.34.68a4.68,4.68,0,0,0,2.49-3.29"/><path class="cls-2" d="M49.66,83.73A6,6,0,0,0,46.46,87c-.46,1.33-.54,3.48.48,4a1.94,1.94,0,0,0,1.38.05,4.21,4.21,0,0,0,1.85-1.39c.07,0-1.66,1.55-1.57,3.19.09,1.43,1.56,3,2.81,2.87,2-.15,3.16-4.28,3.48-4.15S54,93.85,54.79,95a2.57,2.57,0,0,0,3.16.51c1.41-.93,1-3.77,1.31-3.77s0,2.45.86,2.78,3.15-1.8,3.58-4.28c.55-3.21-2.14-5.77-2.49-6.1"/><path class="cls-3" d="M34,51.94l.19-3.51,2.1-.32a7.82,7.82,0,0,1,2.62-5.23c2.56-2.07,5.85-1.4,7.72-1a9.21,9.21,0,0,1,5.56,2.74c2.58,3,1.84,6.94,1.72,7.53l1.6.26c-.09.87-.17,1.74-.26,2.61l-1.15.13-.51,1.41-6.13-3.45-12.51-.7Z"/><path class="cls-2" d="M58,60.47l5.24-3.95a4.1,4.1,0,0,1,2.47-.94,4.52,4.52,0,0,1,4.08,3c.81,2.21-.48,5.17-3.36,6.64a9.31,9.31,0,0,1,2.94,2.72c.73,1.07,2.16,3.15,1.36,5s-3.55,2.21-4,2.25a6.8,6.8,0,0,1-4.94-1.61l-4-4.05C57.79,66.49,57.88,63.48,58,60.47Z"/><path class="cls-2" d="M60,81a8.23,8.23,0,0,1,4.19.24,8.14,8.14,0,0,1,3.15,1.91"/><path class="cls-2" d="M61.05,83.66a17.13,17.13,0,0,1,1.94.86,16.59,16.59,0,0,1,2.51,1.61"/><path class="cls-4" d="M67.88,75.14a11.3,11.3,0,0,1,.35,3.74,16.37,16.37,0,0,1-1.85,5.74c-1,2.25-1.27,2.18-2.11,3.93-1,2.14-2.41,5-2.2,8.55.12,2,.11,4,1.66,5.52a5.26,5.26,0,0,0,5.43,1.26A5.56,5.56,0,0,0,72,97.2l-2.55,1.07a2.61,2.61,0,0,1-.76,1.48,2.26,2.26,0,0,1-2.22.64c-1.32-.64-1.06-3.94-.68-5.83.75-3.7,2.33-3.88,4.21-8.34a21.89,21.89,0,0,0,1.79-8.77,16.68,16.68,0,0,0-1-4.76,5,5,0,0,1-2.89,2.45Z"/><path class="cls-4" d="M19.88,52.73l4.51,3.7a3.58,3.58,0,0,1,1.79,3.62,3.83,3.83,0,0,1-2.68,2.72l-.05,0a4,4,0,0,1-4-1.09Q17.8,60,16.13,58.35l2.52-6.64Z"/><path d="M20.8,54.11a17.79,17.79,0,0,0-1,2.38,17.08,17.08,0,0,0-.76,4.26l-2.46-2.59,2.23-5.78Z"/><path d="M24,56.56a6.62,6.62,0,0,1-2.38,5.89l1.06.15,2.11-.81,1.1-1.23V58.83l-.32-.93a5.47,5.47,0,0,0-1.23-1.13Z"/><path class="cls-4" d="M34.05,52.73l-4.51,3.7a3.58,3.58,0,0,0-1.79,3.62,3.83,3.83,0,0,0,2.68,2.72l.05,0a4,4,0,0,0,4-1.09l3.31-3.35Q36.55,55,35.28,51.71Z"/><path d="M33.13,54.11a17.79,17.79,0,0,1,1,2.38,17.08,17.08,0,0,1,.76,4.26l2.46-2.59-2.24-5.78Z"/><path d="M29.9,56.56a6.62,6.62,0,0,0,2.38,5.89l-1.06.15-2.11-.81L28,60.56V58.83l.32-.93a5.26,5.26,0,0,1,1.23-1.13Z"/><path class="cls-2" d="M20.26,62.6a4.47,4.47,0,0,0-.41.77,3.72,3.72,0,0,0-.29,1.21"/><line class="cls-2" x1="58.09" y1="65.38" x2="66.39" y2="65.38"/><line class="cls-2" x1="69.79" y1="59.49" x2="59.36" y2="59.49"/><line class="cls-2" x1="59.18" y1="70.8" x2="70.53" y2="70.8"/><path class="cls-2" d="M32.86,92.43a2.81,2.81,0,0,0,3.19.94"/></g><g id="Text"><path d="M32,19.53H29.6l-.38,1H26.93l2.32-5.59h3.08l2.32,5.59H32.37Zm-.54-1.44-.65-1.71-.65,1.71Z"/><path d="M41.6,17.74A2.56,2.56,0,0,1,39,20.53H34.82V14.94H39A2.56,2.56,0,0,1,41.6,17.74Zm-2.08,0c0-1-.74-1-1.19-1H36.9v2.08h1.43C38.78,18.78,39.52,18.78,39.52,17.74Z"/><path d="M41.76,17.73c0-2,1.06-2.87,3.52-2.87s3.52.93,3.52,2.87-1.07,2.88-3.52,2.88S41.76,19.68,41.76,17.73Zm5,0c0-.59-.21-1.11-1.44-1.11s-1.44.52-1.44,1.11.22,1.13,1.44,1.13S46.72,18.32,46.72,17.73Z"/><path d="M56,18.88a1.59,1.59,0,0,1-1.82,1.65H49V14.94h4.88c1.27,0,1.66.57,1.66,1.42a1.68,1.68,0,0,1-.44,1.05A1.83,1.83,0,0,1,56,18.88Zm-4.86-2H53c.21,0,.46,0,.46-.3s-.25-.3-.46-.3H51.12Zm2.78,1.82c0-.3-.25-.3-.46-.3H51.12V19h2.32C53.65,19,53.9,19,53.9,18.72Z"/><path d="M58.3,16.54v.52h3.84v1.35H58.3v.52h3.84v1.6H56.23V14.94h5.91v1.6Z"/><path d="M19,28.16c0,.27.25.45,1.57.45S22,28.53,22,28.33s-.19-.28-1.5-.32C18,27.93,17,27.52,17,26.22s1.21-1.76,3.41-1.76,3.42.52,3.42,2H21.77c0-.3-.48-.36-1.5-.36s-1.17,0-1.17.26.2.21,1.41.26c2.21.08,3.58.24,3.58,1.7s-1.28,1.93-3.58,1.93-3.57-.39-3.57-2.05Z"/><path d="M24.17,27.33c0-1.95,1.06-2.87,3.52-2.87s3.52.93,3.52,2.87-1.07,2.88-3.52,2.88S24.17,29.28,24.17,27.33Zm5,0c0-.59-.21-1.11-1.44-1.11s-1.44.52-1.44,1.11.22,1.12,1.44,1.12S29.13,27.92,29.13,27.33Z"/><path d="M33.53,26.3v.6h3.36v1.75H33.53v1.48H31.45V24.54h5.92V26.3Z"/><path d="M44.41,26.3H42v3.83H39.93V26.3h-2.4V24.54h6.88Z"/><path d="M56.26,24.54l-1.84,5.59H51.33l-.92-3.22-.92,3.22H46.41l-1.84-5.59H46.8L48,28.49l1.22-3.95h2.47l1.22,3.95L54,24.54Z"/><path d="M59.8,29.13H57.42l-.39,1H54.75l2.31-5.59h3.09l2.32,5.59H60.18Zm-.54-1.44L58.61,26,58,27.69Z"/><path d="M68.18,28.53l1,1.6H66.71l-.77-1.31H64.71v1.31H62.63V24.54H67a2,2,0,0,1,2.14,2.14A2.07,2.07,0,0,1,68.18,28.53Zm-3.47-1.47h1.92c.21,0,.46,0,.46-.38s-.25-.38-.46-.38H64.71Z"/><path d="M71.5,26.14v.52h3.83V28H71.5v.52h3.83v1.6H69.42V24.54h5.91v1.6Z"/></g></g></g></svg>