<svg xmlns="http://www.w3.org/2000/svg" viewBox="0 0 83.93 78.18"><defs><style>.cls-1,.cls-3{fill:#fff;}.cls-2{fill:none;stroke-miterlimit:10;}.cls-2,.cls-3{stroke:#000;}.cls-3{stroke-linejoin:round;}</style></defs><g id="Calque_2" data-name="Calque 2"><g id="Etiquette_24" data-name="Etiquette 24"><g id="Forme"><path class="cls-1" d="M40.31,3.37a13.92,13.92,0,0,0-5.7-3C29.06-1,24.45,1.68,22.87,2.6A19.13,19.13,0,0,0,14.53,13a19.65,19.65,0,0,0-1,6.22,11.3,11.3,0,0,0-4.85,3.23,11.84,11.84,0,0,0-2.81,7.92A19,19,0,0,0,.4,40.05C.08,41.6-1.25,49,3.8,54.86a15.92,15.92,0,0,0,16.94,4.59c.4,1,.79,2,1.19,3.07a8.15,8.15,0,0,0-2.81-.34c-4.08.24-6.68,3.66-8.17,5.61-1.64,2.15-3,4-2.47,6a5.35,5.35,0,0,0,2.73,3.06l24.68.68,3-1.62,2.63,2.22L58.18,78a1.91,1.91,0,0,0,1.24-.34,1.88,1.88,0,0,0,.72-1.2q.09-10.93.17-21.87l8.36,0a8.54,8.54,0,0,0,6.26-1.15,8.43,8.43,0,0,0,3.32-4.28,4.53,4.53,0,0,0,3.25-.25,4.31,4.31,0,0,0,2.43-3.83c-.12-2.23-2.85-4.52-6.51-4.15l-1.34-2.11-.51-8.55A10.21,10.21,0,0,0,72,23.18a10.07,10.07,0,0,0-6.44-2.24A17.52,17.52,0,0,0,62.16,8.81,17.75,17.75,0,0,0,51,2.37,19.84,19.84,0,0,0,40.31,3.37Z"/></g><g id="Personnage"><path class="cls-2" d="M35.89,10.6c.54-.58,6.16-6.36,14.21-5.19a15.49,15.49,0,0,1,10.38,6.3,15.45,15.45,0,0,1,2.45,11.38"/><path class="cls-2" d="M55.89,21.58a58.06,58.06,0,0,0,6.29,1.62c5.66,1.11,6.24.35,7.58,1.36,3.52,2.66-.36,8.14,3.66,14.55,1.43,2.29,3,3.28,3.15,5.79a7.5,7.5,0,0,1-2.13,5.45c-1.56,1.49-4.22,2.6-6.47,1.7a4.54,4.54,0,0,1-1.44-.94,4.12,4.12,0,0,1-1.11.94,4.2,4.2,0,0,1-6.32-3.6,3,3,0,0,0,3.26-1.66,1.84,1.84,0,0,0-.07-1.59c-.82-1.14-3.34,0-3.89-.9-.34-.57.26-1.6.7-2.1.86-1,1.67-.68,2.23-1.47.93-1.28-.24-3.51-.38-3.77A5.66,5.66,0,0,0,58.4,34.6a33.47,33.47,0,0,1-4.92,5.94,36.4,36.4,0,0,1-19.85,9.38c.38,1.17.77,2.34,1.15,3.51a15.39,15.39,0,0,0,4.34,0,16.18,16.18,0,0,0,2.43-.57"/><path class="cls-2" d="M41,6.75a15.17,15.17,0,0,0-9.51-3.81c-6.6-.09-11.78,4.73-14,9.53a17.76,17.76,0,0,0-.6,12.94"/><path class="cls-2" d="M15.67,21.41a10,10,0,0,0-3.87,1.74A8.7,8.7,0,0,0,8.74,27.2c-.36,1-.84,2.44-.09,3.27s2.58.47,2.73.43"/><path class="cls-2" d="M17.59,26.69c-.39-1.3-1-1.64-1.28-1.75-1.6-.57-4.42,2-4.72,4.68,0,.39-.27,2.43,1.06,3.24a2.82,2.82,0,0,0,2.34.08"/><path class="cls-2" d="M21.76,28.35a2.65,2.65,0,0,0-1.15-1.79,2.92,2.92,0,0,0-2.61.07,4.39,4.39,0,0,0-2.13,2.08,6.1,6.1,0,0,0-.65,3.22,4.21,4.21,0,0,0,.27,1.25A2.62,2.62,0,0,0,16,34a3.25,3.25,0,0,0,2.17,1"/><path class="cls-2" d="M25.21,31.18h0a16.17,16.17,0,0,1-2.53,3.62,1.74,1.74,0,0,1-.22.18c-.21.15-2.44,1.73-3.51.94-.76-.57-.52-2-.42-2.69a6.47,6.47,0,0,1,2-3.53l.46-.48A5,5,0,0,1,23,28a2.55,2.55,0,0,1,2.21,0,1.73,1.73,0,0,1,.67,1A3,3,0,0,1,25.21,31.18Z"/><path class="cls-2" d="M25.51,31.29l5.23-2.47,9.92,11.62a9.08,9.08,0,0,1-5.28,0c-4.85-1.56-6.18-6.93-6.26-7.28l-1.32.23"/><path class="cls-2" d="M40,42.9l-8.19,2.38"/><path class="cls-2" d="M27.92,53.24q.88,2.49,1.79,5l5.49-1.57-.55-3.09"/><path class="cls-2" d="M23.08,56.56a5.55,5.55,0,0,0,.47,3,4.33,4.33,0,0,0,1.95,2.26,4.4,4.4,0,0,0,3.83-.22"/><path class="cls-2" d="M29.59,58.47a7.86,7.86,0,0,0,1,5.88,7.66,7.66,0,0,0,1.82,1.85c1,.82,2.15,2.36,2.73,5.55l7.92-5.11q-2.11-2.2-4.21-4.42a5.09,5.09,0,0,1-1.36-2.54h0a12.27,12.27,0,0,1-.21-3.24l-2.09.22"/><path class="cls-2" d="M30.34,64.47l-12.76.2a9.8,9.8,0,0,0-3.74,2.68,10,10,0,0,0-2.2,4.59l23.08.1"/><path class="cls-2" d="M19.41,64.64A8.71,8.71,0,0,1,25,67.38,8.59,8.59,0,0,1,27,71.69"/><path class="cls-2" d="M11.51,72.42l.1,2.62,23.71.16,8.81-5.27"/><path class="cls-2" d="M57,49.39c.3,12.94.52,22.3.66,23.89a2.29,2.29,0,0,1-.48,1.89,1.58,1.58,0,0,1-1,.35c-1.21.06-6.26.06-13.15,0a1.35,1.35,0,1,1-.09-2.64l11.71,0-.09-23.4"/><path class="cls-2" d="M54.31,60.77l-8.08.13"/><path class="cls-2" d="M54.36,66.77A23.76,23.76,0,0,0,51.55,66a22.52,22.52,0,0,0-5.95-.47"/><path class="cls-2" d="M35.29,53.81a11.2,11.2,0,0,0,3.51,4.73,11.63,11.63,0,0,0,7.56,2.36,6,6,0,0,0-.73,2,6.26,6.26,0,0,0,.11,2.49A3.27,3.27,0,0,0,44,66.88a4.09,4.09,0,0,0-.22,2.41,13.88,13.88,0,0,0,.81,3.55"/><path class="cls-2" d="M42.73,53.18a6,6,0,0,0,.39,4.87,6,6,0,0,0,3.94,2.84"/><path class="cls-2" d="M9.16,30.84a14.86,14.86,0,1,0,16.05.34"/><path class="cls-2" d="M22.68,34.81a10.51,10.51,0,1,1-7.19-1.63"/><path d="M7.46,39.61a9.43,9.43,0,0,0,2.68,4.89,11.19,11.19,0,0,0,3.23,2c2.43,1.05,3.44.61,4.21,1.43s1,2.18-.42,5.81a8.43,8.43,0,0,1-2.45,0A10.3,10.3,0,0,1,6.79,45.8,10.44,10.44,0,0,1,7.46,39.61Z"/><path d="M25,49.67A8.27,8.27,0,0,0,25,45a8.12,8.12,0,0,0-5.4-5.36c-2.45-.63-4,.55-4.81-.34-.54-.59-.59-2,1.25-5.31a3.11,3.11,0,0,0,1,.82,3,3,0,0,0,1.23.35,1.85,1.85,0,0,0,1,1.25,1.75,1.75,0,0,0,1.15-.11A7.84,7.84,0,0,0,22.68,35a9,9,0,0,1,1.23.94,10.4,10.4,0,0,1,2.78,4.22,9.4,9.4,0,0,1,.38,5.66A9.08,9.08,0,0,1,25,49.67Z"/><path d="M58.27,34l-6.87-.42a10.66,10.66,0,0,1,1.76,2.7,11,11,0,0,1,.94,3.45,22.29,22.29,0,0,0,2.3-2.64A20.67,20.67,0,0,0,58.27,34Z"/><circle class="cls-2" cx="40.48" cy="24.22" r="7.34"/><path class="cls-2" d="M22.83,28a7.1,7.1,0,0,1-1.61-.91,0,0,0,0,0,0,0"/><path class="cls-2" d="M20.51,26.51h0a7.34,7.34,0,1,1,5.25,2.07"/><path d="M37.05,24.19a5.43,5.43,0,0,0,4.69,6.06,5.43,5.43,0,0,0,5.69-5.14,5.43,5.43,0,0,0-4.69-6.06,8.45,8.45,0,0,0-2.06.26l.93,4.16-3.24-2.53A10.48,10.48,0,0,0,37.05,24.19Z"/><path d="M22.16,21.12a5.44,5.44,0,0,0,4.69,6.06A5.44,5.44,0,0,0,32.54,22,5.44,5.44,0,0,0,27.85,16a9,9,0,0,0-2.06.26l.93,4.16-3.24-2.53A10.46,10.46,0,0,0,22.16,21.12Z"/><rect class="cls-3" x="35.13" y="12.85" width="10.7" height="3.72" rx="1.86" transform="matrix(-1, 0.05, -0.05, -1, 81.61, 27.52)"/><rect class="cls-3" x="24.31" y="11.21" width="10.7" height="3.72" rx="1.86" transform="translate(7.03 -10.14) rotate(21.94)"/><path class="cls-2" d="M76.76,43.9l1.87-.13c1.3-.07,1.65-.05,2,.17s.82.72.73,1.19-.81.92-1.71.81l-2.89-.06"/><path class="cls-2" d="M58.4,44.56a19.12,19.12,0,0,0-4,1.31A19.69,19.69,0,0,0,50.83,48"/><path class="cls-2" d="M61.78,46.83a24.39,24.39,0,0,0-4.47.89,24.07,24.07,0,0,0-4.82,2"/><path class="cls-2" d="M41.5,50.64a15.55,15.55,0,0,1,2.64-2.85c1.39-1.16,2.58-2.15,3.79-1.83a2.72,2.72,0,0,1,1.53,1.37l3.28,2.85a2,2,0,0,1,.76,1.27c.08.83-.61,1.47-1.36,2.17l-3.53,3.32-3,.13L45.67,55l-2.08-.25c.08-.62.17-1.25.25-1.87l-2.17.08C41.62,52.18,41.56,51.41,41.5,50.64Z"/><path class="cls-2" d="M48.66,46.76l-4,4.28"/><path class="cls-2" d="M50.59,48.8,47,52.19"/><path class="cls-2" d="M52.75,50.72l-4.28,3.09"/></g></g></g></svg>