<svg xmlns="http://www.w3.org/2000/svg" viewBox="0 0 92.94 38.3"><defs><style>.cls-1{fill:#fff;}</style></defs><g id="Calque_2" data-name="Calque 2"><g id="Sti2d"><ellipse class="cls-1" cx="46.47" cy="19.15" rx="46.47" ry="19.15"/><path d="M46.53,36.56c-23.78,0-43.14-7.81-43.14-17.41S22.75,1.74,46.53,1.74,89.67,9.55,89.67,19.15,70.32,36.56,46.53,36.56Zm0-33.82C23.3,2.74,4.39,10.1,4.39,19.15S23.3,35.56,46.53,35.56,88.67,28.2,88.67,19.15,69.77,2.74,46.53,2.74Z"/><path d="M11.48,20.41c.37.66,1.4,1.18,4.53,1.5,2.93.29,3.21.07,2.95-.58s-.74-.87-4-1.12C8.7,19.75,4.38,18.9,7.19,16.28c2.66-2.48,9.67-4.54,14.26-5.88s4-.14,2.19,5.11c-2,.1-3,.16-5,.28.45-1-.5-1.08-3-.81s-3,.46-3.43,1,.15.48,3.08.46c5.33,0,7.25-.23,8.67,5,1.5,5.55,1.32,6-3.21,4.67s-11.67-2.7-14.31-6C8.45,20.25,9.46,20.3,11.48,20.41Z"/><path d="M42.08,14.49c-2.3,0-3.44,0-5.72.07-.88,7-.54,11,1.45,15.48-1.68-.25-2.53-.4-4.21-.74-3.05-4.4-3.58-8-2.18-14.6-2.28.08-3.41.14-5.71.26a13.71,13.71,0,0,1,3.84-6.49A65.52,65.52,0,0,1,42.72,6.79,59.67,59.67,0,0,0,42.08,14.49Z"/><path d="M48.54,30.6c-1.75.09-2.58.11-4.25.06a176.79,176.79,0,0,1,0-23.92c1.65,0,2.5,0,4.14,0A94.08,94.08,0,0,1,48.54,30.6Z"/><path d="M59,22.4c3.06-.13,4.59-.22,7.61-.4A11.16,11.16,0,0,1,64,28.37a83.33,83.33,0,0,1-13.77,2.12,25.58,25.58,0,0,0,.52-3.89c.88-10.14,11.16-7.85,10.51-11-.2-1-.73-1.2-2.38-1.26s-2.8.07-2.59,2.16H51.23c-.37-7.86,1.36-9.73,4.92-9.25s7.85,2,9.79,7.44C68.45,21.75,60.23,19.61,59,22.4Z"/><path d="M85.66,18.52c0,3.78-9.32,6.32-11.68,7.11a81.42,81.42,0,0,1-8.09,2.3c5.85-6.05,5.42-12.74-2.16-19.16C67,9.5,68.66,10,72.24,11.05,75.14,11.94,85.66,14.74,85.66,18.52Zm-5.16,0c-.27-2.3-2.92-2.76-4-2.85-1.42-.12-2.12-.18-3.52-.28,1.41,2.73,1.58,3.48.83,6.1l3.42-.27C78.27,21.14,80.76,20.71,80.5,18.52Z"/></g></g></svg>