<svg xmlns="http://www.w3.org/2000/svg" viewBox="0 0 69.57 59.74"><defs><style>.cls-1{fill:#fff;}.cls-2{fill:none;stroke:#000;stroke-miterlimit:10;}</style></defs><g id="Calque_2" data-name="Calque 2"><g id="UI_UX" data-name="UI &amp; UX"><g id="Forme"><rect class="cls-1" width="69.57" height="59.74" rx="14.17"/><rect class="cls-2" x="2.81" y="2.41" width="63.96" height="54.92" rx="14.17"/></g><g id="Yeux"><ellipse class="cls-2" cx="25.67" cy="13.35" rx="8.18" ry="7.31"/><ellipse class="cls-2" cx="42.69" cy="13.58" rx="8.18" ry="7.31"/><path d="M27.61,13.49a5.36,5.36,0,0,1-4.55,6.06,5.37,5.37,0,0,1-5.55-5.16,5.38,5.38,0,0,1,4.56-6.06,8.59,8.59,0,0,1,2,.26l-.9,4.17,3.15-2.53A10.77,10.77,0,0,1,27.61,13.49Z"/><path d="M44.91,14.1a5.38,5.38,0,0,1-4.55,6.06c-2.79.25-5.27-2.07-5.55-5.17a5.38,5.38,0,0,1,4.55-6.06,8.44,8.44,0,0,1,2,.27l-.9,4.16,3.15-2.52A10.65,10.65,0,0,1,44.91,14.1Z"/></g><path d="M12.09,35.19c-3.39,0-4.84-1.29-4.84-4V27.38h2.86v3.84c0,.82.3,1.55,2,1.55s2-.74,2-1.55V27.38h2.86v3.84C16.93,33.89,15.47,35.19,12.09,35.19Z"/><path d="M20.23,35.08H17.37v-7.7h2.86Z"/><path d="M35.14,35.08l-1.91-.91a7.28,7.28,0,0,1-4.06,1c-2.75,0-4.1-.8-4.1-2.24s1.3-1.93,2.45-2.16a2.29,2.29,0,0,1-.77-1.65c0-1.27,1.16-1.87,3.35-1.87,1.84,0,3.3.6,3.3,1.76,0,.87-.87,1.43-2.35,1.9.39.2.86.44,1.42.71a7.51,7.51,0,0,0,.76-1l2.36.9a10.78,10.78,0,0,1-.77,1.17l1.42.61Zm-4.55-2.25a19.33,19.33,0,0,1-2-1.21c-.55.2-.84.4-.84.71s.42.66,1.66.66A4.56,4.56,0,0,0,30.59,32.83Zm-1.2-3.32c0,.2.14.43.56.75.53-.19.81-.42.81-.75S30.57,29,30.1,29,29.39,29.2,29.39,29.51Z"/><path d="M45.91,35.19c-3.38,0-4.84-1.29-4.84-4V27.38h2.86v3.84c0,.82.3,1.55,2,1.55s2-.74,2-1.55V27.38h2.86v3.84C50.76,33.89,49.29,35.19,45.91,35.19Z"/><path d="M54.73,31.23l-3.65-3.85h3.74l1.94,2.2,1.94-2.2h3.74L58.8,31.23l3.64,3.85H58.7l-1.94-2.2-1.94,2.2H51.08Z"/><path d="M29.52,40.58,27,48.28H22.74l-1.26-4.44-1.27,4.44H16l-2.53-7.7h3.07L18.1,46l1.67-5.43h3.41L24.86,46l1.59-5.43Z"/><path d="M32.71,42.78v.71H38v1.87H32.71v.72H38v2.2H29.85v-7.7H38v2.2Z"/><path d="M47.87,46a2.2,2.2,0,0,1-2.51,2.28h-7v-7.7H45c1.75,0,2.29.79,2.29,2A2.27,2.27,0,0,1,46.71,44,2.54,2.54,0,0,1,47.87,46Zm-6.69-2.72h2.64c.29,0,.64,0,.64-.41s-.35-.42-.64-.42H41.18ZM45,45.78c0-.41-.36-.41-.64-.41H41.18v.82h3.19C44.65,46.19,45,46.19,45,45.78Z"/><path d="M55.81,42.69c0,1.94-1.22,3.32-3.7,3.32s-3.69-1.38-3.69-3.32,1.22-3.32,3.69-3.32S55.81,40.75,55.81,42.69Zm-1.32,0c0-1.33-.78-2-2.38-2s-2.37.67-2.37,2,.78,2,2.37,2S54.49,44,54.49,42.69Zm-1.22.54.44.71h-1.1l-.34-.58h-.55v.58h-.94V41.45h2a.91.91,0,0,1,1,.95A1,1,0,0,1,53.27,43.23Zm-1.55-.66h.85c.09,0,.21,0,.21-.17s-.12-.17-.21-.17h-.85Z"/></g></g></svg>