<svg xmlns="http://www.w3.org/2000/svg" viewBox="0 0 310.91 243.58"><defs><style>.cls-1{fill:#fff;}.cls-2{fill:#edebea;}</style></defs><g id="Calque_2" data-name="Calque 2"><g id="Étiquette_1" data-name="Étiquette 1"><path id="Forme" class="cls-1" d="M135,2.39h19A139.85,139.85,0,0,1,293.86,142.24v76a0,0,0,0,1,0,0h-300a0,0,0,0,1,0,0V143.58A141.19,141.19,0,0,1,135,2.39Z" transform="translate(-17.58 27.85) rotate(-10.42)"/><g id="Texte"><path d="M27.08,144.73c1.9,0,3.43,1.2,3.46,4.05l.13,11.46-11.55.12L19,149.44c0-2.85,1.14-3.74,2.89-3.76a3.32,3.32,0,0,1,2.18,1A3.76,3.76,0,0,1,27.08,144.73Zm-3.95,10.93-.05-4.29c0-.47,0-1-.64-1s-.62.58-.62,1l.05,4.3Zm3.67-6.27c-.61,0-.6.58-.6,1.05l.06,5.19h1.22l-.06-5.2C27.42,150,27.41,149.39,26.8,149.39Z"/><path d="M28.62,132.15l3.54-1.84-.61,5.48-2.88,1.43-.31,2.72,2.69.3-.52,4.63-11.47-1.29,1.09-9.78c.32-2.83,2.37-4.57,4.93-4.28A4.23,4.23,0,0,1,28.62,132.15Zm-3.87,7.39.48-4.27c.05-.47.12-1-.67-1.12s-.85.48-.9.94l-.48,4.27Z"/><path d="M32.68,119.16l-1.27,5.18,1.82,1.33-1.21,5-10-7.78,1.64-6.72,12.45-2.32-1.22,5Zm-3.17.48-3.78.57,3.09,2.25Z"/><path d="M31.15,95,41.9,99.16l-2.21,5.68-8.31,2.57,6.35,2.47L36,114.22,25.28,110l2.21-5.68,8.31-2.56-6.34-2.48Z"/><path d="M44.1,83.05c3.46,1.87,3.73,5.25,2.28,7.92L42,99.16l-10.16-5.5,4.43-8.2C37.67,82.8,40.65,81.18,44.1,83.05Zm-2.21,4.09c-1.89-1-2.68.43-3.15,1.31L37.2,91.29l3.77,2,1.54-2.83C43,89.62,43.77,88.17,41.89,87.14Z"/><path d="M51.93,82l-2.57,3.88-9.63-6.37,2.56-3.89Z"/><path d="M52.64,61.77l9.13,7.08L58,73.66l-8.7.1,5.38,4.18-2.85,3.68-9.13-7.08,3.73-4.81,8.7-.1-5.38-4.18Z"/><path d="M62.46,59.31l5.74-5.75L72.65,58l-1.9,1.9L69.33,59c.06,1.55-.61,3.2-2.47,5.07-3.26,3.27-6.55,3.83-9.4,1s-2.27-6.11,1.37-9.76,6.53-4.26,8.9-2.17l-3.36,3.37c-.55-.29-1.58,0-3,1.36-1.95,2-1.52,3-.54,4s2.22,1.53,4.16-.41c1.26-1.26,1.87-2.2,1.45-2.87l-2.38,2.38Z"/><path d="M99.62,33.53c1.86,3.45.24,6.43-2.42,7.87L89,45.83l-5.5-10.16,8.19-4.43C94.36,29.8,97.75,30.07,99.62,33.53Zm-4.1,2.21c-1-1.89-2.47-1.1-3.35-.63l-2.83,1.54,2,3.77,2.83-1.53C95.09,38.41,96.54,37.63,95.52,35.74Z"/><path d="M103.55,29.33l.4,1,8-3.19,1,2.61-8,3.19.4,1,8-3.19,1.22,3.06-12.31,4.92L98,28l12.31-4.92,1.23,3.07Z"/><path d="M117.72,28.69c.15.54.8.76,3.66,0,2.66-.71,3-1,2.91-1.39s-.54-.44-3.41.24c-5.51,1.3-7.82,1-8.52-1.57s1.68-4.21,6.46-5.48,7.67-.92,8.43,1.93l-4.5,1.2c-.16-.59-1.23-.44-3.43.15s-2.52.77-2.4,1.21.54.29,3.2-.31c4.82-1.1,7.86-1.59,8.64,1.33.83,3.08-1.74,4.6-6.7,5.92s-8,1.29-8.84-2Z"/><path d="M134.45,29.12l-4.58.8-2-11.37,4.59-.81Z"/><path d="M141.28,22l8.1-.72.56,6.26-2.68.24-.49-1.63c-1,1.23-2.53,2.07-5.15,2.3-4.61.41-7.49-1.27-7.85-5.28S136,17,141.1,16.53s7.74.93,8.22,4l-4.75.43c-.23-.58-1.19-1-3.15-.86-2.75.24-3.12,1.35-3,2.73s.71,2.6,3.45,2.36c1.78-.16,2.85-.49,3-1.28l-3.36.31Z"/><path d="M166.36,16.68l-.52,11.53-6.08-.27-5.1-7-.3,6.81-4.65-.21L150.22,16l6.08.28,5.1,7,.3-6.8Z"/><path d="M202.08,32.35c-1.39,3.68-4.7,4.4-7.54,3.33l-8.71-3.29,4.08-10.8,8.71,3.29C201.45,26,203.46,28.68,202.08,32.35Zm-4.36-1.64c.76-2-.78-2.59-1.72-2.94l-3-1.14-1.52,4,3,1.14C195.42,32.13,197,32.72,197.72,30.71Z"/><path d="M205.16,37.18l-1.29,2.68L200,38l1.28-2.68Z"/><path d="M214.77,43.65l-4.57-2.76-1.81,1.34L204,39.59l10.41-7.22,5.92,3.57-1.52,12.57-4.38-2.64Zm.49-3.18.59-3.77L212.78,39Z"/><path d="M249.45,61.34l-11.94,4.21-4.77-5,4.77-11.72,3.54,3.71L237.27,61l8.65-3.37Z"/><path d="M243.61,73l-2.88-3.67,9.09-7.14,2.87,3.67Z"/><path d="M257,82.65c-3.29,2.14-6.4.76-8.05-1.78l-5.08-7.8,9.68-6.3,5.08,7.8C260.32,77.11,260.33,80.5,257,82.65Zm-2.54-3.91c1.79-1.17.9-2.55.35-3.39l-1.76-2.7L249.5,75l1.75,2.7C251.8,78.53,252.7,79.91,254.5,78.74Z"/><path d="M261.52,86.24l-1,.47,3.78,7.72-2.52,1.24L258,88l-1,.47,3.79,7.72-3,1.45-5.83-11.9,10.37-5.08,5.84,11.9-3,1.45ZM269,88.66,264.7,83l2.08-1L271,87.64Z"/><path d="M263.29,95.35c3.79-1.31,6.38.29,8.18,5.5s.76,8.08-3,9.39-6.41-.3-8.21-5.49S259.49,96.67,263.29,95.35Zm3.64,10.49c1.14-.4,2-1.19,1.11-3.8s-2.07-2.69-3.22-2.29-2,1.22-1.14,3.81S265.78,106.24,266.93,105.84Z"/><circle cx="176.18" cy="24.18" r="2.27"/><path d="M176.18,27A2.78,2.78,0,1,1,179,24.18,2.79,2.79,0,0,1,176.18,27Zm0-4.55A1.78,1.78,0,1,0,178,24.18,1.78,1.78,0,0,0,176.18,22.41Z"/><circle cx="227.09" cy="48.31" r="2.27"/><path d="M227.09,51.08a2.77,2.77,0,1,1,2.78-2.77A2.77,2.77,0,0,1,227.09,51.08Zm0-4.54a1.77,1.77,0,1,0,1.78,1.77A1.77,1.77,0,0,0,227.09,46.54Z"/><path d="M85.09,171.65c-.39,1.3-.66,2.51-1.15,4.78l-.8,3.75h-.08l-2.85-4.55-1.13,5.29H79l-4.75-7.3,1.24-.23a1.52,1.52,0,0,1,1.55.67l2.43,3.76,1.11-5.36.07,0,2.88,4.59.14-.66a9.44,9.44,0,0,0-.16-4.45Z"/><path d="M96.23,169.6c-.39,1.3-.66,2.51-1.15,4.78l-.81,3.75-.07,0-2.86-4.56-1.12,5.29h-.07l-4.75-7.3,1.24-.23a1.52,1.52,0,0,1,1.54.67l2.44,3.76,1.11-5.36h.07L94.68,175l.14-.66a9.58,9.58,0,0,0-.16-4.45Z"/><path d="M107.37,167.55c-.39,1.3-.66,2.51-1.15,4.78l-.81,3.75-.07,0-2.86-4.56-1.12,5.29h-.07l-4.75-7.3,1.24-.22a1.51,1.51,0,0,1,1.54.66l2.44,3.76,1.11-5.36h.07l2.88,4.58.14-.66a9.58,9.58,0,0,0-.16-4.45Z"/><path d="M111.17,174.21a1,1,0,0,1-1.34.24,1,1,0,0,1,1.09-1.58A1,1,0,0,1,111.17,174.21Z"/><path d="M114.87,171.19a1.12,1.12,0,0,0,.1.55,1.74,1.74,0,0,0,.1.19l0,.08h0a2,2,0,0,0,2.14.91,2.83,2.83,0,0,0,2-1.68l.19.06a4,4,0,0,1-3,2.63,3.66,3.66,0,0,1-4.35-3.2,4,4,0,0,1,2.28-4.54,4.18,4.18,0,0,1,1-.28l.09,0a3.55,3.55,0,0,1,1.49,0l.38.09c1.48.46,2.19,1.54,1.82,2.71-.52,1.68-2.91,1.52-3.87,2h0a.73.73,0,0,0-.31.25.13.13,0,0,0,0,.05.69.69,0,0,0-.05.17A0,0,0,0,0,114.87,171.19Zm.34-1.08.07,0,.07,0c.68-.41,1.59-.77,1.89-1.74a1.56,1.56,0,0,0,.08-.63c-.1-1.55-1.23-1.61-1.61-1.58h-.13a1.41,1.41,0,0,0-.57.22c-.77.51-1.06,1.76-.74,3.5a6.91,6.91,0,0,0,.28,1.07l.06.18c0,.06,0,.11.07.17A1.12,1.12,0,0,1,115.21,170.11Z"/><path d="M126,171.34a3.77,3.77,0,0,1-2.14,1.24A1.84,1.84,0,0,1,121.4,171l-1-5.47-.93.17,0-.3.9-.18h0l-.38-2h0l.16,0a2.14,2.14,0,0,1,1.41.36,2.12,2.12,0,0,1,.86,1.25s0,0,0,.06h0v0l2-.38.27,1.36h0c-1-.56-1.42-.86-2.06-.75l-.15,0,1,5.55c.06.36.24,1.31,1.23,1.12a2.33,2.33,0,0,0,1.08-.56Z"/><path d="M133.5,165.37l.93,5.08-2.09.39-1-5.29c-.1-.52-.36-1.85-1.66-1.61a2.24,2.24,0,0,0-1.47,1.08l0,0,1.17,6.33-2.1.39-2-10.88.24,0a2.16,2.16,0,0,1,2.15,1.33l0,.15.45,2.45h0a3.39,3.39,0,0,1,2.33-1.65C132.08,162.83,133.16,163.51,133.5,165.37Z"/><path d="M143.69,168.31v.08a3.06,3.06,0,0,1-1.5.75,1.39,1.39,0,0,1-1.49-.49,4.31,4.31,0,0,1-2.35,1.26c-1.8.33-3.14-.41-3.4-1.84-.45-2.45,3.36-3.6,3.14-4.82a.52.52,0,0,0-.48-.44h-.2a1.78,1.78,0,0,0-.48.1,1.68,1.68,0,0,0-.71.44l-.36-.33a3.2,3.2,0,0,1,2.56-1.38,3.59,3.59,0,0,1,3.63,3.08h0l.47,2.72c.12.68.19,1.08.87,1A1.87,1.87,0,0,0,143.69,168.31Zm-3.14,0h0l-.62-3.54h0c-.36-1.84-.65-3-1.65-2.93-.4,0-.6.32-.77.74a.93.93,0,0,1,1.08.72c.22,1.23-1.74,2.34-1.41,4.15a1.72,1.72,0,0,0,2.17,1.44A2.53,2.53,0,0,0,140.55,168.33Z"/><path d="M151,162.12l.93,5.09-2.08.38-1-5.28c-.1-.53-.36-1.86-1.67-1.61a2.32,2.32,0,0,0-1.5,1.11l1.17,6.33-2.08.38-1.24-6.75.39-.07a1.08,1.08,0,0,0,1.71-.16,3.48,3.48,0,0,1,2.35-1.66C149.61,159.58,150.68,160.27,151,162.12Z"/><path d="M160.63,161.53a4.67,4.67,0,0,1-.19,2.46,3.82,3.82,0,0,1-2.84,2.38,3,3,0,0,1-2-.29l.68,3.69-2.08.39-1.84-10,.4-.07a1.09,1.09,0,0,0,1.71-.17,3.63,3.63,0,0,1,1.9-1.55l.31-.07a3.06,3.06,0,0,1,2.42.57A4.14,4.14,0,0,1,160.63,161.53Zm-2.18.57c-.46-2.5-1.3-3.27-2.37-3.07a1.83,1.83,0,0,0-.83.38h0a2.88,2.88,0,0,0-.72.86l.87,4.73a1.8,1.8,0,0,0,1.88,1.17,1.54,1.54,0,0,0,1.19-1.21A6.56,6.56,0,0,0,158.45,162.1Z"/><path d="M161,155.61a1.07,1.07,0,1,1,1,.67A1.09,1.09,0,0,1,161,155.61Zm2.82,3.7,1,5.53-2.09.39-1.4-7.62A2.12,2.12,0,0,1,163.84,159.31Z"/><path d="M173.66,159.14a4,4,0,0,1-3,4.83,3.89,3.89,0,0,1-2.92-.43l-1,1.11h-.06l-2-11h.1a3.37,3.37,0,0,1,.7,0h.1l.11,0h0a2.32,2.32,0,0,1,.57.28,2.14,2.14,0,0,1,.89,1.36l.4,2.17a3.2,3.2,0,0,1,2.19-1.6C171.51,155.58,173.24,156.88,173.66,159.14Zm-2.2.56c-.46-2.49-1.29-3.26-2.35-3.07a2.33,2.33,0,0,0-1.55,1.26l.87,4.74a1.77,1.77,0,0,0,1.87,1.15C171.5,163.56,171.9,162.05,171.46,159.7Z"/><path d="M180.64,162a3.83,3.83,0,0,1-5.47-1.64,4,4,0,0,1,1.8-5.58,3.83,3.83,0,0,1,5.47,1.64A4,4,0,0,1,180.64,162Zm-.14-4.44c-1.09-2.06-2.43-3.13-3.51-2.56s-.94,2.21.13,4.25,2.42,3.1,3.49,2.54S181.56,159.53,180.5,157.52Z"/><path d="M189.65,152.42c-.41,1.33-.68,2.52-1.16,4.62l-1.12,4.88a4.48,4.48,0,0,1-.45,1.19,2.88,2.88,0,0,1-1.14,1.13,3.32,3.32,0,0,1-.64.27,5.29,5.29,0,0,1-.57.15l-.13-1.6c1.1.85,1.81.45,2.25-.23v0l0-.05a3.81,3.81,0,0,0,.38-.85v0h0l.22-1-4.84-7.17,1.33-.24a1.4,1.4,0,0,1,1.44.61l2.7,4,.27-1.12a9.31,9.31,0,0,0-.15-4.28Z"/><path d="M193.35,156.75a1.09,1.09,0,0,0,.1.55c0,.06.06.13.1.2a.25.25,0,0,0,0,.07h0a2.06,2.06,0,0,0,2.14.91,2.85,2.85,0,0,0,2-1.69l.18.07a3.94,3.94,0,0,1-3,2.62,3.65,3.65,0,0,1-4.35-3.19,4,4,0,0,1,2.28-4.54,4.2,4.2,0,0,1,1-.29h.09a3.38,3.38,0,0,1,1.49,0,3.06,3.06,0,0,1,.38.1c1.48.46,2.19,1.54,1.82,2.71-.52,1.68-2.91,1.52-3.87,2h0a.66.66,0,0,0-.31.25s0,0,0,0a.84.84,0,0,0,0,.17A0,0,0,0,0,193.35,156.75Zm.34-1.08.07,0,.07,0c.68-.41,1.59-.78,1.89-1.74a1.63,1.63,0,0,0,.08-.64c-.1-1.55-1.23-1.6-1.6-1.58h-.14a1.58,1.58,0,0,0-.57.22c-.77.51-1.06,1.77-.74,3.5a8.44,8.44,0,0,0,.28,1.08l.06.18.07.16A1.14,1.14,0,0,1,193.69,155.67Z"/><path d="M206,151.54l1,5.55-1.73.32-.56-1s0,0,0,0a3.29,3.29,0,0,1-2.3,1.71,3.1,3.1,0,0,1-1.13,0c-1-.17-1.62-.9-1.87-2.27l-.94-5.09h0l.16,0a2.1,2.1,0,0,1,2.28,1.6.14.14,0,0,1,0,.06s0,0,0,.05l.1.56.49,2.64c.1.54.34,1.87,1.66,1.62a2.32,2.32,0,0,0,1.45-1.2v0l-1.14-6.22.15,0a2.2,2.2,0,0,1,1.43.36,2.07,2.07,0,0,1,.86,1.25s0,0,0,.06A.06.06,0,0,1,206,151.54Z"/><path d="M216.38,155.38l-1.67.3a1.63,1.63,0,0,1-1.39-.38l-2.83-2.5-.49,1.06c-.68,1.46,0,2,.21,2.65l-2.31.43a14.49,14.49,0,0,0,1.87-3.2l.51-1.12-3.74-3.31,1.93-.36a1.09,1.09,0,0,1,.87.24l1.93,1.71a3.59,3.59,0,0,0,.27-2.51l1.63-.3a16.33,16.33,0,0,0-1.69,3Z"/><path d="M218.75,154.42a1,1,0,1,1-.24-1.34A1,1,0,0,1,218.75,154.42Z"/><path d="M221.61,145.69l.16.82,1.91-.35.06.31-1.91.35,1.35,7.31-2.1.38-1.34-7.3-.93.16-.05-.31.92-.17-.12-.55a2.56,2.56,0,0,1,2.16-3.21,4.64,4.64,0,0,1,2.68.36l-.09.19a3.4,3.4,0,0,0-1.45-.1C221.91,143.76,221.38,144.46,221.61,145.69Z"/><path d="M229.6,145.07l.34,1.8h-.07a1.6,1.6,0,0,0-1.3-.34,1.54,1.54,0,0,0-.73.34,1.57,1.57,0,0,0-.47.64h0a1.63,1.63,0,0,0-.13.67s0,.09,0,.13l.9,4.88-2.08.38-1.4-7.61.16,0a2.05,2.05,0,0,1,1.39.37,2.18,2.18,0,0,1,.84,1.25l.06.33v0c.11-1.45.75-2.42,1.82-2.68.26-.06.52-.1.63-.12Z"/><path d="M56.72,204.78a9.49,9.49,0,0,1-8,11.54l-10.55,2,1.1,6L29.85,226,25.16,200.5l20-3.68A9.49,9.49,0,0,1,56.72,204.78Zm-9.46,1.74c-.32-1.75-1.48-1.54-2.43-1.36l-8.73,1.61.64,3.49,8.73-1.61C46.42,208.48,47.58,208.26,47.26,206.52Z"/><path d="M58.5,207.5c-1.62-8.85,2.4-13.95,13.61-16s16.8,1.31,18.42,10.12-2.43,14-13.6,16.08S60.13,216.38,58.5,207.5Zm22.56-4.15c-.48-2.66-1.87-4.89-7.48-3.86s-6.11,3.57-5.62,6.27,1.93,5,7.5,3.92S81.56,206,81.06,203.35Z"/><path d="M118.39,202.13l5.85,6.48L113,210.67l-4.62-5.32-5.57,1,1.1,6-9.46,1.74-4.69-25.48,20-3.68a9.5,9.5,0,0,1,11.55,8A9.61,9.61,0,0,1,118.39,202.13Zm-17-3.76,8.73-1.61c1-.17,2.11-.38,1.79-2.13s-1.49-1.53-2.43-1.36l-8.74,1.61Z"/><path d="M153.56,185.16l-10.92,2,3.22,17.46-9.46,1.75-3.22-17.47-10.92,2-1.47-8,31.3-5.76Z"/><path d="M164.62,183.12l.51,2.73L180.41,183l1.47,8-15.28,2.81,1.24,6.73-9.47,1.74-4.68-25.47,26.93-5,1.47,8Z"/><path d="M183.83,184.44c-1.63-8.84,2.4-13.94,13.61-16s16.79,1.32,18.41,10.12-2.42,14-13.6,16.09S185.46,193.32,183.83,184.44Zm22.56-4.15c-.49-2.65-1.88-4.88-7.48-3.85s-6.12,3.57-5.62,6.26,1.92,5,7.49,3.93S206.88,183,206.39,180.29Z"/><path d="M244.53,178.21l1.47,8L219.8,191l-4.69-25.47,9.46-1.74,3.22,17.47Z"/><path d="M257.06,184.18l-9.46,1.74-4.69-25.48,9.47-1.74Z"/><path d="M256,171.18c-1.63-8.84,2.4-14,13.61-16s16.79,1.31,18.41,10.12-2.42,14-13.59,16.08S257.58,180.06,256,171.18ZM278.51,167c-.49-2.66-1.87-4.89-7.48-3.86s-6.11,3.58-5.62,6.27,1.93,4.95,7.5,3.92S279,169.72,278.51,167Z"/></g><g id="Personnages"><g id="Pop_Corn" data-name="Pop Corn"><polygon points="70.65 78.48 144.94 67.37 144.74 66.08 70.35 76.42 70.65 78.48"/><path d="M70.22,79.05,69.78,76l75.38-10.47.36,2.27Zm.7-2.2.15,1.06,73.3-11-.05-.3Z"/><path d="M100.77,129.2,100,145.88s-17.19-2.64-18,7.58V160l28.17-4.94v-27.4Z"/><path d="M115.37,127.05l3.36,26.07L145.54,148s-4.43-17.62-18.21-10.38l-2.81-12.17Z"/><polygon class="cls-1" points="70.65 78.48 77.67 132.73 153.75 120.48 144.94 67.37 70.65 78.48"/><path d="M77.24,133.31,70.09,78.06l75.27-11.25,9,54.08Zm-6-54.41,6.9,53.26,75.08-12.09-8.65-52.13Z"/><rect x="128.49" y="70.43" width="1" height="53.69" transform="translate(-13.29 20.74) rotate(-8.75)"/><rect x="132.38" y="69.83" width="1" height="53.69" transform="matrix(0.99, -0.15, 0.15, 0.99, -13.16, 21.33)"/><rect x="136.17" y="69.25" width="1" height="53.69" transform="translate(-13.02 21.9) rotate(-8.75)"/><rect x="140.25" y="68.17" width="1" height="53.69" transform="translate(-12.81 22.51) rotate(-8.75)"/><rect x="144.33" y="68.17" width="1" height="53.69" transform="matrix(0.99, -0.15, 0.15, 0.99, -12.76, 23.13)"/><rect x="127.18" y="106.64" width="1" height="18.08" transform="matrix(0.99, -0.15, 0.15, 0.99, -16.11, 20.76)"/><rect x="123.48" y="107.21" width="1" height="18.07" transform="translate(-16.24 20.2) rotate(-8.75)"/><rect x="119.87" y="107.77" width="1" height="18.07" transform="translate(-16.36 19.66) rotate(-8.75)"/><rect x="116.17" y="108.34" width="1" height="18.07" transform="translate(-16.49 19.1) rotate(-8.74)"/><rect x="112.75" y="108.86" width="1" height="18.07" transform="translate(-16.61 18.59) rotate(-8.75)"/><rect x="109.05" y="109.43" width="1" height="18.08" transform="matrix(0.99, -0.15, 0.15, 0.99, -16.74, 18.04)"/><rect x="105.65" y="109.96" width="1" height="18.07" transform="translate(-16.86 17.52) rotate(-8.75)"/><rect x="101.94" y="110.52" width="1" height="18.07" transform="translate(-16.99 16.97) rotate(-8.75)"/><rect x="98.49" y="111.06" width="1" height="18.07" transform="translate(-17.11 16.45) rotate(-8.75)"/><rect x="94.79" y="111.63" width="1" height="18.08" transform="matrix(0.99, -0.15, 0.15, 0.99, -17.24, 15.89)"/><rect x="91.17" y="112.18" width="1" height="18.07" transform="translate(-17.37 15.35) rotate(-8.75)"/><rect x="87.47" y="112.75" width="1" height="18.07" transform="translate(-17.49 14.79) rotate(-8.74)"/><rect x="83.89" y="113.3" width="1" height="18.08" transform="matrix(0.99, -0.15, 0.15, 0.99, -17.62, 14.25)"/><rect x="80.18" y="113.87" width="1" height="18.07" transform="translate(-17.75 13.7) rotate(-8.75)"/><ellipse class="cls-1" cx="73.99" cy="112.36" rx="7.89" ry="4.72" transform="translate(-12.75 9.52) rotate(-6.78)"/><path d="M73,117.65c-3.93,0-7-1.74-7.31-4.3a4.53,4.53,0,0,1,2.09-4,12.49,12.49,0,0,1,11.6-1.38,4.06,4.06,0,0,1,.89,7.49,11.64,11.64,0,0,1-5.63,2.13A13.23,13.23,0,0,1,73,117.65Zm2-9.57a12.83,12.83,0,0,0-1.5.09,10.55,10.55,0,0,0-5.13,1.93,3.59,3.59,0,0,0-1.71,3.14c.27,2.27,3.86,3.79,7.84,3.32a10.57,10.57,0,0,0,5.13-1.93,3.61,3.61,0,0,0,1.71-3.14h0a3.58,3.58,0,0,0-2.39-2.65A9.83,9.83,0,0,0,75,108.08Z"/><ellipse class="cls-1" cx="75.47" cy="122.05" rx="6.96" ry="5.41" transform="translate(-25.85 20.43) rotate(-13.19)"/><path d="M74.68,128.05a8.09,8.09,0,0,1-3.34-.7,5.11,5.11,0,0,1-1.93-8.22,8.54,8.54,0,0,1,4.71-2.83c4-.94,7.87.88,8.61,4h0A5.3,5.3,0,0,1,81.52,125a8.57,8.57,0,0,1-4.7,2.84A9.32,9.32,0,0,1,74.68,128.05Zm1.57-11a8.34,8.34,0,0,0-1.9.22,7.61,7.61,0,0,0-4.16,2.49,4.11,4.11,0,0,0,1.57,6.68,7.95,7.95,0,0,0,9-2.11,4.37,4.37,0,0,0,1-3.76C81.26,118.43,79,117.05,76.25,117.05Z"/><ellipse class="cls-1" cx="78.67" cy="131.32" rx="6.55" ry="5.41" transform="translate(-46.48 43.16) rotate(-23.91)"/><path d="M77.78,137.43a5.88,5.88,0,0,1-5.56-3.25,5.45,5.45,0,0,1,.22-4.7,7.77,7.77,0,0,1,3.84-3.56,7.69,7.69,0,0,1,5.21-.45,5.44,5.44,0,0,1,3.63,3h0c1.32,3-.5,6.68-4.06,8.26A8.12,8.12,0,0,1,77.78,137.43Zm1.79-11.22a7.11,7.11,0,0,0-2.89.63,6.8,6.8,0,0,0-3.35,3.09,4.42,4.42,0,0,0-.19,3.84c1.09,2.48,4.47,3.39,7.52,2s4.64-4.47,3.55-6.94h0a4.49,4.49,0,0,0-3-2.44A6.08,6.08,0,0,0,79.57,126.21Z"/><path class="cls-1" d="M72,90.4l1.67,16.45s-7-.52-7.49-9S72,90.4,72,90.4Z"/><path d="M74.19,107.39l-.6,0c-.07,0-7.48-.64-8-9.44-.17-3.08.51-5.33,2-6.68A5.73,5.73,0,0,1,72,89.9l.38.06Zm-2.8-16.53A4.61,4.61,0,0,0,68.31,92c-1.26,1.14-1.83,3.12-1.68,5.87.36,6.57,4.79,8.08,6.44,8.42l-1.56-15.4Z"/><path d="M115.43,108.42l-25.53,4s1.89,10.3,14.47,8.3S115.43,108.42,115.43,108.42Z"/><path class="cls-2" d="M109.19,115.92a1.13,1.13,0,0,0-.79-1.75c-2.74-.71-8.54.66-6.92,3.53C102.88,120.18,107.76,118.17,109.19,115.92Z"/><path d="M91.57,106.07c-4.49,0-8.78-5.06-9.83-11.82-1.11-7.22,1.9-13.7,6.7-14.43,2.37-.37,4.8.68,6.83,3a17.17,17.17,0,0,1,3.9,8.8c1.11,7.22-1.9,13.69-6.7,14.43A5.46,5.46,0,0,1,91.57,106.07ZM89.36,80.75a6.64,6.64,0,0,0-.77,0c-4.25.66-6.88,6.62-5.86,13.3s5.32,11.56,9.59,10.91,6.89-6.62,5.86-13.29a16.09,16.09,0,0,0-3.66-8.28A7.08,7.08,0,0,0,89.36,80.75Z"/><path d="M110.08,103.22c-4.49,0-8.78-5-9.82-11.82C99.15,84.18,102.15,77.71,107,77c2.37-.37,4.8.68,6.83,3a17.21,17.21,0,0,1,3.9,8.8c1.11,7.22-1.89,13.69-6.7,14.43A5.46,5.46,0,0,1,110.08,103.22ZM107.87,77.9a4.87,4.87,0,0,0-.76.06c-4.26.65-6.89,6.61-5.87,13.29s5.32,11.57,9.59,10.91,6.89-6.61,5.86-13.29A16.16,16.16,0,0,0,113,80.59,7.11,7.11,0,0,0,107.87,77.9Z"/><path d="M91.08,86.41l1.6,4.4-4-2.12s-1.19,9.13,5.75,12.21,3.93-11.39,3.93-11.39-1.11-5.89-5.24-5.66a2.35,2.35,0,0,0-1.94,1.37A1.5,1.5,0,0,0,91.08,86.41Z"/><path d="M109.24,83.1l1.6,4.4-4-2.13s-1.19,9.14,5.75,12.21S116.5,86.2,116.5,86.2s-1.11-5.9-5.24-5.67a2.35,2.35,0,0,0-1.94,1.37A1.52,1.52,0,0,0,109.24,83.1Z"/><polygon class="cls-1" points="152.99 55.24 153.75 64.69 41.16 80.53 41.16 71.58 152.99 55.24"/><path d="M40.66,81.1V71.15L153.44,54.67l.85,10.45-.47.07Zm1-9.08V80L153.22,64.26l-.69-8.44Z"/><rect x="44.23" y="74.27" width="1" height="5.49"/><rect x="48.14" y="73.88" width="1" height="5.59" transform="translate(-0.43 0.28) rotate(-0.33)"/><rect x="51.77" y="73.05" width="1" height="5.9" transform="translate(-1.91 1.35) rotate(-1.45)"/><rect x="55.85" y="72.73" width="1" height="5.3" transform="translate(-1.8 1.38) rotate(-1.38)"/><rect x="59.48" y="72.29" width="1" height="5.49"/><rect x="63.39" y="71.9" width="1" height="5.59" transform="translate(-0.42 0.36) rotate(-0.33)"/><rect x="67.02" y="71.07" width="1" height="5.9" transform="translate(-1.85 1.73) rotate(-1.45)"/><rect x="71.1" y="70.75" width="1" height="5.3" transform="translate(-1.75 1.75) rotate(-1.38)"/><rect x="75" y="69.89" width="1" height="5.49"/><rect x="78.91" y="69.51" width="1" height="5.59" transform="translate(-0.41 0.45) rotate(-0.33)"/><rect x="82.54" y="68.68" width="1" height="5.9" transform="translate(-1.78 2.12) rotate(-1.45)"/><rect x="86.61" y="68.36" width="1" height="5.3" transform="translate(-1.69 2.12) rotate(-1.38)"/><rect x="90.51" y="67.92" width="1" height="5.49"/><rect x="94.42" y="67.53" width="1" height="5.59" transform="translate(-0.4 0.54) rotate(-0.33)"/><rect x="98.06" y="66.7" width="1" height="5.9" transform="translate(-1.73 2.52) rotate(-1.45)"/><rect x="102.13" y="66.38" width="1" height="5.3" transform="translate(-1.64 2.5) rotate(-1.38)"/><rect x="105.86" y="65.91" width="1" height="5.49"/><rect x="109.77" y="65.52" width="1" height="5.59" transform="translate(-0.39 0.63) rotate(-0.33)"/><rect x="113.4" y="64.69" width="1" height="5.9" transform="translate(-1.67 2.9) rotate(-1.45)"/><rect x="117.48" y="64.37" width="1" height="5.3" transform="translate(-1.58 2.86) rotate(-1.38)"/><rect x="121.39" y="63.28" width="1" height="5.49"/><rect x="125.3" y="62.89" width="1" height="5.59" transform="translate(-0.37 0.72) rotate(-0.33)"/><rect x="128.94" y="62.06" width="1" height="5.9" transform="translate(-1.6 3.29) rotate(-1.45)"/><rect x="133.01" y="61.74" width="1" height="5.3" transform="translate(-1.51 3.23) rotate(-1.38)"/><rect x="136.99" y="61.3" width="1" height="5.49"/><rect x="140.9" y="60.91" width="1" height="5.59" transform="translate(-0.36 0.8) rotate(-0.33)"/><rect x="144.53" y="60.08" width="1" height="5.9" transform="translate(-1.54 3.68) rotate(-1.45)"/><rect x="148.61" y="59.76" width="1" height="5.3" transform="translate(-1.46 3.6) rotate(-1.38)"/></g><g id="Tacos"><path d="M186.37,115.76l-8.43,3.63,2.62,13.47s-11.74-7.72-16.79,6.26v6.38l30.9-5.36Z"/><path d="M197.92,110l-5.87,3.32,12.26,25.53,27.51-5.56s-9.26-22.21-22-7Z"/><path class="cls-2" d="M214.39,95.84S191,119.59,161.16,125.46s-22.6-44.3-2.94-56.43S227.28,78.22,214.39,95.84Z"/><path d="M156.65,126.42c-6.76,0-11.73-3.38-14.25-9.79-5.66-14.46,2.62-40,15.56-48,14.13-8.72,43.22-.72,54.61,11.61,5,5.4,5.78,11,2.22,15.92l0,0c-.24.24-23.82,23.92-53.5,29.76A23.63,23.63,0,0,1,156.65,126.42ZM173.15,66c-5.63,0-10.78,1-14.67,3.45-12.6,7.77-20.67,32.71-15.15,46.8,2,5.17,6.75,10.87,17.73,8.71C190,119.28,213.12,96.41,214,95.52c4.12-5.67,1.1-11.08-2.17-14.62C204.06,72.48,187.13,66,173.15,66Z"/><path d="M186.56,94.12l-22,11.93s10.9,12.08,19.21,4.92S186.56,94.12,186.56,94.12Z"/><ellipse class="cls-2" cx="181.21" cy="108.2" rx="4.33" ry="2.22" transform="translate(-29.79 112.91) rotate(-32.12)"/><ellipse class="cls-2" cx="160.55" cy="89.96" rx="7.54" ry="11.98" transform="translate(-22.65 72.41) rotate(-23.79)"/><path d="M163.35,101.84a8.27,8.27,0,0,1-4.54-1.56,17.9,17.9,0,0,1-7.05-16c.42-2.83,1.75-4.87,3.76-5.75s4.41-.49,6.77,1.1a17.84,17.84,0,0,1,7.05,16c-.42,2.82-1.75,4.87-3.76,5.75A5.46,5.46,0,0,1,163.35,101.84Zm-5.6-22.76a4.35,4.35,0,0,0-1.83.38c-1.68.74-2.81,2.5-3.17,5a16.87,16.87,0,0,0,6.62,15c2.07,1.39,4.13,1.76,5.81,1s2.81-2.5,3.17-5A15.59,15.59,0,0,0,167,87.12h0a15.62,15.62,0,0,0-5.26-6.65A7.24,7.24,0,0,0,157.75,79.08Z"/><ellipse class="cls-2" cx="176.23" cy="82.12" rx="7.54" ry="11.98" transform="translate(-18.15 78.07) rotate(-23.79)"/><path d="M179.06,94c-3.68,0-7.89-3.41-10.19-8.63a16.5,16.5,0,0,1-1.43-8.91c.41-2.82,1.75-4.86,3.75-5.75s4.41-.49,6.78,1.1a16.61,16.61,0,0,1,5.61,7.08c2.78,6.29,1.74,12.87-2.32,14.66A5.32,5.32,0,0,1,179.06,94Zm-5.64-22.75a4.34,4.34,0,0,0-1.82.38c-1.68.74-2.81,2.5-3.17,5A15.49,15.49,0,0,0,169.79,85c2.55,5.79,7.52,9.23,11.07,7.67s4.36-7.56,1.81-13.35a15.69,15.69,0,0,0-5.26-6.65A7.27,7.27,0,0,0,173.42,71.24Z"/><path d="M156.35,84.78,157.51,89,159,85s5.27,6,2.39,12.35-8.11-6-8.11-6-2.2-5,.53-7.28a1.65,1.65,0,0,1,1.9-.15A1.32,1.32,0,0,1,156.35,84.78Z"/><path d="M171.58,77.06l1.16,4.16,1.5-4s5.26,6,2.38,12.35-8.1-6-8.1-6-2.21-5,.52-7.27a1.63,1.63,0,0,1,1.9-.16A1.25,1.25,0,0,1,171.58,77.06Z"/><path d="M142.05,93.71s-11.23-12.93,4.26-14.29c0,0-4.93-30.3,21.36-18.64,0,0,10.3-15,18-.85,0,0,16-3.49,14.64,11.4C200.35,71.33,154.26,49.24,142.05,93.71Z"/><path d="M142.29,94.75l-.62-.71c-.22-.26-5.49-6.4-3.68-10.9.94-2.31,3.54-3.71,7.75-4.17-.36-2.67-1.5-14.41,4.82-19.28,3.79-2.92,9.49-2.77,16.94.47,1.09-1.47,5.57-7,10.75-6.79,2.95.15,5.54,2.16,7.72,6,1.61-.29,8-1.15,11.9,2.32,2.37,2.1,3.37,5.36,3,9.69l-.07.71-.65-.31c-.21-.1-21.88-10.29-39.07-2.45-8.95,4.08-15.18,12.33-18.53,24.52Zm15-36.14a9.65,9.65,0,0,0-6.07,1.87c-6.53,5-4.39,18.72-4.37,18.86l.09.53-.54,0c-4.11.36-6.61,1.58-7.43,3.6-1.25,3.1,1.62,7.41,2.91,9.13,3.49-12,9.82-20.12,18.82-24.22,15.9-7.25,35.44.5,39.25,2.16.21-3.64-.7-6.38-2.69-8.14-4.05-3.57-11.32-2-11.39-2l-.37.08-.18-.32c-2-3.72-4.41-5.67-7.07-5.8-5.27-.29-10.07,6.62-10.11,6.69l-.24.34-.38-.17A26.07,26.07,0,0,0,157.24,58.61Z"/><path d="M217,90l-1-.1c2.34-22.56-18.91-28-19.82-28.26l.24-1C196.64,60.74,219.42,66.58,217,90Z"/><path class="cls-2" d="M213.05,72.29s6.76-10.78-8.22-7.7l1.86,1.3a17.72,17.72,0,0,1,3.11,2.76Z"/><path d="M213.12,73.12,209.42,69a17,17,0,0,0-3-2.68l-2.82-2,1.14-.23c5.11-1,8.37-.62,9.7,1.29,1.83,2.65-.85,7-1,7.17Zm-7-8.26.89.62a18.68,18.68,0,0,1,3.19,2.83L213,71.44c.62-1.19,1.78-3.86.65-5.48C212.64,64.57,210.05,64.19,206.09,64.86Z"/><ellipse class="cls-2" cx="219.62" cy="74.8" rx="6.54" ry="4.83" transform="translate(-5.48 18.61) rotate(-4.79)"/><path d="M219.28,80.14c-3.53,0-6.45-2-6.68-4.76-.25-2.93,2.7-5.57,6.57-5.9s7.22,1.8,7.47,4.73h0c.24,2.93-2.71,5.58-6.58,5.9Q219.67,80.14,219.28,80.14Zm.68-9.69c-.23,0-.47,0-.7,0-3.32.28-5.86,2.44-5.66,4.82s3.06,4.09,6.38,3.81,5.86-2.44,5.66-4.82h0C225.45,72.08,223,70.45,220,70.45Z"/><ellipse class="cls-2" cx="223.16" cy="82.73" rx="7.06" ry="4.21" transform="translate(-6.13 18.94) rotate(-4.79)"/><path d="M222.51,87.47a9.92,9.92,0,0,1-4.3-.9,4.1,4.1,0,0,1-2.59-3.2c-.22-2.64,2.92-5,7.14-5.33s7.71,1.43,7.93,4.06a4.07,4.07,0,0,1-2,3.59,10.28,10.28,0,0,1-5.12,1.74C223.2,87.46,222.85,87.47,222.51,87.47ZM223.77,79l-.92,0c-3.55.3-6.4,2.25-6.23,4.25a3.14,3.14,0,0,0,2,2.39,10.26,10.26,0,0,0,9.44-.79,3.16,3.16,0,0,0,1.61-2.69C229.54,80.36,226.92,79,223.77,79Z"/><path class="cls-2" d="M211.5,99.84s14.38,4.68,16.51-6.13-20.26-8.95-8.68,3.57L216,93.71Z"/><path d="M218.11,101.36a24.42,24.42,0,0,1-6.77-1l-.66-.22L215.9,93a4.74,4.74,0,0,1,.35-4.6c1.58-2.25,5.46-3,8.64-1.61a5.93,5.93,0,0,1,3.61,7,8.59,8.59,0,0,1-4.06,6.06A12.49,12.49,0,0,1,218.11,101.36Zm-5.78-1.8c1.95.51,7.73,1.73,11.61-.55a7.62,7.62,0,0,0,3.58-5.39,4.92,4.92,0,0,0-3-5.89c-2.73-1.17-6.13-.59-7.44,1.27s-.38,4.68,2.63,7.94l-.73.68h0l-2.91-3.12Z"/><circle class="cls-2" cx="203.49" cy="68.3" r="0.49"/><path d="M203.49,69.28a1,1,0,1,1,1-1A1,1,0,0,1,203.49,69.28Zm0-1s0,0,0,0Z"/><circle class="cls-2" cx="206.89" cy="70.72" r="0.45"/><path d="M206.89,71.67a.95.95,0,1,1,1-1A.95.95,0,0,1,206.89,71.67Zm0-1,0,0a.06.06,0,0,0,0,.06Z"/><circle class="cls-2" cx="210.15" cy="73.21" r="0.45"/><path d="M210.15,74.16a.95.95,0,1,1,0-1.89.95.95,0,0,1,0,1.89Zm0-1-.06,0a.06.06,0,0,0,.06.06Z"/></g><rect id="socle" x="18.82" y="147.05" width="264.2" height="3.29" transform="translate(-24.41 29.76) rotate(-10.42)"/></g><g id="Assets"><rect x="240.53" y="139.72" width="1" height="13.27" transform="translate(-23.66 49.11) rotate(-11.09)"/><rect x="244.47" y="138.94" width="1" height="13.27" transform="translate(-23.43 49.85) rotate(-11.09)"/><rect x="248.74" y="138.11" width="1" height="13.27" transform="translate(-23.19 50.66) rotate(-11.09)"/><rect x="252.67" y="137.34" width="1" height="13.27" transform="translate(-22.97 51.4) rotate(-11.09)"/><rect x="256.93" y="136.5" width="1" height="13.27" transform="translate(-22.73 52.21) rotate(-11.09)"/><rect x="260.86" y="135.73" width="1" height="13.27" transform="translate(-22.51 52.95) rotate(-11.09)"/><rect x="265.13" y="134.89" width="1" height="13.27" transform="translate(-22.27 53.76) rotate(-11.09)"/><rect x="269.07" y="134.12" width="1" height="13.27" transform="translate(-22.05 54.5) rotate(-11.09)"/><rect x="272.98" y="133.35" width="1" height="13.27" transform="translate(-21.83 55.24) rotate(-11.09)"/><rect x="276.91" y="132.58" width="1" height="13.27" transform="translate(-21.6 55.98) rotate(-11.09)"/><rect x="281.19" y="131.74" width="1" height="13.27" transform="translate(-21.36 56.79) rotate(-11.09)"/><rect x="23.4" y="178.69" width="1" height="13.27" transform="translate(-35.21 8.06) rotate(-11.09)"/><rect x="27.34" y="177.92" width="1" height="13.27" transform="translate(-34.99 8.81) rotate(-11.09)"/><rect x="31.61" y="177.08" width="1" height="13.27" transform="translate(-34.75 9.61) rotate(-11.09)"/><rect x="35.55" y="176.31" width="1" height="13.27" transform="translate(-34.53 10.35) rotate(-11.09)"/><rect x="39.8" y="175.47" width="1" height="13.27" transform="translate(-34.29 11.16) rotate(-11.09)"/><rect x="43.74" y="174.7" width="1" height="13.27" transform="translate(-34.06 11.9) rotate(-11.09)"/><rect x="48.01" y="173.86" width="1" height="13.27" transform="translate(-33.83 12.71) rotate(-11.09)"/><rect x="51.95" y="173.09" width="1" height="13.27" transform="translate(-33.6 13.45) rotate(-11.09)"/><rect x="55.85" y="172.33" width="1" height="13.27" transform="translate(-33.38 14.19) rotate(-11.09)"/><rect x="59.79" y="171.55" width="1" height="13.27" transform="translate(-33.16 14.93) rotate(-11.09)"/><rect x="64.06" y="170.72" width="1" height="13.27" transform="translate(-32.91 15.73) rotate(-11.09)"/><circle cx="76.43" cy="47.52" r="2.27"/><path d="M76.43,50.3a2.78,2.78,0,1,1,2.78-2.78A2.78,2.78,0,0,1,76.43,50.3Zm0-4.55a1.78,1.78,0,1,0,1.78,1.77A1.78,1.78,0,0,0,76.43,45.75Z"/></g><path d="M21.51,237,10.17,175.35A142.19,142.19,0,0,1,124.29,9.78l4-.72a140.84,140.84,0,0,1,164,113l11.59,63-1,.18ZM153.78,8.72A139.57,139.57,0,0,0,128.6,11l-3.95.73C48.62,25.73-1.85,99,12.13,175l11,59.72L301.5,183.5l-11.23-61C278,55.62,219.44,8.72,153.78,8.72Z"/></g></g></svg>