<svg xmlns="http://www.w3.org/2000/svg" viewBox="0 0 92.63 117.11"><defs><style>.cls-1,.cls-4{fill:#fff;}.cls-2{fill:none;}.cls-2,.cls-3,.cls-4{stroke:#000;stroke-miterlimit:10;}</style></defs><g id="Calque_2" data-name="Calque 2"><g id="Étiquette_11" data-name="Étiquette 11"><g id="Forme"><rect class="cls-1" x="9.79" width="69.62" height="117.11" rx="5.28"/><path class="cls-1" d="M9.79,38.7S4,54.09,3.89,57.21s-.57,9.19,8,10S23.3,62.45,23.3,62.45Z"/><path class="cls-1" d="M11.46,85.65s-25.22,4.28-.83,7.21"/><path class="cls-1" d="M78.08,86.72s32.43,4.56.47,7"/><path class="cls-1" d="M78.08,61.17s3.94-1.53,5.09.51-.26,8.55-3.45,11a30.71,30.71,0,0,1-5.49,3.45l3.85-14.62"/><path class="cls-1" d="M78.9,36.91V56.64l1.91-8.43S83,45.34,83,42.91,81.8,37.62,78.9,36.91Z"/><rect class="cls-2" x="14.21" y="4.26" width="61.79" height="109.96" rx="2.94"/></g><g id="Personnage"><path class="cls-2" d="M35.36,61.23s2.81,4.86-5,19.86c0,0,.77-5.49-9.32-4.6l3.19,15.64h22.6S46,78.72,36.13,83.57A31.85,31.85,0,0,0,43,64.11Z"/><path class="cls-2" d="M49.23,63.53S56,69.64,57.06,74"/><path class="cls-2" d="M56.93,62A24.35,24.35,0,0,1,62,67.52"/><path class="cls-2" d="M77.9,62.2c-4-.5-12.16.93-18,7.76a20.71,20.71,0,0,0-5.06,15c.16,1.92.59,2.87,1.32,3.4,2,1.44,5.52-.92,8.4-2.9A21.84,21.84,0,0,0,68,82.5c2.28-2.41,6.73-7.33,13-15.22A3.57,3.57,0,0,0,81.62,64a2.26,2.26,0,0,0-.58-.74A5,5,0,0,0,77.9,62.2Z"/><path class="cls-3" d="M77.62,64.26c-3.56,1.45-6.8,5.4-9.79,8.46A127.26,127.26,0,0,0,58.18,83c-.65.83-2,2.62-1.46,4.19a2.24,2.24,0,0,0,.81,1.11c1.66,1,5.65-2.4,10-6.26C68.4,81.31,81.2,70,81.23,65.57A2,2,0,0,0,80.72,64C79.88,63.33,78.22,64,77.62,64.26Z"/><path class="cls-2" d="M49.44,53.64c.09-1.93,1.2-3.44,2.53-3.71,1.72-.34,3.27,1.51,3.64,3,.69,2.9-2.31,7.12-6,7.28s-7-3.77-6.55-6.86c.22-1.6,1.54-3.75,3.34-3.64C47.88,49.84,49.31,51.44,49.44,53.64Z"/><path class="cls-2" d="M45.76,53.66a3.53,3.53,0,0,0,7.05-.09"/><polyline class="cls-2" points="29.3 43.23 41.06 49.74 41.06 63.37 57.06 63.37 56.59 48.21"/><path class="cls-2" d="M20.13,54l20.49,9.19"/><path class="cls-2" d="M57,49.53A12.38,12.38,0,0,0,62,56c1.61.92,2.33.66,2.55.56a2.86,2.86,0,0,0,1.07-3.32c-.39-1.12-1.27-1-2.56-2.47a7.17,7.17,0,0,1-1.78-3.7c-.1-.78-.36-2.74,1-4s3.7-.92,4-.85a5.55,5.55,0,0,1,3.74,3.49c.13.39,1,2.87-.46,4.13A3.49,3.49,0,0,1,66,50a4.39,4.39,0,0,1-2.26-3.11"/><path class="cls-2" d="M63.58,42.29a3.8,3.8,0,0,1-.22-.42,4.5,4.5,0,0,1,.38-4,4,4,0,0,1,6.05-1.27c1.71,1.26,1.86,3.42,2,5.36,0,.62.21,3.18-.69,3.49A1.25,1.25,0,0,1,70,45.06"/><path class="cls-2" d="M70.66,36.79a3.88,3.88,0,0,1,2.42-.55A4.3,4.3,0,0,1,76,38.35a6.81,6.81,0,0,1,.69,4.92c-.21,1.51-.41,3-1.53,3.51a2.94,2.94,0,0,1-2.81-.35,3,3,0,0,1-.86-1"/><path class="cls-2" d="M75.67,37.36a4.21,4.21,0,0,1,1.5.13,5.39,5.39,0,0,1,3.19,3,6.77,6.77,0,0,1,.45,4.4,3.91,3.91,0,0,1-1.41,2.75A3.37,3.37,0,0,1,77,48a3.83,3.83,0,0,1-1.85-.89"/><path class="cls-2" d="M77.15,48.47a13.4,13.4,0,0,1,.42,6.25,11.43,11.43,0,0,1-3.91,7.15,9.81,9.81,0,0,1-.86.59"/><path class="cls-2" d="M31.91,49.55a34.17,34.17,0,0,0-6.32-11.49c-2.13-2.51-3.67-3.5-5.42-3.76a7.33,7.33,0,0,0-4.47.83,8.89,8.89,0,0,0-3.57,4c-1.8,3.28-2.87,6.17-5.49,16.46a10.31,10.31,0,0,0-.07,5.94,5.65,5.65,0,0,0,2.17,3.06c.21.14,1.78,1.15,2.49.64s.39-2.53-.7-5"/><path class="cls-2" d="M12,63.6a2.54,2.54,0,0,0,2.21,1.72,2.28,2.28,0,0,0,1.94-.83,3,3,0,0,0-1-3.83"/><path class="cls-2" d="M16.66,64.3A4.11,4.11,0,0,0,20,65a3.44,3.44,0,0,0,2.62-2.55,3.49,3.49,0,0,0-2.87-3.58"/><path class="cls-2" d="M20.36,58.74a2.21,2.21,0,0,0,2.55-.57,2.17,2.17,0,0,0,.26-1.91,2.85,2.85,0,0,0-2.36-1.86"/><path class="cls-3" d="M19.85,54a3.85,3.85,0,0,1-1.32-2.59c-.26-1.61,0-4.16,1.26-4.52.89-.25,2.05.71,2.57,1.6.24.4.23.6.13,4.49,0,.76,0,1.21-.36,1.47C21.57,54.9,20.49,54.5,19.85,54Z"/><polyline class="cls-2" points="30 25.71 28.82 24.53 22.76 35.35"/><line class="cls-2" x1="36.38" y1="28.27" x2="43.59" y2="32.61"/><path class="cls-2" d="M36.16,27.56V37.81s0,2.33-2.87,2.07S30,37.65,30,37.65V27.56Z"/><circle class="cls-2" cx="43.59" cy="42.24" r="5.46"/><circle class="cls-2" cx="54.51" cy="42.77" r="5.46"/><rect class="cls-3" x="30" y="25.45" width="6.16" height="1.34"/><path class="cls-3" d="M23.74,91.31H11.63a23,23,0,0,1-5.23-.57c-5.45-1.28-1-2.56,1.3-3.08a11,11,0,0,1,2.14-.26l13-.2"/><ellipse class="cls-3" cx="74.98" cy="90.2" rx="11.49" ry="1.71"/><path d="M48.69,42.44a3.77,3.77,0,1,1-4.1-3.71,6,6,0,0,1,1.48.19l-.67,3,2.33-1.82A7.48,7.48,0,0,1,48.69,42.44Z"/><path d="M59.6,42.67A3.76,3.76,0,1,1,55.51,39a6.1,6.1,0,0,1,1.48.19l-.67,3,2.33-1.82A7.55,7.55,0,0,1,59.6,42.67Z"/><ellipse class="cls-4" cx="44.75" cy="34.73" rx="2.53" ry="4.4" transform="translate(5.6 75.67) rotate(-84.1)"/><ellipse class="cls-4" cx="54.2" cy="35.05" rx="4.4" ry="2.53" transform="translate(-2.39 4.01) rotate(-4.15)"/></g><g id="Text"><path d="M30.28,15.66H27.94V9.36h2.34Z"/><path d="M43.91,14.53H41.23l-.43,1.13H38.22l2.61-6.3h3.48l2.61,6.3H44.34ZM43.3,12.9,42.57,11l-.73,1.92Z"/><path d="M58.78,15.66H56.44v-3l-1.72,3H53.19l-1.72-3v3H49.13V9.36H52L54,13l1.94-3.6h2.88Z"/><path d="M21.11,105.05v.53h2.95v1.54H21.11v1.29H19.29v-4.9h5.19v1.54Z"/><path d="M29.54,107l.87,1.4H28.25l-.68-1.14H26.5v1.14H24.68v-4.9h3.85a1.8,1.8,0,0,1,1.88,1.88A1.83,1.83,0,0,1,29.54,107Zm-3-1.29h1.68c.19,0,.41,0,.41-.33s-.22-.34-.41-.34H26.5Z"/><path d="M32.44,104.91v.46H35.8v1.19H32.44V107H35.8v1.4H30.62v-4.9H35.8v1.4Z"/><path d="M37.83,104.91v.46h3.36v1.19H37.83V107h3.36v1.4H36v-4.9h5.18v1.4Z"/><path d="M46.44,106.87v1.54h-5v-4.9h1.82v3.36Z"/><path d="M51,107.53H48.92l-.34.88h-2l2-4.9h2.7l2,4.9h-2Zm-.47-1.26-.57-1.5-.57,1.5Z"/><path d="M59.8,103.51v4.9H57.42l-2.12-2.89v2.89H53.48v-4.9h2.38L58,106.4v-2.89Z"/><path d="M63,103.44c2,0,3,.69,3.06,2.24H64.21c-.07-.47-.42-.7-1.19-.7-1.08,0-1.27.46-1.27,1s.19,1,1.27,1c.77,0,1.12-.23,1.19-.7h1.87c-.08,1.55-1.1,2.24-3.06,2.24-2.16,0-3.09-.82-3.09-2.52S60.86,103.44,63,103.44Z"/><path d="M68.1,104.91v.46h3.37v1.19H68.1V107h3.37v1.4H66.28v-4.9h5.19v1.4Z"/><path d="M60,24.86v0a.88.88,0,0,1-.43.12.38.38,0,0,1-.37-.2,1.14,1.14,0,0,1-.68.21c-.48,0-.8-.25-.8-.64,0-.66,1.06-.78,1.06-1.11a.14.14,0,0,0-.11-.14h0a.28.28,0,0,0-.13,0,.56.56,0,0,0-.21.08l-.07-.1a.81.81,0,0,1,.73-.24,1,1,0,0,1,.81,1h0v.74c0,.18,0,.29.18.29Zm-.82-.14h0v-1h0c0-.49,0-.8-.29-.84-.1,0-.17.05-.24.16a.24.24,0,0,1,.25.23c0,.34-.57.53-.57,1a.46.46,0,0,0,.5.48A.75.75,0,0,0,59.19,24.72Z"/><path d="M60.31,22.37a.29.29,0,0,1,.34-.33.28.28,0,0,1-.11.55A.3.3,0,0,1,60.31,22.37Zm.56,1.11V25h-.56V22.91A.56.56,0,0,1,60.87,23.48Z"/><path d="M62.81,26.89a1.29,1.29,0,0,1-.17.64,1,1,0,0,1-.55.44,1.06,1.06,0,0,1-.31,0,.77.77,0,0,1-.51-.17v1H60.7v-2.7h.11a.29.29,0,0,0,.46,0,.93.93,0,0,1,.57-.32h.08a.82.82,0,0,1,.61.27A1.1,1.1,0,0,1,62.81,26.89Zm-.6.05c0-.68-.19-.92-.48-.92a.53.53,0,0,0-.23.06h0a.67.67,0,0,0-.23.19v1.28c.07.24.22.4.43.4a.4.4,0,0,0,.37-.26A1.67,1.67,0,0,0,62.21,26.94Z"/><path d="M64.73,27.35c0,.36-.29.66-.85.66a2,2,0,0,1-.78-.15l.12-.4c.26,0,.39.5.71.5s.45-.14.45-.34-.22-.32-.47-.41l-.16-.06c-.22-.09-.62-.24-.62-.65s.28-.64.81-.64a1.74,1.74,0,0,1,.68.14l-.12.42c-.15-.07-.32-.51-.62-.51s-.4.14-.4.31.24.32.47.41l.16.06C64.33,26.78,64.73,26.92,64.73,27.35Z"/><path d="M67.12,28h-.57v-.28a.86.86,0,0,1-.66.32A.94.94,0,0,1,65,27a1.05,1.05,0,0,1,1-1.12.77.77,0,0,1,.51.17V25a.56.56,0,0,1,.57.57v1.74C67.11,27.51,67.12,27.8,67.12,28Zm-.57-1.66h0a.48.48,0,0,0-.44-.38c-.32,0-.5.38-.5,1s.19.91.48.91a.59.59,0,0,0,.46-.25Z"/><path d="M57.5,30.8h-.45a.46.46,0,0,1-.35-.17l-.62-.79-.18.25a.67.67,0,0,0-.07.71H55.2a3.48,3.48,0,0,0,.64-.75l.19-.27-.82-1.05h.52a.29.29,0,0,1,.22.1l.42.54a.94.94,0,0,0,.2-.64H57a4.38,4.38,0,0,0-.59.7Z"/><path d="M59.65,30.8h-.58v-.29a.87.87,0,0,1-.66.33.94.94,0,0,1-.89-1,1.06,1.06,0,0,1,1-1.12.77.77,0,0,1,.51.17v-1a.54.54,0,0,1,.43.19.52.52,0,0,1,.14.37v1.74C59.64,30.34,59.65,30.63,59.65,30.8Zm-.58-1.66h0a.48.48,0,0,0-.43-.39c-.33,0-.51.39-.51,1s.19.91.49.91a.58.58,0,0,0,.45-.25Z"/></g></g></g></svg>